<?xml version="1.0" standalone="no"?>
<!DOCTYPE svg PUBLIC "-//W3C//DTD SVG 1.1//EN" "http://www.w3.org/Graphics/SVG/1.1/DTD/svg11.dtd">
<svg version="1.1" xmlns="http://www.w3.org/2000/svg" viewBox="0 0 227.15084171118906 202.90740776064467" width="454.3016834223781" height="405.81481552128935"><!-- svg-source:excalidraw --><metadata></metadata><defs><style class="style-fonts">
      </style></defs><g transform="translate(45.77416035397664 10) rotate(0 52.66752859634107 82.47934152721496)" stroke="none"><path fill="#ffffff" d="M 3.08,-1.96 Q 3.08,-1.96 6.96,4.39 10.84,10.75 15.84,17.98 20.84,25.22 26.86,32.22 32.89,39.22 36.66,44.03 40.43,48.83 42.31,51.53 44.18,54.22 43.80,57.34 43.41,60.45 40.34,62.07 37.27,63.68 31.15,64.62 25.03,65.56 17.46,67.01 9.90,68.45 2.12,70.17 -5.65,71.89 -12.34,73.72 -19.03,75.55 -22.97,76.87 -26.92,78.18 -29.11,78.99 -31.31,79.80 -31.71,79.89 -32.10,79.97 -32.51,79.96 -32.91,79.95 -33.30,79.84 -33.69,79.73 -34.04,79.53 -34.39,79.33 -34.69,79.06 -34.98,78.78 -35.20,78.44 -35.42,78.10 -35.55,77.72 -35.68,77.34 -35.72,76.94 -35.75,76.54 -35.69,76.14 -35.63,75.74 -35.48,75.36 -35.32,74.99 -35.09,74.67 -34.85,74.34 -34.54,74.08 -34.23,73.82 -33.86,73.65 -33.50,73.47 -31.23,74.66 -28.96,75.84 -21.99,76.47 -15.02,77.09 -7.64,78.65 -0.25,80.21 9.89,83.81 20.04,87.41 32.27,91.80 44.49,96.18 56.13,102.13 67.77,108.08 77.32,114.08 86.87,120.08 96.08,126.65 105.30,133.22 110.96,137.76 116.62,142.30 121.34,146.55 126.06,150.80 129.14,153.03 132.22,155.25 134.47,157.44 136.72,159.62 139.53,160.43 142.35,161.23 142.91,161.53 143.47,161.82 143.91,162.28 144.35,162.74 144.62,163.32 144.88,163.89 144.95,164.53 145.02,165.16 144.89,165.78 144.75,166.40 144.43,166.94 144.10,167.49 143.62,167.90 143.14,168.31 142.55,168.55 141.96,168.78 141.32,168.82 140.69,168.86 140.08,168.69 139.46,168.52 138.94,168.16 138.41,167.81 138.03,167.30 137.64,166.80 137.44,166.20 137.23,165.60 137.23,164.96 137.23,164.33 137.43,163.73 137.63,163.12 138.02,162.62 138.40,162.11 138.92,161.75 139.45,161.40 140.06,161.22 140.67,161.05 141.31,161.09 141.94,161.12 142.53,161.35 143.12,161.59 143.61,162.00 144.09,162.41 144.42,162.95 144.75,163.49 144.89,164.11 145.02,164.73 144.96,165.36 144.89,166.00 144.62,166.57 144.36,167.15 143.92,167.61 143.49,168.07 142.93,168.37 142.37,168.67 141.74,168.77 141.11,168.88 140.49,168.78 139.86,168.68 139.86,168.68 139.86,168.68 135.89,166.31 131.92,163.95 130.37,161.85 128.82,159.75 125.64,157.27 122.47,154.79 117.86,150.66 113.24,146.53 107.68,142.11 102.13,137.68 93.03,131.23 83.92,124.78 74.56,118.96 65.21,113.13 53.88,107.40 42.55,101.67 30.30,97.39 18.06,93.11 8.28,89.76 -1.49,86.41 -8.72,85.08 -15.96,83.74 -21.07,83.16 -26.19,82.58 -28.75,81.19 -31.31,79.80 -31.71,79.89 -32.10,79.97 -32.51,79.96 -32.91,79.95 -33.30,79.84 -33.69,79.73 -34.04,79.53 -34.39,79.33 -34.68,79.06 -34.98,78.78 -35.20,78.44 -35.42,78.10 -35.55,77.72 -35.68,77.34 -35.72,76.94 -35.75,76.54 -35.69,76.14 -35.63,75.74 -35.48,75.36 -35.32,74.99 -35.09,74.67 -34.85,74.34 -34.54,74.08 -34.23,73.82 -33.86,73.65 -33.50,73.47 -31.15,73.10 -28.80,72.74 -24.72,71.28 -20.65,69.83 -13.85,67.84 -7.06,65.85 0.75,63.94 8.57,62.03 16.19,60.33 23.81,58.63 31.16,58.01 38.52,57.39 37.19,54.93 35.87,52.47 32.10,47.83 28.33,43.19 22.00,36.04 15.66,28.89 10.40,21.63 5.15,14.38 1.03,8.17 -3.08,1.96 -3.27,1.56 -3.46,1.16 -3.55,0.73 -3.64,0.30 -3.62,-0.13 -3.60,-0.57 -3.48,-0.99 -3.36,-1.42 -3.14,-1.80 -2.92,-2.18 -2.62,-2.50 -2.31,-2.82 -1.94,-3.05 -1.57,-3.29 -1.15,-3.43 -0.74,-3.57 -0.30,-3.61 0.13,-3.65 0.57,-3.58 1.00,-3.51 1.41,-3.34 1.81,-3.16 2.17,-2.90 2.52,-2.64 2.80,-2.30 3.08,-1.96 3.08,-1.96 L 3.08,-1.96 Z"></path></g><g transform="translate(55.71143133093483 15.962347423102528) rotate(0 68.56718490408184 72.54208950409725)" stroke="none"><path fill="#ffffff" d="M 1.51,-2.73 Q 1.51,-2.73 6.62,0.18 11.73,3.10 19.70,8.41 27.67,13.73 37.99,22.35 48.31,30.97 59.55,41.52 70.79,52.06 81.84,62.83 92.89,73.60 101.69,84.58 110.49,95.56 116.51,104.25 122.54,112.94 126.26,118.94 129.97,124.95 132.19,129.93 134.41,134.90 136.01,137.30 137.62,139.70 138.91,141.52 140.19,143.35 140.39,143.88 140.59,144.42 140.60,144.98 140.62,145.55 140.45,146.10 140.28,146.64 139.95,147.11 139.62,147.57 139.16,147.90 138.69,148.23 138.15,148.40 137.60,148.57 137.04,148.55 136.47,148.54 135.93,148.34 135.40,148.14 134.95,147.79 134.51,147.43 134.20,146.95 133.89,146.47 133.76,145.92 133.62,145.36 133.67,144.80 133.71,144.23 133.94,143.71 134.16,143.18 134.54,142.76 134.92,142.33 135.42,142.05 135.92,141.77 136.47,141.67 137.03,141.56 137.60,141.64 138.16,141.71 138.67,141.97 139.18,142.22 139.59,142.62 139.99,143.03 140.24,143.54 140.50,144.05 140.57,144.61 140.65,145.17 140.54,145.73 140.43,146.29 140.15,146.79 139.87,147.29 139.45,147.67 139.03,148.05 138.50,148.27 137.98,148.50 137.41,148.54 136.84,148.59 136.29,148.45 135.74,148.31 135.26,148.01 134.78,147.70 134.42,147.26 134.06,146.81 134.06,146.81 134.06,146.81 133.16,144.77 132.26,142.73 130.91,139.89 129.56,137.06 127.50,132.41 125.44,127.75 121.79,121.87 118.14,115.99 112.20,107.46 106.27,98.93 97.68,88.22 89.09,77.50 78.05,66.80 67.01,56.10 55.86,45.70 44.70,35.30 34.60,26.93 24.49,18.55 16.66,13.43 8.83,8.32 3.65,5.52 -1.51,2.73 -1.82,2.50 -2.12,2.28 -2.36,2.00 -2.61,1.71 -2.77,1.37 -2.94,1.03 -3.02,0.67 -3.10,0.30 -3.10,-0.07 -3.09,-0.45 -2.99,-0.81 -2.89,-1.17 -2.71,-1.50 -2.52,-1.83 -2.27,-2.11 -2.01,-2.38 -1.70,-2.59 -1.38,-2.80 -1.03,-2.92 -0.67,-3.05 -0.30,-3.08 0.07,-3.12 0.44,-3.06 0.81,-3.01 1.16,-2.87 1.51,-2.73 1.51,-2.73 L 1.51,-2.73 Z"></path></g><g transform="translate(197.64999009653457 161.88333640528072) rotate(0 9.750425807327247 -2.659207806851782)" stroke="none"><path fill="#ffffff" d="M -1.83,-0.66 Q -1.83,-0.66 -0.73,-3.44 0.36,-6.21 1.64,-8.96 2.92,-11.71 4.24,-14.40 5.57,-17.08 6.37,-19.17 7.17,-21.25 7.75,-23.15 8.33,-25.05 8.47,-26.13 8.61,-27.22 8.88,-27.67 9.14,-28.11 9.22,-28.33 9.30,-28.54 9.43,-28.73 9.55,-28.92 9.72,-29.07 9.89,-29.23 10.09,-29.33 10.29,-29.44 10.51,-29.50 10.73,-29.56 10.96,-29.56 11.19,-29.56 11.41,-29.51 11.63,-29.46 11.84,-29.35 12.04,-29.25 12.21,-29.10 12.38,-28.95 12.51,-28.77 12.65,-28.58 12.73,-28.37 12.81,-28.16 12.84,-27.93 12.87,-27.70 12.85,-27.48 12.82,-27.25 13.61,-25.05 14.40,-22.86 14.78,-19.37 15.17,-15.88 15.57,-11.60 15.96,-7.33 16.62,-3.27 17.28,0.77 18.05,4.00 18.82,7.22 19.16,10.49 19.50,13.77 19.88,15.83 20.26,17.89 20.66,20.39 21.06,22.89 21.05,23.14 21.03,23.40 20.93,23.63 20.84,23.87 20.67,24.06 20.50,24.25 20.28,24.38 20.06,24.51 19.81,24.56 19.56,24.62 19.31,24.59 19.06,24.55 18.83,24.45 18.60,24.34 18.41,24.16 18.23,23.98 18.11,23.75 18.00,23.53 17.96,23.28 17.92,23.02 17.96,22.77 18.01,22.52 18.13,22.30 18.25,22.07 18.44,21.90 18.63,21.73 18.86,21.62 19.09,21.52 19.35,21.49 19.60,21.47 19.85,21.53 20.10,21.58 20.31,21.72 20.53,21.85 20.69,22.05 20.86,22.24 20.95,22.48 21.04,22.72 21.05,22.98 21.06,23.23 20.99,23.48 20.92,23.72 20.77,23.93 20.63,24.14 20.42,24.29 20.22,24.44 19.97,24.52 19.73,24.60 19.48,24.60 19.22,24.59 18.98,24.51 18.74,24.42 18.54,24.27 18.34,24.11 18.20,23.90 18.06,23.69 17.99,23.44 17.93,23.19 17.93,23.19 17.93,23.19 17.74,20.80 17.55,18.40 17.13,16.23 16.70,14.07 16.36,10.99 16.02,7.91 15.18,4.59 14.34,1.27 13.60,-2.86 12.86,-7.01 12.38,-11.23 11.89,-15.46 11.41,-18.79 10.92,-22.12 10.57,-23.81 10.22,-25.49 9.68,-26.80 9.14,-28.11 9.22,-28.33 9.30,-28.54 9.43,-28.73 9.55,-28.92 9.72,-29.07 9.89,-29.23 10.09,-29.33 10.29,-29.44 10.51,-29.50 10.73,-29.56 10.96,-29.56 11.19,-29.56 11.41,-29.51 11.63,-29.46 11.84,-29.35 12.04,-29.25 12.21,-29.10 12.38,-28.95 12.51,-28.77 12.65,-28.58 12.73,-28.37 12.81,-28.16 12.84,-27.93 12.87,-27.71 12.85,-27.48 12.82,-27.25 12.36,-26.78 11.90,-26.31 11.54,-25.24 11.18,-24.17 10.58,-22.19 9.97,-20.22 9.18,-17.98 8.39,-15.74 7.17,-13.06 5.94,-10.38 4.83,-7.68 3.71,-4.99 2.77,-2.16 1.83,0.66 1.72,0.87 1.62,1.08 1.46,1.26 1.31,1.44 1.12,1.57 0.93,1.71 0.71,1.80 0.49,1.88 0.25,1.92 0.02,1.95 -0.20,1.92 -0.44,1.90 -0.66,1.82 -0.88,1.74 -1.07,1.60 -1.27,1.47 -1.43,1.30 -1.59,1.13 -1.70,0.92 -1.81,0.71 -1.87,0.48 -1.93,0.26 -1.93,0.02 -1.94,-0.20 -1.88,-0.43 -1.83,-0.66 -1.83,-0.66 L -1.83,-0.66 Z"></path></g><g transform="translate(185.24034802896767 175.17936698615085) rotate(0 2.216022003588705 8.86402038724691)" stroke="none"><path fill="#ffffff" d="M 0.79,1.44 Q 0.79,1.44 -2.03,2.93 -4.85,4.42 -7.80,6.29 -10.74,8.15 -14.55,10.73 -18.36,13.30 -20.56,14.26 -22.75,15.22 -20.84,15.49 -18.92,15.76 -15.85,15.66 -12.77,15.55 -8.41,15.01 -4.05,14.48 0.89,13.99 5.85,13.51 10.50,13.06 15.15,12.61 19.15,12.16 23.16,11.72 25.39,11.53 27.63,11.35 29.39,10.77 31.16,10.20 31.39,10.12 31.62,10.03 31.86,10.03 32.11,10.02 32.34,10.09 32.57,10.16 32.77,10.30 32.97,10.44 33.12,10.64 33.26,10.84 33.33,11.08 33.40,11.31 33.40,11.55 33.39,11.80 33.31,12.03 33.23,12.26 33.07,12.45 32.92,12.64 32.71,12.77 32.51,12.91 32.27,12.97 32.03,13.03 31.79,13.01 31.54,12.99 31.32,12.89 31.09,12.80 30.91,12.63 30.73,12.47 30.61,12.26 30.49,12.04 30.44,11.80 30.39,11.56 30.43,11.32 30.46,11.08 30.57,10.86 30.67,10.64 30.85,10.47 31.02,10.29 31.24,10.18 31.46,10.07 31.70,10.04 31.94,10.01 32.18,10.05 32.42,10.10 32.64,10.22 32.85,10.34 33.01,10.52 33.18,10.70 33.28,10.92 33.37,11.15 33.39,11.39 33.41,11.64 33.36,11.87 33.30,12.11 33.17,12.32 33.03,12.53 32.84,12.68 32.65,12.83 32.65,12.83 32.65,12.83 30.26,13.43 27.86,14.03 25.66,14.23 23.47,14.43 19.44,14.89 15.42,15.35 10.78,15.83 6.13,16.30 1.22,16.81 -3.69,17.32 -8.17,17.92 -12.65,18.51 -15.99,18.67 -19.33,18.82 -21.80,18.33 -24.27,17.83 -24.71,16.64 -25.14,15.45 -22.57,13.18 -19.99,10.91 -16.18,8.28 -12.36,5.65 -9.36,3.67 -6.35,1.68 -3.57,0.11 -0.79,-1.44 -0.60,-1.52 -0.42,-1.59 -0.22,-1.62 -0.02,-1.65 0.17,-1.63 0.36,-1.60 0.55,-1.54 0.74,-1.47 0.90,-1.36 1.07,-1.25 1.20,-1.10 1.34,-0.95 1.43,-0.78 1.53,-0.61 1.58,-0.41 1.63,-0.22 1.63,-0.02 1.64,0.17 1.59,0.36 1.55,0.56 1.46,0.73 1.37,0.91 1.24,1.06 1.11,1.21 0.95,1.33 0.79,1.44 0.79,1.44 L 0.79,1.44 Z"></path></g></svg>