<?xml version="1.0" standalone="no"?>
<!DOCTYPE svg PUBLIC "-//W3C//DTD SVG 1.1//EN" "http://www.w3.org/Graphics/SVG/1.1/DTD/svg11.dtd">
<svg version="1.1" xmlns="http://www.w3.org/2000/svg" viewBox="0 0 164.36949472576453 100.54299141300913" width="328.73898945152905" height="201.08598282601827"><!-- svg-source:excalidraw --><metadata></metadata><defs><style class="style-fonts">
      </style></defs><g transform="translate(19.877935985485237 10) rotate(0 62.306811377397025 40.27149570650457)" stroke="none"><path fill="#1e1e1e" d="M 1.45,0.58 Q 1.45,0.58 0.54,2.75 -0.36,4.92 -1.62,8.02 -2.89,11.13 -4.30,15.25 -5.70,19.36 -6.51,23.64 -7.31,27.91 -6.37,32.34 -5.43,36.78 -3.20,39.61 -0.96,42.43 2.23,44.02 5.42,45.60 9.53,46.28 13.63,46.97 17.98,47.06 22.32,47.15 26.25,46.34 30.18,45.52 33.37,44.53 36.55,43.55 38.39,42.15 40.22,40.75 40.87,39.20 41.53,37.66 41.75,36.38 41.96,35.11 40.29,34.71 38.61,34.31 37.53,34.51 36.46,34.72 35.36,35.02 34.27,35.33 33.17,35.68 32.06,36.04 31.13,36.56 30.19,37.07 29.25,37.84 28.30,38.60 27.45,39.39 26.60,40.18 25.65,41.26 24.70,42.33 23.89,43.70 23.09,45.06 22.48,46.80 21.86,48.54 21.54,50.72 21.23,52.90 21.26,55.95 21.30,59.00 22.32,61.39 23.34,63.79 25.20,66.07 27.07,68.35 29.74,70.38 32.42,72.41 35.69,74.15 38.96,75.88 42.64,76.81 46.33,77.74 51.34,78.15 56.35,78.56 62.55,77.87 68.75,77.18 75.25,75.17 81.75,73.16 87.74,70.15 93.72,67.14 98.16,63.52 102.60,59.90 105.98,56.01 109.37,52.11 111.86,47.90 114.36,43.68 116.52,39.28 118.68,34.87 120.48,31.23 122.28,27.59 123.47,24.77 124.66,21.95 125.61,19.84 126.57,17.74 127.09,16.36 127.62,14.98 126.42,16.04 125.22,17.09 123.60,17.89 121.98,18.69 119.21,19.88 116.44,21.07 114.60,21.81 112.75,22.56 110.88,23.29 109.01,24.02 107.95,24.77 106.90,25.52 106.62,25.90 106.35,26.29 106.13,26.39 105.91,26.49 105.68,26.53 105.44,26.58 105.20,26.57 104.96,26.55 104.73,26.48 104.50,26.42 104.30,26.29 104.09,26.17 103.92,26.00 103.75,25.84 103.62,25.63 103.49,25.43 103.42,25.20 103.35,24.97 103.33,24.73 103.31,24.49 103.35,24.26 103.39,24.02 103.49,23.80 103.59,23.58 103.73,23.39 103.88,23.20 104.07,23.05 104.25,22.90 105.26,22.34 106.27,21.77 108.03,20.92 109.79,20.08 112.26,18.72 114.73,17.35 117.59,15.89 120.45,14.43 123.23,13.16 126.00,11.90 127.50,10.93 129.01,9.97 129.93,8.96 130.85,7.95 131.06,7.84 131.26,7.73 131.48,7.67 131.71,7.61 131.94,7.61 132.17,7.60 132.40,7.66 132.62,7.71 132.83,7.81 133.04,7.92 133.21,8.07 133.39,8.22 133.52,8.41 133.66,8.60 133.74,8.81 133.83,9.03 133.86,9.26 133.89,9.49 133.86,9.72 133.84,9.95 133.76,10.16 133.68,10.38 133.55,10.57 133.42,10.77 133.25,10.92 133.08,11.08 133.39,9.93 133.69,8.78 133.74,10.24 133.80,11.69 133.57,13.13 133.35,14.57 133.21,16.20 133.06,17.83 132.90,20.56 132.74,23.28 132.84,26.35 132.95,29.42 133.40,32.43 133.84,35.43 134.44,37.76 135.03,40.10 135.63,42.26 136.23,44.43 136.25,44.72 136.27,45.01 136.19,45.29 136.12,45.57 135.95,45.81 135.79,46.05 135.56,46.23 135.33,46.40 135.06,46.50 134.79,46.59 134.50,46.59 134.21,46.59 133.93,46.50 133.66,46.41 133.42,46.24 133.19,46.06 133.03,45.83 132.86,45.59 132.79,45.31 132.71,45.03 132.72,44.74 132.74,44.45 132.84,44.18 132.95,43.91 133.13,43.69 133.32,43.47 133.57,43.32 133.81,43.16 134.10,43.10 134.38,43.04 134.67,43.07 134.96,43.10 135.22,43.22 135.48,43.34 135.70,43.54 135.91,43.73 136.04,43.99 136.18,44.24 136.23,44.53 136.28,44.82 136.23,45.10 136.19,45.39 136.05,45.65 135.92,45.90 135.71,46.10 135.50,46.30 135.24,46.43 134.97,46.55 134.69,46.58 134.40,46.61 134.12,46.55 133.83,46.49 133.58,46.34 133.33,46.20 133.15,45.98 132.96,45.76 132.85,45.49 132.74,45.22 132.74,45.22 132.74,45.22 132.37,43.07 132.00,40.93 131.27,38.46 130.55,35.99 129.95,32.82 129.36,29.65 129.07,26.44 128.78,23.22 128.71,20.40 128.63,17.58 128.71,15.41 128.79,13.25 129.65,11.96 130.52,10.66 130.69,9.30 130.85,7.95 131.06,7.84 131.26,7.73 131.48,7.67 131.71,7.61 131.94,7.61 132.17,7.60 132.40,7.66 132.62,7.71 132.83,7.81 133.04,7.92 133.21,8.07 133.39,8.22 133.52,8.41 133.66,8.60 133.74,8.81 133.83,9.03 133.86,9.26 133.89,9.49 133.86,9.72 133.84,9.95 133.76,10.16 133.68,10.38 133.55,10.57 133.42,10.77 133.25,10.92 133.08,11.08 132.91,11.28 132.74,11.49 131.72,12.09 130.70,12.69 129.02,13.70 127.34,14.71 124.67,16.02 122.00,17.34 119.26,18.87 116.53,20.40 114.04,21.97 111.55,23.53 108.95,24.91 106.35,26.28 106.13,26.39 105.91,26.49 105.68,26.53 105.44,26.58 105.20,26.57 104.96,26.55 104.73,26.48 104.50,26.42 104.30,26.29 104.09,26.17 103.92,26.00 103.75,25.84 103.62,25.63 103.49,25.43 103.42,25.20 103.35,24.97 103.33,24.73 103.31,24.49 103.35,24.26 103.39,24.02 103.49,23.80 103.59,23.58 103.73,23.39 103.88,23.20 104.07,23.05 104.25,22.90 104.58,22.64 104.92,22.38 106.31,21.61 107.71,20.85 109.55,20.07 111.39,19.28 113.14,18.52 114.89,17.76 117.50,16.45 120.11,15.13 121.89,14.14 123.66,13.15 125.12,12.60 126.58,12.05 127.81,11.93 129.04,11.81 130.01,12.73 130.98,13.65 130.69,14.97 130.40,16.28 129.68,17.55 128.96,18.82 128.02,20.89 127.08,22.97 125.87,25.86 124.65,28.76 122.85,32.39 121.05,36.03 118.84,40.53 116.63,45.04 114.00,49.44 111.37,53.85 107.82,57.91 104.28,61.96 99.61,65.74 94.93,69.53 88.74,72.63 82.55,75.73 75.80,77.80 69.05,79.88 62.59,80.59 56.14,81.29 50.89,80.87 45.65,80.45 41.65,79.43 37.65,78.41 34.15,76.59 30.65,74.76 27.68,72.53 24.72,70.31 22.56,67.70 20.39,65.08 19.13,62.14 17.87,59.20 17.69,55.86 17.50,52.51 17.69,49.94 17.88,47.37 18.45,45.11 19.02,42.86 19.98,41.00 20.94,39.14 22.09,37.77 23.23,36.40 24.23,35.55 25.22,34.70 26.57,33.66 27.92,32.62 29.29,31.97 30.67,31.32 31.91,30.99 33.15,30.66 34.50,30.38 35.85,30.10 37.43,29.95 39.01,29.80 40.23,29.99 41.46,30.19 42.82,30.84 44.19,31.50 44.70,32.60 45.20,33.70 45.14,34.78 45.08,35.87 44.56,37.38 44.04,38.90 42.96,40.83 41.88,42.76 39.63,44.40 37.38,46.05 34.05,47.08 30.71,48.11 26.49,48.96 22.28,49.81 17.73,49.70 13.18,49.60 8.71,48.80 4.23,47.99 0.60,46.07 -3.01,44.15 -5.53,40.80 -8.05,37.44 -9.04,32.46 -10.03,27.48 -9.20,22.98 -8.37,18.47 -6.97,14.26 -5.57,10.05 -4.35,6.93 -3.13,3.81 -2.29,1.61 -1.45,-0.58 -1.35,-0.74 -1.26,-0.91 -1.14,-1.04 -1.01,-1.18 -0.85,-1.29 -0.70,-1.39 -0.52,-1.45 -0.34,-1.52 -0.15,-1.54 0.02,-1.56 0.21,-1.53 0.40,-1.50 0.57,-1.43 0.75,-1.36 0.90,-1.26 1.05,-1.15 1.17,-1.00 1.30,-0.86 1.38,-0.69 1.47,-0.52 1.51,-0.34 1.55,-0.16 1.55,0.02 1.54,0.21 1.49,0.39 1.45,0.58 1.45,0.58 L 1.45,0.58 Z"></path></g></svg>