<?xml version="1.0" standalone="no"?>
<!DOCTYPE svg PUBLIC "-//W3C//DTD SVG 1.1//EN" "http://www.w3.org/Graphics/SVG/1.1/DTD/svg11.dtd">
<svg version="1.1" xmlns="http://www.w3.org/2000/svg" viewBox="0 0 112.39616369210307 93.49706672890682" width="224.79232738420615" height="186.99413345781363"><!-- svg-source:excalidraw --><metadata></metadata><defs><style class="style-fonts">
      </style></defs><g transform="translate(13.149822792080158 10) rotate(0 44.62317045001146 36.74853336445341)" stroke="none"><path fill="#1e1e1e" d="M 1.52,-0.35 Q 1.52,-0.35 2.39,3.57 3.26,7.50 5.39,12.37 7.52,17.23 11.08,22.26 14.64,27.28 19.43,32.10 24.22,36.92 30.46,41.98 36.69,47.04 44.70,51.57 52.72,56.09 61.25,60.14 69.78,64.18 75.51,66.50 81.23,68.81 85.48,70.54 89.74,72.26 89.92,72.37 90.11,72.49 90.24,72.65 90.38,72.81 90.46,73.01 90.54,73.21 90.55,73.43 90.56,73.64 90.50,73.85 90.44,74.06 90.32,74.23 90.20,74.41 90.03,74.54 89.86,74.67 89.65,74.74 89.45,74.80 89.23,74.80 89.02,74.80 88.82,74.73 88.61,74.66 88.44,74.53 88.27,74.40 88.15,74.22 88.03,74.04 87.98,73.84 87.92,73.63 87.93,73.41 87.95,73.20 88.03,73.00 88.11,72.80 88.25,72.64 88.39,72.48 88.57,72.37 88.76,72.26 88.97,72.21 89.18,72.17 89.39,72.19 89.60,72.22 89.80,72.31 89.99,72.40 90.15,72.55 90.30,72.69 90.40,72.88 90.50,73.08 90.53,73.29 90.57,73.50 90.53,73.71 90.50,73.92 90.40,74.11 90.29,74.30 90.14,74.45 89.98,74.59 89.78,74.68 89.59,74.77 89.38,74.79 89.16,74.82 88.95,74.77 88.74,74.72 88.74,74.72 88.74,74.72 84.49,73.00 80.23,71.28 74.43,68.94 68.64,66.60 60.01,62.52 51.39,58.44 43.18,53.80 34.98,49.16 28.62,44.02 22.26,38.87 17.31,33.89 12.35,28.92 8.62,23.66 4.88,18.41 2.62,13.30 0.35,8.18 -0.58,4.27 -1.52,0.35 -1.54,0.16 -1.56,-0.02 -1.53,-0.20 -1.51,-0.39 -1.44,-0.57 -1.37,-0.74 -1.26,-0.89 -1.15,-1.05 -1.01,-1.17 -0.86,-1.29 -0.70,-1.38 -0.53,-1.46 -0.34,-1.51 -0.16,-1.55 0.02,-1.55 0.21,-1.54 0.39,-1.50 0.57,-1.45 0.74,-1.36 0.90,-1.27 1.04,-1.14 1.18,-1.01 1.28,-0.86 1.39,-0.70 1.45,-0.52 1.52,-0.35 1.52,-0.35 L 1.52,-0.35 Z"></path></g><g transform="translate(13.149822792080158 12.099921914065817) rotate(0 2.6248923794123584 20.474148543613353)" stroke="none"><path fill="#1e1e1e" d="M 1.88,0 Q 1.88,0 1.81,2.11 1.74,4.22 1.98,7.77 2.22,11.32 2.61,15.87 2.99,20.42 3.74,24.71 4.49,29.00 5.10,32.04 5.71,35.08 6.30,37.87 6.89,40.67 6.89,40.94 6.89,41.21 6.81,41.46 6.72,41.72 6.56,41.93 6.40,42.15 6.17,42.30 5.95,42.45 5.69,42.53 5.43,42.60 5.16,42.59 4.89,42.57 4.64,42.47 4.39,42.38 4.19,42.20 3.98,42.03 3.84,41.80 3.70,41.57 3.64,41.30 3.58,41.04 3.61,40.77 3.64,40.50 3.75,40.26 3.86,40.01 4.05,39.82 4.23,39.62 4.47,39.49 4.71,39.37 4.97,39.32 5.24,39.28 5.50,39.32 5.77,39.36 6.01,39.49 6.25,39.61 6.43,39.81 6.62,40.00 6.73,40.25 6.85,40.49 6.88,40.76 6.91,41.03 6.85,41.29 6.80,41.55 6.66,41.78 6.52,42.02 6.32,42.19 6.11,42.37 5.86,42.47 5.61,42.57 5.34,42.59 5.07,42.60 4.81,42.53 4.55,42.46 4.33,42.31 4.10,42.16 3.94,41.94 3.78,41.73 3.69,41.48 3.60,41.22 3.60,41.22 3.60,41.22 3.25,38.44 2.90,35.67 2.24,32.60 1.58,29.53 0.75,25.12 -0.06,20.71 -0.54,16.15 -1.01,11.59 -1.37,7.90 -1.74,4.22 -1.81,2.11 -1.88,0 -1.86,-0.22 -1.83,-0.45 -1.75,-0.66 -1.67,-0.87 -1.54,-1.06 -1.41,-1.25 -1.24,-1.40 -1.07,-1.55 -0.87,-1.66 -0.67,-1.76 -0.44,-1.82 -0.22,-1.87 0.00,-1.87 0.22,-1.87 0.44,-1.82 0.67,-1.76 0.87,-1.66 1.07,-1.55 1.24,-1.40 1.41,-1.25 1.54,-1.06 1.67,-0.87 1.75,-0.66 1.83,-0.45 1.86,-0.22 1.88,0.00 1.88,0.00 L 1.88,0 Z"></path></g><g transform="translate(10 10) rotate(0 18.374246655886964 12.074500940029338)" stroke="none"><path fill="#1e1e1e" d="M 1.24,-1.24 Q 1.24,-1.24 3.61,1.21 5.98,3.67 9.37,6.81 12.75,9.96 16.82,12.76 20.90,15.56 25.00,17.65 29.09,19.73 31.40,20.62 33.71,21.50 35.49,22.13 37.27,22.75 37.48,22.87 37.68,22.99 37.84,23.17 38.00,23.35 38.10,23.58 38.19,23.80 38.21,24.04 38.22,24.28 38.16,24.51 38.10,24.74 37.97,24.94 37.84,25.15 37.65,25.29 37.46,25.44 37.24,25.52 37.01,25.61 36.77,25.61 36.53,25.61 36.30,25.54 36.07,25.47 35.88,25.33 35.68,25.19 35.55,24.99 35.41,24.79 35.34,24.56 35.27,24.33 35.28,24.09 35.29,23.85 35.37,23.63 35.46,23.40 35.61,23.22 35.76,23.03 35.96,22.90 36.17,22.77 36.40,22.72 36.64,22.66 36.87,22.68 37.11,22.71 37.33,22.80 37.55,22.90 37.73,23.06 37.91,23.22 38.03,23.43 38.14,23.64 38.19,23.88 38.23,24.12 38.19,24.35 38.16,24.59 38.05,24.81 37.94,25.02 37.77,25.19 37.60,25.36 37.38,25.46 37.17,25.57 36.93,25.60 36.69,25.63 36.45,25.58 36.22,25.53 36.22,25.53 36.22,25.53 34.47,24.83 32.72,24.13 30.26,23.22 27.80,22.30 23.52,20.16 19.23,18.02 14.95,15.13 10.67,12.25 7.17,9.12 3.67,5.98 1.21,3.61 -1.24,1.24 -1.37,1.07 -1.50,0.90 -1.58,0.71 -1.67,0.52 -1.71,0.31 -1.75,0.10 -1.74,-0.10 -1.72,-0.31 -1.66,-0.51 -1.60,-0.72 -1.49,-0.90 -1.38,-1.08 -1.23,-1.23 -1.08,-1.38 -0.90,-1.49 -0.72,-1.60 -0.51,-1.66 -0.31,-1.72 -0.10,-1.74 0.10,-1.75 0.31,-1.71 0.52,-1.67 0.71,-1.58 0.90,-1.50 1.07,-1.37 1.24,-1.24 1.24,-1.24 L 1.24,-1.24 Z"></path></g></svg>