<?xml version="1.0" standalone="no"?>
<!DOCTYPE svg PUBLIC "-//W3C//DTD SVG 1.1//EN" "http://www.w3.org/Graphics/SVG/1.1/DTD/svg11.dtd">
<svg version="1.1" xmlns="http://www.w3.org/2000/svg" viewBox="0 0 175.3936609033599 129.19553900462927" width="350.7873218067198" height="258.39107800925854"><!-- svg-source:excalidraw --><metadata></metadata><defs><style class="style-fonts">
      </style></defs><g transform="translate(45.698552381080844 61.44786660487648) rotate(0 -7.349706672890761 28.873836199876393)" stroke="none"><path fill="#1e1e1e" d="M 1.58,0.45 Q 1.58,0.45 0.93,2.55 0.28,4.66 -2.80,9.65 -5.88,14.65 -9.28,20.01 -12.68,25.37 -16.55,31.28 -20.43,37.18 -23.58,42.09 -26.73,47.01 -29.13,49.45 -31.53,51.89 -28.68,49.64 -25.82,47.40 -20.12,43.70 -14.42,40.00 -7.72,36.29 -1.03,32.59 5.13,29.51 11.30,26.42 15.85,24.16 20.39,21.89 20.60,21.82 20.81,21.76 21.02,21.76 21.24,21.77 21.45,21.84 21.65,21.92 21.82,22.05 22.00,22.19 22.11,22.37 22.23,22.56 22.29,22.77 22.34,22.98 22.32,23.20 22.31,23.41 22.22,23.62 22.13,23.82 21.99,23.98 21.84,24.14 21.65,24.25 21.46,24.36 21.25,24.40 21.04,24.44 20.82,24.41 20.60,24.39 20.41,24.29 20.21,24.19 20.06,24.04 19.90,23.89 19.80,23.69 19.71,23.50 19.68,23.28 19.64,23.06 19.69,22.85 19.73,22.63 19.83,22.44 19.94,22.25 20.10,22.11 20.26,21.96 20.46,21.87 20.66,21.79 20.88,21.77 21.10,21.75 21.31,21.80 21.52,21.85 21.71,21.97 21.89,22.09 22.03,22.26 22.17,22.43 22.24,22.63 22.32,22.83 22.33,23.05 22.33,23.27 22.27,23.48 22.21,23.69 22.08,23.87 21.95,24.04 21.78,24.17 21.60,24.30 21.60,24.30 21.60,24.30 17.06,26.58 12.52,28.86 6.41,31.93 0.30,35.01 -6.28,38.68 -12.88,42.35 -18.54,46.07 -24.20,49.78 -28.71,51.81 -33.22,53.84 -31.14,49.68 -29.06,45.52 -25.92,40.58 -22.78,35.65 -18.95,29.74 -15.12,23.84 -11.77,18.46 -8.42,13.08 -5.55,8.43 -2.69,3.78 -2.13,1.66 -1.58,-0.45 -1.50,-0.63 -1.42,-0.81 -1.30,-0.97 -1.18,-1.13 -1.03,-1.26 -0.88,-1.38 -0.70,-1.47 -0.52,-1.55 -0.33,-1.59 -0.13,-1.63 0.05,-1.63 0.25,-1.62 0.44,-1.56 0.63,-1.51 0.81,-1.41 0.98,-1.31 1.12,-1.18 1.26,-1.04 1.37,-0.87 1.48,-0.71 1.54,-0.52 1.60,-0.33 1.62,-0.13 1.64,0.06 1.61,0.25 1.58,0.45 1.58,0.45 L 1.58,0.45 Z"></path></g><g transform="translate(23.649472415087985 105.54606658954128) rotate(0 70.87209424413595 -47.77303329477064)" stroke="none"><path fill="#1e1e1e" d="M -1.35,-0.85 Q -1.35,-0.85 0.79,-4.16 2.94,-7.46 8.15,-13.46 13.36,-19.47 21.34,-26.87 29.33,-34.27 40.61,-42.56 51.89,-50.86 65.46,-59.52 79.02,-68.17 92.97,-75.49 106.92,-82.81 116.81,-86.84 126.70,-90.86 133.97,-93.82 141.24,-96.78 141.45,-96.83 141.66,-96.87 141.87,-96.85 142.09,-96.83 142.28,-96.74 142.48,-96.65 142.64,-96.50 142.80,-96.36 142.90,-96.17 143.00,-95.98 143.04,-95.76 143.07,-95.55 143.04,-95.34 143.01,-95.12 142.91,-94.93 142.81,-94.74 142.65,-94.59 142.50,-94.44 142.30,-94.35 142.11,-94.26 141.89,-94.23 141.68,-94.21 141.47,-94.25 141.25,-94.30 141.07,-94.41 140.88,-94.52 140.74,-94.68 140.60,-94.84 140.52,-95.04 140.44,-95.24 140.42,-95.46 140.41,-95.68 140.47,-95.88 140.52,-96.09 140.64,-96.27 140.76,-96.45 140.93,-96.58 141.10,-96.72 141.31,-96.79 141.51,-96.86 141.73,-96.86 141.95,-96.86 142.15,-96.79 142.36,-96.73 142.53,-96.60 142.70,-96.47 142.82,-96.29 142.95,-96.11 143.01,-95.90 143.07,-95.70 143.06,-95.48 143.05,-95.26 142.97,-95.06 142.89,-94.86 142.75,-94.70 142.61,-94.53 142.43,-94.42 142.24,-94.30 142.24,-94.30 142.24,-94.30 134.98,-91.34 127.72,-88.37 117.95,-84.39 108.18,-80.41 94.34,-73.13 80.49,-65.86 67.02,-57.24 53.54,-48.61 42.40,-40.40 31.26,-32.18 23.42,-24.87 15.58,-17.56 10.54,-11.69 5.50,-5.82 3.43,-2.48 1.35,0.85 1.22,1.00 1.10,1.15 0.95,1.27 0.79,1.38 0.61,1.46 0.44,1.53 0.25,1.56 0.05,1.60 -0.13,1.58 -0.32,1.56 -0.50,1.50 -0.69,1.44 -0.85,1.34 -1.01,1.23 -1.14,1.09 -1.28,0.95 -1.37,0.79 -1.47,0.62 -1.52,0.43 -1.58,0.25 -1.58,0.05 -1.59,-0.13 -1.55,-0.32 -1.51,-0.51 -1.43,-0.68 -1.35,-0.85 -1.35,-0.85 L -1.35,-0.85 Z"></path></g></svg>