<?xml version="1.0" standalone="no"?>
<!DOCTYPE svg PUBLIC "-//W3C//DTD SVG 1.1//EN" "http://www.w3.org/Graphics/SVG/1.1/DTD/svg11.dtd">
<svg version="1.1" xmlns="http://www.w3.org/2000/svg" viewBox="0 0 156.7924075026458 140.23926748573672" width="313.5848150052916" height="280.47853497147344" filter="invert(93%) hue-rotate(180deg)"><!-- svg-source:excalidraw --><metadata></metadata><defs><style class="style-fonts">
      </style></defs><g transform="translate(52.29628184379817 70.89747516549323) rotate(0 18.899237147572876 -16.79930522033777)" stroke="none"><path fill="#ffffff" d="M -1.33,-1.48 Q -1.33,-1.48 1.74,-4.13 4.82,-6.78 9.16,-10.60 13.51,-14.42 18.11,-18.16 22.72,-21.91 26.48,-24.98 30.25,-28.06 32.10,-29.91 33.96,-31.77 34.64,-32.89 35.32,-34.02 37.49,-33.54 39.65,-33.06 39.88,-32.89 40.11,-32.72 40.27,-32.49 40.44,-32.25 40.52,-31.98 40.59,-31.70 40.58,-31.42 40.57,-31.13 40.47,-30.87 40.36,-30.60 40.18,-30.38 40.00,-30.16 39.76,-30.01 39.51,-29.86 39.24,-29.80 38.96,-29.73 38.67,-29.76 38.39,-29.79 38.13,-29.91 37.87,-30.02 37.66,-30.22 37.45,-30.41 37.31,-30.66 37.18,-30.91 37.13,-31.19 37.08,-31.47 37.12,-31.76 37.17,-32.04 37.30,-32.29 37.43,-32.55 37.63,-32.74 37.84,-32.94 38.10,-33.07 38.35,-33.19 38.64,-33.22 38.92,-33.26 39.20,-33.20 39.48,-33.14 39.73,-32.99 39.97,-32.85 40.16,-32.63 40.35,-32.42 40.45,-32.16 40.56,-31.89 40.58,-31.61 40.60,-31.32 40.53,-31.05 40.45,-30.77 40.29,-30.53 40.14,-30.29 39.91,-30.12 39.69,-29.94 39.42,-29.85 39.15,-29.76 38.86,-29.75 38.58,-29.75 38.30,-29.84 38.03,-29.93 38.03,-29.93 38.03,-29.93 37.96,-30.94 37.89,-31.96 36.96,-30.85 36.03,-29.73 34.10,-27.74 32.17,-25.74 28.45,-22.61 24.73,-19.47 20.25,-15.70 15.76,-11.92 11.50,-8.00 7.25,-4.08 4.29,-1.29 1.33,1.48 1.13,1.62 0.94,1.76 0.71,1.84 0.49,1.93 0.25,1.96 0.01,1.99 -0.22,1.97 -0.46,1.94 -0.68,1.86 -0.91,1.77 -1.11,1.64 -1.31,1.50 -1.47,1.32 -1.63,1.14 -1.74,0.93 -1.86,0.72 -1.92,0.48 -1.98,0.25 -1.98,0.01 -1.98,-0.22 -1.92,-0.45 -1.87,-0.69 -1.76,-0.90 -1.65,-1.12 -1.49,-1.30 -1.33,-1.48 -1.33,-1.48 L -1.33,-1.48 Z"></path></g><g transform="translate(55.44614468855707 68.79755325142753) rotate(0 10.499569517649888 3.1498728579288695)" stroke="none"><path fill="#ffffff" d="M 0.41,-2.09 Q 0.41,-2.09 3.41,-1.38 6.41,-0.67 9.00,0.29 11.59,1.26 13.53,1.97 15.48,2.68 16.76,3.23 18.05,3.78 19.75,4.05 21.45,4.32 21.75,4.44 22.05,4.57 22.30,4.78 22.55,5.00 22.72,5.28 22.88,5.56 22.95,5.88 23.02,6.20 22.98,6.53 22.94,6.85 22.80,7.15 22.66,7.45 22.43,7.68 22.21,7.92 21.92,8.07 21.62,8.22 21.30,8.27 20.98,8.32 20.65,8.26 20.33,8.21 20.04,8.05 19.75,7.90 19.53,7.66 19.31,7.42 19.17,7.12 19.04,6.82 19.00,6.49 18.97,6.17 19.05,5.85 19.12,5.53 19.29,5.25 19.46,4.97 19.71,4.76 19.96,4.55 20.27,4.43 20.58,4.31 20.90,4.30 21.23,4.28 21.55,4.37 21.86,4.46 22.13,4.65 22.40,4.84 22.60,5.10 22.79,5.36 22.89,5.67 23.00,5.98 22.99,6.31 22.99,6.64 22.88,6.95 22.78,7.26 22.58,7.52 22.37,7.78 22.10,7.96 21.83,8.14 21.51,8.23 21.20,8.31 20.87,8.29 20.54,8.27 20.54,8.27 20.54,8.27 18.46,7.67 16.38,7.08 15.39,6.45 14.40,5.83 12.42,5.21 10.44,4.58 8.05,3.83 5.65,3.08 2.61,2.59 -0.41,2.09 -0.66,2.01 -0.90,1.93 -1.12,1.79 -1.34,1.66 -1.52,1.47 -1.70,1.29 -1.83,1.06 -1.96,0.84 -2.03,0.59 -2.11,0.35 -2.12,0.09 -2.13,-0.16 -2.08,-0.41 -2.03,-0.66 -1.92,-0.90 -1.81,-1.13 -1.65,-1.33 -1.48,-1.53 -1.28,-1.69 -1.07,-1.84 -0.84,-1.95 -0.60,-2.05 -0.34,-2.09 -0.09,-2.13 0.16,-2.11 0.41,-2.09 0.41,-2.09 L 0.41,-2.09 Z"></path></g><g transform="translate(87.99483422487901 39.39876661254402) rotate(0 -23.099060949365594 27.29888475115729)" stroke="none"><path fill="#ffffff" d="M 1.87,0 Q 1.87,0 1.79,3.92 1.72,7.84 1.96,12.17 2.21,16.50 2.59,20.76 2.98,25.02 3.14,29.60 3.29,34.18 3.35,38.24 3.41,42.29 3.43,45.53 3.44,48.76 3.48,50.74 3.52,52.71 3.64,53.85 3.77,54.99 3.74,55.19 3.72,55.40 3.65,55.59 3.58,55.78 3.46,55.94 3.35,56.11 3.20,56.25 3.05,56.38 2.87,56.48 2.69,56.57 2.50,56.62 2.30,56.67 2.10,56.67 1.90,56.67 1.70,56.63 1.50,56.58 1.32,56.49 1.14,56.39 0.99,56.26 0.84,56.13 0.72,55.96 0.60,55.80 0.53,55.61 0.46,55.42 0.43,55.22 0.41,55.02 -1.85,53.86 -4.11,52.70 -7.28,51.23 -10.45,49.77 -14.83,47.91 -19.22,46.05 -24.36,44.37 -29.50,42.68 -34.38,41.36 -39.27,40.03 -42.85,39.17 -46.43,38.30 -48.27,37.98 -50.10,37.66 -51.18,37.19 -52.26,36.73 -53.24,35.28 -54.23,33.83 -54.48,31.51 -54.72,29.18 -54.40,27.45 -54.07,25.71 -51.84,22.93 -49.60,20.15 -46.26,16.44 -42.93,12.73 -38.15,7.83 -33.37,2.93 -27.67,-2.17 -21.97,-7.28 -15.53,-11.31 -9.09,-15.34 -1.48,-18.87 6.12,-22.39 10.84,-24.47 15.56,-26.55 17.84,-27.71 20.12,-28.87 21.90,-28.94 23.69,-29.01 24.44,-28.10 25.19,-27.19 25.39,-24.71 25.58,-22.22 25.61,-18.23 25.63,-14.24 25.62,-8.64 25.62,-3.03 25.60,4.17 25.59,11.38 26.18,20.74 26.76,30.10 27.61,36.46 28.45,42.83 29.39,46.38 30.33,49.92 30.75,52.12 31.16,54.31 31.71,55.73 32.26,57.14 32.78,59.28 33.30,61.42 33.05,62.57 32.80,63.73 31.62,65.25 30.44,66.77 29.73,67.66 29.02,68.55 27.82,69.93 26.62,71.32 25.32,71.89 24.01,72.47 22.83,72.65 21.65,72.84 19.93,72.84 18.20,72.84 14.17,72.70 10.13,72.56 2.73,72.75 -4.66,72.93 -14.69,74.17 -24.72,75.41 -35.03,77.12 -45.33,78.82 -53.30,80.72 -61.27,82.63 -65.94,83.43 -70.60,84.24 -74.02,84.83 -77.43,85.42 -77.67,85.43 -77.90,85.43 -78.13,85.36 -78.35,85.29 -78.54,85.15 -78.73,85.01 -78.87,84.82 -79.00,84.62 -79.07,84.40 -79.14,84.17 -79.13,83.94 -79.12,83.70 -79.03,83.48 -78.95,83.26 -78.80,83.08 -78.65,82.90 -78.45,82.77 -78.25,82.65 -78.02,82.59 -77.79,82.54 -77.56,82.56 -77.33,82.58 -77.11,82.68 -76.90,82.77 -76.72,82.93 -76.55,83.09 -76.43,83.30 -76.32,83.50 -76.28,83.74 -76.24,83.97 -76.27,84.20 -76.31,84.43 -76.41,84.64 -76.52,84.85 -76.69,85.02 -76.86,85.18 -77.07,85.28 -77.28,85.39 -77.51,85.42 -77.75,85.45 -77.98,85.40 -78.21,85.35 -78.41,85.23 -78.62,85.12 -78.77,84.94 -78.93,84.76 -79.02,84.54 -79.11,84.33 -79.12,84.09 -79.14,83.86 -79.08,83.63 -79.02,83.40 -78.89,83.21 -78.76,83.01 -78.58,82.86 -78.39,82.72 -78.17,82.64 -77.95,82.56 -77.95,82.56 -77.95,82.56 -74.55,81.92 -71.14,81.27 -66.58,80.41 -62.02,79.56 -53.96,77.53 -45.90,75.51 -35.55,73.66 -25.20,71.81 -15.01,70.37 -4.83,68.94 2.63,68.50 10.11,68.07 14.09,67.89 18.06,67.71 19.57,67.63 21.08,67.54 22.20,67.60 23.33,67.66 24.49,66.59 25.64,65.52 26.40,64.77 27.16,64.02 28.29,62.81 29.43,61.59 29.37,59.83 29.32,58.06 28.91,56.44 28.50,54.83 28.09,52.73 27.68,50.63 26.69,46.92 25.69,43.20 24.81,36.74 23.92,30.29 23.29,20.84 22.66,11.39 22.62,4.19 22.58,-3.01 22.51,-8.60 22.44,-14.18 22.31,-18.07 22.19,-21.95 21.78,-24.17 21.37,-26.39 19.05,-25.17 16.72,-23.95 12.04,-21.85 7.36,-19.74 -0.05,-16.26 -7.47,-12.77 -13.65,-8.84 -19.83,-4.91 -25.37,0.18 -30.91,5.28 -35.52,10.21 -40.13,15.14 -43.27,18.92 -46.41,22.70 -48.04,24.77 -49.67,26.83 -49.93,27.97 -50.19,29.11 -50.26,30.95 -50.34,32.78 -49.91,33.79 -49.47,34.81 -47.63,35.23 -45.80,35.64 -42.18,36.50 -38.55,37.36 -33.59,38.68 -28.62,40.00 -23.36,41.69 -18.11,43.38 -13.66,45.21 -9.21,47.04 -5.79,48.56 -2.37,50.09 -0.26,51.45 1.84,52.80 2.80,53.90 3.77,54.99 3.74,55.19 3.72,55.40 3.65,55.59 3.58,55.78 3.46,55.94 3.35,56.11 3.20,56.25 3.05,56.38 2.87,56.48 2.69,56.57 2.50,56.62 2.30,56.67 2.10,56.67 1.90,56.67 1.70,56.63 1.50,56.58 1.32,56.49 1.14,56.39 0.99,56.26 0.84,56.13 0.72,55.96 0.60,55.80 0.53,55.61 0.46,55.42 0.43,55.22 0.41,55.02 0.52,53.88 0.63,52.73 0.64,50.76 0.65,48.79 0.60,45.57 0.55,42.35 0.45,38.32 0.35,34.30 0.15,29.81 -0.05,25.32 -0.53,21.02 -1.00,16.72 -1.36,12.28 -1.72,7.84 -1.79,3.92 -1.87,0 -1.84,-0.22 -1.81,-0.44 -1.73,-0.65 -1.65,-0.87 -1.52,-1.05 -1.40,-1.24 -1.23,-1.39 -1.06,-1.54 -0.86,-1.64 -0.66,-1.75 -0.44,-1.80 -0.22,-1.85 0.00,-1.85 0.22,-1.85 0.44,-1.80 0.66,-1.75 0.86,-1.64 1.06,-1.54 1.23,-1.39 1.40,-1.24 1.52,-1.05 1.65,-0.87 1.73,-0.65 1.81,-0.44 1.84,-0.22 1.87,0.00 1.87,0.00 L 1.87,0 Z"></path></g><g transform="translate(137.34277891568945 35.19892278441239) rotate(0 0.5249904916859123 4.724814293478232)" stroke="none"><path fill="#ffffff" d="M 0.99,1.99 Q 0.99,1.99 -0.19,2.62 -1.38,3.25 -2.29,4.00 -3.20,4.75 -1.85,5.56 -0.50,6.38 0.77,6.36 2.06,6.34 2.89,5.44 3.72,4.53 1.36,3.41 -0.99,2.29 -1.33,2.07 -1.67,1.85 -1.92,1.53 -2.17,1.22 -2.31,0.84 -2.45,0.46 -2.46,0.05 -2.47,-0.34 -2.35,-0.73 -2.23,-1.11 -1.99,-1.44 -1.76,-1.77 -1.43,-2.00 -1.10,-2.24 -0.71,-2.35 -0.32,-2.47 0.07,-2.46 0.47,-2.45 0.85,-2.31 1.23,-2.17 1.55,-1.91 1.86,-1.66 2.08,-1.32 2.29,-0.97 2.39,-0.58 2.49,-0.19 2.45,0.20 2.42,0.61 2.26,0.98 2.09,1.35 1.82,1.65 1.55,1.95 1.20,2.15 0.85,2.34 0.45,2.42 0.05,2.49 -0.34,2.44 -0.74,2.38 -1.10,2.20 -1.46,2.02 -1.74,1.73 -2.03,1.44 -2.21,1.08 -2.39,0.72 -2.44,0.32 -2.49,-0.07 -2.41,-0.47 -2.34,-0.86 -2.14,-1.22 -1.94,-1.57 -1.63,-1.84 -1.33,-2.10 -0.96,-2.26 -0.59,-2.42 -0.19,-2.45 0.21,-2.48 0.60,-2.38 0.99,-2.29 0.99,-2.29 0.99,-2.29 3.91,-1.36 6.83,-0.43 7.55,0.88 8.28,2.20 7.58,4.90 6.88,7.59 4.94,9.20 3.00,10.81 0.61,11.05 -1.77,11.28 -3.84,10.48 -5.91,9.68 -6.90,8.06 -7.88,6.44 -7.79,4.86 -7.70,3.27 -6.90,2.18 -6.09,1.10 -4.77,0.12 -3.44,-0.84 -2.22,-1.41 -0.99,-1.99 -0.74,-2.08 -0.49,-2.17 -0.22,-2.20 0.04,-2.22 0.30,-2.18 0.57,-2.15 0.82,-2.05 1.07,-1.95 1.29,-1.79 1.50,-1.63 1.68,-1.43 1.85,-1.22 1.97,-0.98 2.09,-0.74 2.15,-0.48 2.21,-0.22 2.21,0.04 2.20,0.31 2.13,0.57 2.06,0.83 1.93,1.06 1.80,1.30 1.62,1.49 1.44,1.69 1.22,1.84 0.99,1.99 0.99,1.99 L 0.99,1.99 Z"></path></g><g transform="translate(137.34277891568945 65.6476904066684) rotate(0 2.624912405752184 2.0999419404053583)" stroke="none"><path fill="#ffffff" d="M 2.21,0.88 Q 2.21,0.88 1.58,2.38 0.96,3.88 2.52,4.31 4.08,4.75 4.97,4.15 5.85,3.56 5.97,2.30 6.08,1.03 4.18,0.39 2.29,-0.25 0.86,1.01 -0.55,2.28 -0.82,2.18 -1.08,2.08 -1.31,1.92 -1.55,1.76 -1.74,1.55 -1.92,1.33 -2.06,1.08 -2.19,0.83 -2.26,0.56 -2.33,0.28 -2.33,0.00 -2.33,-0.27 -2.26,-0.55 -2.19,-0.82 -2.06,-1.07 -1.93,-1.32 -1.74,-1.54 -1.56,-1.75 -1.32,-1.91 -1.09,-2.07 -0.83,-2.17 -0.56,-2.27 -0.28,-2.31 -0.00,-2.34 0.27,-2.31 0.55,-2.28 1.43,-1.34 2.31,-0.40 2.31,-0.02 2.32,0.35 2.20,0.72 2.08,1.08 1.85,1.38 1.63,1.69 1.31,1.90 1.00,2.12 0.64,2.22 0.27,2.33 -0.10,2.31 -0.48,2.29 -0.83,2.16 -1.19,2.02 -1.48,1.77 -1.77,1.53 -1.97,1.21 -2.17,0.88 -2.25,0.51 -2.34,0.14 -2.30,-0.22 -2.26,-0.60 -2.11,-0.95 -1.95,-1.30 -1.69,-1.57 -1.43,-1.85 -1.10,-2.03 -0.76,-2.21 -0.39,-2.28 -0.02,-2.34 0.35,-2.29 0.73,-2.23 1.06,-2.05 1.40,-1.88 1.66,-1.60 1.93,-1.33 2.09,-0.99 2.25,-0.64 2.30,-0.27 2.34,0.10 2.26,0.47 2.18,0.84 1.99,1.17 1.80,1.50 1.51,1.75 1.22,2.00 0.87,2.14 0.52,2.28 0.14,2.31 -0.23,2.33 -0.60,2.23 -0.96,2.13 -1.28,1.92 -1.60,1.71 -1.83,1.41 -2.06,1.11 -1.31,1.69 -0.55,2.28 -0.82,2.18 -1.08,2.08 -1.31,1.92 -1.55,1.76 -1.74,1.55 -1.92,1.33 -2.06,1.08 -2.19,0.83 -2.26,0.56 -2.33,0.28 -2.33,0.00 -2.33,-0.27 -2.26,-0.55 -2.19,-0.82 -2.06,-1.07 -1.93,-1.32 -1.74,-1.54 -1.56,-1.75 -1.32,-1.91 -1.09,-2.07 -0.83,-2.17 -0.56,-2.27 -0.28,-2.31 -0.00,-2.34 0.27,-2.31 0.55,-2.28 1.93,-3.47 3.31,-4.67 5.78,-3.98 8.25,-3.29 9.52,-1.52 10.79,0.24 10.73,2.06 10.67,3.88 9.60,5.64 8.53,7.39 6.37,8.52 4.21,9.66 2.51,9.58 0.81,9.51 -0.95,8.87 -2.72,8.23 -3.39,6.72 -4.05,5.21 -3.71,3.68 -3.38,2.15 -2.79,0.63 -2.21,-0.88 -2.07,-1.13 -1.93,-1.38 -1.74,-1.60 -1.54,-1.81 -1.30,-1.97 -1.06,-2.12 -0.79,-2.22 -0.52,-2.32 -0.24,-2.35 0.04,-2.38 0.32,-2.34 0.61,-2.30 0.87,-2.19 1.14,-2.08 1.37,-1.92 1.61,-1.75 1.79,-1.53 1.98,-1.31 2.11,-1.06 2.24,-0.80 2.30,-0.52 2.36,-0.24 2.36,0.04 2.35,0.32 2.28,0.60 2.21,0.88 2.21,0.88 L 2.21,0.88 Z"></path></g><g transform="translate(70.33665477423256 58.93236534278856) rotate(0 1.3712923640009649 9.256177685360512)" stroke="none"><path fill="#ffffff" d="M 2.21,-0.36 Q 2.21,-0.36 2.48,2.01 2.76,4.40 2.88,6.47 2.99,8.55 3.25,10.33 3.50,12.10 3.68,13.52 3.87,14.94 4.33,16.52 4.80,18.10 4.81,18.44 4.83,18.78 4.73,19.11 4.63,19.43 4.43,19.71 4.23,19.99 3.96,20.19 3.68,20.39 3.36,20.49 3.03,20.59 2.69,20.58 2.35,20.58 2.03,20.46 1.71,20.35 1.44,20.13 1.18,19.92 0.99,19.64 0.81,19.35 0.72,19.02 0.64,18.69 0.67,18.35 0.69,18.01 0.82,17.70 0.96,17.38 1.18,17.13 1.41,16.87 1.71,16.70 2.00,16.54 2.34,16.47 2.67,16.40 3.01,16.45 3.34,16.49 3.65,16.64 3.96,16.79 4.20,17.03 4.44,17.27 4.59,17.57 4.75,17.88 4.79,18.22 4.84,18.55 4.78,18.89 4.72,19.22 4.55,19.52 4.39,19.82 4.13,20.05 3.88,20.28 3.57,20.41 3.26,20.55 2.92,20.58 2.58,20.61 2.25,20.53 1.92,20.45 1.63,20.26 1.34,20.08 1.13,19.82 0.91,19.55 0.79,19.23 0.67,18.91 0.67,18.92 0.67,18.92 0.29,17.10 -0.09,15.29 -0.13,13.96 -0.18,12.64 -0.46,10.75 -0.75,8.87 -0.96,6.96 -1.18,5.05 -1.69,2.71 -2.21,0.36 -2.22,0.09 -2.23,-0.17 -2.18,-0.43 -2.13,-0.70 -2.01,-0.94 -1.90,-1.19 -1.73,-1.40 -1.56,-1.61 -1.34,-1.77 -1.12,-1.93 -0.88,-2.04 -0.63,-2.15 -0.36,-2.19 -0.09,-2.24 0.17,-2.22 0.44,-2.20 0.69,-2.11 0.95,-2.03 1.18,-1.88 1.41,-1.74 1.60,-1.54 1.78,-1.35 1.92,-1.12 2.06,-0.88 2.13,-0.62 2.21,-0.36 2.21,-0.36 L 2.21,-0.36 Z"></path></g><g transform="translate(61.42326748583946 67.84570032072907) rotate(0 6.1708025603911665 -1.371285825194434)" stroke="none"><path fill="#ffffff" d="M -1.32,-2.11 Q -1.32,-2.11 0.29,-3.02 1.91,-3.94 2.87,-4.71 3.83,-5.48 4.45,-6.26 5.07,-7.04 5.33,-7.19 5.59,-7.34 5.87,-7.43 6.16,-7.52 6.46,-7.53 6.76,-7.54 7.05,-7.49 7.34,-7.43 7.61,-7.30 7.89,-7.18 8.12,-6.99 8.35,-6.80 8.53,-6.57 8.71,-6.33 8.83,-6.05 8.95,-5.78 9.00,-5.49 9.05,-5.19 9.03,-4.89 9.01,-4.60 8.92,-4.31 8.82,-4.03 8.67,-3.77 8.51,-3.52 8.30,-3.31 8.08,-3.10 7.39,-1.85 6.69,-0.60 5.60,0.55 4.50,1.70 3.83,2.96 3.16,4.22 2.94,4.44 2.72,4.67 2.45,4.84 2.18,5.01 1.88,5.11 1.58,5.21 1.27,5.24 0.95,5.26 0.64,5.21 0.32,5.16 0.03,5.04 -0.25,4.91 -0.51,4.72 -0.76,4.53 -0.96,4.28 -1.16,4.04 -1.30,3.75 -1.43,3.46 -1.49,3.15 -1.56,2.84 -1.54,2.52 -1.53,2.21 -1.44,1.90 -1.35,1.60 -1.19,1.32 -1.04,1.05 0.76,0.86 2.56,0.68 4.70,-0.49 6.84,-1.67 7.93,-2.48 9.03,-3.29 9.95,-3.32 10.87,-3.35 11.13,-3.49 11.39,-3.64 11.68,-3.72 11.96,-3.80 12.26,-3.81 12.55,-3.82 12.84,-3.76 13.13,-3.69 13.40,-3.57 13.67,-3.44 13.90,-3.25 14.12,-3.06 14.30,-2.82 14.48,-2.58 14.59,-2.31 14.71,-2.03 14.75,-1.74 14.80,-1.45 14.77,-1.15 14.74,-0.85 14.65,-0.57 14.55,-0.29 14.39,-0.04 14.23,0.20 14.01,0.40 13.80,0.60 14.28,-0.16 14.76,-0.94 14.63,-0.56 14.50,-0.19 14.25,0.12 14.01,0.43 13.68,0.65 13.34,0.87 12.96,0.97 12.57,1.07 12.18,1.05 11.78,1.02 11.41,0.87 11.04,0.72 10.74,0.46 10.44,0.19 10.24,-0.14 10.04,-0.48 9.96,-0.87 9.88,-1.26 9.93,-1.66 9.97,-2.05 10.14,-2.41 10.32,-2.77 10.59,-3.06 10.87,-3.34 11.22,-3.53 11.58,-3.71 11.97,-3.77 12.37,-3.83 12.76,-3.76 13.15,-3.69 13.50,-3.50 13.85,-3.31 14.12,-3.02 14.39,-2.72 14.55,-2.36 14.72,-2.00 14.75,-1.60 14.79,-1.20 14.70,-0.82 14.61,-0.43 14.40,-0.09 14.19,0.24 13.89,0.49 13.58,0.75 13.21,0.89 12.84,1.03 12.44,1.05 12.04,1.07 11.66,0.96 11.28,0.84 10.95,0.62 10.62,0.39 10.39,0.07 10.15,-0.24 10.03,-0.62 9.90,-1.00 10.39,-2.17 10.87,-3.35 11.13,-3.49 11.39,-3.64 11.68,-3.72 11.96,-3.80 12.26,-3.81 12.55,-3.82 12.84,-3.76 13.13,-3.69 13.40,-3.57 13.67,-3.44 13.90,-3.25 14.12,-3.06 14.30,-2.82 14.48,-2.58 14.59,-2.31 14.71,-2.03 14.75,-1.74 14.80,-1.45 14.77,-1.15 14.74,-0.86 14.65,-0.57 14.55,-0.29 14.39,-0.04 14.23,0.20 14.01,0.40 13.80,0.60 12.86,0.58 11.91,0.56 10.49,1.62 9.06,2.67 7.37,3.60 5.67,4.54 4.42,4.38 3.16,4.22 2.94,4.44 2.72,4.67 2.45,4.84 2.18,5.01 1.88,5.11 1.58,5.21 1.27,5.24 0.95,5.26 0.64,5.21 0.32,5.16 0.03,5.04 -0.25,4.91 -0.50,4.72 -0.76,4.53 -0.96,4.28 -1.16,4.04 -1.30,3.75 -1.43,3.46 -1.49,3.15 -1.56,2.84 -1.54,2.52 -1.53,2.21 -1.44,1.90 -1.35,1.60 -1.19,1.32 -1.04,1.05 -0.75,0.54 -0.46,0.04 0.28,-0.85 1.03,-1.76 1.83,-2.50 2.64,-3.24 3.85,-5.14 5.07,-7.04 5.33,-7.19 5.59,-7.34 5.87,-7.43 6.16,-7.52 6.46,-7.53 6.76,-7.54 7.05,-7.49 7.34,-7.43 7.61,-7.30 7.89,-7.18 8.12,-6.99 8.35,-6.80 8.53,-6.57 8.71,-6.33 8.83,-6.05 8.95,-5.78 9.00,-5.49 9.05,-5.19 9.03,-4.89 9.01,-4.60 8.92,-4.31 8.82,-4.03 8.67,-3.77 8.51,-3.52 8.30,-3.31 8.08,-3.10 7.41,-2.41 6.73,-1.71 5.56,-0.85 4.38,0.00 2.85,1.05 1.32,2.11 1.04,2.23 0.77,2.36 0.48,2.42 0.18,2.48 -0.11,2.47 -0.41,2.45 -0.70,2.37 -0.98,2.28 -1.24,2.13 -1.50,1.98 -1.72,1.77 -1.93,1.56 -2.09,1.31 -2.25,1.05 -2.35,0.77 -2.44,0.48 -2.46,0.18 -2.48,-0.11 -2.43,-0.40 -2.38,-0.70 -2.27,-0.98 -2.15,-1.25 -1.96,-1.49 -1.78,-1.73 -1.55,-1.92 -1.32,-2.11 -1.32,-2.11 L -1.32,-2.11 Z"></path></g><g transform="translate(100.50498216134838 16.422445912502894) rotate(0 2.056925468388272 48.33786620564371)" stroke="none"><path fill="#ffffff" d="M 1.56,0 Q 1.56,0 1.52,2.56 1.49,5.12 1.66,7.73 1.83,10.35 2.28,13.19 2.74,16.04 3.13,19.68 3.52,23.32 3.68,27.85 3.85,32.39 3.91,37.86 3.98,43.34 4.01,49.21 4.03,55.08 4.04,61.52 4.05,67.96 4.25,72.24 4.45,76.52 4.73,79.71 5.01,82.89 5.13,85.07 5.25,87.24 5.41,88.76 5.57,90.28 5.77,93.47 5.98,96.66 5.93,96.96 5.88,97.26 5.74,97.53 5.60,97.79 5.38,98.00 5.16,98.21 4.89,98.34 4.62,98.47 4.32,98.50 4.01,98.54 3.72,98.47 3.42,98.41 3.16,98.25 2.91,98.10 2.71,97.87 2.51,97.64 2.40,97.36 2.29,97.08 2.27,96.78 2.25,96.48 2.33,96.18 2.41,95.89 2.58,95.64 2.75,95.39 2.99,95.21 3.23,95.02 3.51,94.93 3.80,94.83 4.10,94.83 4.40,94.83 4.69,94.92 4.98,95.02 5.22,95.20 5.46,95.38 5.63,95.63 5.80,95.88 5.88,96.17 5.96,96.46 5.95,96.76 5.93,97.07 5.82,97.35 5.71,97.63 5.52,97.86 5.32,98.09 5.06,98.25 4.81,98.40 4.51,98.47 4.22,98.53 3.92,98.50 3.62,98.47 3.34,98.35 3.07,98.22 2.85,98.01 2.63,97.81 2.48,97.54 2.34,97.27 2.29,96.98 2.24,96.68 2.24,96.68 2.24,96.68 2.37,93.53 2.50,90.38 2.56,88.89 2.61,87.39 2.49,85.26 2.37,83.12 2.08,79.89 1.80,76.65 1.59,72.30 1.39,67.96 1.37,61.53 1.35,55.09 1.32,49.23 1.28,43.37 1.20,37.93 1.12,32.49 0.95,28.06 0.77,23.62 0.36,20.06 -0.03,16.50 -0.54,13.53 -1.04,10.56 -1.27,7.84 -1.49,5.12 -1.52,2.56 -1.56,0 -1.53,-0.18 -1.51,-0.37 -1.45,-0.54 -1.38,-0.72 -1.27,-0.88 -1.16,-1.03 -1.02,-1.16 -0.88,-1.28 -0.72,-1.37 -0.55,-1.46 -0.37,-1.50 -0.18,-1.55 0.00,-1.55 0.18,-1.55 0.37,-1.50 0.55,-1.46 0.72,-1.37 0.88,-1.28 1.02,-1.16 1.16,-1.03 1.27,-0.88 1.38,-0.72 1.45,-0.54 1.51,-0.37 1.53,-0.18 1.56,0.00 1.56,0.00 L 1.56,0 Z"></path></g><g transform="translate(101.19061526573569 17.1080790168902) rotate(0 7.54206876916578 43.19555907347956)" stroke="none"><path fill="#ffffff" d="M -1.82,-1.82 Q -1.82,-1.82 -1.04,-2.63 -0.27,-3.44 0.77,-4.04 1.82,-4.64 3.15,-4.42 4.48,-4.19 5.35,-2.33 6.23,-0.48 6.04,0.91 5.85,2.30 5.55,3.48 5.26,4.66 5.16,5.50 5.07,6.35 4.94,6.68 4.81,7.01 4.60,7.30 4.40,7.59 4.13,7.82 3.86,8.05 3.55,8.21 3.23,8.37 2.88,8.45 2.54,8.53 2.19,8.53 1.83,8.52 1.49,8.43 1.14,8.34 0.83,8.18 0.52,8.01 0.26,7.77 0.00,7.53 -0.19,7.24 -0.39,6.94 -0.51,6.61 -0.63,6.27 -0.67,5.92 -0.71,5.57 -0.66,5.22 -0.61,4.87 2.16,5.57 4.94,6.27 4.81,6.59 4.68,6.92 4.48,7.21 4.28,7.49 4.01,7.72 3.75,7.95 3.43,8.11 3.12,8.27 2.78,8.35 2.44,8.43 2.09,8.42 1.74,8.42 1.40,8.33 1.06,8.24 0.75,8.07 0.44,7.91 0.18,7.67 -0.07,7.43 -0.26,7.14 -0.46,6.85 -0.58,6.52 -0.70,6.19 -0.74,5.84 -0.77,5.50 -0.73,5.15 -0.68,4.80 0.79,3.46 2.27,2.12 3.27,1.47 4.26,0.81 5.34,0.10 6.42,-0.61 7.05,-1.31 7.68,-2.00 7.98,-2.18 8.29,-2.37 8.63,-2.47 8.96,-2.57 9.32,-2.59 9.67,-2.61 10.02,-2.55 10.37,-2.48 10.69,-2.33 11.01,-2.19 11.29,-1.97 11.57,-1.75 11.78,-1.46 12.00,-1.18 12.14,-0.86 12.29,-0.54 12.35,-0.19 12.41,0.15 12.39,0.50 12.37,0.86 12.26,1.20 12.15,1.53 11.97,1.84 11.78,2.14 11.53,2.39 11.28,2.64 9.63,4.85 7.99,7.06 6.56,8.89 5.13,10.71 4.42,12.30 3.70,13.89 2.98,15.36 2.26,16.83 2.39,17.44 2.53,18.04 2.39,18.27 2.25,18.49 2.06,18.68 1.88,18.86 1.65,18.99 1.43,19.13 1.17,19.20 0.92,19.28 0.66,19.29 0.40,19.31 0.14,19.26 -0.11,19.21 -0.35,19.10 -0.58,18.99 -0.79,18.83 -0.99,18.66 -1.15,18.46 -1.32,18.25 -1.42,18.01 -1.53,17.77 -1.57,17.51 -1.62,17.25 -1.60,16.99 -1.58,16.73 -1.50,16.48 -1.42,16.23 -0.36,15.10 0.69,13.98 1.53,12.93 2.38,11.88 3.62,10.59 4.87,9.29 5.41,8.31 5.95,7.33 6.20,6.62 6.44,5.91 6.62,5.68 6.80,5.46 7.03,5.29 7.26,5.11 7.52,5.00 7.79,4.88 8.07,4.83 8.35,4.79 8.64,4.81 8.93,4.83 9.20,4.92 9.47,5.01 9.72,5.16 9.96,5.31 10.16,5.51 10.36,5.72 10.51,5.97 10.65,6.22 10.74,6.49 10.82,6.77 10.83,7.05 10.84,7.34 10.79,7.62 10.73,7.91 10.61,8.17 10.49,8.43 9.82,10.12 9.15,11.81 8.81,12.92 8.47,14.03 7.14,13.95 5.81,13.87 6.72,12.58 7.63,11.29 8.19,10.46 8.75,9.63 9.00,9.41 9.26,9.19 9.55,9.04 9.85,8.89 10.17,8.82 10.50,8.74 10.83,8.74 11.16,8.75 11.48,8.83 11.81,8.92 12.10,9.08 12.39,9.23 12.64,9.46 12.88,9.68 13.07,9.96 13.25,10.23 13.37,10.55 13.48,10.86 13.52,11.19 13.55,11.52 13.51,11.85 13.46,12.18 13.34,12.49 13.22,12.80 13.03,13.07 12.83,13.34 11.57,14.63 10.30,15.93 9.31,17.10 8.32,18.28 7.70,19.76 7.09,21.24 6.03,20.11 4.96,18.97 6.13,18.23 7.29,17.49 7.64,17.42 7.99,17.35 8.35,17.37 8.70,17.39 9.04,17.49 9.39,17.59 9.69,17.78 10.00,17.96 10.25,18.21 10.51,18.46 10.70,18.76 10.89,19.06 11.00,19.40 11.10,19.74 11.13,20.10 11.16,20.45 11.10,20.80 11.03,21.15 10.89,21.48 10.75,21.81 10.53,22.09 10.32,22.37 10.04,22.60 9.76,22.82 9.44,22.97 9.11,23.12 10.11,21.73 11.10,20.35 10.63,21.95 10.15,23.55 9.24,24.99 8.33,26.43 7.78,27.91 7.22,29.39 7.35,29.87 7.48,30.34 7.36,30.67 7.23,31.00 7.02,31.29 6.82,31.58 6.55,31.81 6.29,32.05 5.97,32.21 5.66,32.37 5.32,32.45 4.97,32.53 4.62,32.53 4.27,32.53 3.92,32.44 3.58,32.35 3.27,32.19 2.96,32.02 2.69,31.78 2.43,31.55 2.23,31.25 2.03,30.96 1.91,30.63 1.79,30.30 1.75,29.95 1.71,29.60 1.76,29.25 1.80,28.90 2.63,27.78 3.45,26.66 4.37,25.95 5.29,25.23 5.57,24.74 5.86,24.24 6.12,23.99 6.38,23.74 6.70,23.56 7.01,23.38 7.36,23.28 7.71,23.18 8.08,23.17 8.44,23.16 8.79,23.23 9.15,23.31 9.48,23.46 9.81,23.62 10.09,23.85 10.37,24.08 10.58,24.37 10.80,24.66 10.94,25.00 11.08,25.33 11.14,25.69 11.20,26.05 11.16,26.41 11.13,26.78 11.02,27.12 10.90,27.46 10.70,27.77 10.51,28.08 9.47,29.91 8.43,31.74 7.97,32.75 7.51,33.75 6.12,33.45 4.74,33.14 5.15,32.51 5.57,31.88 5.88,31.69 6.20,31.50 6.55,31.39 6.90,31.28 7.27,31.26 7.64,31.24 8.00,31.31 8.36,31.38 8.70,31.53 9.03,31.68 9.32,31.91 9.61,32.14 9.83,32.43 10.06,32.72 10.21,33.05 10.36,33.39 10.42,33.75 10.49,34.11 10.46,34.48 10.44,34.85 10.33,35.20 10.22,35.55 10.03,35.86 9.84,36.18 9.58,36.44 9.31,36.70 8.48,37.89 7.65,39.08 5.70,38.89 3.74,38.70 4.69,37.46 5.64,36.21 6.01,35.93 6.38,35.64 6.64,35.35 6.89,35.07 7.21,34.85 7.52,34.63 7.88,34.50 8.24,34.36 8.63,34.31 9.01,34.27 9.39,34.32 9.77,34.36 10.13,34.50 10.49,34.64 10.80,34.86 11.12,35.08 11.37,35.36 11.63,35.65 11.80,35.99 11.98,36.33 12.07,36.71 12.16,37.08 12.16,37.46 12.16,37.85 12.07,38.22 11.98,38.59 11.80,38.93 11.62,39.27 10.42,41.10 9.22,42.94 8.48,44.15 7.75,45.37 7.39,46.57 7.03,47.77 5.54,46.84 4.06,45.91 5.24,44.34 6.42,42.78 6.88,42.47 7.34,42.17 7.63,41.93 7.92,41.70 8.25,41.54 8.59,41.38 8.96,41.31 9.32,41.23 9.69,41.25 10.07,41.27 10.42,41.37 10.78,41.48 11.11,41.66 11.43,41.85 11.70,42.11 11.96,42.37 12.16,42.68 12.36,43.00 12.48,43.35 12.59,43.71 12.62,44.08 12.65,44.45 12.59,44.82 12.53,45.19 12.38,45.53 12.24,45.87 12.01,46.17 11.79,46.47 11.42,47.85 11.05,49.23 10.10,50.87 9.14,52.52 8.36,53.92 7.58,55.31 6.84,56.69 6.10,58.06 5.98,58.89 5.86,59.72 5.71,60.01 5.56,60.30 5.34,60.54 5.12,60.79 4.85,60.97 4.58,61.16 4.28,61.28 3.97,61.39 3.65,61.43 3.32,61.47 3.00,61.43 2.67,61.39 2.37,61.28 2.06,61.16 1.79,60.98 1.52,60.79 1.30,60.54 1.08,60.30 0.93,60.01 0.78,59.72 0.70,59.40 0.62,59.08 0.62,58.76 0.62,58.43 0.70,58.11 0.78,57.79 2.01,56.72 3.25,55.65 4.49,54.55 5.72,53.45 6.42,52.89 7.11,52.33 7.38,52.11 7.64,51.88 7.95,51.73 8.26,51.58 8.60,51.50 8.94,51.42 9.28,51.43 9.63,51.44 9.96,51.53 10.30,51.62 10.60,51.79 10.90,51.95 11.16,52.19 11.41,52.42 11.60,52.71 11.79,53.00 11.91,53.33 12.02,53.65 12.06,54.00 12.09,54.34 12.04,54.69 11.99,55.03 11.86,55.35 11.73,55.67 11.53,55.95 11.33,56.23 11.05,57.32 10.77,58.41 9.88,59.67 8.99,60.94 8.30,62.09 7.60,63.24 7.52,64.34 7.43,65.44 7.29,65.76 7.14,66.07 6.92,66.34 6.70,66.61 6.43,66.82 6.15,67.03 5.83,67.17 5.51,67.31 5.17,67.37 4.83,67.42 4.48,67.40 4.13,67.37 3.80,67.26 3.47,67.15 3.18,66.97 2.88,66.78 2.64,66.53 2.40,66.29 2.22,65.99 2.05,65.69 1.95,65.35 1.85,65.02 1.84,64.67 1.82,64.32 1.89,63.98 1.96,63.64 3.90,62.23 5.85,60.83 7.31,59.87 8.77,58.92 9.28,58.45 9.79,57.98 10.10,57.80 10.40,57.63 10.74,57.53 11.08,57.43 11.43,57.41 11.78,57.40 12.13,57.47 12.47,57.54 12.79,57.69 13.11,57.84 13.38,58.06 13.65,58.28 13.87,58.56 14.08,58.84 14.22,59.16 14.36,59.49 14.41,59.84 14.47,60.18 14.44,60.53 14.42,60.88 14.31,61.22 14.20,61.55 14.01,61.85 13.82,62.15 13.57,62.39 13.31,62.64 12.19,64.61 11.07,66.59 9.83,68.10 8.59,69.61 7.98,70.90 7.36,72.18 7.12,73.03 6.87,73.88 6.71,74.15 6.55,74.41 6.33,74.63 6.11,74.84 5.84,75.00 5.57,75.16 5.28,75.25 4.98,75.34 4.67,75.36 4.37,75.37 4.06,75.32 3.76,75.26 3.48,75.13 3.20,75.00 2.96,74.81 2.71,74.62 2.52,74.37 2.34,74.13 2.21,73.84 2.09,73.56 2.03,73.26 1.98,72.95 2.00,72.64 2.02,72.34 2.11,72.04 2.21,71.75 4.00,71.24 5.80,70.72 7.72,69.50 9.64,68.28 10.81,67.57 11.99,66.86 12.68,66.30 13.38,65.75 13.66,65.62 13.94,65.50 14.24,65.44 14.55,65.38 14.86,65.40 15.17,65.42 15.46,65.51 15.76,65.60 16.02,65.76 16.29,65.92 16.50,66.14 16.72,66.36 16.88,66.63 17.04,66.89 17.14,67.19 17.23,67.48 17.25,67.79 17.27,68.10 17.21,68.40 17.15,68.71 17.03,68.99 16.90,69.27 16.71,69.52 16.52,69.76 16.28,69.95 16.03,70.14 15.13,71.66 14.24,73.17 12.75,74.80 11.26,76.43 10.34,77.81 9.42,79.19 8.89,80.20 8.35,81.22 8.75,79.82 9.15,78.43 9.80,78.12 10.46,77.81 10.76,77.66 11.06,77.52 11.39,77.45 11.72,77.38 12.06,77.39 12.40,77.40 12.72,77.49 13.05,77.58 13.34,77.75 13.63,77.92 13.88,78.15 14.12,78.38 14.30,78.66 14.48,78.95 14.59,79.27 14.70,79.59 14.73,79.92 14.76,80.26 14.71,80.59 14.66,80.92 14.52,81.24 14.39,81.55 14.19,81.82 13.99,82.09 13.73,82.30 13.47,82.52 12.63,83.42 11.78,84.32 10.27,86.21 8.77,88.10 8.01,88.91 7.26,89.73 7.13,90.13 7.00,90.53 6.75,90.74 6.49,90.96 6.19,91.10 5.89,91.25 5.56,91.32 5.23,91.39 4.90,91.38 4.56,91.37 4.24,91.28 3.91,91.19 3.62,91.02 3.33,90.86 3.09,90.63 2.84,90.40 2.66,90.11 2.48,89.83 2.37,89.52 2.26,89.20 2.23,88.87 2.20,88.53 2.26,88.20 2.31,87.87 2.44,87.56 2.56,87.25 2.76,86.98 2.96,86.71 4.34,86.24 5.72,85.76 7.21,84.89 8.70,84.02 9.71,83.43 10.71,82.83 11.03,82.67 11.35,82.52 11.69,82.44 12.04,82.37 12.39,82.38 12.75,82.39 13.09,82.48 13.43,82.58 13.74,82.75 14.04,82.93 14.30,83.17 14.56,83.41 14.75,83.71 14.94,84.01 15.06,84.34 15.17,84.68 15.21,85.03 15.24,85.38 15.19,85.73 15.13,86.08 15.00,86.41 14.86,86.73 14.65,87.02 14.44,87.30 14.17,87.53 13.90,87.76 12.36,89.26 10.83,90.76 10.41,91.00 9.99,91.25 9.51,91.35 9.04,91.45 8.55,91.39 8.07,91.33 7.63,91.12 7.19,90.91 6.84,90.57 6.49,90.23 6.27,89.80 6.05,89.37 5.98,88.89 5.90,88.41 5.99,87.93 6.07,87.45 6.30,87.02 6.54,86.60 6.89,86.27 7.25,85.94 7.69,85.74 8.14,85.54 8.62,85.49 9.11,85.44 9.58,85.55 10.05,85.66 10.47,85.92 10.88,86.17 11.19,86.55 11.50,86.92 11.68,87.38 11.85,87.83 11.87,88.32 11.89,88.80 11.76,89.27 11.62,89.74 11.34,90.14 11.07,90.54 10.68,90.83 10.29,91.12 9.82,91.27 9.36,91.42 8.87,91.41 8.39,91.40 7.93,91.24 7.47,91.08 7.09,90.78 6.70,90.48 6.43,90.08 6.17,89.67 6.04,89.20 5.92,88.73 5.95,88.25 5.98,87.76 6.17,87.31 6.35,86.86 6.67,86.50 6.99,86.13 6.99,86.13 6.99,86.13 8.32,85.62 9.65,85.11 10.18,83.97 10.71,82.83 11.03,82.67 11.35,82.52 11.69,82.44 12.04,82.37 12.39,82.38 12.75,82.39 13.09,82.48 13.43,82.58 13.74,82.75 14.04,82.93 14.30,83.17 14.56,83.41 14.75,83.71 14.94,84.01 15.06,84.34 15.17,84.67 15.21,85.03 15.24,85.38 15.19,85.73 15.13,86.08 15.00,86.41 14.86,86.73 14.65,87.02 14.44,87.30 14.17,87.53 13.90,87.76 12.57,88.41 11.24,89.06 9.12,89.80 7.00,90.53 6.75,90.74 6.49,90.96 6.19,91.10 5.89,91.25 5.56,91.32 5.23,91.39 4.90,91.38 4.56,91.37 4.24,91.28 3.92,91.19 3.62,91.02 3.33,90.86 3.09,90.63 2.84,90.40 2.66,90.12 2.48,89.83 2.37,89.52 2.26,89.20 2.23,88.87 2.20,88.53 2.26,88.20 2.31,87.87 2.44,87.56 2.56,87.25 2.76,86.98 2.96,86.71 3.09,86.43 3.22,86.14 3.99,85.34 4.76,84.53 5.55,83.66 6.33,82.79 7.09,81.79 7.85,80.80 9.15,79.30 10.46,77.81 10.76,77.66 11.06,77.52 11.39,77.45 11.72,77.38 12.06,77.39 12.40,77.40 12.72,77.49 13.04,77.58 13.34,77.75 13.63,77.92 13.88,78.15 14.12,78.38 14.30,78.66 14.48,78.95 14.59,79.27 14.70,79.59 14.73,79.92 14.76,80.26 14.71,80.59 14.66,80.92 14.52,81.24 14.39,81.55 14.19,81.82 13.99,82.09 13.73,82.30 13.47,82.52 12.44,82.89 11.40,83.27 10.06,83.78 8.73,84.29 6.64,83.68 4.55,83.06 4.47,80.99 4.39,78.91 5.06,77.87 5.73,76.83 6.72,75.22 7.71,73.62 8.85,71.92 9.99,70.23 10.69,69.22 11.40,68.21 12.39,66.98 13.38,65.75 13.66,65.62 13.94,65.50 14.24,65.44 14.55,65.38 14.86,65.40 15.17,65.42 15.46,65.51 15.76,65.60 16.02,65.76 16.29,65.92 16.50,66.14 16.72,66.36 16.88,66.63 17.04,66.89 17.14,67.19 17.23,67.48 17.25,67.79 17.27,68.10 17.21,68.40 17.15,68.71 17.03,68.99 16.90,69.27 16.71,69.51 16.52,69.76 16.28,69.95 16.03,70.14 15.29,70.61 14.55,71.08 13.28,71.85 12.01,72.61 10.45,73.53 8.89,74.44 7.02,74.98 5.15,75.53 6.01,74.71 6.87,73.88 6.71,74.15 6.55,74.41 6.33,74.63 6.11,74.84 5.84,75.00 5.58,75.16 5.28,75.25 4.98,75.34 4.68,75.36 4.37,75.37 4.06,75.32 3.76,75.26 3.48,75.13 3.20,75.00 2.96,74.81 2.71,74.62 2.52,74.37 2.34,74.13 2.21,73.84 2.09,73.56 2.03,73.26 1.98,72.95 2.00,72.65 2.02,72.34 2.11,72.04 2.21,71.75 2.54,70.94 2.88,70.13 3.63,68.43 4.38,66.72 5.43,64.93 6.48,63.13 7.66,61.98 8.85,60.82 9.32,59.40 9.79,57.98 10.10,57.80 10.40,57.63 10.74,57.53 11.08,57.43 11.43,57.41 11.78,57.40 12.13,57.47 12.47,57.54 12.79,57.69 13.11,57.84 13.38,58.06 13.65,58.28 13.87,58.56 14.08,58.84 14.22,59.16 14.36,59.49 14.41,59.84 14.47,60.18 14.44,60.53 14.42,60.88 14.31,61.22 14.20,61.55 14.01,61.85 13.82,62.15 13.57,62.39 13.31,62.64 12.77,63.06 12.22,63.49 11.22,64.19 10.22,64.90 8.83,65.17 7.43,65.44 7.29,65.76 7.14,66.07 6.92,66.34 6.70,66.61 6.43,66.82 6.15,67.03 5.83,67.17 5.51,67.31 5.17,67.37 4.83,67.42 4.48,67.40 4.13,67.37 3.80,67.26 3.47,67.15 3.18,66.97 2.88,66.78 2.64,66.53 2.40,66.29 2.22,65.99 2.05,65.69 1.95,65.35 1.85,65.02 1.84,64.67 1.82,64.32 1.89,63.98 1.96,63.64 1.91,63.33 1.87,63.02 2.31,61.77 2.76,60.51 3.51,59.12 4.26,57.72 5.23,56.31 6.21,54.89 6.66,53.61 7.11,52.33 7.38,52.11 7.64,51.88 7.95,51.73 8.26,51.58 8.60,51.50 8.94,51.42 9.28,51.43 9.63,51.44 9.96,51.53 10.30,51.62 10.60,51.79 10.90,51.95 11.16,52.19 11.41,52.42 11.60,52.71 11.79,53.00 11.91,53.33 12.02,53.65 12.06,54.00 12.09,54.34 12.04,54.69 11.99,55.03 11.86,55.35 11.73,55.67 11.53,55.95 11.33,56.23 10.59,56.76 9.86,57.29 7.86,58.50 5.86,59.72 5.71,60.01 5.56,60.30 5.34,60.54 5.12,60.79 4.85,60.97 4.58,61.16 4.28,61.28 3.97,61.39 3.65,61.43 3.32,61.47 3.00,61.43 2.67,61.39 2.37,61.28 2.06,61.16 1.79,60.98 1.52,60.79 1.30,60.54 1.08,60.30 0.93,60.01 0.78,59.72 0.70,59.40 0.62,59.08 0.62,58.76 0.62,58.43 0.70,58.11 0.78,57.79 0.74,58.01 0.71,58.22 1.08,56.97 1.45,55.72 2.13,54.30 2.80,52.88 3.48,51.40 4.16,49.93 4.79,48.52 5.42,47.12 5.82,45.96 6.21,44.80 6.78,43.48 7.34,42.17 7.63,41.93 7.92,41.70 8.25,41.54 8.59,41.38 8.96,41.31 9.32,41.23 9.69,41.25 10.07,41.27 10.42,41.37 10.78,41.48 11.10,41.66 11.43,41.85 11.70,42.11 11.96,42.37 12.16,42.68 12.36,43.00 12.48,43.35 12.59,43.71 12.62,44.08 12.65,44.45 12.59,44.82 12.53,45.19 12.38,45.53 12.24,45.87 12.01,46.17 11.79,46.47 10.62,47.43 9.46,48.38 8.37,49.42 7.28,50.45 6.19,50.69 5.11,50.92 3.34,49.63 1.57,48.34 1.66,46.94 1.74,45.54 2.17,44.07 2.59,42.60 3.30,41.17 4.00,39.75 5.19,37.70 6.38,35.64 6.64,35.35 6.89,35.07 7.21,34.85 7.52,34.63 7.88,34.50 8.24,34.36 8.63,34.31 9.01,34.27 9.39,34.32 9.77,34.36 10.13,34.50 10.49,34.64 10.80,34.86 11.12,35.08 11.37,35.36 11.63,35.65 11.80,35.99 11.98,36.33 12.07,36.71 12.16,37.08 12.16,37.46 12.16,37.85 12.07,38.22 11.98,38.59 11.80,38.93 11.62,39.27 10.56,40.43 9.51,41.59 7.46,42.87 5.41,44.14 3.49,41.49 1.58,38.84 2.01,37.42 2.45,36.00 4.01,33.94 5.57,31.88 5.88,31.69 6.20,31.50 6.55,31.39 6.90,31.28 7.27,31.26 7.64,31.24 8.00,31.31 8.36,31.38 8.69,31.53 9.03,31.68 9.32,31.91 9.61,32.14 9.83,32.43 10.06,32.72 10.21,33.05 10.36,33.39 10.42,33.75 10.49,34.11 10.46,34.48 10.44,34.85 10.33,35.20 10.22,35.55 10.03,35.86 9.84,36.18 9.58,36.44 9.31,36.70 9.13,36.75 8.94,36.80 7.14,37.48 5.33,38.17 3.53,36.48 1.72,34.79 1.98,33.10 2.24,31.41 2.82,30.12 3.39,28.84 4.05,27.57 4.71,26.30 5.28,25.27 5.86,24.24 6.12,23.99 6.38,23.74 6.70,23.56 7.01,23.38 7.36,23.28 7.71,23.18 8.08,23.17 8.44,23.16 8.79,23.23 9.15,23.31 9.48,23.46 9.80,23.62 10.09,23.85 10.37,24.08 10.58,24.37 10.80,24.66 10.94,25.00 11.08,25.33 11.14,25.69 11.20,26.05 11.16,26.41 11.13,26.78 11.02,27.12 10.90,27.46 10.70,27.77 10.51,28.08 10.49,28.12 10.47,28.17 8.98,29.25 7.48,30.34 7.36,30.67 7.23,31.00 7.02,31.29 6.82,31.58 6.55,31.81 6.29,32.05 5.97,32.21 5.66,32.37 5.32,32.45 4.97,32.53 4.62,32.53 4.27,32.53 3.92,32.44 3.58,32.35 3.27,32.19 2.96,32.02 2.69,31.78 2.43,31.55 2.23,31.25 2.03,30.96 1.91,30.63 1.79,30.30 1.75,29.95 1.71,29.60 1.76,29.25 1.80,28.90 1.72,28.63 1.65,28.37 1.98,27.17 2.31,25.96 2.90,24.70 3.50,23.43 4.41,22.00 5.33,20.56 6.31,19.03 7.29,17.49 7.64,17.42 7.99,17.35 8.35,17.37 8.70,17.39 9.04,17.49 9.39,17.59 9.69,17.78 10.00,17.96 10.25,18.21 10.51,18.45 10.70,18.76 10.89,19.06 10.99,19.40 11.10,19.74 11.13,20.09 11.16,20.45 11.10,20.80 11.03,21.15 10.89,21.48 10.75,21.81 10.53,22.09 10.32,22.37 10.04,22.60 9.76,22.82 9.44,22.97 9.11,23.12 8.63,23.38 8.15,23.63 6.26,23.72 4.37,23.80 3.14,21.93 1.90,20.05 2.30,18.85 2.71,17.65 3.45,16.34 4.20,15.04 5.18,13.71 6.17,12.38 7.46,11.00 8.75,9.63 9.00,9.41 9.26,9.19 9.55,9.04 9.85,8.89 10.17,8.82 10.50,8.74 10.83,8.74 11.16,8.75 11.48,8.83 11.81,8.92 12.10,9.08 12.39,9.23 12.64,9.46 12.88,9.68 13.07,9.96 13.25,10.23 13.37,10.55 13.48,10.86 13.52,11.19 13.55,11.52 13.51,11.85 13.46,12.18 13.34,12.49 13.22,12.80 13.03,13.07 12.83,13.34 12.24,14.14 11.64,14.93 10.49,16.15 9.34,17.36 8.14,17.78 6.94,18.20 5.27,17.20 3.59,16.19 3.64,14.33 3.69,12.47 4.16,11.10 4.63,9.73 5.54,7.82 6.44,5.91 6.62,5.68 6.80,5.46 7.03,5.29 7.26,5.11 7.52,5.00 7.79,4.88 8.07,4.83 8.35,4.79 8.64,4.81 8.93,4.83 9.20,4.92 9.47,5.01 9.72,5.16 9.96,5.31 10.16,5.51 10.36,5.72 10.51,5.97 10.65,6.22 10.74,6.49 10.82,6.77 10.83,7.05 10.84,7.34 10.79,7.62 10.73,7.90 10.61,8.17 10.49,8.43 10.14,9.07 9.79,9.71 8.92,10.99 8.06,12.26 6.93,13.51 5.80,14.75 4.16,16.40 2.53,18.04 2.39,18.27 2.25,18.49 2.06,18.68 1.88,18.86 1.65,18.99 1.43,19.13 1.17,19.20 0.92,19.28 0.66,19.29 0.40,19.31 0.14,19.26 -0.11,19.21 -0.34,19.10 -0.58,18.99 -0.79,18.83 -0.99,18.66 -1.15,18.46 -1.31,18.25 -1.42,18.01 -1.53,17.77 -1.57,17.51 -1.62,17.25 -1.60,16.99 -1.58,16.73 -1.50,16.48 -1.42,16.23 -1.47,15.91 -1.52,15.58 -0.81,13.94 -0.10,12.30 0.68,10.28 1.47,8.25 2.66,6.22 3.85,4.18 4.87,2.37 5.89,0.56 6.78,-0.72 7.68,-2.00 7.98,-2.18 8.29,-2.37 8.63,-2.47 8.96,-2.57 9.32,-2.59 9.67,-2.61 10.02,-2.55 10.37,-2.48 10.69,-2.33 11.01,-2.19 11.29,-1.97 11.57,-1.75 11.78,-1.47 12.00,-1.18 12.14,-0.86 12.29,-0.54 12.35,-0.19 12.41,0.15 12.39,0.50 12.37,0.86 12.26,1.20 12.15,1.53 11.97,1.84 11.78,2.14 11.53,2.39 11.28,2.64 10.45,3.37 9.62,4.11 8.57,4.83 7.52,5.56 6.23,5.91 4.94,6.27 4.81,6.59 4.68,6.92 4.48,7.21 4.28,7.49 4.01,7.72 3.75,7.95 3.43,8.11 3.12,8.27 2.78,8.35 2.44,8.43 2.09,8.42 1.74,8.42 1.40,8.33 1.06,8.24 0.75,8.07 0.44,7.91 0.18,7.67 -0.07,7.43 -0.26,7.14 -0.46,6.85 -0.58,6.52 -0.70,6.19 -0.74,5.85 -0.77,5.50 -0.73,5.15 -0.68,4.80 2.19,5.58 5.07,6.35 4.94,6.68 4.81,7.01 4.60,7.30 4.40,7.59 4.13,7.82 3.86,8.05 3.55,8.21 3.23,8.37 2.89,8.45 2.54,8.53 2.19,8.53 1.83,8.52 1.49,8.43 1.15,8.34 0.83,8.18 0.52,8.01 0.26,7.77 0.00,7.53 -0.19,7.24 -0.39,6.94 -0.51,6.61 -0.63,6.28 -0.67,5.92 -0.71,5.57 -0.66,5.22 -0.61,4.87 -0.47,4.03 -0.34,3.20 0.17,1.28 0.70,-0.63 2.06,-0.17 3.42,0.29 2.62,1.05 1.82,1.82 1.57,2.01 1.33,2.20 1.05,2.33 0.76,2.46 0.46,2.51 0.15,2.57 -0.15,2.55 -0.46,2.53 -0.76,2.44 -1.05,2.35 -1.32,2.19 -1.59,2.03 -1.81,1.81 -2.03,1.59 -2.19,1.32 -2.35,1.05 -2.44,0.76 -2.53,0.46 -2.55,0.15 -2.57,-0.15 -2.51,-0.46 -2.46,-0.76 -2.33,-1.05 -2.20,-1.33 -2.01,-1.57 -1.82,-1.82 -1.82,-1.82 L -1.82,-1.82 Z"></path></g><g transform="translate(10 102.81352482662237) rotate(0 1.0284758118073114 13.712871329557174)" stroke="none"><path fill="#ffffff" d="M 1.85,0 Q 1.85,0 1.78,2.36 1.70,4.73 1.85,7.04 1.99,9.36 2.03,12.20 2.08,15.03 2.28,17.75 2.48,20.47 3.09,23.82 3.69,27.17 3.69,27.44 3.68,27.71 3.59,27.96 3.51,28.22 3.34,28.43 3.18,28.64 2.95,28.79 2.73,28.93 2.47,29.00 2.21,29.07 1.94,29.05 1.68,29.03 1.43,28.93 1.18,28.83 0.98,28.65 0.78,28.48 0.64,28.25 0.51,28.01 0.45,27.75 0.40,27.49 0.43,27.22 0.46,26.96 0.58,26.72 0.69,26.47 0.88,26.28 1.07,26.09 1.30,25.97 1.54,25.84 1.81,25.80 2.07,25.76 2.34,25.81 2.60,25.86 2.84,25.99 3.07,26.11 3.25,26.31 3.44,26.51 3.54,26.75 3.65,27.00 3.68,27.27 3.70,27.53 3.64,27.79 3.58,28.05 3.44,28.28 3.30,28.51 3.09,28.68 2.89,28.85 2.64,28.95 2.39,29.04 2.12,29.05 1.85,29.07 1.59,28.99 1.34,28.92 1.12,28.76 0.90,28.61 0.74,28.39 0.58,28.18 0.50,27.92 0.41,27.67 0.41,27.67 0.41,27.67 -0.00,24.19 -0.43,20.72 -0.69,17.92 -0.96,15.12 -1.08,12.37 -1.20,9.63 -1.45,7.18 -1.70,4.73 -1.78,2.36 -1.85,0 -1.82,-0.22 -1.80,-0.44 -1.72,-0.65 -1.64,-0.86 -1.51,-1.04 -1.38,-1.23 -1.22,-1.37 -1.05,-1.52 -0.85,-1.63 -0.65,-1.73 -0.44,-1.78 -0.22,-1.84 0.00,-1.84 0.22,-1.84 0.44,-1.78 0.65,-1.73 0.85,-1.63 1.05,-1.52 1.22,-1.37 1.38,-1.23 1.51,-1.04 1.64,-0.86 1.72,-0.65 1.80,-0.44 1.82,-0.22 1.85,0.00 1.85,0.00 L 1.85,0 Z"></path></g><g transform="translate(10 105.55610955462441) rotate(0 19.54085733775446 5.827972930584394)" stroke="none"><path fill="#ffffff" d="M 1.19,-1.19 Q 1.19,-1.19 2.72,0.41 4.26,2.02 7.13,3.79 10.00,5.56 13.12,6.71 16.24,7.85 19.68,8.54 23.12,9.23 26.53,9.53 29.93,9.83 32.57,9.96 35.21,10.10 37.17,10.16 39.14,10.23 39.37,10.28 39.60,10.32 39.79,10.44 39.99,10.56 40.14,10.73 40.29,10.91 40.38,11.12 40.47,11.34 40.48,11.57 40.49,11.80 40.43,12.02 40.37,12.24 40.25,12.43 40.12,12.62 39.93,12.76 39.75,12.90 39.53,12.98 39.32,13.06 39.09,13.06 38.86,13.06 38.64,12.99 38.42,12.91 38.23,12.78 38.05,12.64 37.92,12.45 37.79,12.26 37.72,12.04 37.66,11.81 37.67,11.58 37.68,11.35 37.77,11.14 37.85,10.92 38.00,10.75 38.15,10.57 38.34,10.45 38.54,10.33 38.77,10.28 38.99,10.23 39.22,10.25 39.45,10.28 39.66,10.37 39.87,10.47 40.04,10.62 40.21,10.78 40.31,10.98 40.42,11.19 40.46,11.41 40.50,11.64 40.47,11.87 40.43,12.10 40.32,12.30 40.22,12.51 40.05,12.67 39.88,12.82 39.68,12.92 39.47,13.02 39.24,13.05 39.01,13.07 39.01,13.07 39.01,13.07 37.04,12.95 35.08,12.83 32.39,12.71 29.70,12.60 26.14,12.30 22.58,12.01 18.91,11.30 15.25,10.59 11.84,9.37 8.44,8.15 5.24,6.21 2.04,4.28 0.42,2.73 -1.19,1.19 -1.31,1.03 -1.44,0.87 -1.52,0.68 -1.60,0.50 -1.64,0.30 -1.68,0.10 -1.66,-0.10 -1.65,-0.30 -1.59,-0.49 -1.53,-0.69 -1.43,-0.86 -1.32,-1.03 -1.18,-1.18 -1.03,-1.32 -0.86,-1.43 -0.69,-1.53 -0.49,-1.59 -0.30,-1.65 -0.10,-1.66 0.10,-1.68 0.30,-1.64 0.50,-1.60 0.68,-1.52 0.87,-1.44 1.03,-1.31 1.19,-1.19 1.19,-1.19 L 1.19,-1.19 Z"></path></g><g transform="translate(15.48516945600386 111.04125285540204) rotate(0 4.799484041163851 5.485143300777565)" stroke="none"><path fill="#ffffff" d="M 2.45,0.70 Q 2.45,0.70 2.05,2.07 1.65,3.45 -0.13,3.59 -1.93,3.72 0.26,2.75 2.45,1.78 3.79,0.95 5.13,0.12 5.43,-0.02 5.73,-0.17 6.05,-0.24 6.38,-0.31 6.72,-0.30 7.05,-0.29 7.37,-0.20 7.69,-0.11 7.99,0.05 8.28,0.21 8.52,0.44 8.77,0.67 8.95,0.95 9.13,1.23 9.24,1.55 9.35,1.86 9.38,2.20 9.41,2.53 9.36,2.86 9.31,3.19 9.18,3.50 9.05,3.81 8.85,4.08 8.65,4.35 8.40,4.56 8.14,4.78 6.16,6.83 4.18,8.89 2.72,9.75 1.26,10.60 0.51,11.37 -0.23,12.14 -0.52,12.27 -0.81,12.41 -1.13,12.46 -1.44,12.52 -1.76,12.51 -2.08,12.49 -2.39,12.39 -2.69,12.30 -2.97,12.14 -3.24,11.97 -3.47,11.75 -3.70,11.52 -3.86,11.25 -4.03,10.98 -4.13,10.67 -4.22,10.37 -4.24,10.05 -4.27,9.73 -4.21,9.41 -4.15,9.10 -4.02,8.80 -3.89,8.51 -3.70,8.26 -3.50,8.01 -3.25,7.81 -3.00,7.61 -0.96,7.56 1.06,7.51 2.56,7.13 4.07,6.75 6.16,6.42 8.25,6.08 9.37,5.69 10.49,5.30 10.77,5.23 11.04,5.17 11.32,5.17 11.60,5.18 11.87,5.25 12.14,5.32 12.39,5.45 12.64,5.59 12.84,5.78 13.05,5.97 13.21,6.20 13.36,6.43 13.46,6.70 13.55,6.96 13.58,7.24 13.61,7.52 13.58,7.80 13.54,8.07 13.43,8.34 13.33,8.60 13.17,8.82 13.00,9.05 12.79,9.24 12.58,9.42 12.33,9.55 12.08,9.67 10.92,10.49 9.77,11.30 9.05,11.70 8.34,12.10 8.04,12.20 7.75,12.29 7.44,12.32 7.13,12.34 6.82,12.29 6.51,12.23 6.23,12.11 5.94,11.98 5.69,11.80 5.44,11.61 5.25,11.36 5.05,11.12 4.92,10.84 4.79,10.55 4.73,10.25 4.67,9.94 4.69,9.63 4.70,9.32 4.79,9.02 4.88,8.72 5.04,8.45 5.19,8.19 5.41,7.96 5.63,7.74 5.89,7.57 6.16,7.41 7.56,7.50 8.96,7.59 10.39,7.61 11.82,7.62 12.24,7.71 12.66,7.81 13.03,8.04 13.40,8.26 13.68,8.60 13.95,8.93 14.11,9.33 14.26,9.73 14.28,10.16 14.30,10.60 14.18,11.01 14.06,11.43 13.81,11.78 13.57,12.13 13.22,12.39 12.88,12.65 12.47,12.78 12.05,12.92 11.62,12.91 11.19,12.91 10.78,12.77 10.38,12.62 10.04,12.36 9.69,12.09 9.46,11.73 9.22,11.37 9.11,10.96 9.00,10.54 9.02,10.11 9.05,9.68 9.22,9.28 9.38,8.88 9.66,8.55 9.95,8.23 10.32,8.01 10.69,7.79 11.11,7.70 11.53,7.61 11.96,7.67 12.39,7.72 12.78,7.90 13.17,8.09 13.48,8.39 13.79,8.69 13.99,9.07 14.19,9.45 14.25,9.88 14.32,10.31 14.24,10.73 14.17,11.16 13.96,11.54 13.76,11.92 13.44,12.21 13.12,12.50 12.73,12.68 12.34,12.86 11.91,12.90 11.48,12.94 11.48,12.94 11.48,12.94 9.91,12.52 8.34,12.10 8.04,12.20 7.75,12.29 7.44,12.32 7.13,12.34 6.82,12.29 6.51,12.23 6.23,12.11 5.94,11.98 5.69,11.80 5.44,11.61 5.25,11.36 5.05,11.12 4.92,10.84 4.79,10.56 4.73,10.25 4.67,9.94 4.69,9.63 4.70,9.32 4.79,9.02 4.88,8.72 5.04,8.45 5.19,8.19 5.41,7.96 5.63,7.74 5.89,7.57 6.16,7.41 6.91,7.10 7.67,6.79 9.08,6.04 10.49,5.30 10.77,5.23 11.04,5.17 11.32,5.17 11.60,5.18 11.87,5.25 12.14,5.32 12.39,5.45 12.64,5.59 12.84,5.78 13.05,5.97 13.21,6.20 13.36,6.43 13.46,6.70 13.55,6.96 13.58,7.24 13.61,7.52 13.58,7.80 13.54,8.07 13.43,8.33 13.33,8.60 13.17,8.82 13.00,9.05 12.79,9.24 12.58,9.42 12.33,9.55 12.08,9.67 11.75,9.61 11.43,9.55 10.29,9.90 9.15,10.26 7.25,10.78 5.35,11.30 2.56,11.72 -0.23,12.14 -0.52,12.27 -0.81,12.41 -1.13,12.46 -1.44,12.52 -1.76,12.51 -2.08,12.49 -2.39,12.39 -2.69,12.30 -2.97,12.14 -3.24,11.97 -3.47,11.75 -3.70,11.52 -3.86,11.25 -4.03,10.98 -4.13,10.67 -4.22,10.37 -4.24,10.05 -4.27,9.73 -4.21,9.41 -4.15,9.10 -4.02,8.80 -3.89,8.51 -3.70,8.26 -3.50,8.01 -3.25,7.81 -3.00,7.61 -2.23,6.90 -1.46,6.19 -0.27,5.43 0.91,4.67 1.87,3.92 2.83,3.18 3.98,1.65 5.13,0.12 5.43,-0.02 5.73,-0.17 6.05,-0.24 6.38,-0.31 6.72,-0.30 7.05,-0.29 7.37,-0.20 7.69,-0.11 7.99,0.05 8.28,0.21 8.52,0.44 8.76,0.67 8.95,0.95 9.13,1.23 9.24,1.55 9.35,1.86 9.38,2.20 9.41,2.53 9.36,2.86 9.31,3.19 9.18,3.50 9.05,3.81 8.85,4.08 8.66,4.35 8.40,4.56 8.14,4.78 7.51,5.01 6.87,5.25 5.67,5.98 4.48,6.71 2.16,7.61 -0.14,8.50 -2.04,6.68 -3.94,4.85 -3.58,3.45 -3.22,2.06 -2.84,0.68 -2.45,-0.70 -2.33,-0.98 -2.21,-1.26 -2.03,-1.51 -1.84,-1.76 -1.61,-1.95 -1.37,-2.15 -1.09,-2.28 -0.81,-2.42 -0.51,-2.48 -0.21,-2.54 0.09,-2.53 0.40,-2.52 0.69,-2.43 0.99,-2.35 1.26,-2.20 1.52,-2.04 1.75,-1.83 1.97,-1.62 2.13,-1.36 2.30,-1.10 2.40,-0.81 2.50,-0.51 2.52,-0.21 2.55,0.09 2.50,0.39 2.45,0.70 2.45,0.70 L 2.45,0.70 Z"></path></g></svg>