<?xml version="1.0" standalone="no"?>
<!DOCTYPE svg PUBLIC "-//W3C//DTD SVG 1.1//EN" "http://www.w3.org/Graphics/SVG/1.1/DTD/svg11.dtd">
<svg version="1.1" xmlns="http://www.w3.org/2000/svg" viewBox="0 0 97.60601912473658 169.8247912160798" width="195.21203824947315" height="339.6495824321596"><!-- svg-source:excalidraw --><metadata></metadata><defs><style class="style-fonts">
      </style></defs><g transform="translate(16.299805794876647 14.930739883048773) rotate(0 0.5249704653467688 72.44702566651551)" stroke="none"><path fill="#ffffff" d="M 1.57,0 Q 1.57,0 1.53,2.71 1.50,5.43 1.77,11.68 2.05,17.93 2.16,28.18 2.27,38.42 2.31,51.52 2.35,64.63 2.36,78.04 2.38,91.46 2.38,102.59 2.38,113.73 2.38,121.48 2.38,129.23 2.38,133.43 2.38,137.63 2.38,139.72 2.39,141.80 2.49,143.35 2.59,144.89 2.55,145.14 2.51,145.38 2.39,145.60 2.28,145.82 2.09,146.00 1.91,146.17 1.69,146.27 1.46,146.38 1.21,146.41 0.96,146.43 0.72,146.38 0.47,146.33 0.26,146.20 0.04,146.07 -0.11,145.88 -0.27,145.69 -0.36,145.45 -0.45,145.22 -0.47,144.97 -0.48,144.72 -0.42,144.48 -0.35,144.24 -0.21,144.03 -0.07,143.83 0.12,143.67 0.32,143.52 0.56,143.44 0.79,143.36 1.04,143.36 1.29,143.36 1.53,143.44 1.77,143.52 1.97,143.67 2.17,143.83 2.31,144.03 2.45,144.24 2.51,144.48 2.58,144.72 2.57,144.97 2.55,145.22 2.46,145.45 2.37,145.69 2.21,145.88 2.05,146.07 1.83,146.20 1.62,146.33 1.37,146.38 1.13,146.43 0.88,146.41 0.63,146.38 0.40,146.27 0.18,146.17 0.00,146.00 -0.18,145.82 -0.29,145.60 -0.41,145.38 -0.45,145.14 -0.49,144.89 -0.49,144.89 -0.49,144.89 -0.39,143.35 -0.29,141.80 -0.29,139.72 -0.28,137.63 -0.29,133.43 -0.29,129.23 -0.30,121.48 -0.31,113.73 -0.33,102.60 -0.34,91.46 -0.38,78.05 -0.41,64.64 -0.48,51.55 -0.55,38.46 -0.69,28.26 -0.84,18.07 -1.17,11.75 -1.50,5.43 -1.53,2.71 -1.57,0 -1.54,-0.18 -1.52,-0.37 -1.45,-0.55 -1.39,-0.73 -1.28,-0.88 -1.17,-1.04 -1.03,-1.16 -0.89,-1.29 -0.72,-1.38 -0.55,-1.46 -0.37,-1.51 -0.18,-1.56 0.00,-1.56 0.18,-1.56 0.37,-1.51 0.55,-1.46 0.72,-1.38 0.89,-1.29 1.03,-1.16 1.17,-1.04 1.28,-0.88 1.39,-0.73 1.45,-0.55 1.52,-0.37 1.54,-0.18 1.57,0.00 1.57,0.00 L 1.57,0 Z"></path></g><g transform="translate(17.349746725570185 12.830837995322554) rotate(0 5.774715171492062 70.3471337919591)" stroke="none"><path fill="#ffffff" d="M -0.17,-1.93 Q -0.17,-1.93 3.15,-2.15 6.48,-2.37 9.13,-2.43 11.79,-2.50 13.37,-2.88 14.96,-3.25 16.01,-3.51 17.07,-3.76 17.21,-3.85 17.36,-3.95 17.59,-3.95 17.83,-3.96 18.06,-3.91 18.29,-3.86 18.51,-3.75 18.72,-3.65 18.90,-3.50 19.08,-3.34 19.22,-3.15 19.36,-2.96 19.45,-2.74 19.54,-2.52 19.58,-2.28 19.61,-2.05 19.59,-1.81 19.57,-1.58 19.49,-1.35 19.41,-1.13 19.28,-0.93 19.15,-0.73 18.98,-0.57 18.80,-0.41 18.59,-0.29 18.39,-0.18 18.16,-0.11 17.93,-0.05 17.78,1.85 17.63,3.75 16.35,6.76 15.07,9.76 13.61,14.88 12.15,20.00 10.91,28.16 9.67,36.31 8.82,47.61 7.97,58.91 7.60,73.96 7.23,89.02 7.06,99.95 6.89,110.88 7.41,117.89 7.94,124.89 8.16,128.81 8.38,132.73 8.50,134.70 8.63,136.67 8.79,137.81 8.95,138.95 8.42,140.85 7.89,142.74 6.09,143.19 4.29,143.63 2.75,143.72 1.21,143.82 -0.81,144.02 -2.84,144.22 -4.97,144.55 -7.10,144.88 -7.44,144.87 -7.79,144.85 -8.10,144.73 -8.42,144.60 -8.68,144.38 -8.94,144.16 -9.12,143.87 -9.30,143.58 -9.37,143.25 -9.45,142.92 -9.41,142.58 -9.38,142.24 -9.24,141.93 -9.10,141.62 -8.86,141.37 -8.63,141.12 -8.33,140.96 -8.03,140.79 -7.69,140.74 -7.36,140.68 -7.02,140.73 -6.68,140.79 -6.38,140.94 -6.08,141.10 -5.84,141.35 -5.61,141.60 -5.46,141.90 -5.32,142.21 -5.28,142.55 -5.24,142.89 -5.31,143.22 -5.38,143.56 -5.56,143.85 -5.73,144.14 -5.99,144.37 -6.25,144.59 -6.56,144.72 -6.88,144.85 -7.22,144.87 -7.56,144.89 -7.89,144.80 -8.22,144.71 -8.50,144.52 -8.79,144.33 -8.99,144.06 -9.20,143.79 -9.31,143.47 -9.42,143.14 -9.43,142.80 -9.43,142.46 -9.32,142.14 -9.21,141.81 -9.01,141.54 -8.80,141.27 -8.52,141.07 -8.24,140.88 -7.91,140.79 -7.59,140.69 -7.59,140.69 -7.59,140.69 -5.51,140.54 -3.43,140.39 -1.20,139.93 1.03,139.48 3.32,139.28 5.62,139.07 5.69,137.94 5.77,136.81 5.70,134.85 5.63,132.89 5.39,129.00 5.15,125.10 4.59,117.97 4.04,110.85 4.16,99.90 4.29,88.95 4.61,73.82 4.93,58.69 5.71,47.27 6.49,35.85 7.66,27.48 8.83,19.11 10.21,13.75 11.59,8.40 12.72,5.23 13.85,2.06 14.50,0.62 15.15,-0.80 16.25,-2.38 17.36,-3.95 17.59,-3.95 17.83,-3.96 18.06,-3.91 18.29,-3.86 18.51,-3.75 18.72,-3.65 18.90,-3.50 19.08,-3.34 19.22,-3.15 19.36,-2.96 19.45,-2.74 19.54,-2.52 19.58,-2.28 19.61,-2.05 19.59,-1.81 19.57,-1.58 19.49,-1.35 19.41,-1.13 19.28,-0.93 19.15,-0.73 18.98,-0.57 18.80,-0.41 18.59,-0.29 18.39,-0.18 18.16,-0.11 17.93,-0.05 16.79,0.02 15.66,0.11 13.81,0.44 11.96,0.78 9.38,0.97 6.80,1.16 3.48,1.54 0.17,1.93 -0.05,1.92 -0.29,1.92 -0.51,1.85 -0.74,1.79 -0.94,1.68 -1.15,1.56 -1.32,1.40 -1.49,1.24 -1.61,1.04 -1.74,0.85 -1.82,0.62 -1.89,0.40 -1.92,0.17 -1.94,-0.05 -1.90,-0.29 -1.87,-0.52 -1.78,-0.73 -1.69,-0.95 -1.55,-1.14 -1.41,-1.33 -1.23,-1.48 -1.05,-1.63 -0.84,-1.73 -0.63,-1.83 -0.40,-1.88 -0.17,-1.93 -0.17,-1.93 L -0.17,-1.93 Z"></path></g><g transform="translate(18.399687656263268 11.780877038289645) rotate(0 -1.0499409306933103 2.624892379412472)" stroke="none"><path fill="#ffffff" d="M 1.90,1.27 Q 1.90,1.27 1.34,2.19 0.79,3.12 0.99,4.24 1.19,5.35 1.09,5.66 1.00,5.97 0.83,6.24 0.67,6.52 0.44,6.74 0.21,6.97 -0.05,7.14 -0.33,7.30 -0.64,7.40 -0.94,7.50 -1.26,7.51 -1.58,7.53 -1.90,7.48 -2.22,7.42 -2.51,7.29 -2.80,7.15 -3.06,6.96 -3.31,6.76 -3.51,6.50 -3.71,6.25 -3.84,5.96 -3.97,5.66 -4.03,5.35 -4.09,5.03 -4.07,4.71 -4.05,4.39 -3.11,1.87 -2.17,-0.63 -2.01,-0.96 -1.86,-1.30 -1.60,-1.56 -1.34,-1.82 -1.02,-1.99 -0.69,-2.16 -0.33,-2.21 0.03,-2.26 0.39,-2.20 0.75,-2.14 1.07,-1.96 1.39,-1.78 1.64,-1.51 1.89,-1.24 2.04,-0.91 2.19,-0.57 2.23,-0.21 2.26,0.15 2.18,0.51 2.09,0.86 1.90,1.18 1.70,1.49 1.42,1.72 1.14,1.96 0.79,2.09 0.45,2.22 0.08,2.23 -0.27,2.25 -0.62,2.14 -0.98,2.04 -1.28,1.83 -1.58,1.62 -1.80,1.33 -2.02,1.03 -2.13,0.68 -2.24,0.33 -2.23,-0.03 -2.23,-0.39 -2.11,-0.74 -1.99,-1.09 -1.76,-1.38 -1.53,-1.67 -1.23,-1.87 -0.92,-2.07 -0.56,-2.16 -0.21,-2.26 0.15,-2.23 0.51,-2.20 0.85,-2.06 1.19,-1.92 1.47,-1.68 1.75,-1.44 1.93,-1.12 2.12,-0.81 2.19,-0.45 2.26,-0.09 2.22,0.27 2.17,0.63 2.17,0.63 2.17,0.63 1.68,2.99 1.19,5.35 1.10,5.66 1.00,5.97 0.83,6.24 0.67,6.52 0.44,6.74 0.21,6.97 -0.05,7.14 -0.33,7.30 -0.64,7.40 -0.94,7.50 -1.26,7.51 -1.58,7.53 -1.90,7.48 -2.22,7.42 -2.51,7.29 -2.80,7.15 -3.06,6.96 -3.31,6.76 -3.51,6.50 -3.71,6.25 -3.84,5.96 -3.97,5.66 -4.03,5.35 -4.09,5.03 -4.07,4.71 -4.05,4.39 -4.11,4.65 -4.17,4.91 -3.69,2.70 -3.20,0.49 -2.55,-0.38 -1.90,-1.27 -1.72,-1.48 -1.54,-1.69 -1.32,-1.85 -1.09,-2.01 -0.84,-2.11 -0.58,-2.21 -0.31,-2.25 -0.03,-2.29 0.23,-2.26 0.51,-2.23 0.77,-2.14 1.03,-2.04 1.26,-1.89 1.49,-1.73 1.67,-1.53 1.86,-1.33 1.99,-1.08 2.12,-0.84 2.20,-0.58 2.27,-0.31 2.27,-0.03 2.27,0.23 2.21,0.50 2.15,0.77 2.03,1.02 1.90,1.27 1.90,1.27 L 1.90,1.27 Z"></path></g><g transform="translate(22.11554861458444 14.070763158882983) rotate(0 0.9736258233167518 41.49158617751948)" stroke="none"><path fill="#ffffff" d="M 1.96,1.63 Q 1.96,1.63 0.84,2.89 -0.26,4.15 -0.99,5.24 -1.71,6.34 -2.22,7.48 -2.73,8.63 -2.65,9.08 -2.57,9.52 -2.73,9.80 -2.89,10.08 -3.12,10.32 -3.34,10.55 -3.62,10.72 -3.89,10.90 -4.20,11.00 -4.50,11.10 -4.82,11.13 -5.15,11.15 -5.47,11.10 -5.78,11.05 -6.08,10.92 -6.38,10.80 -6.64,10.60 -6.90,10.41 -7.10,10.16 -7.31,9.91 -7.44,9.62 -7.58,9.32 -7.65,9.01 -7.71,8.69 -7.70,8.37 -7.69,8.05 -7.60,7.73 -7.51,7.42 -6.55,6.60 -5.59,5.77 -5.03,4.79 -4.47,3.81 -3.30,2.15 -2.13,0.48 -1.06,-0.75 0.00,-1.98 0.22,-2.30 0.44,-2.62 0.71,-2.86 0.99,-3.11 1.31,-3.28 1.63,-3.46 1.99,-3.55 2.34,-3.64 2.71,-3.64 3.08,-3.65 3.43,-3.56 3.79,-3.48 4.12,-3.31 4.45,-3.14 4.72,-2.90 5.00,-2.66 5.21,-2.36 5.42,-2.06 5.56,-1.72 5.69,-1.38 5.74,-1.02 5.79,-0.65 5.75,-0.29 5.71,0.07 5.58,0.41 5.45,0.76 5.25,1.06 5.04,1.37 4.30,2.13 3.55,2.89 2.84,3.71 2.12,4.53 1.25,5.62 0.38,6.70 -0.36,7.78 -1.11,8.85 -1.64,9.99 -2.16,11.14 -2.13,11.49 -2.11,11.83 -2.30,12.14 -2.48,12.45 -2.74,12.70 -2.99,12.96 -3.30,13.14 -3.61,13.33 -3.95,13.44 -4.30,13.54 -4.66,13.56 -5.02,13.59 -5.37,13.52 -5.73,13.45 -6.05,13.31 -6.38,13.16 -6.67,12.93 -6.95,12.71 -7.17,12.43 -7.39,12.14 -7.54,11.81 -7.69,11.48 -7.75,11.13 -7.81,10.78 -7.79,10.42 -7.77,10.06 -7.66,9.71 -7.55,9.37 -6.11,8.18 -4.67,6.99 -3.59,6.17 -2.50,5.36 -1.13,4.33 0.22,3.31 1.30,2.33 2.38,1.34 3.23,0.50 4.07,-0.33 4.72,-1.26 5.36,-2.19 5.73,-2.71 6.10,-3.22 6.35,-3.47 6.60,-3.71 6.90,-3.88 7.20,-4.05 7.53,-4.15 7.86,-4.25 8.21,-4.26 8.56,-4.28 8.90,-4.21 9.24,-4.14 9.55,-3.99 9.86,-3.84 10.13,-3.62 10.40,-3.41 10.61,-3.13 10.82,-2.85 10.96,-2.53 11.09,-2.21 11.15,-1.87 11.21,-1.53 11.18,-1.18 11.15,-0.84 11.04,-0.51 10.93,-0.18 10.75,0.10 10.56,0.40 9.58,1.30 8.59,2.20 7.60,3.22 6.61,4.24 5.77,5.23 4.92,6.22 4.13,7.20 3.35,8.17 2.68,9.16 2.01,10.14 1.53,11.14 1.06,12.15 0.64,13.22 0.22,14.28 -0.03,15.69 -0.30,17.09 -1.98,16.14 -3.66,15.18 -3.34,14.04 -3.02,12.89 -1.93,11.26 -0.84,9.64 -0.10,8.75 0.62,7.85 1.39,6.89 2.16,5.92 2.28,7.40 2.39,8.89 4.12,9.48 5.85,10.07 5.17,11.41 4.48,12.76 3.48,14.01 2.47,15.27 0.94,17.00 -0.59,18.74 -1.57,20.06 -2.56,21.38 -3.16,22.77 -3.76,24.16 -3.80,24.51 -3.83,24.85 -3.98,25.14 -4.12,25.42 -4.34,25.67 -4.55,25.91 -4.81,26.10 -5.08,26.28 -5.38,26.40 -5.68,26.52 -6.00,26.56 -6.32,26.60 -6.64,26.57 -6.96,26.53 -7.26,26.42 -7.57,26.31 -7.83,26.13 -8.10,25.95 -8.32,25.71 -8.53,25.47 -8.69,25.18 -8.84,24.90 -8.92,24.59 -9.00,24.27 -9.00,23.95 -9.01,23.63 -8.93,23.31 -8.86,23.00 -7.31,22.16 -5.76,21.32 -4.80,20.28 -3.83,19.24 -2.83,18.26 -1.82,17.28 -0.95,16.26 -0.08,15.24 0.82,13.73 1.72,12.21 1.79,11.92 1.86,11.63 2.08,11.37 2.29,11.11 2.56,10.91 2.83,10.71 3.14,10.58 3.45,10.45 3.78,10.40 4.11,10.34 4.45,10.37 4.78,10.40 5.10,10.51 5.42,10.62 5.70,10.80 5.98,10.98 6.21,11.22 6.45,11.46 6.61,11.76 6.78,12.05 6.87,12.37 6.96,12.69 6.97,13.03 6.99,13.36 6.92,13.69 6.85,14.02 6.70,14.32 6.56,14.63 5.80,15.70 5.04,16.78 4.12,18.03 3.20,19.28 2.24,20.65 1.27,22.02 0.49,23.32 -0.27,24.63 -0.83,25.70 -1.40,26.77 -3.34,26.32 -5.29,25.88 -4.11,24.39 -2.94,22.91 -1.79,21.84 -0.65,20.77 -0.35,20.56 -0.06,20.36 0.26,20.23 0.60,20.10 0.95,20.06 1.31,20.01 1.66,20.05 2.02,20.09 2.35,20.22 2.69,20.34 2.98,20.54 3.28,20.75 3.51,21.01 3.75,21.28 3.92,21.59 4.09,21.91 4.18,22.26 4.26,22.60 4.27,22.96 4.27,23.32 4.18,23.66 4.10,24.01 3.94,24.33 3.77,24.65 3.54,24.91 3.30,25.18 3.71,23.96 4.12,22.74 3.99,24.12 3.86,25.51 3.22,26.62 2.58,27.72 1.89,28.75 1.21,29.78 0.58,31.22 -0.05,32.66 -1.39,31.32 -2.74,29.99 -2.27,28.75 -1.81,27.52 -1.34,26.92 -0.88,26.32 -0.61,26.05 -0.33,25.77 -0.00,25.57 0.32,25.37 0.69,25.26 1.06,25.14 1.45,25.12 1.84,25.09 2.22,25.16 2.60,25.23 2.95,25.39 3.31,25.55 3.61,25.79 3.92,26.03 4.16,26.34 4.40,26.64 4.56,26.99 4.72,27.35 4.79,27.73 4.86,28.11 4.83,28.50 4.81,28.89 4.69,29.26 4.58,29.63 4.38,29.96 4.18,30.29 3.62,31.22 3.07,32.15 2.00,33.79 0.93,35.43 0.31,36.71 -0.29,38.00 -1.84,37.26 -3.39,36.53 -3.12,35.49 -2.85,34.44 -2.53,34.19 -2.22,33.93 -1.84,33.75 -1.47,33.58 -1.07,33.49 -0.67,33.41 -0.26,33.43 0.14,33.45 0.54,33.56 0.93,33.68 1.28,33.88 1.64,34.09 1.93,34.37 2.23,34.66 2.45,35.01 2.67,35.35 2.80,35.74 2.93,36.13 2.96,36.54 2.99,36.95 2.92,37.36 2.86,37.76 2.70,38.14 2.53,38.52 2.29,38.84 2.04,39.17 1.20,40.58 0.36,41.98 -0.03,42.68 -0.43,43.37 -0.71,43.67 -1.00,43.97 -1.34,44.20 -1.69,44.42 -2.08,44.56 -2.47,44.69 -2.88,44.73 -3.30,44.77 -3.71,44.71 -4.11,44.65 -4.50,44.49 -4.88,44.33 -5.21,44.09 -5.55,43.84 -5.81,43.53 -6.08,43.21 -6.26,42.84 -6.44,42.47 -6.53,42.06 -6.62,41.66 -6.61,41.24 -6.59,40.83 -6.48,40.43 -6.37,40.03 -6.17,39.67 -5.97,39.31 -4.96,38.63 -3.95,37.96 -2.79,37.19 -1.64,36.42 -1.38,36.24 -1.12,36.06 -0.73,35.89 -0.35,35.72 0.05,35.64 0.47,35.57 0.89,35.60 1.31,35.63 1.71,35.76 2.10,35.88 2.46,36.10 2.82,36.32 3.11,36.62 3.41,36.92 3.62,37.28 3.84,37.64 3.96,38.04 4.08,38.45 4.10,38.86 4.13,39.28 4.05,39.70 3.97,40.11 3.79,40.49 3.62,40.87 3.36,41.20 3.10,41.53 2.76,41.78 2.43,42.04 1.78,43.10 1.12,44.15 0.30,43.19 -0.52,42.22 0.86,43.74 2.24,45.25 1.75,46.68 1.26,48.10 0.63,49.11 -0.00,50.12 -1.09,49.11 -2.19,48.10 -2.36,47.82 -2.54,47.54 -2.12,47.43 -1.69,47.32 -1.26,47.31 -0.82,47.31 -0.39,47.41 0.02,47.51 0.41,47.71 0.80,47.91 1.13,48.19 1.46,48.48 1.71,48.84 1.97,49.19 2.13,49.60 2.29,50.01 2.34,50.44 2.40,50.87 2.35,51.31 2.30,51.74 2.15,52.15 2.00,52.56 1.76,52.93 1.51,53.29 1.19,53.58 0.87,53.88 0.48,54.08 0.10,54.29 1.08,52.90 2.06,51.52 1.62,52.65 1.17,53.79 1.71,55.09 2.25,56.38 2.22,57.92 2.19,59.47 1.78,60.65 1.37,61.84 1.43,63.05 1.49,64.26 1.50,65.44 1.51,66.61 1.45,67.85 1.38,69.09 1.31,70.33 1.24,71.57 1.22,72.97 1.20,74.37 1.20,75.52 1.20,76.67 1.13,77.79 1.06,78.92 1.00,80.09 0.93,81.27 0.92,82.95 0.91,84.63 0.81,85.23 0.71,85.83 0.43,86.37 0.14,86.90 -0.29,87.32 -0.73,87.74 -1.28,87.99 -1.84,88.25 -2.44,88.32 -3.05,88.38 -3.64,88.25 -4.24,88.12 -4.76,87.80 -5.28,87.49 -5.67,87.03 -6.06,86.56 -6.29,86.00 -6.51,85.43 -6.55,84.82 -6.58,84.22 -6.42,83.63 -6.25,83.04 -5.91,82.54 -5.57,82.04 -5.08,81.67 -4.60,81.30 -4.02,81.11 -3.45,80.91 -2.84,80.91 -2.23,80.92 -1.65,81.11 -1.08,81.30 -0.59,81.67 -0.11,82.04 0.22,82.55 0.56,83.05 0.73,83.64 0.89,84.22 0.85,84.83 0.82,85.44 0.60,86.00 0.37,86.57 -0.01,87.03 -0.41,87.49 -0.93,87.81 -1.45,88.12 -2.05,88.25 -2.64,88.38 -3.25,88.31 -3.85,88.25 -4.40,87.99 -4.95,87.74 -5.40,87.32 -5.84,86.90 -6.12,86.36 -6.41,85.82 -6.50,85.22 -6.60,84.62 -6.60,84.62 -6.60,84.62 -6.58,82.76 -6.56,80.89 -6.50,79.82 -6.43,78.76 -6.36,77.39 -6.29,76.03 -6.29,74.72 -6.29,73.40 -6.29,72.32 -6.28,71.24 -6.20,69.66 -6.13,68.09 -6.06,66.77 -5.99,65.46 -5.98,64.23 -5.97,63.01 -5.93,61.86 -5.88,60.70 -5.42,59.25 -4.96,57.79 -4.41,58.71 -3.86,59.63 -4.83,58.63 -5.81,57.63 -6.30,56.37 -6.80,55.10 -6.73,53.99 -6.66,52.88 -5.57,51.69 -4.48,50.49 -3.51,49.02 -2.54,47.54 -2.12,47.43 -1.69,47.32 -1.26,47.31 -0.82,47.31 -0.39,47.41 0.02,47.51 0.41,47.71 0.80,47.91 1.13,48.19 1.46,48.48 1.71,48.84 1.97,49.19 2.13,49.60 2.29,50.01 2.34,50.44 2.40,50.87 2.35,51.31 2.30,51.74 2.15,52.15 2.00,52.56 1.76,52.93 1.51,53.29 1.19,53.58 0.87,53.88 0.48,54.08 0.10,54.29 -0.73,54.59 -1.57,54.89 -2.82,54.91 -4.08,54.93 -5.20,54.12 -6.32,53.31 -6.85,51.83 -7.38,50.34 -7.02,48.93 -6.66,47.52 -6.15,46.38 -5.65,45.25 -4.67,44.79 -3.68,44.34 -3.03,46.20 -2.38,48.05 -3.68,47.13 -4.99,46.20 -5.42,44.33 -5.85,42.45 -5.17,41.22 -4.49,40.00 -3.66,38.91 -2.83,37.81 -1.97,36.94 -1.12,36.06 -0.73,35.89 -0.35,35.72 0.05,35.64 0.47,35.57 0.89,35.60 1.31,35.63 1.70,35.76 2.10,35.88 2.46,36.10 2.82,36.32 3.11,36.62 3.41,36.92 3.62,37.28 3.84,37.64 3.96,38.04 4.08,38.45 4.10,38.86 4.13,39.28 4.05,39.70 3.97,40.11 3.79,40.49 3.62,40.87 3.36,41.20 3.10,41.53 2.76,41.78 2.43,42.04 2.16,42.21 1.90,42.38 0.73,42.87 -0.43,43.37 -0.71,43.67 -1.00,43.97 -1.34,44.20 -1.69,44.42 -2.08,44.56 -2.47,44.69 -2.88,44.73 -3.30,44.77 -3.71,44.71 -4.11,44.65 -4.50,44.49 -4.88,44.33 -5.21,44.09 -5.55,43.84 -5.81,43.53 -6.08,43.21 -6.26,42.84 -6.44,42.47 -6.53,42.06 -6.62,41.66 -6.61,41.24 -6.59,40.83 -6.48,40.43 -6.37,40.03 -6.17,39.67 -5.97,39.31 -5.92,39.14 -5.86,38.98 -5.12,37.97 -4.39,36.97 -3.62,35.71 -2.85,34.44 -2.53,34.19 -2.22,33.93 -1.85,33.75 -1.47,33.58 -1.07,33.49 -0.67,33.41 -0.26,33.43 0.14,33.45 0.53,33.56 0.93,33.68 1.28,33.88 1.64,34.09 1.93,34.37 2.23,34.66 2.45,35.01 2.67,35.35 2.80,35.74 2.93,36.13 2.96,36.54 2.99,36.95 2.92,37.36 2.86,37.76 2.70,38.14 2.53,38.51 2.29,38.84 2.04,39.17 1.86,39.34 1.68,39.51 0.78,40.30 -0.10,41.09 -1.85,41.58 -3.60,42.06 -5.16,40.72 -6.72,39.37 -6.49,37.45 -6.26,35.54 -5.37,33.75 -4.48,31.96 -3.46,30.36 -2.45,28.77 -1.67,27.54 -0.88,26.32 -0.61,26.05 -0.33,25.77 -0.00,25.57 0.32,25.37 0.69,25.26 1.06,25.14 1.45,25.12 1.84,25.09 2.22,25.16 2.60,25.23 2.95,25.39 3.31,25.55 3.61,25.79 3.92,26.03 4.16,26.33 4.40,26.64 4.56,26.99 4.72,27.35 4.79,27.73 4.86,28.11 4.83,28.50 4.81,28.89 4.69,29.26 4.58,29.63 4.38,29.96 4.18,30.29 3.96,30.49 3.75,30.68 2.65,31.91 1.55,33.13 0.51,34.06 -0.53,34.98 -1.67,35.11 -2.82,35.23 -4.10,34.40 -5.37,33.56 -5.14,31.12 -4.90,28.68 -4.34,27.61 -3.77,26.55 -2.43,25.19 -1.09,23.83 -0.87,22.30 -0.65,20.77 -0.35,20.56 -0.06,20.36 0.26,20.23 0.60,20.10 0.95,20.06 1.31,20.01 1.66,20.05 2.02,20.09 2.35,20.22 2.69,20.34 2.98,20.54 3.28,20.74 3.51,21.01 3.75,21.28 3.92,21.59 4.09,21.91 4.18,22.25 4.26,22.60 4.27,22.96 4.27,23.32 4.18,23.66 4.10,24.01 3.94,24.33 3.77,24.65 3.54,24.91 3.30,25.18 2.24,26.03 1.19,26.87 0.35,27.74 -0.47,28.61 -1.95,29.48 -3.42,30.35 -5.15,29.32 -6.87,28.29 -6.35,26.30 -5.83,24.30 -5.21,23.24 -4.59,22.19 -3.80,20.72 -3.01,19.25 -2.11,17.73 -1.21,16.22 -0.38,14.94 0.44,13.66 1.15,12.64 1.86,11.63 2.08,11.37 2.29,11.11 2.56,10.91 2.83,10.71 3.14,10.58 3.45,10.45 3.78,10.40 4.11,10.34 4.45,10.37 4.78,10.40 5.10,10.51 5.42,10.62 5.70,10.80 5.98,10.98 6.21,11.22 6.45,11.46 6.61,11.76 6.78,12.05 6.87,12.37 6.96,12.69 6.97,13.03 6.99,13.36 6.92,13.69 6.85,14.02 6.70,14.32 6.56,14.63 6.00,15.51 5.44,16.40 4.69,17.50 3.93,18.59 2.95,19.79 1.97,20.99 0.85,22.19 -0.27,23.39 -1.45,24.38 -2.63,25.37 -4.05,25.97 -5.48,26.57 -4.66,25.71 -3.83,24.85 -3.98,25.14 -4.12,25.42 -4.34,25.67 -4.55,25.91 -4.81,26.10 -5.08,26.28 -5.38,26.40 -5.68,26.52 -6.00,26.56 -6.32,26.60 -6.64,26.57 -6.96,26.53 -7.26,26.42 -7.57,26.31 -7.83,26.13 -8.10,25.95 -8.32,25.71 -8.53,25.47 -8.69,25.18 -8.84,24.90 -8.92,24.59 -9.00,24.27 -9.00,23.95 -9.01,23.63 -8.93,23.31 -8.86,23.00 -8.38,21.82 -7.89,20.64 -7.23,19.61 -6.57,18.57 -5.63,17.14 -4.68,15.70 -3.51,13.78 -2.34,11.87 -1.43,10.41 -0.53,8.95 0.16,7.99 0.85,7.03 2.19,6.02 3.52,5.00 5.32,5.67 7.12,6.33 6.70,8.47 6.28,10.62 5.23,11.82 4.18,13.02 3.59,13.91 3.00,14.79 1.78,16.42 0.56,18.05 -0.88,18.99 -2.34,19.93 -3.92,19.18 -5.50,18.43 -5.52,16.43 -5.55,14.42 -5.21,13.34 -4.87,12.26 -4.37,11.03 -3.87,9.79 -3.21,8.42 -2.55,7.05 -1.77,5.89 -0.98,4.72 -0.17,3.69 0.63,2.66 1.51,1.56 2.40,0.46 4.25,-1.38 6.10,-3.22 6.35,-3.47 6.60,-3.71 6.90,-3.88 7.20,-4.05 7.53,-4.15 7.86,-4.25 8.21,-4.26 8.56,-4.28 8.90,-4.21 9.24,-4.14 9.55,-3.99 9.86,-3.84 10.13,-3.62 10.40,-3.41 10.61,-3.13 10.82,-2.85 10.96,-2.53 11.09,-2.21 11.15,-1.87 11.21,-1.53 11.18,-1.18 11.15,-0.84 11.04,-0.51 10.93,-0.18 10.75,0.10 10.56,0.40 10.22,0.74 9.87,1.08 8.81,2.25 7.74,3.42 6.86,4.27 5.97,5.11 4.81,6.26 3.64,7.42 2.36,8.60 1.08,9.77 -0.51,10.80 -2.11,11.83 -2.29,12.14 -2.48,12.45 -2.74,12.70 -2.99,12.96 -3.30,13.14 -3.61,13.33 -3.95,13.44 -4.30,13.54 -4.66,13.56 -5.02,13.59 -5.37,13.52 -5.73,13.45 -6.05,13.31 -6.38,13.16 -6.67,12.93 -6.95,12.71 -7.17,12.43 -7.39,12.14 -7.54,11.81 -7.69,11.49 -7.75,11.13 -7.81,10.78 -7.79,10.42 -7.77,10.06 -7.66,9.71 -7.55,9.37 -7.29,8.60 -7.02,7.84 -6.46,6.76 -5.91,5.69 -5.13,4.45 -4.35,3.21 -3.45,1.89 -2.55,0.57 -1.05,-1.02 0.44,-2.61 0.71,-2.86 0.98,-3.11 1.31,-3.28 1.63,-3.46 1.99,-3.55 2.34,-3.64 2.71,-3.64 3.08,-3.65 3.43,-3.56 3.79,-3.48 4.12,-3.31 4.45,-3.14 4.72,-2.90 5.00,-2.66 5.21,-2.36 5.42,-2.06 5.56,-1.72 5.69,-1.38 5.74,-1.02 5.79,-0.65 5.75,-0.29 5.71,0.07 5.58,0.41 5.45,0.76 5.25,1.06 5.04,1.37 4.26,2.11 3.48,2.86 2.39,4.15 1.29,5.43 0.66,6.32 0.02,7.20 -1.27,8.36 -2.57,9.52 -2.73,9.80 -2.89,10.08 -3.12,10.32 -3.34,10.55 -3.62,10.72 -3.89,10.90 -4.19,11.00 -4.50,11.10 -4.82,11.13 -5.15,11.15 -5.47,11.10 -5.78,11.05 -6.08,10.92 -6.38,10.80 -6.64,10.60 -6.90,10.41 -7.10,10.16 -7.31,9.91 -7.44,9.62 -7.58,9.33 -7.65,9.01 -7.71,8.69 -7.70,8.37 -7.69,8.05 -7.60,7.73 -7.51,7.42 -7.24,6.57 -6.96,5.71 -6.38,4.66 -5.79,3.60 -4.91,2.31 -4.03,1.01 -3.00,-0.31 -1.96,-1.63 -1.73,-1.84 -1.51,-2.05 -1.24,-2.20 -0.97,-2.36 -0.68,-2.44 -0.38,-2.52 -0.07,-2.53 0.23,-2.54 0.53,-2.47 0.83,-2.41 1.11,-2.28 1.38,-2.14 1.62,-1.94 1.86,-1.75 2.04,-1.50 2.22,-1.25 2.34,-0.97 2.46,-0.68 2.50,-0.38 2.55,-0.07 2.52,0.22 2.49,0.53 2.39,0.82 2.29,1.11 2.12,1.37 1.96,1.63 1.96,1.63 L 1.96,1.63 Z"></path></g><g transform="translate(21.965761784536426 100.04971496989742) rotate(0 -2.6962086528797045 26.362884925589924)" stroke="none"><path fill="#ffffff" d="M 2.26,1.21 Q 2.26,1.21 1.66,2.34 1.07,3.46 0.42,4.82 -0.23,6.18 -0.41,6.79 -0.60,7.40 -0.72,7.73 -0.85,8.06 -1.05,8.34 -1.25,8.63 -1.51,8.86 -1.77,9.09 -2.08,9.26 -2.39,9.42 -2.73,9.50 -3.07,9.58 -3.42,9.58 -3.77,9.58 -4.11,9.50 -4.45,9.41 -4.76,9.25 -5.07,9.08 -5.33,8.85 -5.59,8.62 -5.79,8.33 -5.99,8.04 -6.11,7.71 -6.24,7.39 -6.28,7.04 -6.32,6.69 -6.27,6.34 -6.23,6.00 -5.70,4.93 -5.17,3.86 -4.72,2.89 -4.26,1.91 -4.23,1.81 -4.20,1.70 -4.04,1.36 -3.87,1.02 -3.63,0.73 -3.38,0.45 -3.08,0.22 -2.77,0.00 -2.43,-0.13 -2.08,-0.27 -1.70,-0.33 -1.33,-0.38 -0.96,-0.35 -0.58,-0.31 -0.23,-0.19 0.12,-0.06 0.44,0.13 0.75,0.34 1.01,0.62 1.27,0.89 1.45,1.22 1.63,1.55 1.73,1.91 1.83,2.28 1.84,2.65 1.85,3.03 1.77,3.40 1.69,3.77 1.45,4.83 1.22,5.89 1.15,7.44 1.08,8.99 1.11,10.13 1.13,11.28 -0.49,10.09 -2.12,8.90 -2.20,8.51 -2.28,8.11 -1.95,7.86 -1.61,7.60 -1.22,7.43 -0.84,7.26 -0.42,7.19 -0.00,7.12 0.41,7.15 0.83,7.19 1.23,7.32 1.63,7.45 1.99,7.67 2.35,7.89 2.64,8.20 2.93,8.50 3.15,8.86 3.36,9.23 3.48,9.63 3.60,10.04 3.62,10.46 3.64,10.88 3.56,11.29 3.48,11.71 3.30,12.09 3.12,12.47 2.86,12.80 2.59,13.13 2.03,14.50 1.47,15.87 1.19,17.04 0.91,18.21 0.90,19.44 0.89,20.67 0.91,21.93 0.93,23.19 0.87,24.28 0.82,25.37 0.68,26.74 0.55,28.10 0.49,29.39 0.43,30.68 0.29,32.13 0.14,33.58 -0.24,34.66 -0.64,35.73 -0.58,35.61 -0.52,35.50 -0.69,35.92 -0.85,36.35 -1.11,36.72 -1.37,37.09 -1.71,37.39 -2.05,37.68 -2.46,37.89 -2.86,38.10 -3.30,38.20 -3.74,38.31 -4.19,38.31 -4.65,38.30 -5.09,38.19 -5.52,38.08 -5.92,37.87 -6.32,37.65 -6.66,37.35 -7.00,37.05 -7.25,36.67 -7.51,36.30 -7.67,35.87 -7.82,35.45 -7.88,35.00 -7.93,34.55 -7.87,34.10 -7.81,33.65 -6.89,32.46 -5.98,31.26 -5.10,30.20 -4.23,29.13 -4.06,29.01 -3.89,28.89 -3.53,28.62 -3.16,28.36 -2.73,28.19 -2.31,28.02 -1.86,27.95 -1.41,27.89 -0.95,27.93 -0.50,27.98 -0.07,28.13 0.35,28.28 0.73,28.53 1.11,28.78 1.42,29.12 1.73,29.45 1.95,29.85 2.17,30.25 2.29,30.69 2.40,31.13 2.41,31.59 2.42,32.04 2.32,32.49 2.22,32.93 2.02,33.34 1.82,33.75 1.52,34.10 1.23,34.44 1.78,32.61 2.32,30.78 2.05,32.78 1.77,34.77 1.15,36.08 0.54,37.38 0.01,38.68 -0.51,39.97 -0.89,41.33 -1.27,42.68 -1.35,43.17 -1.44,43.67 -1.56,44.09 -1.68,44.52 -1.90,44.90 -2.12,45.28 -2.43,45.60 -2.74,45.92 -3.11,46.16 -3.49,46.40 -3.91,46.54 -4.33,46.68 -4.77,46.72 -5.21,46.75 -5.65,46.68 -6.08,46.61 -6.49,46.44 -6.90,46.26 -7.25,46.00 -7.61,45.73 -7.89,45.39 -8.17,45.05 -8.36,44.65 -8.55,44.25 -8.64,43.81 -8.73,43.38 -8.71,42.94 -8.69,42.49 -7.44,41.05 -6.18,39.60 -5.07,38.55 -3.97,37.51 -3.97,37.52 -3.98,37.53 -3.64,37.24 -3.30,36.95 -2.91,36.76 -2.51,36.56 -2.08,36.46 -1.65,36.37 -1.20,36.38 -0.76,36.39 -0.33,36.50 0.08,36.62 0.47,36.83 0.86,37.05 1.18,37.35 1.51,37.65 1.75,38.02 2.00,38.39 2.14,38.81 2.29,39.22 2.34,39.67 2.38,40.11 2.32,40.54 2.25,40.98 2.09,41.39 1.92,41.80 1.66,42.16 1.40,42.52 1.87,41.00 2.35,39.48 2.11,41.14 1.87,42.81 1.10,44.03 0.33,45.25 -0.17,46.35 -0.68,47.45 -1.16,48.61 -1.64,49.77 -2.69,48.98 -3.75,48.18 -3.84,47.09 -3.92,46.00 -1.43,46.38 1.05,46.76 1.78,48.08 2.50,49.40 2.35,50.50 2.20,51.61 1.48,52.83 0.75,54.05 1.52,54.00 2.29,53.94 1.95,54.23 1.60,54.52 1.19,54.72 0.79,54.92 0.34,55.02 -0.09,55.11 -0.54,55.10 -0.99,55.09 -1.43,54.97 -1.87,54.85 -2.26,54.63 -2.66,54.41 -2.99,54.10 -3.32,53.79 -3.57,53.41 -3.82,53.03 -3.97,52.60 -4.12,52.18 -4.16,51.73 -4.20,51.27 -4.14,50.83 -4.07,50.38 -3.90,49.96 -3.73,49.54 -3.46,49.17 -3.19,48.81 -1.95,48.22 -0.70,47.62 -0.10,47.68 0.50,47.74 1.06,47.99 1.61,48.23 2.06,48.64 2.51,49.06 2.80,49.59 3.09,50.12 3.20,50.72 3.30,51.32 3.21,51.92 3.12,52.52 2.85,53.06 2.57,53.60 2.13,54.03 1.70,54.45 1.15,54.72 0.60,54.98 0.00,55.05 -0.60,55.13 -1.19,55.01 -1.79,54.88 -2.31,54.58 -2.84,54.27 -3.24,53.81 -3.64,53.36 -3.87,52.79 -4.10,52.23 -4.14,51.63 -4.19,51.02 -4.03,50.43 -3.88,49.84 -3.54,49.33 -3.21,48.83 -2.73,48.45 -2.25,48.08 -1.68,47.87 -1.10,47.67 -0.50,47.66 0.10,47.66 0.68,47.84 1.26,48.03 1.75,48.39 2.24,48.75 2.59,49.25 2.93,49.75 3.11,50.33 3.28,50.91 3.25,51.52 3.23,52.13 3.01,52.70 2.79,53.27 2.41,53.73 2.02,54.20 1.50,54.52 0.98,54.84 1.64,54.39 2.29,53.94 1.95,54.23 1.60,54.52 1.19,54.72 0.79,54.92 0.34,55.02 -0.09,55.11 -0.54,55.10 -0.99,55.09 -1.43,54.97 -1.87,54.85 -2.26,54.63 -2.66,54.41 -2.99,54.10 -3.32,53.79 -3.57,53.41 -3.82,53.03 -3.97,52.60 -4.12,52.18 -4.16,51.73 -4.20,51.27 -4.14,50.83 -4.07,50.38 -3.90,49.96 -3.73,49.54 -3.46,49.17 -3.19,48.81 -4.02,48.97 -4.86,49.13 -4.29,50.04 -3.72,50.96 -1.55,51.39 0.61,51.82 -0.41,52.71 -1.45,53.59 -2.88,54.26 -4.31,54.92 -5.94,54.66 -7.57,54.40 -8.14,53.48 -8.72,52.55 -9.05,51.17 -9.38,49.78 -9.00,48.67 -8.63,47.57 -8.15,46.47 -7.67,45.36 -7.21,44.35 -6.76,43.34 -5.79,42.19 -4.82,41.05 -4.40,39.29 -3.98,37.53 -3.64,37.24 -3.30,36.95 -2.91,36.76 -2.51,36.56 -2.08,36.46 -1.65,36.37 -1.20,36.38 -0.76,36.39 -0.33,36.50 0.08,36.62 0.47,36.83 0.86,37.05 1.18,37.35 1.51,37.65 1.75,38.02 2.00,38.39 2.14,38.81 2.29,39.22 2.34,39.66 2.38,40.11 2.32,40.54 2.25,40.98 2.09,41.39 1.92,41.80 1.66,42.16 1.40,42.52 0.98,42.89 0.56,43.26 -0.56,44.19 -1.69,45.11 -2.66,45.78 -3.63,46.45 -2.53,45.06 -1.44,43.67 -1.56,44.09 -1.68,44.52 -1.90,44.90 -2.12,45.28 -2.43,45.60 -2.74,45.92 -3.11,46.16 -3.49,46.40 -3.91,46.54 -4.33,46.68 -4.77,46.72 -5.21,46.75 -5.65,46.68 -6.08,46.61 -6.49,46.44 -6.90,46.27 -7.25,46.00 -7.61,45.73 -7.89,45.39 -8.17,45.05 -8.36,44.65 -8.55,44.25 -8.64,43.81 -8.73,43.38 -8.71,42.94 -8.69,42.49 -8.60,41.96 -8.50,41.43 -8.16,40.13 -7.82,38.83 -7.32,37.35 -6.82,35.88 -5.83,34.44 -4.84,32.99 -4.37,30.94 -3.90,28.89 -3.53,28.62 -3.16,28.36 -2.73,28.19 -2.31,28.02 -1.86,27.95 -1.41,27.89 -0.96,27.93 -0.50,27.98 -0.07,28.13 0.35,28.28 0.73,28.53 1.11,28.78 1.42,29.12 1.73,29.45 1.95,29.85 2.17,30.25 2.29,30.69 2.40,31.13 2.41,31.59 2.42,32.04 2.32,32.49 2.22,32.93 2.02,33.34 1.82,33.75 1.52,34.10 1.23,34.44 0.59,35.06 -0.03,35.68 -0.95,36.62 -1.87,37.57 -1.20,36.53 -0.52,35.50 -0.69,35.92 -0.85,36.34 -1.11,36.72 -1.37,37.09 -1.71,37.39 -2.05,37.68 -2.46,37.89 -2.86,38.10 -3.30,38.20 -3.74,38.31 -4.19,38.31 -4.65,38.30 -5.09,38.19 -5.52,38.08 -5.92,37.87 -6.32,37.65 -6.66,37.35 -7.00,37.05 -7.25,36.67 -7.51,36.30 -7.67,35.87 -7.82,35.45 -7.88,35.00 -7.93,34.55 -7.87,34.10 -7.81,33.65 -7.72,33.51 -7.63,33.37 -7.32,32.22 -7.00,31.07 -6.91,29.70 -6.81,28.34 -6.66,27.21 -6.51,26.08 -6.41,24.63 -6.32,23.17 -6.30,21.89 -6.27,20.61 -6.23,19.51 -6.19,18.41 -6.01,17.04 -5.83,15.67 -5.35,14.22 -4.88,12.77 -4.36,11.70 -3.84,10.63 -3.06,9.37 -2.28,8.11 -1.95,7.86 -1.61,7.60 -1.22,7.43 -0.84,7.26 -0.42,7.19 -0.00,7.12 0.41,7.15 0.83,7.19 1.23,7.32 1.63,7.45 1.99,7.67 2.35,7.89 2.64,8.20 2.93,8.50 3.15,8.86 3.36,9.23 3.48,9.63 3.60,10.03 3.62,10.46 3.64,10.88 3.56,11.29 3.48,11.71 3.30,12.09 3.12,12.47 2.86,12.80 2.59,13.13 1.57,13.95 0.56,14.76 -0.90,15.20 -2.36,15.63 -3.98,13.06 -5.60,10.48 -5.54,9.05 -5.48,7.63 -5.31,6.15 -5.15,4.67 -4.67,3.18 -4.20,1.70 -4.04,1.36 -3.87,1.02 -3.63,0.73 -3.38,0.45 -3.08,0.22 -2.77,0.00 -2.43,-0.13 -2.08,-0.27 -1.70,-0.33 -1.33,-0.38 -0.96,-0.35 -0.58,-0.31 -0.23,-0.19 0.12,-0.06 0.44,0.13 0.75,0.34 1.01,0.62 1.26,0.89 1.45,1.22 1.63,1.55 1.73,1.91 1.83,2.28 1.84,2.65 1.85,3.03 1.77,3.40 1.69,3.77 1.20,4.68 0.72,5.60 0.05,6.50 -0.60,7.40 -0.72,7.73 -0.85,8.06 -1.05,8.34 -1.25,8.63 -1.51,8.86 -1.77,9.09 -2.08,9.26 -2.39,9.42 -2.73,9.50 -3.07,9.58 -3.42,9.58 -3.77,9.58 -4.11,9.50 -4.45,9.41 -4.76,9.25 -5.07,9.08 -5.33,8.85 -5.59,8.62 -5.79,8.33 -5.99,8.04 -6.11,7.71 -6.24,7.39 -6.28,7.04 -6.32,6.69 -6.27,6.34 -6.23,6.00 -6.20,5.94 -6.16,5.89 -5.65,4.79 -5.14,3.68 -4.31,2.34 -3.48,1.01 -2.87,-0.10 -2.26,-1.21 -2.08,-1.46 -1.90,-1.72 -1.66,-1.92 -1.43,-2.12 -1.16,-2.26 -0.88,-2.40 -0.58,-2.48 -0.28,-2.55 0.02,-2.54 0.33,-2.54 0.63,-2.46 0.93,-2.39 1.20,-2.24 1.48,-2.09 1.71,-1.88 1.93,-1.68 2.11,-1.42 2.28,-1.16 2.39,-0.87 2.49,-0.58 2.53,-0.28 2.56,0.02 2.52,0.33 2.48,0.64 2.37,0.92 2.26,1.21 2.26,1.21 L 2.26,1.21 Z"></path></g><g transform="translate(23.1640678529252 146.03497461688107) rotate(0 0.14979254404966014 1.647677986536337)" stroke="none"><path fill="#ffffff" d="M 2.36,-0.23 Q 2.36,-0.23 2.55,1.43 2.74,3.09 2.71,3.49 2.68,3.88 2.52,4.25 2.36,4.61 2.10,4.91 1.83,5.20 1.49,5.40 1.14,5.60 0.75,5.67 0.36,5.74 -0.02,5.69 -0.42,5.64 -0.77,5.46 -1.13,5.28 -1.41,5.00 -1.69,4.72 -1.87,4.37 -2.04,4.01 -2.10,3.62 -2.15,3.22 -2.07,2.83 -2.00,2.44 -1.80,2.10 -1.61,1.75 -1.31,1.49 -1.02,1.22 -0.65,1.06 -0.29,0.91 0.10,0.88 0.50,0.84 0.88,0.94 1.27,1.04 1.60,1.25 1.94,1.46 2.18,1.77 2.43,2.08 2.57,2.46 2.71,2.83 2.72,3.23 2.73,3.62 2.61,4.00 2.49,4.38 2.26,4.71 2.03,5.03 1.71,5.26 1.38,5.49 1.00,5.61 0.62,5.72 0.23,5.71 -0.16,5.70 -0.53,5.56 -0.91,5.43 -1.21,5.18 -1.52,4.93 -1.74,4.59 -1.95,4.26 -2.05,3.87 -2.14,3.49 -2.14,3.49 -2.14,3.49 -2.25,1.86 -2.36,0.23 -2.35,-0.04 -2.35,-0.33 -2.27,-0.61 -2.20,-0.88 -2.06,-1.14 -1.92,-1.39 -1.73,-1.60 -1.53,-1.81 -1.29,-1.97 -1.05,-2.12 -0.78,-2.22 -0.51,-2.31 -0.23,-2.34 0.05,-2.37 0.33,-2.33 0.61,-2.29 0.88,-2.18 1.14,-2.08 1.38,-1.91 1.61,-1.74 1.79,-1.52 1.98,-1.30 2.11,-1.05 2.24,-0.79 2.30,-0.51 2.36,-0.23 2.36,-0.23 L 2.36,-0.23 Z"></path></g><g transform="translate(44.633692495393916 10) rotate(0 -7.215501784032767 74.7205301974277)" stroke="none"><path fill="#ffffff" d="M 1.48,0.61 Q 1.48,0.61 0.88,2.19 0.28,3.78 -0.57,5.65 -1.44,7.53 -2.56,10.12 -3.68,12.72 -4.89,16.80 -6.09,20.87 -7.71,29.84 -9.34,38.82 -10.22,48.41 -11.10,58.00 -11.48,67.51 -11.86,77.02 -12.21,85.87 -12.56,94.72 -12.71,102.61 -12.86,110.51 -12.75,117.44 -12.63,124.38 -12.03,130.04 -11.43,135.70 -10.72,139.56 -10.01,143.42 -9.48,146.31 -8.96,149.20 -8.95,149.41 -8.95,149.62 -9.01,149.83 -9.08,150.03 -9.20,150.21 -9.33,150.38 -9.50,150.50 -9.68,150.63 -9.88,150.69 -10.09,150.75 -10.30,150.74 -10.52,150.73 -10.72,150.66 -10.92,150.58 -11.08,150.45 -11.25,150.31 -11.36,150.13 -11.48,149.95 -11.53,149.74 -11.58,149.53 -11.56,149.32 -11.54,149.11 -11.45,148.91 -11.37,148.71 -11.22,148.56 -11.08,148.40 -10.89,148.29 -10.70,148.19 -10.49,148.15 -10.28,148.11 -10.07,148.14 -9.86,148.17 -9.67,148.27 -9.48,148.37 -9.33,148.52 -9.18,148.67 -9.08,148.87 -8.99,149.06 -8.96,149.27 -8.93,149.48 -8.98,149.69 -9.02,149.90 -9.13,150.09 -9.23,150.27 -9.39,150.41 -9.55,150.56 -9.75,150.64 -9.95,150.72 -10.16,150.74 -10.38,150.75 -10.58,150.70 -10.79,150.65 -10.97,150.53 -11.15,150.41 -11.28,150.25 -11.41,150.08 -11.49,149.88 -11.56,149.67 -11.56,149.68 -11.56,149.68 -12.09,146.79 -12.62,143.90 -13.35,139.94 -14.08,135.99 -14.69,130.20 -15.30,124.42 -15.43,117.44 -15.56,110.46 -15.42,102.54 -15.28,94.61 -14.95,85.76 -14.62,76.91 -14.26,67.33 -13.90,57.75 -13.03,48.03 -12.17,38.31 -10.56,29.18 -8.95,20.05 -7.75,15.79 -6.55,11.54 -5.50,8.87 -4.44,6.19 -3.65,4.34 -2.86,2.48 -2.17,0.93 -1.48,-0.61 -1.38,-0.77 -1.29,-0.94 -1.16,-1.08 -1.02,-1.23 -0.86,-1.33 -0.70,-1.44 -0.52,-1.50 -0.33,-1.56 -0.14,-1.58 0.04,-1.60 0.23,-1.57 0.42,-1.54 0.60,-1.47 0.78,-1.39 0.94,-1.28 1.09,-1.17 1.22,-1.02 1.34,-0.87 1.43,-0.69 1.51,-0.52 1.55,-0.33 1.59,-0.14 1.59,0.04 1.58,0.23 1.53,0.42 1.48,0.61 1.48,0.61 L 1.48,0.61 Z"></path></g><g transform="translate(55.85780638166716 46.5585289157882) rotate(0 5.451714905709423 37.52060560697669)" stroke="none"><path fill="#ffffff" d="M -1.82,-1.39 Q -1.82,-1.39 -0.55,-2.91 0.71,-4.42 2.20,-5.76 3.68,-7.09 5.16,-8.21 6.63,-9.33 8.19,-10.42 9.74,-11.51 11.06,-12.40 12.37,-13.30 13.67,-14.46 14.97,-15.63 14.96,-15.60 14.95,-15.57 15.19,-15.73 15.42,-15.88 15.69,-15.98 15.96,-16.07 16.24,-16.10 16.52,-16.13 16.80,-16.09 17.09,-16.05 17.35,-15.94 17.61,-15.83 17.84,-15.67 18.07,-15.50 18.26,-15.28 18.44,-15.07 18.57,-14.81 18.69,-14.56 18.75,-14.28 18.82,-14.00 18.81,-13.72 18.80,-13.44 18.73,-13.16 18.65,-12.89 18.52,-12.64 18.38,-12.39 18.19,-12.18 17.99,-11.97 17.03,-10.41 16.06,-8.85 14.78,-7.04 13.50,-5.23 12.29,-3.15 11.09,-1.07 9.99,1.07 8.90,3.22 7.85,5.42 6.81,7.62 5.89,9.73 4.98,11.84 4.47,13.53 3.96,15.23 3.66,16.69 3.36,18.14 3.26,18.34 3.16,18.54 3.06,18.77 2.96,19.00 2.81,19.19 2.67,19.39 2.47,19.55 2.28,19.71 2.06,19.81 1.83,19.92 1.59,19.97 1.35,20.02 1.10,20.01 0.85,20.00 0.61,19.93 0.38,19.86 0.16,19.74 -0.04,19.61 -0.22,19.44 -0.40,19.27 -0.53,19.06 -0.67,18.85 -0.74,18.62 -0.82,18.38 -0.84,18.13 -0.86,17.89 -0.82,17.64 -0.78,17.40 -2.27,16.04 -3.75,14.67 -4.79,13.10 -5.84,11.53 -7.12,9.73 -8.40,7.94 -9.71,5.79 -11.03,3.64 -11.99,2.00 -12.95,0.36 -13.57,-1.07 -14.19,-2.51 -14.67,-3.92 -15.15,-5.32 -15.12,-6.45 -15.09,-7.57 -13.51,-9.22 -11.93,-10.86 -10.50,-11.57 -9.06,-12.28 -7.22,-12.94 -5.39,-13.60 -3.03,-14.43 -0.67,-15.26 2.17,-16.39 5.01,-17.52 8.26,-18.90 11.51,-20.27 14.75,-21.67 17.99,-23.06 20.55,-24.27 23.11,-25.48 25.23,-26.46 27.36,-27.43 28.39,-28.05 29.42,-28.67 29.75,-28.85 30.09,-29.04 30.30,-29.11 30.51,-29.18 30.73,-29.20 30.95,-29.21 31.17,-29.18 31.39,-29.14 31.59,-29.06 31.79,-28.97 31.97,-28.84 32.14,-28.71 32.28,-28.54 32.42,-28.37 32.52,-28.17 32.61,-27.97 32.66,-27.75 32.70,-27.54 32.70,-27.32 32.69,-27.10 32.63,-26.89 32.57,-26.67 32.46,-26.48 32.35,-26.29 32.19,-26.13 32.04,-25.97 31.86,-25.85 31.67,-25.74 31.82,-24.54 31.97,-23.34 30.96,-21.03 29.95,-18.72 28.79,-15.17 27.63,-11.62 26.18,-7.22 24.73,-2.82 23.46,1.32 22.19,5.47 21.18,8.98 20.17,12.49 19.36,15.19 18.55,17.89 17.55,20.64 16.54,23.39 15.64,25.34 14.74,27.29 14.17,28.63 13.60,29.96 12.83,31.27 12.05,32.57 9.62,32.37 7.20,32.18 6.11,31.74 5.03,31.31 3.22,30.26 1.40,29.20 -1.87,27.53 -5.14,25.86 -7.71,24.66 -10.27,23.47 -11.86,22.83 -13.44,22.20 -14.54,22.04 -15.64,21.88 -15.86,21.77 -16.09,21.67 -16.28,21.51 -16.48,21.35 -16.63,21.15 -16.78,20.95 -16.87,20.73 -16.97,20.50 -17.01,20.25 -17.05,20.01 -17.03,19.76 -17.01,19.51 -16.93,19.27 -16.86,19.04 -16.72,18.83 -16.59,18.61 -16.41,18.44 -16.23,18.27 -16.01,18.14 -15.80,18.02 -15.56,17.95 -15.32,17.88 -15.07,17.87 -14.82,17.86 -14.58,17.91 -14.34,17.96 -13.66,19.24 -12.99,20.53 -12.14,21.99 -11.28,23.46 -10.44,25.39 -9.59,27.33 -8.38,29.41 -7.17,31.49 -5.86,33.39 -4.55,35.30 -3.55,36.52 -2.55,37.75 -1.63,39.60 -0.71,41.45 -2.74,43.27 -4.78,45.08 -6.54,45.70 -8.30,46.33 -10.01,46.99 -11.71,47.66 -13.26,48.33 -14.82,49.00 -15.99,49.60 -17.16,50.19 -18.32,49.06 -19.48,47.92 -18.00,47.76 -16.53,47.60 -14.72,47.91 -12.90,48.23 -10.64,48.56 -8.39,48.89 -6.00,49.26 -3.61,49.64 -1.91,49.75 -0.21,49.85 1.19,49.78 2.60,49.70 3.86,50.01 5.12,50.31 6.93,51.84 8.74,53.37 8.51,54.53 8.28,55.68 7.04,57.10 5.79,58.53 4.34,60.19 2.88,61.85 1.37,63.66 -0.13,65.46 -1.32,66.97 -2.51,68.48 -3.19,69.65 -3.87,70.82 -5.37,70.16 -6.88,69.50 -5.23,68.14 -3.59,66.77 -1.53,65.64 0.52,64.50 3.23,63.28 5.95,62.06 8.73,60.77 11.52,59.48 14.08,58.21 16.65,56.95 18.61,55.73 20.57,54.50 22.69,54.00 24.82,53.50 25.73,55.47 26.64,57.43 26.30,59.78 25.96,62.13 25.50,65.08 25.04,68.03 24.55,71.30 24.05,74.57 23.55,77.81 23.05,81.05 22.63,83.80 22.22,86.55 21.95,88.90 21.68,91.25 21.27,93.67 20.87,96.10 20.79,97.72 20.70,99.35 20.79,100.85 20.87,102.35 19.79,103.47 18.72,104.59 16.88,103.95 15.03,103.30 13.63,102.36 12.23,101.41 10.39,100.41 8.54,99.41 6.10,98.29 3.66,97.18 0.91,96.13 -1.83,95.09 -4.45,94.26 -7.07,93.43 -9.29,92.79 -11.51,92.14 -12.93,91.88 -14.35,91.63 -15.63,91.41 -16.91,91.20 -17.44,90.17 -17.97,89.15 -17.13,87.77 -16.30,86.40 -15.23,85.86 -14.16,85.31 -12.71,84.76 -11.26,84.20 -9.02,83.54 -6.79,82.88 -4.29,82.01 -1.80,81.14 0.77,79.91 3.35,78.68 4.96,77.70 6.58,76.72 7.46,76.08 8.34,75.45 9.68,75.64 11.02,75.84 11.51,77.57 11.99,79.30 11.67,81.15 11.35,83.01 11.07,84.51 10.79,86.02 10.71,87.83 10.62,89.64 10.14,90.63 9.65,91.61 8.73,92.21 7.80,92.81 5.80,92.64 3.80,92.48 1.84,91.36 -0.11,90.24 -0.44,89.90 -0.78,89.56 -0.99,89.14 -1.19,88.71 -1.26,88.24 -1.32,87.77 -1.23,87.31 -1.14,86.84 -0.90,86.43 -0.67,86.02 -0.31,85.71 0.03,85.39 0.47,85.20 0.90,85.02 1.37,84.98 1.85,84.95 2.31,85.06 2.77,85.18 3.16,85.43 3.56,85.69 3.86,86.06 4.15,86.43 4.32,86.88 4.48,87.32 4.49,87.80 4.50,88.27 4.36,88.72 4.22,89.18 3.94,89.56 3.66,89.94 3.28,90.22 2.89,90.49 2.44,90.63 1.98,90.77 1.51,90.75 1.04,90.74 0.59,90.57 0.15,90.41 -0.21,90.11 -0.58,89.81 -0.83,89.41 -1.09,89.01 -1.20,88.55 -1.31,88.09 -1.27,87.62 -1.23,87.15 -1.04,86.71 -0.85,86.28 -0.54,85.93 -0.22,85.57 0.19,85.34 0.60,85.11 1.06,85.02 1.53,84.94 2.00,85.00 2.47,85.07 2.89,85.28 3.32,85.49 3.32,85.49 3.32,85.49 4.51,86.53 5.70,87.57 5.86,86.38 6.02,85.18 6.28,83.63 6.53,82.07 7.45,80.84 8.36,79.61 6.64,80.68 4.92,81.76 2.25,83.21 -0.42,84.65 -2.89,85.73 -5.37,86.82 -7.47,87.72 -9.57,88.62 -11.55,88.49 -13.53,88.35 -12.12,88.80 -10.71,89.25 -8.45,89.83 -6.18,90.42 -3.45,91.18 -0.72,91.94 2.16,92.90 5.05,93.85 7.65,94.85 10.24,95.84 12.43,96.76 14.62,97.68 16.65,99.10 18.68,100.53 17.86,101.27 17.05,102.02 17.33,100.53 17.61,99.05 17.86,97.35 18.10,95.65 18.47,93.30 18.83,90.94 19.06,88.55 19.30,86.15 19.65,83.38 20.00,80.62 20.42,77.38 20.84,74.15 21.22,70.87 21.60,67.58 21.90,64.65 22.20,61.72 22.21,59.40 22.23,57.07 20.18,58.44 18.12,59.81 15.58,61.19 13.04,62.56 10.32,63.99 7.59,65.42 5.16,66.72 2.72,68.01 0.90,69.31 -0.91,70.61 -3.25,71.90 -5.59,73.19 -6.87,72.49 -8.15,71.80 -7.74,70.21 -7.32,68.63 -6.47,67.39 -5.62,66.15 -4.50,64.58 -3.38,63.02 -2.07,61.06 -0.76,59.11 0.51,57.13 1.79,55.15 3.03,54.14 4.27,53.14 4.69,54.20 5.10,55.26 3.74,54.70 2.37,54.13 0.95,53.92 -0.46,53.71 -2.25,53.59 -4.04,53.47 -6.39,53.31 -8.74,53.16 -11.13,53.11 -13.53,53.05 -15.28,52.90 -17.03,52.76 -19.00,52.27 -20.97,51.79 -21.59,50.38 -22.21,48.97 -20.60,47.61 -18.99,46.26 -17.73,45.73 -16.47,45.19 -14.90,44.51 -13.33,43.82 -11.58,43.03 -9.84,42.24 -7.63,41.08 -5.42,39.93 -6.35,38.61 -7.27,37.29 -8.76,35.37 -10.25,33.45 -11.72,31.30 -13.18,29.15 -14.30,27.22 -15.42,25.29 -15.53,23.59 -15.64,21.88 -15.86,21.77 -16.09,21.67 -16.28,21.51 -16.48,21.35 -16.63,21.15 -16.78,20.95 -16.87,20.73 -16.97,20.50 -17.01,20.25 -17.05,20.01 -17.03,19.76 -17.01,19.51 -16.93,19.27 -16.86,19.04 -16.72,18.83 -16.59,18.62 -16.41,18.44 -16.23,18.27 -16.01,18.14 -15.80,18.02 -15.56,17.95 -15.32,17.88 -15.07,17.87 -14.82,17.86 -14.58,17.91 -14.34,17.96 -13.19,18.43 -12.04,18.89 -10.47,19.60 -8.90,20.30 -6.21,21.38 -3.53,22.47 -0.10,23.99 3.31,25.51 5.13,26.33 6.95,27.15 8.85,27.82 10.75,28.50 11.49,27.31 12.22,26.12 13.07,24.28 13.93,22.45 14.88,19.77 15.84,17.10 16.60,14.40 17.37,11.71 18.34,8.16 19.30,4.62 20.51,0.41 21.72,-3.78 23.07,-8.19 24.42,-12.60 25.49,-16.33 26.57,-20.06 27.36,-22.29 28.15,-24.53 28.56,-25.52 28.97,-26.51 29.53,-27.77 30.09,-29.04 30.30,-29.11 30.51,-29.18 30.73,-29.20 30.95,-29.21 31.17,-29.18 31.38,-29.14 31.59,-29.06 31.79,-28.97 31.97,-28.84 32.14,-28.71 32.28,-28.54 32.42,-28.37 32.52,-28.17 32.61,-27.97 32.66,-27.75 32.70,-27.54 32.70,-27.32 32.69,-27.10 32.63,-26.89 32.57,-26.67 32.46,-26.48 32.35,-26.29 32.19,-26.13 32.04,-25.97 31.86,-25.85 31.67,-25.74 31.27,-25.67 30.88,-25.60 29.75,-25.19 28.62,-24.77 26.54,-23.75 24.46,-22.74 21.88,-21.43 19.31,-20.12 16.12,-18.63 12.92,-17.13 9.72,-15.61 6.51,-14.09 3.71,-12.76 0.91,-11.42 -1.34,-10.35 -3.59,-9.27 -5.23,-8.50 -6.87,-7.72 -8.87,-6.94 -10.87,-6.16 -10.76,-4.99 -10.65,-3.82 -10.29,-2.60 -9.93,-1.38 -9.03,0.18 -8.12,1.75 -6.78,3.68 -5.43,5.61 -3.93,7.35 -2.42,9.09 -1.25,10.63 -0.08,12.16 1.18,14.22 2.45,16.28 2.80,17.41 3.16,18.54 3.06,18.77 2.96,19.00 2.81,19.19 2.67,19.39 2.47,19.55 2.28,19.71 2.06,19.81 1.83,19.92 1.59,19.97 1.35,20.02 1.10,20.01 0.85,20.00 0.61,19.93 0.38,19.86 0.16,19.74 -0.04,19.61 -0.22,19.44 -0.40,19.27 -0.53,19.06 -0.67,18.85 -0.74,18.62 -0.82,18.38 -0.84,18.13 -0.86,17.89 -0.82,17.64 -0.78,17.40 -0.58,17.18 -0.38,16.97 0.25,15.61 0.89,14.24 1.50,12.45 2.11,10.66 2.97,8.47 3.82,6.29 4.77,4.01 5.71,1.74 6.70,-0.55 7.68,-2.85 8.77,-5.16 9.86,-7.47 10.93,-9.49 12.00,-11.51 13.47,-13.54 14.95,-15.57 15.19,-15.73 15.42,-15.88 15.69,-15.98 15.96,-16.07 16.24,-16.10 16.52,-16.13 16.80,-16.09 17.09,-16.05 17.35,-15.94 17.61,-15.83 17.84,-15.67 18.07,-15.50 18.26,-15.28 18.44,-15.07 18.57,-14.81 18.69,-14.56 18.75,-14.28 18.82,-14.00 18.81,-13.72 18.80,-13.44 18.73,-13.16 18.66,-12.89 18.52,-12.64 18.38,-12.39 18.19,-12.18 17.99,-11.97 17.23,-11.55 16.46,-11.12 15.53,-10.50 14.59,-9.88 13.32,-9.10 12.06,-8.32 10.58,-7.21 9.11,-6.09 7.78,-5.07 6.46,-4.04 5.27,-2.94 4.08,-1.83 2.95,-0.22 1.82,1.39 1.63,1.59 1.44,1.79 1.20,1.94 0.96,2.08 0.70,2.17 0.44,2.25 0.16,2.27 -0.11,2.29 -0.38,2.25 -0.65,2.20 -0.91,2.09 -1.16,1.98 -1.38,1.81 -1.60,1.64 -1.78,1.42 -1.95,1.21 -2.07,0.96 -2.18,0.71 -2.24,0.43 -2.29,0.16 -2.28,-0.11 -2.26,-0.38 -2.18,-0.65 -2.10,-0.91 -1.96,-1.15 -1.82,-1.39 -1.82,-1.39 L -1.82,-1.39 Z"></path></g></svg>