<?xml version="1.0" standalone="no"?>
<!DOCTYPE svg PUBLIC "-//W3C//DTD SVG 1.1//EN" "http://www.w3.org/Graphics/SVG/1.1/DTD/svg11.dtd">
<svg version="1.1" xmlns="http://www.w3.org/2000/svg" viewBox="0 0 215.32552831686917 171.81235166073498" width="430.65105663373834" height="343.62470332146995"><!-- svg-source:excalidraw --><metadata></metadata><defs><style class="style-fonts">
      </style></defs><g transform="translate(60.281778266821675 18.70259844471252) rotate(0 -25.140889133410838 8.219163787606362)" stroke="none"><path fill="#1e1e1e" d="M -0.49,1.48 Q -0.49,1.48 -2.98,0.61 -5.47,-0.24 -8.33,-0.59 -11.19,-0.94 -15.74,-1.10 -20.29,-1.27 -26.90,-0.79 -33.51,-0.31 -37.81,1.20 -42.10,2.73 -44.00,4.72 -45.90,6.71 -44.34,9.45 -42.78,12.18 -38.44,14.64 -34.11,17.11 -28.13,19.03 -22.15,20.95 -17.15,21.77 -12.15,22.59 -8.77,22.68 -5.38,22.78 -4.28,21.83 -3.17,20.88 -2.73,19.13 -2.29,17.37 -3.11,14.86 -3.93,12.35 -5.85,9.66 -7.78,6.98 -12.13,3.37 -16.48,-0.22 -20.48,-2.28 -24.49,-4.35 -26.26,-5.23 -28.02,-6.11 -28.20,-6.25 -28.39,-6.38 -28.51,-6.57 -28.64,-6.75 -28.71,-6.97 -28.77,-7.19 -28.76,-7.42 -28.75,-7.64 -28.67,-7.85 -28.58,-8.06 -28.44,-8.24 -28.29,-8.41 -28.10,-8.53 -27.91,-8.65 -27.69,-8.70 -27.47,-8.75 -27.24,-8.73 -27.02,-8.71 -26.81,-8.61 -26.60,-8.52 -26.44,-8.36 -26.27,-8.21 -26.16,-8.01 -26.06,-7.81 -26.02,-7.59 -25.98,-7.37 -26.01,-7.14 -26.05,-6.92 -26.15,-6.72 -26.26,-6.52 -26.42,-6.36 -26.58,-6.20 -26.79,-6.11 -26.99,-6.01 -27.22,-5.98 -27.44,-5.96 -27.66,-6.00 -27.89,-6.05 -28.08,-6.16 -28.28,-6.28 -28.42,-6.45 -28.57,-6.62 -28.66,-6.83 -28.74,-7.04 -28.76,-7.27 -28.77,-7.49 -28.71,-7.71 -28.65,-7.93 -28.53,-8.12 -28.40,-8.31 -28.22,-8.45 -28.05,-8.58 -27.83,-8.66 -27.62,-8.73 -27.39,-8.73 -27.16,-8.74 -26.95,-8.67 -26.73,-8.60 -26.73,-8.60 -26.73,-8.60 -25.00,-7.66 -23.26,-6.72 -19.01,-4.51 -14.76,-2.29 -10.17,1.54 -5.57,5.39 -3.44,8.46 -1.31,11.53 -0.46,14.72 0.39,17.92 -0.44,20.41 -1.28,22.91 -3.20,24.11 -5.12,25.32 -8.85,25.26 -12.58,25.20 -17.77,24.34 -22.97,23.48 -29.21,21.44 -35.45,19.41 -40.23,16.49 -45.01,13.57 -46.59,10.18 -48.17,6.79 -45.67,3.53 -43.18,0.27 -38.46,-1.39 -33.74,-3.07 -26.97,-3.57 -20.20,-4.08 -15.53,-3.94 -10.85,-3.81 -7.69,-3.44 -4.53,-3.08 -2.02,-2.28 0.49,-1.48 0.66,-1.40 0.83,-1.32 0.98,-1.20 1.12,-1.08 1.23,-0.93 1.35,-0.78 1.42,-0.60 1.50,-0.43 1.53,-0.24 1.56,-0.06 1.54,0.12 1.53,0.31 1.47,0.49 1.41,0.66 1.31,0.82 1.21,0.98 1.07,1.11 0.93,1.24 0.77,1.34 0.61,1.43 0.43,1.48 0.25,1.54 0.06,1.54 -0.12,1.55 -0.30,1.51 -0.49,1.48 -0.49,1.48 L -0.49,1.48 Z"></path></g><g transform="translate(53.5131028831056 22.57051833973412) rotate(0 5.801732296474938 69.62091666050043)" stroke="none"><path fill="#1e1e1e" d="M 1.56,0 Q 1.56,0 1.52,2.50 1.49,5.00 2.02,9.59 2.54,14.18 3.59,22.28 4.64,30.38 5.92,41.62 7.20,52.86 8.29,64.88 9.39,76.89 10.13,87.29 10.87,97.68 11.19,106.01 11.50,114.34 11.91,120.35 12.32,126.36 12.49,130.05 12.66,133.74 12.84,135.30 13.01,136.85 12.98,137.10 12.96,137.35 12.85,137.57 12.75,137.79 12.57,137.97 12.40,138.15 12.18,138.26 11.97,138.38 11.72,138.42 11.48,138.45 11.23,138.41 10.99,138.37 10.77,138.25 10.56,138.14 10.39,137.96 10.22,137.78 10.12,137.55 10.02,137.33 9.99,137.08 9.96,136.84 10.02,136.59 10.07,136.35 10.20,136.14 10.33,135.93 10.52,135.77 10.71,135.61 10.94,135.53 11.17,135.44 11.42,135.42 11.66,135.41 11.90,135.48 12.14,135.55 12.34,135.69 12.55,135.83 12.69,136.02 12.84,136.22 12.92,136.46 13.00,136.69 12.99,136.94 12.99,137.18 12.91,137.42 12.83,137.65 12.68,137.85 12.53,138.04 12.32,138.18 12.12,138.32 11.88,138.38 11.64,138.45 11.40,138.43 11.15,138.42 10.92,138.32 10.69,138.23 10.51,138.07 10.32,137.91 10.19,137.70 10.07,137.48 10.02,137.24 9.96,137.00 9.96,137.00 9.96,137.00 9.99,135.43 10.01,133.87 9.84,130.21 9.66,126.54 9.24,120.49 8.82,114.44 8.50,106.16 8.18,97.88 7.43,87.51 6.68,77.14 5.56,65.16 4.45,53.18 3.15,41.96 1.85,30.75 0.76,22.64 -0.32,14.52 -0.90,9.76 -1.49,5.00 -1.52,2.50 -1.56,0 -1.53,-0.18 -1.51,-0.37 -1.45,-0.54 -1.38,-0.72 -1.27,-0.88 -1.16,-1.03 -1.02,-1.16 -0.88,-1.28 -0.72,-1.37 -0.55,-1.46 -0.37,-1.50 -0.18,-1.55 0.00,-1.55 0.18,-1.55 0.37,-1.50 0.55,-1.46 0.72,-1.37 0.88,-1.28 1.02,-1.16 1.16,-1.03 1.27,-0.88 1.38,-0.72 1.45,-0.54 1.51,-0.37 1.53,-0.18 1.56,0.00 1.56,0.00 L 1.56,0 Z"></path></g><g transform="translate(185.01935461966332 25.471310714942888) rotate(0 -17.405233775939223 5.801750739732228)" stroke="none"><path fill="#1e1e1e" d="M -1.35,0.77 Q -1.35,0.77 -2.41,-1.15 -3.46,-3.09 -5.37,-4.26 -7.27,-5.43 -10.52,-6.52 -13.77,-7.60 -17.35,-8.36 -20.92,-9.11 -24.17,-8.62 -27.42,-8.13 -29.72,-6.41 -32.03,-4.69 -33.22,-1.47 -34.41,1.74 -33.07,5.38 -31.73,9.03 -28.26,12.16 -24.80,15.29 -20.11,17.16 -15.43,19.03 -10.80,19.57 -6.17,20.10 -4.17,19.04 -2.17,17.97 -1.12,16.29 -0.07,14.61 0.30,13.13 0.69,11.64 0.56,10.09 0.43,8.53 -0.14,7.18 -0.72,5.83 -1.07,4.17 -1.42,2.52 -1.42,2.23 -1.42,1.94 -1.32,1.66 -1.23,1.38 -1.05,1.15 -0.87,0.92 -0.63,0.75 -0.39,0.59 -0.11,0.51 0.17,0.44 0.46,0.45 0.75,0.47 1.02,0.58 1.29,0.69 1.52,0.88 1.74,1.07 1.89,1.32 2.04,1.57 2.10,1.85 2.16,2.14 2.13,2.43 2.10,2.72 1.97,2.99 1.85,3.25 1.65,3.46 1.45,3.68 1.19,3.81 0.93,3.95 0.64,4.00 0.35,4.04 0.06,3.99 -0.21,3.95 -0.47,3.81 -0.73,3.67 -0.93,3.46 -1.13,3.25 -1.25,2.98 -1.38,2.71 -1.41,2.42 -1.44,2.13 -1.37,1.85 -1.31,1.56 -1.16,1.31 -1.01,1.06 -0.78,0.87 -0.56,0.68 -0.29,0.57 -0.02,0.47 0.26,0.45 0.56,0.44 0.84,0.52 1.12,0.59 1.36,0.76 1.60,0.92 1.78,1.16 1.96,1.39 2.05,1.67 2.14,1.95 2.14,1.95 2.14,1.95 2.28,3.32 2.43,4.70 3.00,6.55 3.56,8.40 3.53,10.46 3.50,12.51 2.81,14.29 2.11,16.07 0.61,18.15 -0.87,20.22 -3.56,21.45 -6.24,22.69 -11.32,22.09 -16.40,21.49 -21.48,19.37 -26.55,17.26 -30.36,13.64 -34.16,10.01 -35.54,5.60 -36.91,1.20 -35.34,-2.73 -33.76,-6.68 -30.86,-8.72 -27.95,-10.77 -24.19,-11.30 -20.42,-11.82 -16.65,-11.05 -12.88,-10.28 -9.30,-9.07 -5.73,-7.87 -3.35,-6.28 -0.98,-4.69 0.18,-2.73 1.35,-0.77 1.42,-0.60 1.50,-0.42 1.53,-0.24 1.56,-0.05 1.54,0.13 1.52,0.31 1.46,0.49 1.40,0.67 1.30,0.83 1.20,0.99 1.06,1.12 0.93,1.25 0.76,1.34 0.60,1.43 0.42,1.49 0.24,1.54 0.05,1.54 -0.13,1.55 -0.31,1.51 -0.50,1.47 -0.67,1.39 -0.84,1.31 -0.98,1.19 -1.13,1.07 -1.24,0.92 -1.35,0.77 -1.35,0.77 L -1.35,0.77 Z"></path></g><g transform="translate(187.9202576544153 18.70259844471252) rotate(0 -0.966943087241134 67.20359582891211)" stroke="none"><path fill="#1e1e1e" d="M 1.70,0 Q 1.70,0 1.64,4.44 1.59,8.89 1.27,20.25 0.96,31.61 0.81,44.76 0.67,57.91 0.32,70.47 -0.02,83.02 -0.18,93.35 -0.33,103.67 -0.40,111.12 -0.47,118.56 -0.50,122.84 -0.54,127.12 -0.50,130.09 -0.46,133.06 -0.50,133.29 -0.54,133.53 -0.65,133.74 -0.77,133.95 -0.94,134.11 -1.11,134.27 -1.33,134.37 -1.54,134.46 -1.78,134.49 -2.02,134.51 -2.25,134.46 -2.48,134.41 -2.68,134.28 -2.88,134.16 -3.04,133.98 -3.19,133.80 -3.27,133.58 -3.36,133.35 -3.37,133.12 -3.38,132.88 -3.32,132.65 -3.25,132.42 -3.12,132.23 -2.98,132.03 -2.79,131.89 -2.60,131.75 -2.38,131.68 -2.15,131.60 -1.92,131.60 -1.68,131.61 -1.45,131.68 -1.23,131.76 -1.04,131.91 -0.85,132.05 -0.72,132.25 -0.59,132.45 -0.53,132.67 -0.47,132.90 -0.48,133.14 -0.50,133.38 -0.59,133.60 -0.68,133.82 -0.83,133.99 -0.99,134.17 -1.19,134.29 -1.39,134.42 -1.63,134.46 -1.86,134.51 -2.09,134.49 -2.33,134.46 -2.54,134.36 -2.76,134.26 -2.93,134.09 -3.10,133.93 -3.21,133.72 -3.32,133.51 -3.35,133.27 -3.39,133.04 -3.39,133.04 -3.39,133.04 -3.32,130.07 -3.25,127.10 -3.23,122.82 -3.21,118.54 -3.16,111.09 -3.11,103.63 -2.99,93.29 -2.87,82.95 -2.56,70.41 -2.25,57.88 -2.16,44.71 -2.07,31.54 -1.83,20.21 -1.59,8.89 -1.64,4.44 -1.70,0 -1.67,-0.20 -1.65,-0.40 -1.57,-0.59 -1.50,-0.79 -1.38,-0.95 -1.27,-1.12 -1.11,-1.26 -0.96,-1.40 -0.78,-1.49 -0.60,-1.59 -0.40,-1.63 -0.20,-1.68 0.00,-1.68 0.20,-1.68 0.40,-1.63 0.60,-1.59 0.78,-1.49 0.96,-1.40 1.12,-1.26 1.27,-1.12 1.39,-0.95 1.50,-0.79 1.57,-0.59 1.65,-0.40 1.67,-0.20 1.70,0.00 1.70,0.00 L 1.70,0 Z"></path></g><g transform="translate(64.14962438881412 156.97756245150106) rotate(0 54.1496243888148 -2.900866148237526)" stroke="none"><path fill="#1e1e1e" d="M -0.14,-1.73 Q -0.14,-1.73 3.19,-1.95 6.53,-2.17 9.87,-2.52 13.21,-2.87 25.81,-3.57 38.41,-4.27 51.83,-4.56 65.25,-4.84 75.66,-5.23 86.07,-5.63 92.14,-6.06 98.21,-6.50 102.30,-6.90 106.38,-7.29 106.64,-7.27 106.91,-7.24 107.14,-7.13 107.38,-7.03 107.58,-6.85 107.77,-6.67 107.89,-6.44 108.02,-6.21 108.06,-5.95 108.11,-5.70 108.07,-5.44 108.03,-5.18 107.91,-4.95 107.79,-4.71 107.61,-4.53 107.42,-4.35 107.18,-4.23 106.94,-4.12 106.68,-4.09 106.42,-4.06 106.17,-4.11 105.91,-4.16 105.69,-4.30 105.46,-4.43 105.29,-4.63 105.12,-4.82 105.02,-5.07 104.92,-5.31 104.90,-5.57 104.88,-5.83 104.95,-6.08 105.01,-6.34 105.16,-6.56 105.30,-6.77 105.51,-6.94 105.72,-7.10 105.96,-7.18 106.21,-7.27 106.47,-7.27 106.73,-7.28 106.98,-7.20 107.23,-7.12 107.44,-6.96 107.65,-6.80 107.80,-6.59 107.95,-6.37 108.03,-6.12 108.10,-5.87 108.09,-5.61 108.08,-5.35 107.98,-5.10 107.89,-4.86 107.72,-4.66 107.56,-4.46 107.33,-4.32 107.11,-4.18 106.85,-4.12 106.60,-4.06 106.60,-4.06 106.60,-4.06 102.51,-3.91 98.42,-3.76 92.30,-3.29 86.18,-2.83 75.75,-2.40 65.32,-1.97 51.95,-1.64 38.58,-1.31 26.08,-0.56 13.57,0.18 10.19,0.62 6.80,1.06 3.47,1.40 0.14,1.73 -0.06,1.73 -0.27,1.72 -0.47,1.66 -0.67,1.60 -0.86,1.50 -1.04,1.39 -1.19,1.25 -1.34,1.10 -1.46,0.92 -1.57,0.75 -1.64,0.55 -1.70,0.35 -1.72,0.14 -1.74,-0.06 -1.70,-0.27 -1.67,-0.48 -1.59,-0.67 -1.51,-0.86 -1.38,-1.03 -1.26,-1.20 -1.09,-1.33 -0.93,-1.47 -0.74,-1.56 -0.55,-1.65 -0.35,-1.69 -0.14,-1.73 -0.14,-1.73 L -0.14,-1.73 Z"></path></g><g transform="translate(68.01747051080747 152.14277324226703) rotate(0 67.68701204276113 -0.9669430872410203)" stroke="none"><path fill="#1e1e1e" d="M 0,-1.66 Q 0,-1.66 2.22,-1.61 4.44,-1.56 9.56,-1.53 14.67,-1.49 23.50,-1.75 32.32,-2.00 43.86,-2.38 55.40,-2.75 68.11,-2.91 80.81,-3.06 92.61,-3.13 104.40,-3.19 112.75,-3.21 121.09,-3.23 125.20,-3.24 129.30,-3.25 129.65,-3.33 130.01,-3.40 130.18,-3.38 130.36,-3.36 130.53,-3.30 130.70,-3.24 130.84,-3.14 130.99,-3.03 131.11,-2.90 131.23,-2.77 131.31,-2.61 131.40,-2.45 131.44,-2.28 131.48,-2.10 131.48,-1.93 131.48,-1.75 131.44,-1.57 131.40,-1.40 131.32,-1.24 131.23,-1.08 131.12,-0.95 131.00,-0.81 130.85,-0.71 130.70,-0.61 130.54,-0.55 130.37,-0.48 130.19,-0.46 130.02,-0.44 128.49,-0.41 126.97,-0.38 125.50,-0.29 124.02,-0.21 122.83,-0.12 121.65,-0.02 120.00,0.01 118.35,0.05 118.03,0.00 117.71,-0.04 117.43,-0.19 117.14,-0.35 116.92,-0.58 116.70,-0.81 116.57,-1.10 116.43,-1.40 116.40,-1.72 116.36,-2.04 116.43,-2.35 116.50,-2.67 116.67,-2.94 116.83,-3.22 117.08,-3.43 117.32,-3.63 117.62,-3.75 117.92,-3.87 118.24,-3.89 118.56,-3.91 118.87,-3.82 119.18,-3.73 119.45,-3.55 119.72,-3.37 119.91,-3.12 120.11,-2.86 120.21,-2.56 120.31,-2.25 120.31,-1.93 120.31,-1.61 120.21,-1.30 120.10,-1.00 119.91,-0.74 119.72,-0.48 119.45,-0.30 119.18,-0.12 118.87,-0.04 118.56,0.04 118.24,0.02 117.92,0.00 117.62,-0.11 117.32,-0.22 117.08,-0.43 116.83,-0.64 116.66,-0.92 116.50,-1.19 116.43,-1.51 116.36,-1.82 116.40,-2.14 116.43,-2.46 116.57,-2.75 116.70,-3.05 116.92,-3.28 117.14,-3.51 117.43,-3.66 117.71,-3.81 118.03,-3.87 118.35,-3.92 118.35,-3.92 118.35,-3.92 120.00,-3.88 121.65,-3.83 122.83,-3.74 124.02,-3.65 125.50,-3.56 126.98,-3.47 128.49,-3.44 130.01,-3.40 130.18,-3.38 130.36,-3.36 130.53,-3.30 130.70,-3.24 130.84,-3.14 130.99,-3.03 131.11,-2.90 131.23,-2.77 131.31,-2.61 131.40,-2.45 131.44,-2.28 131.48,-2.10 131.48,-1.93 131.48,-1.75 131.44,-1.57 131.40,-1.40 131.32,-1.24 131.23,-1.08 131.12,-0.95 131.00,-0.81 130.85,-0.71 130.70,-0.61 130.54,-0.55 130.37,-0.48 130.19,-0.46 130.02,-0.44 129.66,-0.50 129.31,-0.57 125.21,-0.55 121.10,-0.53 112.76,-0.50 104.42,-0.46 92.63,-0.38 80.85,-0.30 68.18,-0.11 55.50,0.06 43.96,0.47 32.41,0.89 23.54,1.19 14.67,1.49 9.56,1.53 4.44,1.56 2.22,1.61 0,1.66 -0.19,1.64 -0.39,1.61 -0.58,1.54 -0.77,1.47 -0.93,1.36 -1.10,1.24 -1.23,1.09 -1.37,0.94 -1.46,0.76 -1.55,0.59 -1.60,0.39 -1.65,0.20 -1.65,-0.00 -1.65,-0.20 -1.60,-0.39 -1.55,-0.59 -1.46,-0.76 -1.37,-0.94 -1.23,-1.09 -1.10,-1.24 -0.93,-1.36 -0.77,-1.47 -0.58,-1.54 -0.39,-1.61 -0.19,-1.64 0.00,-1.66 0.00,-1.66 L 0,-1.66 Z"></path></g><g transform="translate(70.91829977253019 142.47319482379908) rotate(0 67.20361427216949 -4.834789209233918)" stroke="none"><path fill="#1e1e1e" d="M -0.19,-1.75 Q -0.19,-1.75 2.31,-1.97 4.82,-2.18 9.80,-2.54 14.79,-2.89 23.31,-3.31 31.83,-3.72 47.68,-4.44 63.53,-5.17 77.78,-5.74 92.02,-6.32 102.79,-6.84 113.57,-7.36 119.50,-7.85 125.44,-8.34 127.15,-9.16 128.86,-9.98 129.04,-9.97 129.21,-9.97 129.38,-9.92 129.55,-9.87 129.70,-9.78 129.86,-9.70 129.98,-9.58 130.11,-9.45 130.21,-9.31 130.30,-9.16 130.36,-8.99 130.41,-8.82 130.43,-8.65 130.44,-8.47 130.41,-8.30 130.39,-8.13 130.32,-7.96 130.25,-7.80 130.14,-7.66 130.04,-7.52 129.90,-7.41 129.77,-7.30 129.61,-7.22 129.45,-7.14 129.28,-7.11 129.11,-7.07 127.84,-7.36 126.58,-7.65 125.24,-7.68 123.91,-7.71 122.23,-7.71 120.56,-7.72 120.25,-7.78 119.95,-7.85 119.69,-8.00 119.42,-8.16 119.22,-8.40 119.02,-8.63 118.90,-8.92 118.78,-9.21 118.77,-9.52 118.75,-9.83 118.83,-10.12 118.91,-10.42 119.08,-10.68 119.26,-10.94 119.50,-11.13 119.75,-11.31 120.04,-11.41 120.33,-11.51 120.64,-11.52 120.95,-11.52 121.25,-11.42 121.54,-11.32 121.79,-11.14 122.03,-10.95 122.21,-10.69 122.38,-10.44 122.47,-10.14 122.55,-9.84 122.54,-9.53 122.52,-9.22 122.41,-8.94 122.30,-8.65 122.10,-8.41 121.90,-8.17 121.63,-8.01 121.37,-7.85 121.07,-7.79 120.76,-7.72 120.46,-7.75 120.15,-7.78 119.87,-7.91 119.58,-8.04 119.36,-8.25 119.13,-8.46 118.99,-8.74 118.84,-9.01 118.79,-9.31 118.74,-9.62 118.79,-9.92 118.84,-10.23 118.98,-10.50 119.12,-10.78 119.35,-10.99 119.57,-11.21 119.85,-11.34 120.13,-11.47 120.44,-11.50 120.75,-11.54 120.75,-11.54 120.75,-11.54 122.49,-11.38 124.23,-11.21 126.54,-10.60 128.86,-9.98 129.04,-9.97 129.21,-9.97 129.38,-9.92 129.55,-9.87 129.70,-9.78 129.86,-9.70 129.98,-9.58 130.11,-9.45 130.21,-9.31 130.30,-9.16 130.36,-8.99 130.41,-8.82 130.43,-8.65 130.44,-8.47 130.41,-8.30 130.39,-8.13 130.32,-7.96 130.25,-7.80 130.14,-7.66 130.04,-7.52 129.90,-7.41 129.77,-7.30 129.61,-7.22 129.45,-7.14 129.28,-7.11 129.11,-7.07 127.41,-6.35 125.72,-5.64 119.71,-5.12 113.70,-4.60 102.92,-4.06 92.14,-3.51 77.90,-2.90 63.67,-2.29 47.83,-1.52 31.99,-0.75 23.51,-0.27 15.03,0.19 10.11,0.63 5.18,1.07 2.69,1.41 0.19,1.75 -0.01,1.75 -0.23,1.74 -0.43,1.69 -0.64,1.64 -0.82,1.54 -1.01,1.44 -1.17,1.29 -1.33,1.15 -1.45,0.98 -1.57,0.80 -1.64,0.60 -1.71,0.40 -1.74,0.19 -1.76,-0.01 -1.73,-0.22 -1.70,-0.43 -1.63,-0.63 -1.55,-0.83 -1.43,-1.00 -1.30,-1.18 -1.14,-1.32 -0.98,-1.46 -0.79,-1.55 -0.60,-1.65 -0.40,-1.70 -0.19,-1.75 -0.19,-1.75 L -0.19,-1.75 Z"></path></g><g transform="translate(60.281778266821675 142.47319482379908) rotate(0 59.9514304583181 0.9669799737554285)" stroke="none"><path fill="#1e1e1e" d="M 0,-1.82 Q 0,-1.82 4.44,-1.75 8.89,-1.68 16.62,-1.63 24.35,-1.58 34.86,-1.54 45.37,-1.51 57.36,-1.20 69.35,-0.90 79.99,-0.76 90.63,-0.62 98.24,-0.28 105.85,0.06 110.17,0.21 114.50,0.36 115.23,0.30 115.97,0.25 116.16,0.28 116.35,0.30 116.53,0.38 116.70,0.45 116.86,0.57 117.01,0.68 117.14,0.83 117.26,0.98 117.34,1.15 117.43,1.32 117.47,1.51 117.51,1.70 117.50,1.89 117.49,2.08 117.44,2.27 117.39,2.46 117.30,2.62 117.20,2.79 117.07,2.93 116.94,3.07 116.77,3.17 116.61,3.28 116.43,3.34 116.25,3.40 116.06,3.42 115.87,3.44 113.97,3.46 112.08,3.48 111.83,3.45 111.57,3.41 111.35,3.29 111.12,3.18 110.94,3.00 110.77,2.82 110.66,2.59 110.54,2.36 110.51,2.11 110.48,1.86 110.53,1.61 110.58,1.36 110.71,1.14 110.83,0.92 111.02,0.75 111.21,0.58 111.45,0.49 111.68,0.39 111.94,0.37 112.19,0.35 112.43,0.41 112.68,0.48 112.89,0.62 113.11,0.75 113.26,0.95 113.42,1.15 113.51,1.39 113.59,1.63 113.60,1.88 113.60,2.14 113.52,2.38 113.45,2.62 113.30,2.83 113.15,3.03 112.94,3.18 112.73,3.32 112.49,3.40 112.25,3.47 111.99,3.46 111.74,3.45 111.50,3.36 111.26,3.27 111.07,3.11 110.87,2.95 110.74,2.74 110.60,2.52 110.54,2.27 110.48,2.03 110.51,1.77 110.53,1.52 110.63,1.29 110.73,1.06 110.91,0.87 111.08,0.68 111.30,0.56 111.52,0.44 111.77,0.39 112.02,0.34 112.02,0.34 112.02,0.34 113.99,0.30 115.97,0.25 116.16,0.28 116.35,0.30 116.53,0.38 116.70,0.45 116.86,0.57 117.01,0.68 117.14,0.83 117.26,0.98 117.34,1.15 117.43,1.32 117.47,1.51 117.51,1.70 117.50,1.89 117.49,2.08 117.44,2.27 117.39,2.46 117.30,2.62 117.20,2.79 117.07,2.93 116.94,3.07 116.77,3.17 116.61,3.28 116.43,3.34 116.25,3.40 116.06,3.42 115.87,3.44 115.14,3.26 114.41,3.09 110.07,2.96 105.73,2.83 98.16,2.52 90.60,2.20 79.94,2.11 69.29,2.01 57.33,1.76 45.37,1.51 34.86,1.54 24.35,1.58 16.62,1.63 8.89,1.68 4.44,1.75 0,1.82 -0.21,1.79 -0.43,1.77 -0.64,1.69 -0.84,1.61 -1.02,1.48 -1.20,1.36 -1.35,1.20 -1.50,1.03 -1.60,0.84 -1.70,0.64 -1.75,0.43 -1.81,0.21 -1.81,-0.00 -1.81,-0.21 -1.75,-0.43 -1.70,-0.64 -1.60,-0.84 -1.50,-1.03 -1.35,-1.20 -1.20,-1.36 -1.02,-1.48 -0.84,-1.61 -0.64,-1.69 -0.43,-1.77 -0.21,-1.79 0.00,-1.82 0.00,-1.82 L 0,-1.82 Z"></path></g><g transform="translate(73.81920280728264 147.3079840330331) rotate(0 58.01747051080747 0.48350843013486156)" stroke="none"><path fill="#1e1e1e" d="M 0.10,-1.70 Q 0.10,-1.70 4.55,-1.37 8.99,-1.04 16.96,-0.88 24.93,-0.73 34.16,-0.65 43.39,-0.57 52.88,-0.53 62.36,-0.48 71.40,-0.46 80.43,-0.44 89.56,-0.42 98.68,-0.41 103.39,-0.40 108.10,-0.39 111.35,-0.51 114.60,-0.63 114.85,-0.59 115.11,-0.55 115.34,-0.43 115.57,-0.31 115.75,-0.12 115.93,0.06 116.04,0.30 116.15,0.53 116.17,0.79 116.20,1.05 116.15,1.30 116.09,1.56 115.96,1.78 115.82,2.00 115.62,2.17 115.43,2.34 115.18,2.43 114.94,2.53 114.68,2.54 114.42,2.56 114.17,2.49 113.92,2.42 113.71,2.27 113.49,2.13 113.33,1.92 113.18,1.71 113.09,1.47 113.01,1.22 113.01,0.96 113.01,0.70 113.10,0.45 113.18,0.21 113.34,0.00 113.49,-0.20 113.71,-0.34 113.92,-0.49 114.17,-0.56 114.42,-0.63 114.68,-0.61 114.94,-0.60 115.18,-0.50 115.43,-0.40 115.62,-0.24 115.82,-0.07 115.96,0.14 116.09,0.37 116.15,0.62 116.20,0.88 116.17,1.13 116.15,1.39 116.04,1.63 115.93,1.86 115.75,2.05 115.57,2.24 115.34,2.36 115.11,2.48 114.85,2.53 114.60,2.57 114.60,2.57 114.60,2.57 111.35,2.44 108.10,2.32 103.39,2.32 98.68,2.33 89.55,2.34 80.43,2.34 71.39,2.35 62.36,2.35 52.87,2.35 43.38,2.35 34.13,2.33 24.88,2.31 16.84,2.23 8.79,2.15 4.34,1.93 -0.10,1.70 -0.30,1.66 -0.51,1.63 -0.69,1.54 -0.88,1.46 -1.04,1.33 -1.21,1.20 -1.33,1.04 -1.46,0.88 -1.54,0.69 -1.63,0.50 -1.66,0.30 -1.70,0.09 -1.69,-0.10 -1.68,-0.31 -1.61,-0.50 -1.55,-0.70 -1.45,-0.88 -1.34,-1.05 -1.19,-1.20 -1.05,-1.34 -0.87,-1.45 -0.69,-1.56 -0.50,-1.62 -0.30,-1.68 -0.09,-1.69 0.10,-1.70 0.10,-1.70 L 0.10,-1.70 Z"></path></g><g transform="translate(25.471310714942774 15.801732296474995) rotate(0 8.21912690109184 14.020896084081386)" stroke="none"><path fill="#1e1e1e" d="M 1.03,1.55 Q 1.03,1.55 -1.50,3.16 -4.04,4.76 -5.58,6.17 -7.13,7.58 -7.96,8.75 -8.80,9.93 -9.13,10.78 -9.47,11.64 -9.64,11.80 -9.81,11.97 -10.01,12.09 -10.21,12.21 -10.43,12.27 -10.66,12.34 -10.89,12.35 -11.13,12.37 -11.36,12.32 -11.59,12.28 -11.80,12.18 -12.01,12.08 -12.20,11.94 -12.38,11.79 -12.52,11.60 -12.66,11.42 -12.76,11.20 -12.85,10.99 -12.89,10.76 -12.93,10.53 -12.92,10.29 -12.90,10.06 -12.83,9.84 -12.76,9.61 -12.63,9.41 -12.51,9.21 -10.73,9.28 -8.95,9.34 -7.73,9.11 -6.51,8.87 -4.36,8.12 -2.21,7.37 0.43,6.24 3.08,5.11 5.03,4.10 6.97,3.10 8.61,2.10 10.26,1.10 11.97,0.52 13.69,-0.04 14.88,-0.31 16.07,-0.58 16.29,-0.62 16.52,-0.65 16.75,-0.63 16.97,-0.61 17.19,-0.54 17.41,-0.46 17.60,-0.34 17.79,-0.21 17.95,-0.05 18.10,0.11 18.21,0.31 18.33,0.51 18.39,0.73 18.45,0.95 18.46,1.18 18.46,1.40 18.41,1.63 18.37,1.85 18.27,2.06 18.17,2.26 18.02,2.44 17.87,2.61 17.69,2.75 17.51,2.88 17.29,2.97 17.08,3.06 15.46,4.61 13.85,6.16 12.47,7.26 11.10,8.36 9.87,9.25 8.64,10.15 7.69,10.81 6.74,11.47 6.49,11.54 6.24,11.61 5.97,11.63 5.71,11.64 5.45,11.59 5.19,11.53 4.95,11.42 4.71,11.31 4.51,11.14 4.30,10.98 4.14,10.77 3.98,10.55 3.88,10.31 3.77,10.07 3.73,9.81 3.69,9.55 3.71,9.29 3.73,9.02 3.81,8.77 3.90,8.52 4.04,8.30 4.18,8.07 4.37,7.89 4.56,7.71 4.78,7.57 5.01,7.44 6.32,7.37 7.63,7.30 9.31,6.92 11.00,6.53 14.28,5.32 17.55,4.12 20.39,3.06 23.23,2.01 24.41,1.18 25.58,0.35 25.79,0.29 26.01,0.24 26.24,0.23 26.46,0.23 26.68,0.28 26.90,0.33 27.10,0.43 27.30,0.53 27.47,0.68 27.64,0.82 27.77,1.00 27.90,1.19 27.98,1.39 28.07,1.60 28.10,1.83 28.13,2.05 28.11,2.27 28.08,2.49 28.01,2.70 27.93,2.92 27.81,3.10 27.68,3.29 27.52,3.44 27.35,3.59 27.15,3.70 26.96,3.81 25.82,3.48 24.68,3.14 23.25,3.82 21.82,4.50 18.82,5.83 15.82,7.15 12.25,8.55 8.68,9.96 5.48,11.10 2.29,12.24 0.45,12.97 -1.38,13.70 -1.64,14.13 -1.91,14.56 -2.10,14.61 -2.29,14.66 -2.49,14.67 -2.68,14.67 -2.87,14.63 -3.07,14.59 -3.24,14.50 -3.42,14.41 -3.57,14.28 -3.72,14.16 -3.84,14.00 -3.95,13.84 -4.02,13.66 -4.10,13.48 -4.13,13.28 -4.16,13.09 -4.14,12.89 -4.12,12.69 -4.05,12.51 -3.99,12.32 -3.88,12.16 -3.77,11.99 -3.63,11.86 -3.48,11.73 -3.31,11.63 -3.14,11.53 -0.94,11.65 1.26,11.77 4.94,11.31 8.63,10.85 11.86,10.13 15.09,9.40 17.16,8.31 19.24,7.23 20.14,6.35 21.04,5.48 21.23,5.41 21.41,5.34 21.61,5.32 21.80,5.29 22.00,5.32 22.20,5.34 22.38,5.41 22.57,5.48 22.73,5.60 22.89,5.71 23.02,5.86 23.15,6.01 23.25,6.19 23.34,6.36 23.38,6.55 23.43,6.75 23.43,6.94 23.43,7.14 23.38,7.33 23.33,7.53 23.24,7.70 23.15,7.88 23.01,8.02 22.88,8.17 22.72,8.28 22.55,8.40 20.87,8.81 19.18,9.22 16.60,10.32 14.03,11.42 11.05,12.95 8.07,14.48 5.36,15.70 2.65,16.91 1.79,17.87 0.94,18.83 0.77,19.69 0.60,20.55 0.43,20.68 0.25,20.82 0.04,20.90 -0.15,20.99 -0.37,21.02 -0.59,21.06 -0.82,21.04 -1.04,21.02 -1.25,20.95 -1.46,20.88 -1.65,20.76 -1.84,20.64 -1.99,20.48 -2.14,20.32 -2.25,20.12 -2.36,19.93 -2.43,19.71 -2.49,19.50 -2.49,19.28 -2.50,19.05 -2.46,18.84 -2.41,18.62 -2.32,18.42 -2.22,18.22 -2.08,18.04 -1.94,17.87 2.02,18.08 5.98,18.29 9.52,18.45 13.07,18.62 15.49,17.89 17.91,17.17 15.95,17.34 14.00,17.52 12.14,18.16 10.29,18.81 9.24,19.63 8.19,20.45 9.42,21.69 10.64,22.93 13.06,23.31 15.47,23.69 18.12,23.67 20.77,23.66 21.86,22.89 22.95,22.13 23.00,23.33 23.05,24.53 23.94,24.57 24.83,24.60 25.27,24.53 25.70,24.46 26.14,24.53 26.58,24.60 26.97,24.81 27.37,25.02 27.67,25.34 27.98,25.66 28.16,26.06 28.35,26.47 28.40,26.91 28.45,27.35 28.35,27.78 28.26,28.22 28.03,28.60 27.80,28.98 27.46,29.27 27.12,29.55 26.71,29.72 26.30,29.88 25.85,29.91 25.41,29.93 24.98,29.81 24.56,29.70 24.19,29.45 23.82,29.20 23.55,28.84 23.28,28.49 23.14,28.07 23.00,27.65 23.00,27.21 23.00,26.76 23.14,26.34 23.28,25.92 23.55,25.57 23.82,25.21 24.18,24.96 24.55,24.71 24.98,24.59 25.41,24.48 25.85,24.50 26.29,24.52 26.71,24.69 27.12,24.85 27.46,25.14 27.80,25.43 28.03,25.81 28.26,26.19 28.35,26.62 28.45,27.05 28.40,27.50 28.35,27.94 28.16,28.34 27.98,28.74 27.67,29.07 27.37,29.39 26.98,29.60 26.58,29.80 26.58,29.80 26.58,29.80 23.78,29.84 20.98,29.88 19.90,28.92 18.81,27.96 18.65,25.47 18.49,22.98 19.30,21.65 20.11,20.31 21.69,19.83 23.27,19.36 24.50,20.12 25.73,20.88 25.28,22.89 24.84,24.90 22.94,25.87 21.04,26.84 17.97,26.98 14.90,27.11 11.69,26.54 8.49,25.97 6.85,24.36 5.21,22.75 5.40,20.72 5.59,18.69 7.33,17.21 9.07,15.73 11.16,14.89 13.25,14.05 15.60,13.55 17.96,13.04 19.82,13.67 21.67,14.29 22.08,15.46 22.49,16.64 20.62,18.28 18.75,19.93 15.88,20.76 13.01,21.59 9.34,21.49 5.68,21.39 3.14,20.97 0.60,20.55 0.43,20.68 0.25,20.82 0.04,20.90 -0.15,20.99 -0.37,21.02 -0.59,21.06 -0.82,21.04 -1.04,21.02 -1.25,20.95 -1.46,20.88 -1.65,20.76 -1.84,20.64 -1.99,20.48 -2.14,20.32 -2.25,20.12 -2.36,19.93 -2.43,19.71 -2.49,19.50 -2.49,19.28 -2.50,19.06 -2.46,18.84 -2.41,18.62 -2.32,18.42 -2.22,18.22 -2.08,18.05 -1.94,17.87 -1.70,17.26 -1.45,16.65 -0.04,15.45 1.36,14.24 3.99,12.99 6.62,11.74 9.65,10.09 12.68,8.44 15.10,7.28 17.52,6.12 19.28,5.80 21.04,5.48 21.23,5.41 21.41,5.34 21.61,5.32 21.80,5.29 22.00,5.32 22.20,5.34 22.38,5.41 22.57,5.48 22.73,5.60 22.89,5.71 23.02,5.86 23.15,6.01 23.25,6.19 23.34,6.36 23.38,6.55 23.43,6.75 23.43,6.94 23.43,7.14 23.38,7.33 23.33,7.53 23.24,7.70 23.15,7.88 23.01,8.02 22.88,8.17 22.72,8.28 22.55,8.40 21.55,9.06 20.55,9.72 18.15,10.96 15.76,12.20 12.39,13.01 9.02,13.81 5.02,14.35 1.03,14.88 -0.43,14.72 -1.91,14.56 -2.10,14.61 -2.29,14.66 -2.49,14.67 -2.68,14.67 -2.87,14.63 -3.07,14.59 -3.24,14.50 -3.42,14.41 -3.57,14.28 -3.72,14.16 -3.84,14.00 -3.95,13.84 -4.02,13.66 -4.10,13.48 -4.13,13.28 -4.16,13.09 -4.14,12.89 -4.12,12.69 -4.05,12.51 -3.99,12.32 -3.88,12.16 -3.77,11.99 -3.63,11.86 -3.48,11.73 -3.31,11.63 -3.14,11.53 -2.90,11.31 -2.66,11.08 -0.70,10.26 1.25,9.44 4.38,8.26 7.51,7.07 10.97,5.61 14.43,4.15 17.52,2.65 20.61,1.16 23.09,0.76 25.58,0.35 25.79,0.29 26.01,0.24 26.23,0.23 26.46,0.23 26.68,0.28 26.90,0.33 27.10,0.43 27.30,0.53 27.47,0.68 27.64,0.82 27.77,1.00 27.90,1.19 27.98,1.39 28.07,1.60 28.10,1.82 28.13,2.05 28.11,2.27 28.08,2.49 28.01,2.70 27.93,2.92 27.81,3.10 27.68,3.29 27.52,3.44 27.35,3.59 27.15,3.70 26.96,3.81 25.73,4.49 24.51,5.18 21.72,6.37 18.93,7.56 15.49,9.03 12.05,10.50 9.40,10.98 6.74,11.47 6.49,11.54 6.24,11.61 5.97,11.63 5.71,11.64 5.45,11.59 5.19,11.53 4.95,11.42 4.71,11.31 4.51,11.14 4.30,10.98 4.14,10.77 3.98,10.55 3.88,10.31 3.77,10.07 3.73,9.81 3.69,9.55 3.71,9.29 3.73,9.02 3.81,8.77 3.89,8.52 4.04,8.30 4.18,8.07 4.37,7.89 4.56,7.71 4.78,7.57 5.01,7.44 5.73,7.14 6.46,6.84 7.60,6.16 8.75,5.47 10.34,4.15 11.93,2.84 13.13,2.33 14.34,1.82 15.20,0.61 16.07,-0.58 16.29,-0.62 16.52,-0.65 16.75,-0.63 16.97,-0.61 17.19,-0.54 17.41,-0.46 17.60,-0.34 17.79,-0.21 17.95,-0.05 18.10,0.11 18.21,0.31 18.33,0.51 18.39,0.73 18.45,0.95 18.46,1.18 18.46,1.40 18.41,1.63 18.37,1.85 18.27,2.06 18.17,2.26 18.02,2.44 17.87,2.61 17.69,2.75 17.51,2.88 17.29,2.97 17.08,3.06 15.85,3.15 14.61,3.25 13.24,3.53 11.86,3.82 10.16,4.84 8.46,5.86 6.46,7.00 4.46,8.14 1.75,9.43 -0.95,10.73 -3.55,11.76 -6.15,12.79 -7.81,12.21 -9.47,11.64 -9.64,11.80 -9.81,11.97 -10.01,12.09 -10.21,12.21 -10.43,12.27 -10.66,12.34 -10.89,12.35 -11.13,12.37 -11.36,12.32 -11.59,12.28 -11.80,12.18 -12.01,12.08 -12.20,11.94 -12.38,11.79 -12.52,11.60 -12.66,11.42 -12.76,11.20 -12.85,10.99 -12.89,10.76 -12.93,10.53 -12.92,10.29 -12.90,10.06 -12.83,9.84 -12.76,9.61 -12.64,9.41 -12.51,9.21 -12.03,8.48 -11.54,7.75 -10.45,6.50 -9.35,5.25 -7.65,3.58 -5.96,1.90 -3.50,0.17 -1.03,-1.55 -0.83,-1.65 -0.63,-1.76 -0.41,-1.81 -0.19,-1.86 0.03,-1.85 0.25,-1.85 0.47,-1.79 0.69,-1.73 0.89,-1.63 1.08,-1.52 1.25,-1.37 1.42,-1.21 1.54,-1.03 1.67,-0.84 1.74,-0.63 1.82,-0.41 1.84,-0.19 1.87,0.03 1.84,0.25 1.81,0.47 1.72,0.68 1.64,0.89 1.51,1.08 1.38,1.26 1.20,1.41 1.03,1.55 1.03,1.55 L 1.03,1.55 Z"></path></g><g transform="translate(157.94450553874185 18.70259844471252) rotate(0 12.570481453219827 11.603519922721546)" stroke="none"><path fill="#1e1e1e" d="M 1.61,1.07 Q 1.61,1.07 0.45,2.71 -0.70,4.35 -1.75,5.70 -2.80,7.06 -3.47,7.95 -4.14,8.84 -2.83,8.47 -1.51,8.10 1.21,7.76 3.94,7.43 6.98,6.26 10.02,5.10 12.11,3.85 14.20,2.59 14.86,1.64 15.52,0.69 14.13,0.88 12.75,1.08 10.56,1.30 8.38,1.53 5.13,2.63 1.89,3.73 0.83,4.44 -0.22,5.15 1.19,5.21 2.61,5.27 4.77,5.22 6.94,5.17 8.80,4.42 10.66,3.67 9.00,4.96 7.34,6.25 5.46,7.14 3.58,8.02 2.10,9.09 0.62,10.17 -0.05,11.60 -0.72,13.04 -0.92,13.15 -1.12,13.27 -1.34,13.34 -1.56,13.40 -1.79,13.41 -2.02,13.43 -2.24,13.38 -2.47,13.34 -2.68,13.24 -2.89,13.15 -3.07,13.00 -3.25,12.86 -3.39,12.68 -3.53,12.49 -3.62,12.28 -3.71,12.07 -3.75,11.85 -3.79,11.62 -3.77,11.39 -3.76,11.16 -3.69,10.94 -3.62,10.72 -3.50,10.53 -3.38,10.33 -3.21,10.17 -3.05,10.01 -0.73,10.46 1.58,10.91 3.57,11.17 5.55,11.43 8.03,11.31 10.51,11.19 12.35,10.87 14.19,10.54 15.12,9.22 16.06,7.89 16.27,7.79 16.49,7.69 16.72,7.64 16.95,7.59 17.19,7.60 17.42,7.61 17.65,7.67 17.88,7.74 18.09,7.86 18.29,7.97 18.47,8.14 18.64,8.30 18.76,8.50 18.89,8.70 18.97,8.93 19.04,9.15 19.06,9.39 19.08,9.62 19.05,9.86 19.01,10.09 18.92,10.31 18.83,10.53 18.68,10.72 18.54,10.91 18.36,11.06 18.17,11.21 16.59,11.08 15.01,10.95 13.82,10.94 12.63,10.92 10.93,11.32 9.23,11.73 7.04,12.40 4.85,13.07 3.62,13.77 2.38,14.47 1.95,15.88 1.52,17.30 1.31,17.40 1.09,17.49 0.86,17.53 0.62,17.57 0.39,17.55 0.15,17.54 -0.06,17.46 -0.29,17.39 -0.49,17.26 -0.69,17.14 -0.85,16.97 -1.02,16.80 -1.14,16.60 -1.26,16.39 -1.32,16.17 -1.39,15.94 -1.40,15.70 -1.41,15.47 -1.37,15.24 -1.32,15.00 -1.22,14.79 -1.12,14.58 -0.98,14.39 -0.83,14.21 -0.64,14.06 -0.45,13.92 2.06,14.42 4.59,14.91 7.03,14.89 9.47,14.86 11.79,14.09 14.11,13.32 15.93,12.48 17.75,11.64 16.60,11.82 15.46,11.99 13.87,12.84 12.28,13.69 10.72,14.64 9.15,15.59 8.10,16.70 7.06,17.81 6.86,18.41 6.65,19.01 6.46,19.17 6.27,19.32 6.04,19.43 5.82,19.53 5.58,19.58 5.33,19.62 5.09,19.61 4.84,19.60 4.61,19.53 4.37,19.45 4.16,19.33 3.94,19.20 3.77,19.03 3.59,18.86 3.46,18.65 3.33,18.44 3.26,18.20 3.18,17.97 3.16,17.72 3.15,17.47 3.19,17.23 3.23,16.99 3.33,16.76 3.43,16.54 3.58,16.34 3.73,16.14 6.54,16.47 9.34,16.81 12.09,16.78 14.84,16.76 17.88,15.98 20.92,15.20 23.58,14.07 26.24,12.95 27.42,12.13 28.59,11.31 27.20,11.59 25.81,11.86 23.07,12.49 20.33,13.13 17.17,14.19 14.00,15.25 11.92,16.47 9.85,17.68 11.64,18.79 13.44,19.91 15.14,20.06 16.85,20.22 18.05,19.50 19.26,18.79 19.51,18.77 19.76,18.75 20.01,18.79 20.25,18.84 20.48,18.94 20.71,19.04 20.91,19.19 21.11,19.35 21.27,19.55 21.43,19.74 21.53,19.97 21.64,20.20 21.68,20.45 21.73,20.69 21.72,20.95 21.71,21.20 21.63,21.44 21.56,21.68 21.43,21.90 21.30,22.11 21.13,22.29 20.95,22.47 20.74,22.60 20.52,22.73 20.28,22.81 20.04,22.89 18.96,22.73 17.87,22.57 16.71,22.80 15.55,23.02 16.79,22.37 18.03,21.71 19.81,21.68 21.60,21.65 23.58,21.19 25.56,20.73 26.00,20.71 26.44,20.70 26.87,20.82 27.29,20.94 27.65,21.20 28.01,21.45 28.27,21.81 28.53,22.16 28.67,22.58 28.80,23.00 28.79,23.44 28.79,23.88 28.64,24.30 28.49,24.71 28.22,25.06 27.95,25.41 27.58,25.65 27.21,25.89 26.79,26.00 26.36,26.11 25.92,26.08 25.48,26.05 25.07,25.88 24.67,25.71 24.33,25.42 24.00,25.13 23.78,24.75 23.56,24.37 23.47,23.94 23.38,23.50 23.44,23.07 23.49,22.63 23.68,22.23 23.88,21.83 24.18,21.52 24.49,21.20 24.88,21.00 25.28,20.80 25.71,20.74 26.15,20.67 26.58,20.75 27.02,20.83 27.40,21.04 27.79,21.26 28.09,21.58 28.38,21.91 28.56,22.31 28.74,22.71 28.78,23.15 28.82,23.59 28.72,24.02 28.62,24.45 28.39,24.82 28.15,25.19 27.81,25.47 27.47,25.75 27.06,25.91 26.65,26.07 26.65,26.07 26.65,26.07 24.26,26.50 21.87,26.93 20.37,27.06 18.86,27.19 16.90,27.25 14.93,27.31 13.95,26.47 12.97,25.62 12.43,24.50 11.88,23.37 11.89,22.27 11.90,21.18 12.82,19.97 13.73,18.77 14.97,18.48 16.21,18.18 17.73,18.48 19.26,18.79 19.51,18.77 19.76,18.75 20.01,18.79 20.25,18.84 20.48,18.94 20.71,19.04 20.91,19.19 21.11,19.35 21.27,19.55 21.43,19.74 21.53,19.97 21.64,20.20 21.68,20.45 21.73,20.69 21.72,20.95 21.71,21.20 21.63,21.44 21.56,21.68 21.43,21.90 21.30,22.11 21.13,22.29 20.95,22.47 20.74,22.60 20.52,22.73 20.28,22.81 20.04,22.89 19.64,23.15 19.24,23.42 17.88,23.56 16.53,23.70 14.66,23.49 12.78,23.27 10.10,22.63 7.42,21.99 6.62,20.53 5.83,19.07 7.06,17.12 8.28,15.16 10.62,13.75 12.97,12.33 16.28,11.13 19.59,9.93 22.93,9.16 26.27,8.39 28.28,8.75 30.29,9.11 30.61,11.11 30.93,13.10 29.20,14.42 27.47,15.73 24.61,17.00 21.75,18.28 18.34,19.22 14.94,20.16 11.67,20.27 8.41,20.37 7.53,19.69 6.65,19.01 6.46,19.17 6.27,19.32 6.04,19.43 5.82,19.53 5.58,19.58 5.33,19.62 5.09,19.61 4.84,19.60 4.61,19.53 4.37,19.45 4.16,19.33 3.94,19.20 3.77,19.03 3.59,18.86 3.46,18.65 3.33,18.44 3.26,18.20 3.18,17.97 3.16,17.72 3.15,17.47 3.19,17.23 3.23,16.99 3.33,16.76 3.43,16.54 3.58,16.34 3.73,16.14 4.02,15.68 4.31,15.22 5.73,13.82 7.15,12.42 8.76,11.39 10.38,10.36 12.35,9.18 14.32,7.99 16.37,7.56 18.42,7.13 19.67,7.66 20.92,8.19 21.18,10.10 21.44,12.01 20.29,13.15 19.13,14.28 17.12,15.28 15.12,16.29 12.35,17.23 9.59,18.18 6.62,18.27 3.64,18.37 2.58,17.83 1.52,17.30 1.31,17.40 1.09,17.49 0.86,17.53 0.62,17.57 0.39,17.55 0.15,17.54 -0.06,17.46 -0.29,17.39 -0.49,17.26 -0.69,17.14 -0.85,16.97 -1.02,16.80 -1.14,16.60 -1.26,16.39 -1.32,16.17 -1.39,15.94 -1.40,15.70 -1.41,15.47 -1.37,15.24 -1.32,15.00 -1.22,14.79 -1.12,14.58 -0.98,14.39 -0.83,14.21 -0.64,14.06 -0.45,13.92 -0.16,12.92 0.13,11.92 1.91,10.84 3.70,9.77 5.99,8.90 8.28,8.03 10.57,7.40 12.86,6.78 14.46,7.34 16.06,7.89 16.27,7.79 16.49,7.69 16.72,7.64 16.95,7.59 17.19,7.60 17.42,7.61 17.65,7.67 17.88,7.74 18.09,7.86 18.29,7.97 18.47,8.14 18.64,8.30 18.76,8.50 18.89,8.70 18.97,8.93 19.04,9.15 19.06,9.39 19.08,9.62 19.05,9.86 19.01,10.09 18.92,10.31 18.83,10.53 18.68,10.72 18.54,10.91 18.36,11.06 18.17,11.21 18.02,11.61 17.87,12.02 16.36,12.86 14.85,13.69 12.79,14.07 10.73,14.45 7.95,14.68 5.18,14.91 2.22,13.97 -0.72,13.04 -0.92,13.15 -1.12,13.27 -1.34,13.34 -1.56,13.40 -1.79,13.41 -2.02,13.43 -2.24,13.38 -2.47,13.34 -2.68,13.24 -2.89,13.15 -3.07,13.00 -3.25,12.86 -3.39,12.68 -3.53,12.49 -3.62,12.28 -3.71,12.07 -3.75,11.85 -3.79,11.62 -3.77,11.39 -3.76,11.16 -3.69,10.94 -3.62,10.72 -3.50,10.53 -3.38,10.33 -3.21,10.17 -3.05,10.01 -2.36,8.72 -1.66,7.44 0.07,6.04 1.81,4.64 3.58,3.63 5.34,2.62 7.33,1.53 9.31,0.43 11.69,0.60 14.06,0.77 14.29,2.63 14.53,4.49 13.27,5.58 12.02,6.68 9.60,7.70 7.19,8.72 4.52,8.92 1.84,9.11 -0.25,8.44 -2.35,7.77 -2.78,6.04 -3.21,4.32 -1.36,2.29 0.48,0.25 4.07,-1.17 7.67,-2.60 9.81,-3.10 11.95,-3.60 13.54,-3.73 15.14,-3.87 16.33,-3.41 17.53,-2.94 18.22,-1.92 18.92,-0.90 18.68,0.89 18.45,2.69 17.23,4.03 16.02,5.37 13.70,6.90 11.38,8.42 7.97,9.87 4.56,11.32 1.27,11.90 -2.01,12.48 -4.43,12.01 -6.85,11.53 -7.51,10.31 -8.16,9.09 -6.96,6.87 -5.75,4.66 -4.75,3.49 -3.74,2.31 -2.67,0.62 -1.61,-1.07 -1.45,-1.25 -1.30,-1.42 -1.11,-1.56 -0.92,-1.69 -0.71,-1.78 -0.49,-1.87 -0.26,-1.90 -0.03,-1.93 0.20,-1.91 0.43,-1.88 0.65,-1.80 0.87,-1.72 1.06,-1.59 1.26,-1.46 1.41,-1.29 1.57,-1.12 1.68,-0.92 1.79,-0.71 1.85,-0.48 1.91,-0.26 1.92,-0.03 1.92,0.20 1.87,0.42 1.82,0.65 1.71,0.86 1.61,1.07 1.61,1.07 L 1.61,1.07 Z"></path></g></svg>