<?xml version="1.0" standalone="no"?>
<!DOCTYPE svg PUBLIC "-//W3C//DTD SVG 1.1//EN" "http://www.w3.org/Graphics/SVG/1.1/DTD/svg11.dtd">
<svg version="1.1" xmlns="http://www.w3.org/2000/svg" viewBox="0 0 205.6559498984011 233.214196749915" width="411.3118997968022" height="466.42839349983"><!-- svg-source:excalidraw --><metadata></metadata><defs><style class="style-fonts">
      </style></defs><g transform="translate(60.28177826682122 188.40372919803622) rotate(0 -24.657417589790384 16.92174378906168)" stroke="none"><path fill="#1e1e1e" d="M 0,1.56 Q 0,1.56 -2.22,1.52 -4.44,1.49 -7.61,1.46 -10.78,1.44 -14.86,1.70 -18.94,1.96 -23.33,3.15 -27.73,4.34 -31.72,6.73 -35.70,9.12 -39.01,12.28 -42.32,15.45 -43.92,18.86 -45.53,22.27 -45.68,24.86 -45.84,27.44 -44.43,29.14 -43.01,30.83 -40.13,31.53 -37.25,32.22 -32.80,31.75 -28.35,31.28 -22.41,28.37 -16.46,25.46 -12.89,22.08 -9.32,18.71 -7.59,15.48 -5.86,12.25 -5.95,9.48 -6.03,6.71 -7.32,5.16 -8.60,3.60 -10.39,2.69 -12.18,1.78 -14.11,1.27 -16.03,0.77 -16.25,0.66 -16.47,0.54 -16.64,0.36 -16.81,0.19 -16.92,-0.03 -17.02,-0.25 -17.05,-0.50 -17.08,-0.74 -17.03,-0.99 -16.98,-1.23 -16.85,-1.44 -16.73,-1.65 -16.54,-1.82 -16.35,-1.98 -16.12,-2.07 -15.89,-2.17 -15.65,-2.18 -15.40,-2.20 -15.16,-2.13 -14.92,-2.07 -14.72,-1.93 -14.51,-1.79 -14.36,-1.60 -14.21,-1.40 -14.13,-1.17 -14.05,-0.93 -14.04,-0.69 -14.04,-0.44 -14.12,-0.20 -14.20,0.02 -14.34,0.22 -14.49,0.42 -14.70,0.56 -14.90,0.70 -15.14,0.77 -15.37,0.84 -15.62,0.82 -15.87,0.81 -16.10,0.72 -16.33,0.63 -16.52,0.48 -16.71,0.32 -16.84,0.11 -16.97,-0.10 -17.02,-0.34 -17.08,-0.58 -17.06,-0.82 -17.03,-1.07 -16.93,-1.30 -16.83,-1.52 -16.66,-1.70 -16.49,-1.88 -16.27,-2.00 -16.05,-2.12 -15.81,-2.16 -15.57,-2.20 -15.32,-2.17 -15.08,-2.13 -15.08,-2.13 -15.08,-2.13 -13.01,-1.33 -10.94,-0.52 -8.75,0.71 -6.57,1.96 -5.04,4.17 -3.50,6.38 -3.50,9.86 -3.51,13.34 -5.50,16.97 -7.50,20.60 -11.39,24.21 -15.28,27.81 -21.66,30.85 -28.04,33.89 -32.97,34.33 -37.89,34.78 -41.36,33.71 -44.84,32.64 -46.60,30.18 -48.37,27.71 -48.16,24.45 -47.96,21.18 -46.09,17.36 -44.22,13.54 -40.66,10.16 -37.11,6.78 -32.79,4.23 -28.48,1.68 -23.81,0.41 -19.14,-0.84 -14.96,-1.14 -10.78,-1.44 -7.61,-1.46 -4.44,-1.49 -2.22,-1.52 0,-1.56 0.18,-1.53 0.37,-1.51 0.54,-1.45 0.72,-1.38 0.88,-1.27 1.03,-1.16 1.16,-1.02 1.28,-0.88 1.37,-0.72 1.46,-0.55 1.50,-0.37 1.55,-0.18 1.55,0.00 1.55,0.18 1.50,0.37 1.46,0.55 1.37,0.72 1.28,0.88 1.16,1.02 1.03,1.16 0.88,1.27 0.72,1.38 0.54,1.45 0.37,1.51 0.18,1.53 -0.00,1.56 -0.00,1.56 L 0,1.56 Z"></path></g><g transform="translate(29.339156836935672 192.2715384335147) rotate(0 3.8678461219928977 14.020896084081386)" stroke="none"><path fill="#1e1e1e" d="M 1.04,1.38 Q 1.04,1.38 -0.02,2.28 -1.09,3.17 -2.69,4.33 -4.30,5.48 -6.26,7.75 -8.23,10.02 -10.49,13.19 -12.75,16.37 -14.23,19.57 -15.72,22.76 -16.70,24.45 -17.68,26.13 -16.38,24.78 -15.09,23.43 -12.15,20.57 -9.22,17.71 -5.72,14.53 -2.22,11.36 0.93,8.62 4.10,5.88 6.26,3.91 8.42,1.94 9.62,0.25 10.82,-1.43 10.95,-1.53 11.09,-1.63 11.24,-1.69 11.40,-1.75 11.57,-1.78 11.73,-1.80 11.90,-1.78 12.07,-1.76 12.22,-1.71 12.38,-1.65 12.52,-1.56 12.66,-1.47 12.77,-1.34 12.89,-1.22 12.97,-1.07 13.05,-0.93 13.09,-0.76 13.14,-0.60 13.14,-0.43 13.14,-0.27 13.11,-0.10 13.07,0.05 12.99,0.20 12.92,0.35 12.81,0.48 12.70,0.61 11.60,1.75 10.50,2.89 8.67,5.37 6.83,7.84 4.32,10.61 1.81,13.39 -0.29,16.41 -2.40,19.43 -3.86,21.82 -5.32,24.20 -6.66,24.75 -8.00,25.30 -6.94,24.26 -5.89,23.22 -3.70,21.24 -1.52,19.25 1.10,16.74 3.73,14.23 6.53,11.51 9.33,8.79 11.64,6.53 13.95,4.27 15.22,2.87 16.50,1.48 16.19,1.65 15.87,1.82 16.01,1.68 16.16,1.53 16.33,1.43 16.50,1.32 16.70,1.26 16.89,1.20 17.09,1.19 17.30,1.17 17.50,1.21 17.70,1.25 17.88,1.33 18.07,1.41 18.23,1.54 18.39,1.66 18.52,1.82 18.64,1.98 18.72,2.17 18.81,2.35 18.85,2.55 18.88,2.75 18.87,2.96 18.86,3.16 18.80,3.35 18.74,3.55 18.63,3.72 18.53,3.90 17.85,5.20 17.18,6.51 15.34,8.84 13.51,11.18 11.38,14.30 9.25,17.42 7.52,20.38 5.78,23.34 4.80,24.80 3.83,26.26 4.01,27.14 4.18,28.01 4.05,28.17 3.91,28.33 3.74,28.46 3.57,28.58 3.37,28.66 3.18,28.75 2.97,28.78 2.76,28.81 2.55,28.79 2.34,28.77 2.14,28.70 1.94,28.63 1.76,28.51 1.59,28.40 1.44,28.25 1.30,28.09 1.19,27.91 1.09,27.72 1.03,27.52 0.98,27.31 0.97,27.10 0.97,26.89 1.01,26.69 1.06,26.48 1.15,26.29 1.24,26.10 3.10,25.24 4.96,24.37 7.05,22.64 9.13,20.92 11.80,18.75 14.46,16.58 17.17,13.27 19.87,9.95 21.58,7.20 23.28,4.44 23.97,2.53 24.66,0.63 24.61,-0.00 24.55,-0.63 24.64,-0.80 24.72,-0.97 24.85,-1.12 24.97,-1.27 25.13,-1.38 25.29,-1.49 25.46,-1.56 25.64,-1.63 25.83,-1.66 26.02,-1.68 26.22,-1.66 26.41,-1.64 26.59,-1.58 26.77,-1.51 26.93,-1.40 27.09,-1.30 27.22,-1.16 27.35,-1.01 27.44,-0.84 27.53,-0.68 27.58,-0.49 27.63,-0.30 27.63,-0.11 27.63,0.07 27.59,0.26 27.55,0.44 26.99,1.66 26.44,2.88 25.65,4.71 24.86,6.54 24.25,8.62 23.63,10.71 23.15,12.27 22.67,13.84 23.15,14.98 23.64,16.13 23.55,16.31 23.45,16.50 23.32,16.66 23.18,16.82 23.01,16.94 22.84,17.06 22.65,17.14 22.45,17.21 22.24,17.24 22.04,17.27 21.83,17.25 21.62,17.22 21.43,17.15 21.23,17.08 21.06,16.97 20.88,16.85 20.74,16.70 20.60,16.54 20.50,16.36 20.40,16.18 20.35,15.97 20.30,15.77 20.29,15.56 20.29,15.35 20.34,15.15 20.38,14.95 21.21,14.38 22.04,13.81 22.31,13.86 22.59,13.91 22.83,14.04 23.08,14.18 23.27,14.38 23.46,14.59 23.57,14.84 23.69,15.10 23.71,15.38 23.74,15.66 23.68,15.93 23.61,16.20 23.46,16.44 23.31,16.68 23.10,16.86 22.88,17.03 22.62,17.13 22.36,17.23 22.08,17.25 21.80,17.26 21.53,17.18 21.26,17.10 21.03,16.94 20.80,16.78 20.64,16.55 20.47,16.33 20.39,16.06 20.30,15.79 20.30,15.51 20.31,15.23 20.40,14.97 20.49,14.70 20.67,14.48 20.84,14.26 21.07,14.11 21.31,13.96 21.58,13.88 21.85,13.81 22.13,13.83 22.41,13.85 22.67,13.96 22.93,14.07 23.14,14.25 23.35,14.44 23.49,14.68 23.63,14.92 23.69,15.20 23.74,15.47 23.71,15.75 23.67,16.03 23.55,16.28 23.43,16.53 23.23,16.73 23.04,16.93 22.79,17.06 22.54,17.19 23.09,16.66 23.64,16.13 23.55,16.31 23.45,16.50 23.32,16.66 23.18,16.82 23.01,16.94 22.84,17.06 22.65,17.14 22.45,17.21 22.24,17.24 22.04,17.27 21.83,17.25 21.62,17.22 21.43,17.15 21.23,17.08 21.06,16.97 20.88,16.85 20.74,16.70 20.60,16.54 20.50,16.36 20.40,16.18 20.35,15.97 20.30,15.77 20.29,15.56 20.29,15.35 20.34,15.15 20.38,14.95 19.96,13.83 19.53,12.70 20.12,11.30 20.71,9.89 21.32,7.60 21.93,5.31 22.71,3.40 23.50,1.48 24.02,0.42 24.55,-0.63 24.64,-0.80 24.72,-0.97 24.85,-1.12 24.97,-1.27 25.13,-1.38 25.29,-1.49 25.46,-1.56 25.64,-1.63 25.83,-1.66 26.02,-1.68 26.22,-1.66 26.41,-1.64 26.59,-1.58 26.77,-1.51 26.93,-1.40 27.09,-1.30 27.22,-1.16 27.35,-1.01 27.44,-0.85 27.53,-0.68 27.58,-0.49 27.63,-0.30 27.63,-0.11 27.63,0.07 27.59,0.26 27.55,0.44 27.42,0.99 27.29,1.54 26.50,3.73 25.71,5.91 23.93,8.86 22.15,11.80 19.28,15.36 16.41,18.92 13.80,21.15 11.19,23.38 7.68,25.69 4.18,28.01 4.05,28.17 3.91,28.33 3.74,28.46 3.57,28.58 3.37,28.66 3.18,28.75 2.97,28.78 2.76,28.81 2.55,28.79 2.34,28.77 2.14,28.70 1.94,28.63 1.76,28.51 1.59,28.40 1.44,28.25 1.30,28.09 1.19,27.91 1.09,27.72 1.03,27.52 0.98,27.31 0.97,27.10 0.97,26.89 1.01,26.69 1.06,26.48 1.15,26.29 1.24,26.10 1.17,25.65 1.10,25.19 2.15,23.53 3.21,21.86 4.94,18.78 6.68,15.70 8.79,12.45 10.91,9.20 12.51,7.00 14.11,4.81 14.99,3.31 15.87,1.82 16.01,1.68 16.16,1.53 16.33,1.43 16.50,1.32 16.70,1.26 16.89,1.20 17.09,1.19 17.30,1.17 17.50,1.21 17.70,1.25 17.88,1.33 18.07,1.41 18.23,1.54 18.39,1.66 18.52,1.82 18.64,1.98 18.72,2.17 18.81,2.35 18.85,2.55 18.88,2.75 18.87,2.96 18.86,3.16 18.80,3.35 18.74,3.55 18.63,3.72 18.53,3.90 17.94,4.01 17.35,4.13 16.69,5.24 16.02,6.34 13.75,8.65 11.47,10.95 8.73,13.73 5.98,16.52 3.41,19.12 0.83,21.73 -1.36,23.92 -3.56,26.12 -4.97,27.06 -6.39,28.01 -7.70,27.34 -9.00,26.67 -8.37,24.71 -7.73,22.75 -6.26,20.27 -4.78,17.79 -2.60,14.59 -0.42,11.40 1.93,8.70 4.29,6.01 6.06,3.47 7.83,0.93 9.32,-0.25 10.82,-1.43 10.95,-1.53 11.09,-1.63 11.24,-1.69 11.40,-1.75 11.57,-1.78 11.73,-1.80 11.90,-1.78 12.07,-1.76 12.22,-1.71 12.38,-1.65 12.52,-1.56 12.66,-1.47 12.77,-1.34 12.89,-1.22 12.97,-1.07 13.05,-0.93 13.09,-0.76 13.14,-0.60 13.14,-0.43 13.14,-0.27 13.11,-0.10 13.07,0.05 12.99,0.20 12.92,0.35 12.81,0.48 12.70,0.61 11.50,2.28 10.30,3.96 8.12,5.98 5.95,8.01 2.83,10.75 -0.27,13.49 -3.70,16.66 -7.12,19.83 -10.02,22.75 -12.92,25.67 -14.87,27.34 -16.81,29.00 -17.95,28.63 -19.08,28.27 -18.77,24.90 -18.46,21.52 -16.90,18.05 -15.35,14.58 -13.07,11.22 -10.80,7.86 -8.64,5.23 -6.48,2.60 -4.92,1.38 -3.35,0.15 -2.19,-0.61 -1.04,-1.38 -0.86,-1.49 -0.67,-1.59 -0.47,-1.65 -0.27,-1.71 -0.06,-1.72 0.14,-1.73 0.34,-1.68 0.55,-1.64 0.74,-1.55 0.93,-1.46 1.09,-1.33 1.25,-1.20 1.37,-1.03 1.50,-0.86 1.58,-0.67 1.66,-0.48 1.70,-0.27 1.73,-0.06 1.71,0.14 1.70,0.34 1.63,0.54 1.56,0.74 1.45,0.92 1.34,1.10 1.19,1.24 1.04,1.39 1.04,1.38 L 1.04,1.38 Z"></path></g><g transform="translate(56.414005917856684 26.921762232318883) rotate(0 -2.9008661482373554 90.8940334449471)" stroke="none"><path fill="#1e1e1e" d="M 1.55,-0.17 Q 1.55,-0.17 1.79,2.33 2.04,4.83 2.13,10.13 2.23,15.43 2.26,23.23 2.30,31.03 2.30,41.29 2.31,51.55 2.03,64.82 1.76,78.09 1.36,92.62 0.96,107.16 -0.04,120.32 -1.05,133.47 -2.03,143.79 -3.02,154.11 -3.72,161.27 -4.42,168.43 -4.71,172.29 -5.01,176.15 -5.04,177.81 -5.08,179.46 -5.14,179.70 -5.20,179.93 -5.33,180.14 -5.46,180.34 -5.64,180.50 -5.83,180.65 -6.06,180.74 -6.29,180.82 -6.53,180.83 -6.77,180.84 -7.01,180.77 -7.24,180.70 -7.44,180.55 -7.63,180.41 -7.78,180.22 -7.92,180.02 -7.99,179.79 -8.06,179.56 -8.06,179.31 -8.05,179.07 -7.97,178.84 -7.89,178.62 -7.74,178.43 -7.59,178.24 -7.38,178.10 -7.18,177.97 -6.94,177.91 -6.71,177.85 -6.47,177.87 -6.22,177.89 -6.00,177.98 -5.78,178.08 -5.59,178.24 -5.41,178.40 -5.29,178.61 -5.17,178.82 -5.12,179.06 -5.08,179.30 -5.11,179.54 -5.14,179.78 -5.25,180.00 -5.35,180.22 -5.53,180.39 -5.70,180.56 -5.91,180.67 -6.13,180.78 -6.37,180.81 -6.61,180.85 -6.85,180.80 -7.09,180.76 -7.30,180.64 -7.51,180.52 -7.68,180.34 -7.84,180.16 -7.94,179.94 -8.03,179.72 -8.05,179.47 -8.07,179.23 -8.07,179.23 -8.07,179.23 -7.86,177.59 -7.65,175.95 -7.35,172.06 -7.06,168.17 -6.36,161.01 -5.67,153.85 -4.70,143.56 -3.72,133.27 -2.73,120.18 -1.73,107.09 -1.35,92.56 -0.96,78.03 -0.70,64.79 -0.44,51.55 -0.48,41.30 -0.51,31.04 -0.58,23.27 -0.65,15.50 -0.79,10.33 -0.92,5.16 -1.24,2.67 -1.55,0.17 -1.55,-0.01 -1.54,-0.20 -1.50,-0.38 -1.45,-0.56 -1.36,-0.73 -1.27,-0.90 -1.15,-1.04 -1.02,-1.17 -0.86,-1.28 -0.71,-1.39 -0.53,-1.45 -0.35,-1.52 -0.17,-1.54 0.01,-1.56 0.20,-1.53 0.38,-1.51 0.56,-1.44 0.74,-1.37 0.89,-1.26 1.04,-1.15 1.17,-1.01 1.29,-0.87 1.38,-0.70 1.46,-0.53 1.50,-0.35 1.55,-0.17 1.55,-0.17 L 1.55,-0.17 Z"></path></g><g transform="translate(194.68885926510256 177.7672076923272) rotate(0 -24.657417589790384 16.92174378906168)" stroke="none"><path fill="#1e1e1e" d="M 0,1.56 Q 0,1.56 -2.22,1.52 -4.44,1.49 -7.61,1.46 -10.78,1.44 -14.86,1.70 -18.94,1.96 -23.33,3.15 -27.73,4.34 -31.72,6.73 -35.70,9.12 -39.01,12.28 -42.32,15.45 -43.92,18.86 -45.53,22.27 -45.68,24.86 -45.84,27.44 -44.43,29.14 -43.01,30.83 -40.13,31.53 -37.25,32.22 -32.80,31.75 -28.35,31.28 -22.41,28.37 -16.46,25.46 -12.89,22.08 -9.32,18.71 -7.59,15.48 -5.86,12.25 -5.95,9.48 -6.03,6.71 -7.32,5.16 -8.60,3.60 -10.39,2.69 -12.18,1.78 -14.11,1.27 -16.03,0.77 -16.25,0.66 -16.47,0.54 -16.64,0.36 -16.81,0.19 -16.92,-0.03 -17.02,-0.25 -17.05,-0.50 -17.08,-0.74 -17.03,-0.99 -16.98,-1.23 -16.85,-1.44 -16.73,-1.65 -16.54,-1.82 -16.35,-1.98 -16.12,-2.07 -15.89,-2.17 -15.65,-2.18 -15.40,-2.20 -15.16,-2.13 -14.92,-2.07 -14.72,-1.93 -14.51,-1.79 -14.36,-1.60 -14.21,-1.40 -14.13,-1.17 -14.05,-0.93 -14.04,-0.69 -14.04,-0.44 -14.12,-0.20 -14.20,0.02 -14.34,0.22 -14.49,0.42 -14.70,0.56 -14.90,0.70 -15.14,0.77 -15.37,0.84 -15.62,0.82 -15.87,0.81 -16.10,0.72 -16.33,0.63 -16.52,0.48 -16.71,0.32 -16.84,0.11 -16.97,-0.10 -17.02,-0.34 -17.08,-0.58 -17.06,-0.82 -17.03,-1.07 -16.93,-1.30 -16.83,-1.52 -16.66,-1.70 -16.49,-1.88 -16.27,-2.00 -16.05,-2.12 -15.81,-2.16 -15.57,-2.20 -15.32,-2.17 -15.08,-2.13 -15.08,-2.13 -15.08,-2.13 -13.01,-1.33 -10.94,-0.52 -8.75,0.71 -6.57,1.96 -5.04,4.17 -3.50,6.38 -3.50,9.86 -3.51,13.34 -5.50,16.97 -7.50,20.60 -11.39,24.21 -15.28,27.81 -21.66,30.85 -28.04,33.89 -32.97,34.33 -37.89,34.78 -41.36,33.71 -44.84,32.64 -46.60,30.18 -48.37,27.71 -48.16,24.45 -47.96,21.18 -46.09,17.36 -44.22,13.54 -40.66,10.16 -37.11,6.78 -32.79,4.23 -28.48,1.68 -23.81,0.41 -19.14,-0.84 -14.96,-1.14 -10.78,-1.44 -7.61,-1.46 -4.44,-1.49 -2.22,-1.52 0,-1.56 0.18,-1.53 0.37,-1.51 0.54,-1.45 0.72,-1.38 0.88,-1.27 1.03,-1.16 1.16,-1.02 1.28,-0.88 1.37,-0.72 1.46,-0.55 1.50,-0.37 1.55,-0.18 1.55,0.00 1.55,0.18 1.50,0.37 1.46,0.55 1.37,0.72 1.28,0.88 1.16,1.02 1.03,1.16 0.88,1.27 0.72,1.38 0.54,1.45 0.37,1.51 0.18,1.53 -0.00,1.56 -0.00,1.56 L 0,1.56 Z"></path></g><g transform="translate(163.74623783521702 181.6350169278058) rotate(0 3.8678461219928977 14.020896084081386)" stroke="none"><path fill="#1e1e1e" d="M 1.04,1.38 Q 1.04,1.38 -0.02,2.28 -1.09,3.17 -2.69,4.33 -4.30,5.48 -6.26,7.75 -8.23,10.02 -10.49,13.19 -12.75,16.37 -14.23,19.57 -15.72,22.76 -16.70,24.45 -17.68,26.13 -16.38,24.78 -15.09,23.43 -12.15,20.57 -9.22,17.71 -5.72,14.53 -2.22,11.36 0.93,8.62 4.10,5.88 6.26,3.91 8.42,1.94 9.62,0.25 10.82,-1.43 10.95,-1.53 11.09,-1.63 11.24,-1.69 11.40,-1.75 11.57,-1.78 11.73,-1.80 11.90,-1.78 12.07,-1.76 12.22,-1.71 12.38,-1.65 12.52,-1.56 12.66,-1.47 12.77,-1.34 12.89,-1.22 12.97,-1.07 13.05,-0.93 13.09,-0.76 13.14,-0.60 13.14,-0.43 13.14,-0.27 13.11,-0.10 13.07,0.05 12.99,0.20 12.92,0.35 12.81,0.48 12.70,0.61 11.60,1.75 10.50,2.89 8.67,5.37 6.83,7.84 4.32,10.61 1.81,13.39 -0.29,16.41 -2.40,19.43 -3.86,21.82 -5.32,24.20 -6.66,24.75 -8.00,25.30 -6.94,24.26 -5.89,23.22 -3.70,21.24 -1.52,19.25 1.10,16.74 3.73,14.23 6.53,11.51 9.33,8.79 11.64,6.53 13.95,4.27 15.22,2.87 16.50,1.48 16.19,1.65 15.87,1.82 16.01,1.68 16.16,1.53 16.33,1.43 16.50,1.32 16.70,1.26 16.89,1.20 17.09,1.19 17.30,1.17 17.50,1.21 17.70,1.25 17.88,1.33 18.07,1.41 18.23,1.54 18.39,1.66 18.52,1.82 18.64,1.98 18.72,2.17 18.81,2.35 18.85,2.55 18.88,2.75 18.87,2.96 18.86,3.16 18.80,3.35 18.74,3.55 18.63,3.72 18.53,3.90 17.85,5.20 17.18,6.51 15.34,8.84 13.51,11.18 11.38,14.30 9.25,17.42 7.52,20.38 5.78,23.34 4.80,24.80 3.83,26.26 4.01,27.14 4.18,28.01 4.05,28.17 3.91,28.33 3.74,28.46 3.57,28.58 3.37,28.66 3.18,28.75 2.97,28.78 2.76,28.81 2.55,28.79 2.34,28.77 2.14,28.70 1.94,28.63 1.76,28.51 1.59,28.40 1.44,28.25 1.30,28.09 1.19,27.91 1.09,27.72 1.03,27.52 0.98,27.31 0.97,27.10 0.97,26.89 1.01,26.69 1.06,26.48 1.15,26.29 1.24,26.10 3.10,25.24 4.96,24.37 7.05,22.64 9.13,20.92 11.80,18.75 14.46,16.58 17.17,13.27 19.87,9.95 21.58,7.20 23.28,4.44 23.97,2.53 24.66,0.63 24.61,-0.00 24.55,-0.63 24.64,-0.80 24.72,-0.97 24.85,-1.12 24.97,-1.27 25.13,-1.38 25.29,-1.49 25.46,-1.56 25.64,-1.63 25.83,-1.66 26.02,-1.68 26.22,-1.66 26.41,-1.64 26.59,-1.58 26.77,-1.51 26.93,-1.40 27.09,-1.30 27.22,-1.16 27.35,-1.01 27.44,-0.84 27.53,-0.68 27.58,-0.49 27.63,-0.30 27.63,-0.11 27.63,0.07 27.59,0.26 27.55,0.44 26.99,1.66 26.44,2.88 25.65,4.71 24.86,6.54 24.25,8.62 23.63,10.71 23.15,12.27 22.67,13.84 23.15,14.98 23.64,16.13 23.55,16.31 23.45,16.50 23.32,16.66 23.18,16.82 23.01,16.94 22.84,17.06 22.65,17.14 22.45,17.21 22.24,17.24 22.04,17.27 21.83,17.25 21.62,17.22 21.43,17.15 21.23,17.08 21.06,16.97 20.88,16.85 20.74,16.70 20.60,16.54 20.50,16.36 20.40,16.18 20.35,15.97 20.30,15.77 20.29,15.56 20.29,15.35 20.34,15.15 20.38,14.95 21.21,14.38 22.04,13.81 22.31,13.86 22.59,13.91 22.83,14.04 23.08,14.18 23.27,14.38 23.46,14.59 23.57,14.84 23.69,15.10 23.71,15.38 23.74,15.66 23.68,15.93 23.61,16.20 23.46,16.44 23.31,16.68 23.10,16.86 22.88,17.03 22.62,17.13 22.36,17.23 22.08,17.25 21.80,17.26 21.53,17.18 21.26,17.10 21.03,16.94 20.80,16.78 20.64,16.55 20.47,16.33 20.39,16.06 20.30,15.79 20.30,15.51 20.31,15.23 20.40,14.97 20.49,14.70 20.67,14.48 20.84,14.26 21.07,14.11 21.31,13.96 21.58,13.88 21.85,13.81 22.13,13.83 22.41,13.85 22.67,13.96 22.93,14.07 23.14,14.25 23.35,14.44 23.49,14.68 23.63,14.92 23.69,15.20 23.74,15.47 23.71,15.75 23.67,16.03 23.55,16.28 23.43,16.53 23.23,16.73 23.04,16.93 22.79,17.06 22.54,17.19 23.09,16.66 23.64,16.13 23.55,16.31 23.45,16.50 23.32,16.66 23.18,16.82 23.01,16.94 22.84,17.06 22.65,17.14 22.45,17.21 22.24,17.24 22.04,17.27 21.83,17.25 21.62,17.22 21.43,17.15 21.23,17.08 21.06,16.97 20.88,16.85 20.74,16.70 20.60,16.54 20.50,16.36 20.40,16.18 20.35,15.97 20.30,15.77 20.29,15.56 20.29,15.35 20.34,15.15 20.38,14.95 19.96,13.83 19.53,12.70 20.12,11.30 20.71,9.89 21.32,7.60 21.93,5.31 22.71,3.40 23.50,1.48 24.02,0.42 24.55,-0.63 24.64,-0.80 24.72,-0.97 24.85,-1.12 24.97,-1.27 25.13,-1.38 25.29,-1.49 25.46,-1.56 25.64,-1.63 25.83,-1.66 26.02,-1.68 26.22,-1.66 26.41,-1.64 26.59,-1.58 26.77,-1.51 26.93,-1.40 27.09,-1.30 27.22,-1.16 27.35,-1.01 27.44,-0.85 27.53,-0.68 27.58,-0.49 27.63,-0.30 27.63,-0.11 27.63,0.07 27.59,0.26 27.55,0.44 27.42,0.99 27.29,1.54 26.50,3.73 25.71,5.91 23.93,8.86 22.15,11.80 19.28,15.36 16.41,18.92 13.80,21.15 11.19,23.38 7.68,25.69 4.18,28.01 4.05,28.17 3.91,28.33 3.74,28.46 3.57,28.58 3.37,28.66 3.18,28.75 2.97,28.78 2.76,28.81 2.55,28.79 2.34,28.77 2.14,28.70 1.94,28.63 1.76,28.51 1.59,28.40 1.44,28.25 1.30,28.09 1.19,27.91 1.09,27.72 1.03,27.52 0.98,27.31 0.97,27.10 0.97,26.89 1.01,26.69 1.06,26.48 1.15,26.29 1.24,26.10 1.17,25.65 1.10,25.19 2.15,23.53 3.21,21.86 4.94,18.78 6.68,15.70 8.79,12.45 10.91,9.20 12.51,7.00 14.11,4.81 14.99,3.31 15.87,1.82 16.01,1.68 16.16,1.53 16.33,1.43 16.50,1.32 16.70,1.26 16.89,1.20 17.09,1.19 17.30,1.17 17.50,1.21 17.70,1.25 17.88,1.33 18.07,1.41 18.23,1.54 18.39,1.66 18.52,1.82 18.64,1.98 18.72,2.17 18.81,2.35 18.85,2.55 18.88,2.75 18.87,2.96 18.86,3.16 18.80,3.35 18.74,3.55 18.63,3.72 18.53,3.90 17.94,4.01 17.35,4.13 16.69,5.24 16.02,6.34 13.75,8.65 11.47,10.95 8.73,13.73 5.98,16.52 3.41,19.12 0.83,21.73 -1.36,23.92 -3.56,26.12 -4.97,27.06 -6.39,28.01 -7.70,27.34 -9.00,26.67 -8.37,24.71 -7.73,22.75 -6.26,20.27 -4.78,17.79 -2.60,14.59 -0.42,11.40 1.93,8.70 4.29,6.01 6.06,3.47 7.83,0.93 9.32,-0.25 10.82,-1.43 10.95,-1.53 11.09,-1.63 11.24,-1.69 11.40,-1.75 11.57,-1.78 11.73,-1.80 11.90,-1.78 12.07,-1.76 12.22,-1.71 12.38,-1.65 12.52,-1.56 12.66,-1.47 12.77,-1.34 12.89,-1.22 12.97,-1.07 13.05,-0.93 13.09,-0.76 13.14,-0.60 13.14,-0.43 13.14,-0.27 13.11,-0.10 13.07,0.05 12.99,0.20 12.92,0.35 12.81,0.48 12.70,0.61 11.50,2.28 10.30,3.96 8.12,5.98 5.95,8.01 2.83,10.75 -0.27,13.49 -3.70,16.66 -7.12,19.83 -10.02,22.75 -12.92,25.67 -14.87,27.34 -16.81,29.00 -17.95,28.63 -19.08,28.27 -18.77,24.90 -18.46,21.52 -16.90,18.05 -15.35,14.58 -13.07,11.22 -10.80,7.86 -8.64,5.23 -6.48,2.60 -4.92,1.38 -3.35,0.15 -2.19,-0.61 -1.04,-1.38 -0.86,-1.49 -0.67,-1.59 -0.47,-1.65 -0.27,-1.71 -0.06,-1.72 0.14,-1.73 0.34,-1.68 0.55,-1.64 0.74,-1.55 0.93,-1.46 1.09,-1.33 1.25,-1.20 1.37,-1.03 1.50,-0.86 1.58,-0.67 1.66,-0.48 1.70,-0.27 1.73,-0.06 1.71,0.14 1.70,0.34 1.63,0.54 1.56,0.74 1.45,0.92 1.34,1.10 1.19,1.24 1.04,1.39 1.04,1.38 L 1.04,1.38 Z"></path></g><g transform="translate(190.82108691613894 16.28524072660997) rotate(0 -2.9008661482373554 90.8940334449471)" stroke="none"><path fill="#1e1e1e" d="M 1.55,-0.17 Q 1.55,-0.17 1.79,2.33 2.04,4.83 2.13,10.13 2.23,15.43 2.26,23.23 2.30,31.03 2.30,41.29 2.31,51.55 2.03,64.82 1.76,78.09 1.36,92.62 0.96,107.16 -0.04,120.32 -1.05,133.47 -2.03,143.79 -3.02,154.11 -3.72,161.27 -4.42,168.43 -4.71,172.29 -5.01,176.15 -5.04,177.81 -5.08,179.46 -5.14,179.70 -5.20,179.93 -5.33,180.14 -5.46,180.34 -5.64,180.50 -5.83,180.65 -6.06,180.74 -6.29,180.82 -6.53,180.83 -6.77,180.84 -7.01,180.77 -7.24,180.70 -7.44,180.55 -7.63,180.41 -7.78,180.22 -7.92,180.02 -7.99,179.79 -8.06,179.56 -8.06,179.31 -8.05,179.07 -7.97,178.84 -7.89,178.62 -7.74,178.43 -7.59,178.24 -7.38,178.10 -7.18,177.97 -6.94,177.91 -6.71,177.85 -6.47,177.87 -6.22,177.89 -6.00,177.98 -5.78,178.08 -5.59,178.24 -5.41,178.40 -5.29,178.61 -5.17,178.82 -5.12,179.06 -5.08,179.30 -5.11,179.54 -5.14,179.78 -5.25,180.00 -5.35,180.22 -5.53,180.39 -5.70,180.56 -5.91,180.67 -6.13,180.78 -6.37,180.81 -6.61,180.85 -6.85,180.80 -7.09,180.76 -7.30,180.64 -7.51,180.52 -7.68,180.34 -7.84,180.16 -7.94,179.94 -8.03,179.72 -8.05,179.47 -8.07,179.23 -8.07,179.23 -8.07,179.23 -7.86,177.59 -7.65,175.95 -7.35,172.06 -7.06,168.17 -6.36,161.01 -5.67,153.85 -4.70,143.56 -3.72,133.27 -2.73,120.18 -1.73,107.09 -1.35,92.56 -0.96,78.03 -0.70,64.79 -0.44,51.55 -0.48,41.30 -0.51,31.04 -0.58,23.27 -0.65,15.50 -0.79,10.33 -0.92,5.16 -1.24,2.67 -1.55,0.17 -1.55,-0.01 -1.54,-0.20 -1.50,-0.38 -1.45,-0.56 -1.36,-0.73 -1.27,-0.90 -1.15,-1.04 -1.02,-1.17 -0.86,-1.28 -0.71,-1.39 -0.53,-1.45 -0.35,-1.52 -0.17,-1.54 0.01,-1.56 0.20,-1.53 0.38,-1.51 0.56,-1.44 0.74,-1.37 0.89,-1.26 1.04,-1.15 1.17,-1.01 1.29,-0.87 1.38,-0.70 1.46,-0.53 1.50,-0.35 1.55,-0.17 1.55,-0.17 L 1.55,-0.17 Z"></path></g><g transform="translate(55.44706283061578 33.20698451567159) rotate(0 68.1704835863818 -11.603492257835796)" stroke="none"><path fill="#1e1e1e" d="M 0,-1.70 Q 0,-1.70 3.33,-1.65 6.67,-1.60 12.46,-2.11 18.25,-2.62 30.45,-4.22 42.65,-5.81 55.33,-7.87 68.02,-9.93 80.63,-12.19 93.25,-14.44 103.33,-16.51 113.40,-18.57 119.63,-20.00 125.85,-21.43 128.73,-22.30 131.62,-23.17 132.55,-23.67 133.48,-24.17 133.67,-24.21 133.86,-24.24 134.05,-24.23 134.24,-24.21 134.42,-24.15 134.61,-24.10 134.77,-23.99 134.94,-23.89 135.07,-23.76 135.21,-23.62 135.30,-23.45 135.40,-23.29 135.46,-23.10 135.51,-22.92 135.52,-22.73 135.54,-22.54 135.50,-22.35 135.46,-22.16 135.38,-21.98 135.30,-21.81 135.18,-21.66 135.06,-21.50 134.91,-21.39 134.76,-21.27 134.58,-21.19 134.41,-21.11 133.42,-20.65 132.43,-20.19 129.41,-19.46 126.39,-18.73 126.09,-18.72 125.79,-18.71 125.50,-18.79 125.21,-18.88 124.96,-19.05 124.71,-19.23 124.53,-19.47 124.35,-19.71 124.26,-20.00 124.17,-20.29 124.17,-20.59 124.18,-20.90 124.28,-21.18 124.38,-21.47 124.57,-21.70 124.75,-21.94 125.01,-22.11 125.26,-22.27 125.55,-22.35 125.85,-22.43 126.15,-22.41 126.45,-22.38 126.73,-22.27 127.01,-22.15 127.24,-21.95 127.46,-21.75 127.62,-21.49 127.77,-21.23 127.83,-20.93 127.89,-20.63 127.85,-20.33 127.81,-20.03 127.68,-19.76 127.55,-19.49 127.34,-19.27 127.13,-19.06 126.86,-18.92 126.59,-18.78 126.29,-18.74 125.99,-18.69 125.69,-18.75 125.39,-18.80 125.13,-18.95 124.86,-19.09 124.66,-19.32 124.45,-19.54 124.33,-19.81 124.21,-20.09 124.18,-20.39 124.15,-20.69 124.22,-20.99 124.29,-21.28 124.45,-21.54 124.61,-21.80 124.85,-21.99 125.08,-22.18 125.36,-22.29 125.65,-22.40 125.65,-22.40 125.65,-22.40 128.47,-22.86 131.29,-23.32 132.38,-23.75 133.48,-24.17 133.67,-24.21 133.86,-24.24 134.05,-24.23 134.24,-24.21 134.42,-24.15 134.61,-24.10 134.77,-23.99 134.93,-23.89 135.07,-23.76 135.21,-23.62 135.30,-23.45 135.40,-23.29 135.46,-23.10 135.51,-22.92 135.52,-22.73 135.54,-22.54 135.50,-22.35 135.46,-22.16 135.38,-21.98 135.30,-21.81 135.18,-21.66 135.06,-21.51 134.91,-21.39 134.76,-21.27 134.58,-21.19 134.41,-21.11 133.40,-20.86 132.40,-20.60 129.43,-19.69 126.46,-18.79 120.21,-17.34 113.96,-15.88 103.85,-13.79 93.74,-11.70 81.11,-9.41 68.48,-7.12 55.76,-5.01 43.04,-2.91 30.79,-1.25 18.54,0.40 12.60,1.00 6.67,1.60 3.33,1.65 0,1.70 -0.20,1.68 -0.40,1.65 -0.60,1.58 -0.79,1.51 -0.96,1.39 -1.13,1.27 -1.26,1.12 -1.40,0.97 -1.50,0.78 -1.59,0.60 -1.64,0.40 -1.69,0.20 -1.69,-0.00 -1.69,-0.20 -1.64,-0.40 -1.59,-0.60 -1.50,-0.78 -1.40,-0.97 -1.26,-1.12 -1.13,-1.27 -0.96,-1.39 -0.79,-1.51 -0.60,-1.58 -0.40,-1.65 -0.20,-1.68 0.00,-1.70 0.00,-1.70 L 0,-1.70 Z"></path></g><g transform="translate(56.41393214482832 48.67829523061454) rotate(0 69.13757421968012 -11.603473814578592)" stroke="none"><path fill="#1e1e1e" d="M 0.17,-1.55 Q 0.17,-1.55 2.67,-1.24 5.16,-0.92 9.50,-0.79 13.84,-0.65 20.70,-0.58 27.55,-0.51 39.58,-1.59 51.61,-2.66 63.10,-4.50 74.59,-6.34 85.02,-8.50 95.45,-10.67 103.75,-12.97 112.05,-15.27 117.77,-17.34 123.49,-19.42 126.43,-20.84 129.38,-22.26 130.86,-23.19 132.34,-24.12 133.33,-24.65 134.31,-25.18 135.98,-25.47 137.64,-25.76 137.91,-25.81 138.18,-25.86 138.46,-25.82 138.73,-25.78 138.98,-25.66 139.23,-25.54 139.42,-25.34 139.62,-25.14 139.74,-24.89 139.86,-24.64 139.89,-24.37 139.93,-24.10 139.88,-23.82 139.82,-23.55 139.69,-23.31 139.55,-23.07 139.34,-22.89 139.13,-22.70 138.88,-22.59 138.62,-22.49 138.35,-22.47 138.07,-22.44 137.80,-22.51 137.53,-22.58 137.30,-22.73 137.07,-22.88 136.90,-23.10 136.72,-23.32 136.63,-23.58 136.54,-23.84 136.53,-24.11 136.52,-24.39 136.61,-24.66 136.69,-24.92 136.85,-25.14 137.02,-25.37 137.24,-25.53 137.47,-25.69 137.73,-25.77 138.00,-25.85 138.27,-25.84 138.55,-25.83 138.81,-25.73 139.07,-25.64 139.29,-25.46 139.50,-25.29 139.65,-25.05 139.80,-24.82 139.86,-24.55 139.93,-24.28 139.90,-24.00 139.88,-23.73 139.77,-23.47 139.66,-23.22 139.47,-23.02 139.28,-22.81 139.04,-22.68 138.80,-22.54 138.80,-22.54 138.80,-22.54 136.30,-22.06 133.79,-21.58 132.16,-20.72 130.53,-19.87 127.46,-18.39 124.40,-16.92 118.58,-14.80 112.77,-12.69 104.38,-10.36 96.00,-8.02 85.51,-5.83 75.02,-3.64 63.44,-1.78 51.86,0.08 39.70,1.19 27.54,2.30 20.65,2.26 13.76,2.23 9.30,2.13 4.83,2.04 2.33,1.79 -0.17,1.55 -0.35,1.50 -0.53,1.46 -0.70,1.38 -0.87,1.29 -1.01,1.17 -1.15,1.04 -1.26,0.89 -1.37,0.73 -1.44,0.56 -1.51,0.38 -1.53,0.20 -1.56,0.01 -1.54,-0.17 -1.52,-0.35 -1.45,-0.53 -1.39,-0.71 -1.28,-0.86 -1.17,-1.02 -1.04,-1.15 -0.90,-1.27 -0.73,-1.36 -0.56,-1.45 -0.38,-1.50 -0.20,-1.54 -0.01,-1.55 0.17,-1.55 0.17,-1.55 L 0.17,-1.55 Z"></path></g><g transform="translate(69.95143045831765 35.14090757666804) rotate(0 43.029594452971196 -1.9339138393678468)" stroke="none"><path fill="#1e1e1e" d="M 0,1.63 Q 0,1.63 -2.49,1.59 -4.99,1.54 -8.10,2.32 -11.21,3.10 -14.49,4.25 -17.78,5.40 -19.71,6.13 -21.63,6.87 -21.92,7.30 -22.20,7.73 -22.39,7.78 -22.57,7.83 -22.76,7.83 -22.95,7.83 -23.13,7.79 -23.32,7.75 -23.49,7.66 -23.65,7.58 -23.80,7.45 -23.94,7.33 -24.05,7.17 -24.16,7.02 -24.23,6.84 -24.30,6.67 -24.32,6.48 -24.35,6.29 -24.33,6.11 -24.31,5.92 -24.25,5.74 -24.18,5.56 -24.08,5.41 -23.97,5.25 -23.83,5.12 -23.69,4.99 -23.53,4.90 -23.36,4.81 -18.53,4.44 -13.70,4.07 -8.22,2.80 -2.74,1.54 2.98,0.44 8.71,-0.65 12.53,-1.40 16.34,-2.14 18.40,-2.36 20.46,-2.59 20.70,-2.86 20.93,-3.12 21.10,-3.12 21.27,-3.13 21.43,-3.09 21.60,-3.05 21.75,-2.98 21.90,-2.90 22.03,-2.80 22.16,-2.69 22.26,-2.55 22.36,-2.41 22.43,-2.26 22.49,-2.10 22.51,-1.93 22.54,-1.76 22.52,-1.59 22.51,-1.43 22.45,-1.27 22.39,-1.11 22.30,-0.96 22.21,-0.82 22.08,-0.71 21.96,-0.59 21.81,-0.51 21.66,-0.43 21.50,-0.38 21.34,-0.34 18.61,0.11 15.89,0.56 12.00,1.60 8.10,2.63 4.57,4.15 1.04,5.68 -0.86,6.37 -2.77,7.07 -2.97,7.78 -3.17,8.49 -3.34,8.54 -3.51,8.59 -3.69,8.61 -3.87,8.62 -4.05,8.58 -4.22,8.55 -4.38,8.48 -4.55,8.40 -4.69,8.29 -4.83,8.18 -4.94,8.04 -5.05,7.90 -5.12,7.74 -5.19,7.58 -5.22,7.40 -5.25,7.23 -5.24,7.05 -5.23,6.87 -5.18,6.70 -5.13,6.53 -5.03,6.38 -4.94,6.23 -4.82,6.10 -4.69,5.98 -4.54,5.88 -4.38,5.79 -1.35,5.70 1.67,5.61 8.01,4.19 14.34,2.77 20.98,1.32 27.62,-0.11 32.62,-1.55 37.62,-2.99 40.19,-4.08 42.76,-5.18 43.08,-5.82 43.41,-6.46 43.58,-6.51 43.76,-6.56 43.94,-6.57 44.12,-6.58 44.30,-6.54 44.48,-6.51 44.65,-6.43 44.82,-6.35 44.96,-6.24 45.10,-6.12 45.21,-5.98 45.32,-5.83 45.40,-5.66 45.47,-5.49 45.50,-5.31 45.53,-5.13 45.52,-4.95 45.51,-4.77 45.45,-4.59 45.39,-4.42 45.29,-4.26 45.20,-4.11 45.07,-3.98 44.93,-3.85 44.78,-3.76 44.62,-3.66 41.69,-3.64 38.76,-3.62 34.73,-2.50 30.70,-1.38 25.67,0.73 20.63,2.86 16.29,5.14 11.94,7.42 10.03,8.50 8.11,9.59 11.21,9.76 14.32,9.93 20.04,8.63 25.76,7.33 34.63,4.84 43.50,2.36 49.46,0.20 55.43,-1.94 58.76,-3.39 62.09,-4.83 62.67,-5.59 63.24,-6.34 63.43,-6.39 63.61,-6.45 63.81,-6.46 64.00,-6.47 64.19,-6.43 64.38,-6.40 64.56,-6.31 64.73,-6.23 64.88,-6.11 65.04,-5.99 65.15,-5.84 65.27,-5.68 65.35,-5.51 65.43,-5.33 65.46,-5.14 65.49,-4.95 65.48,-4.75 65.47,-4.56 65.41,-4.37 65.35,-4.19 65.24,-4.02 65.14,-3.86 65.00,-3.72 64.87,-3.59 64.70,-3.49 64.53,-3.39 62.34,-3.14 60.16,-2.89 55.50,-1.68 50.85,-0.48 44.43,1.68 38.02,3.85 31.99,6.42 25.95,9.00 22.32,10.31 18.68,11.62 18.17,12.68 17.67,13.75 17.48,13.79 17.30,13.84 17.10,13.84 16.91,13.83 16.73,13.79 16.54,13.74 16.37,13.65 16.20,13.56 16.06,13.43 15.91,13.30 15.80,13.15 15.70,12.99 15.63,12.81 15.56,12.63 15.54,12.44 15.52,12.25 15.54,12.05 15.56,11.86 15.63,11.68 15.70,11.51 15.81,11.35 15.92,11.19 16.07,11.06 16.21,10.94 16.38,10.85 16.55,10.76 20.49,10.65 24.43,10.55 31.44,8.82 38.45,7.09 49.77,3.31 61.09,-0.47 69.51,-3.74 77.92,-7.01 82.55,-9.48 87.18,-11.95 88.90,-13.30 90.63,-14.64 90.78,-14.70 90.92,-14.76 91.08,-14.78 91.24,-14.80 91.40,-14.78 91.55,-14.76 91.70,-14.71 91.85,-14.65 91.98,-14.56 92.11,-14.47 92.22,-14.35 92.33,-14.24 92.40,-14.10 92.48,-13.96 92.51,-13.80 92.55,-13.65 92.55,-13.49 92.56,-13.33 92.52,-13.18 92.48,-13.02 92.41,-12.88 92.34,-12.74 92.23,-12.62 92.13,-12.50 92.00,-12.41 91.87,-12.32 89.86,-12.76 87.85,-13.20 83.95,-12.33 80.06,-11.46 73.85,-9.73 67.64,-8.00 61.09,-6.15 54.54,-4.31 49.84,-2.71 45.15,-1.10 42.85,0.13 40.56,1.37 40.40,1.40 40.24,1.43 40.08,1.43 39.92,1.42 39.76,1.38 39.60,1.34 39.46,1.26 39.32,1.18 39.20,1.06 39.08,0.95 38.99,0.81 38.90,0.68 38.85,0.52 38.80,0.37 38.78,0.21 38.77,0.04 38.79,-0.11 38.82,-0.27 38.88,-0.42 38.94,-0.57 39.04,-0.70 39.14,-0.83 39.26,-0.94 39.39,-1.04 39.54,-1.11 39.68,-1.18 42.14,-0.67 44.60,-0.16 49.98,-0.78 55.37,-1.40 64.63,-3.58 73.88,-5.77 81.11,-8.35 88.35,-10.93 92.80,-12.86 97.26,-14.78 99.17,-15.88 101.08,-16.98 101.23,-17.03 101.38,-17.07 101.54,-17.08 101.70,-17.09 101.86,-17.06 102.02,-17.03 102.16,-16.96 102.30,-16.89 102.43,-16.79 102.55,-16.69 102.65,-16.56 102.74,-16.44 102.81,-16.29 102.87,-16.14 102.90,-15.99 102.92,-15.83 102.91,-15.67 102.90,-15.51 102.85,-15.36 102.80,-15.21 102.71,-15.07 102.63,-14.94 102.52,-14.83 102.40,-14.72 102.26,-14.64 102.13,-14.56 99.11,-14.28 96.09,-14.01 92.30,-12.41 88.51,-10.81 84.09,-8.74 79.67,-6.67 76.17,-4.70 72.66,-2.74 71.27,-2.11 69.89,-1.47 73.42,-1.58 76.96,-1.69 81.36,-2.97 85.76,-4.26 90.94,-6.45 96.11,-8.64 98.85,-10.10 101.58,-11.57 102.43,-12.31 103.27,-13.06 103.46,-13.13 103.64,-13.21 103.84,-13.23 104.03,-13.26 104.23,-13.24 104.43,-13.22 104.61,-13.15 104.80,-13.08 104.96,-12.97 105.13,-12.86 105.26,-12.71 105.39,-12.57 105.49,-12.39 105.58,-12.22 105.63,-12.03 105.68,-11.84 105.68,-11.64 105.69,-11.44 105.64,-11.25 105.60,-11.06 105.51,-10.88 105.42,-10.70 105.29,-10.55 105.16,-10.40 105.00,-10.29 104.83,-10.18 103.18,-10.08 101.52,-9.98 98.42,-8.95 95.33,-7.92 90.90,-6.10 86.46,-4.28 82.62,-2.68 78.77,-1.08 77.16,-0.31 75.55,0.46 78.51,0.71 81.47,0.96 85.74,0.55 90.01,0.14 94.52,-1.37 99.02,-2.89 102.29,-4.61 105.56,-6.33 106.77,-7.20 107.99,-8.06 108.09,-8.74 108.20,-9.41 108.38,-9.51 108.55,-9.61 108.75,-9.66 108.94,-9.71 109.15,-9.72 109.35,-9.72 109.55,-9.68 109.75,-9.63 109.93,-9.54 110.11,-9.45 110.26,-9.32 110.42,-9.19 110.54,-9.03 110.66,-8.86 110.73,-8.67 110.81,-8.49 110.84,-8.28 110.86,-8.08 110.84,-7.88 110.82,-7.68 110.76,-7.49 110.69,-7.30 110.58,-7.13 110.47,-6.96 110.32,-6.82 110.17,-6.68 108.96,-6.41 107.75,-6.13 106.08,-5.80 104.41,-5.47 102.92,-5.03 101.42,-4.60 100.29,-5.69 99.15,-6.78 100.33,-6.94 101.50,-7.11 102.99,-7.32 104.48,-7.54 105.79,-8.12 107.10,-8.70 108.16,-9.69 109.21,-10.68 109.47,-10.93 109.73,-11.17 110.06,-11.31 110.38,-11.46 110.73,-11.49 111.08,-11.53 111.43,-11.45 111.78,-11.37 112.08,-11.18 112.38,-11.00 112.61,-10.72 112.83,-10.45 112.96,-10.12 113.09,-9.79 113.10,-9.44 113.12,-9.08 113.02,-8.74 112.92,-8.40 112.72,-8.11 112.52,-7.82 112.23,-7.61 111.95,-7.40 111.61,-7.29 111.28,-7.18 110.92,-7.18 110.57,-7.18 110.23,-7.30 109.90,-7.42 109.62,-7.63 109.34,-7.85 109.14,-8.15 108.95,-8.44 108.86,-8.78 108.76,-9.13 108.79,-9.48 108.81,-9.83 108.94,-10.16 109.08,-10.49 109.31,-10.76 109.54,-11.02 109.85,-11.20 110.15,-11.38 110.50,-11.46 110.85,-11.53 111.20,-11.49 111.55,-11.45 111.87,-11.29 112.19,-11.14 112.45,-10.89 112.70,-10.65 112.86,-10.33 113.03,-10.02 113.08,-9.67 113.13,-9.32 113.07,-8.97 113.01,-8.62 112.84,-8.31 112.67,-8.00 112.67,-8.00 112.67,-8.00 110.71,-6.41 108.74,-4.81 106.93,-4.08 105.12,-3.34 103.19,-3.07 101.27,-2.80 99.63,-3.12 97.99,-3.45 97.36,-4.48 96.74,-5.51 98.61,-6.87 100.47,-8.22 102.12,-8.60 103.77,-8.99 105.98,-9.20 108.20,-9.41 108.38,-9.51 108.55,-9.61 108.75,-9.66 108.94,-9.71 109.15,-9.72 109.35,-9.72 109.55,-9.68 109.75,-9.63 109.93,-9.54 110.11,-9.45 110.26,-9.32 110.42,-9.19 110.54,-9.03 110.66,-8.86 110.73,-8.67 110.81,-8.49 110.84,-8.28 110.86,-8.08 110.84,-7.88 110.82,-7.68 110.76,-7.49 110.69,-7.30 110.58,-7.13 110.47,-6.96 110.32,-6.82 110.17,-6.68 110.17,-6.48 110.17,-6.27 108.52,-5.07 106.87,-3.86 103.41,-2.02 99.94,-0.18 95.13,1.45 90.32,3.08 85.77,3.55 81.22,4.02 77.70,3.56 74.17,3.09 73.69,1.96 73.20,0.83 75.42,-1.44 77.63,-3.71 81.48,-5.36 85.33,-7.02 89.84,-8.93 94.35,-10.84 98.81,-11.95 103.27,-13.06 103.46,-13.13 103.64,-13.21 103.84,-13.23 104.03,-13.26 104.23,-13.24 104.43,-13.22 104.61,-13.15 104.80,-13.08 104.96,-12.97 105.13,-12.86 105.26,-12.71 105.39,-12.57 105.49,-12.39 105.58,-12.22 105.63,-12.03 105.68,-11.84 105.68,-11.64 105.69,-11.44 105.64,-11.25 105.60,-11.06 105.51,-10.88 105.42,-10.70 105.29,-10.55 105.16,-10.40 105.00,-10.29 104.83,-10.18 103.87,-9.64 102.91,-9.11 100.07,-7.56 97.23,-6.01 91.92,-3.73 86.60,-1.45 82.02,-0.06 77.43,1.32 73.65,1.76 69.87,2.20 68.94,1.28 68.01,0.36 69.64,-2.37 71.28,-5.10 74.88,-7.15 78.48,-9.19 82.93,-11.31 87.39,-13.43 91.39,-15.15 95.40,-16.86 98.24,-16.92 101.08,-16.98 101.23,-17.03 101.38,-17.07 101.54,-17.08 101.70,-17.09 101.86,-17.06 102.02,-17.03 102.16,-16.96 102.30,-16.89 102.43,-16.79 102.55,-16.69 102.65,-16.56 102.74,-16.44 102.81,-16.29 102.87,-16.14 102.90,-15.99 102.92,-15.83 102.91,-15.67 102.90,-15.51 102.85,-15.36 102.80,-15.21 102.72,-15.07 102.63,-14.94 102.52,-14.83 102.40,-14.72 102.26,-14.64 102.13,-14.56 100.22,-13.45 98.31,-12.35 93.78,-10.39 89.24,-8.43 81.87,-5.80 74.50,-3.17 65.08,-0.95 55.66,1.26 49.83,1.86 43.99,2.46 42.28,1.91 40.56,1.37 40.40,1.40 40.24,1.43 40.08,1.43 39.92,1.42 39.76,1.38 39.60,1.34 39.46,1.26 39.32,1.18 39.20,1.06 39.08,0.95 38.99,0.81 38.90,0.68 38.85,0.52 38.80,0.37 38.78,0.21 38.77,0.04 38.79,-0.11 38.82,-0.27 38.88,-0.42 38.94,-0.57 39.04,-0.70 39.14,-0.83 39.26,-0.94 39.39,-1.04 39.54,-1.11 39.68,-1.18 41.97,-2.44 44.25,-3.69 49.01,-5.34 53.78,-6.98 60.33,-8.86 66.87,-10.73 73.17,-12.52 79.47,-14.31 84.07,-15.18 88.67,-16.04 89.65,-15.34 90.63,-14.64 90.77,-14.70 90.92,-14.76 91.08,-14.78 91.24,-14.80 91.40,-14.78 91.55,-14.76 91.70,-14.71 91.85,-14.65 91.98,-14.56 92.11,-14.47 92.22,-14.35 92.33,-14.24 92.40,-14.10 92.48,-13.96 92.51,-13.80 92.55,-13.65 92.55,-13.49 92.56,-13.33 92.52,-13.18 92.48,-13.02 92.41,-12.88 92.34,-12.74 92.23,-12.62 92.13,-12.50 92.00,-12.41 91.87,-12.32 90.15,-10.97 88.43,-9.63 83.66,-7.09 78.88,-4.55 70.41,-1.25 61.93,2.03 50.51,5.85 39.08,9.67 31.83,11.44 24.58,13.21 21.12,13.48 17.67,13.75 17.48,13.79 17.30,13.84 17.10,13.84 16.91,13.83 16.73,13.79 16.54,13.74 16.37,13.65 16.20,13.56 16.06,13.43 15.91,13.30 15.80,13.15 15.70,12.99 15.63,12.81 15.56,12.63 15.54,12.44 15.52,12.25 15.54,12.05 15.56,11.86 15.63,11.68 15.70,11.51 15.81,11.35 15.92,11.19 16.07,11.06 16.21,10.94 16.38,10.85 16.55,10.76 16.97,10.09 17.38,9.42 21.13,7.97 24.89,6.51 31.02,3.89 37.14,1.26 43.64,-0.95 50.15,-3.16 54.95,-4.43 59.75,-5.69 61.49,-6.01 63.24,-6.34 63.43,-6.39 63.61,-6.45 63.81,-6.46 64.00,-6.47 64.19,-6.43 64.38,-6.40 64.56,-6.32 64.73,-6.23 64.88,-6.11 65.04,-5.99 65.15,-5.84 65.27,-5.68 65.35,-5.51 65.43,-5.33 65.46,-5.14 65.49,-4.95 65.48,-4.75 65.47,-4.56 65.41,-4.37 65.35,-4.19 65.24,-4.02 65.14,-3.86 65.00,-3.72 64.87,-3.59 64.70,-3.49 64.53,-3.39 63.89,-2.88 63.26,-2.38 59.81,-0.86 56.37,0.65 50.32,2.86 44.27,5.07 35.34,7.61 26.40,10.16 20.32,11.54 14.24,12.92 10.63,12.69 7.02,12.46 6.49,10.76 5.96,9.07 8.34,7.08 10.72,5.09 15.17,2.77 19.61,0.44 24.81,-1.73 30.01,-3.91 34.34,-5.08 38.68,-6.24 41.04,-6.35 43.41,-6.46 43.58,-6.51 43.76,-6.56 43.94,-6.57 44.12,-6.58 44.30,-6.54 44.48,-6.51 44.65,-6.43 44.82,-6.35 44.96,-6.24 45.10,-6.12 45.21,-5.98 45.32,-5.83 45.40,-5.66 45.47,-5.49 45.50,-5.31 45.53,-5.13 45.52,-4.95 45.51,-4.77 45.45,-4.59 45.39,-4.42 45.29,-4.26 45.20,-4.11 45.07,-3.98 44.93,-3.85 44.78,-3.76 44.62,-3.66 44.31,-3.31 44.01,-2.95 41.18,-1.70 38.35,-0.46 33.26,0.99 28.18,2.45 21.55,3.89 14.92,5.34 8.35,6.79 1.78,8.24 -0.69,8.36 -3.17,8.49 -3.34,8.54 -3.51,8.59 -3.69,8.61 -3.87,8.62 -4.05,8.58 -4.22,8.55 -4.38,8.48 -4.55,8.40 -4.69,8.29 -4.83,8.18 -4.94,8.04 -5.05,7.90 -5.12,7.74 -5.19,7.58 -5.22,7.40 -5.25,7.23 -5.24,7.05 -5.23,6.87 -5.18,6.70 -5.13,6.53 -5.03,6.38 -4.94,6.23 -4.82,6.10 -4.69,5.98 -4.54,5.88 -4.38,5.79 -4.47,5.70 -4.56,5.61 -2.28,4.43 -0.00,3.25 3.71,1.66 7.42,0.07 11.42,-0.98 15.41,-2.04 18.17,-2.58 20.93,-3.12 21.10,-3.12 21.27,-3.13 21.43,-3.09 21.60,-3.05 21.75,-2.98 21.90,-2.90 22.03,-2.80 22.16,-2.69 22.26,-2.55 22.36,-2.41 22.43,-2.26 22.49,-2.10 22.51,-1.93 22.54,-1.76 22.52,-1.59 22.51,-1.43 22.45,-1.27 22.39,-1.11 22.30,-0.96 22.21,-0.82 22.08,-0.71 21.96,-0.59 21.81,-0.51 21.66,-0.43 21.50,-0.38 21.34,-0.34 21.39,-0.33 21.44,-0.33 19.15,0.07 16.85,0.48 13.04,1.23 9.22,1.98 3.55,3.09 -2.12,4.19 -7.78,5.50 -13.45,6.82 -17.83,7.27 -22.20,7.73 -22.39,7.78 -22.57,7.83 -22.76,7.83 -22.95,7.83 -23.13,7.79 -23.32,7.75 -23.48,7.66 -23.65,7.58 -23.80,7.45 -23.94,7.33 -24.05,7.17 -24.16,7.02 -24.23,6.85 -24.30,6.67 -24.32,6.48 -24.35,6.29 -24.33,6.11 -24.31,5.92 -24.25,5.74 -24.18,5.56 -24.08,5.41 -23.97,5.25 -23.83,5.12 -23.69,4.99 -23.53,4.90 -23.36,4.81 -23.08,4.58 -22.79,4.35 -20.77,3.52 -18.74,2.68 -15.34,1.45 -11.94,0.22 -8.48,-0.66 -5.01,-1.54 -2.50,-1.59 0,-1.63 0.19,-1.61 0.39,-1.59 0.57,-1.52 0.76,-1.45 0.92,-1.33 1.08,-1.22 1.21,-1.07 1.34,-0.93 1.44,-0.75 1.53,-0.58 1.58,-0.38 1.62,-0.19 1.62,0.00 1.62,0.19 1.58,0.38 1.53,0.58 1.44,0.75 1.34,0.93 1.21,1.07 1.08,1.22 0.92,1.33 0.76,1.45 0.57,1.52 0.39,1.59 0.19,1.61 -0.00,1.63 -0.00,1.63 L 0,1.63 Z"></path></g></svg>