<?xml version="1.0" standalone="no"?>
<!DOCTYPE svg PUBLIC "-//W3C//DTD SVG 1.1//EN" "http://www.w3.org/Graphics/SVG/1.1/DTD/svg11.dtd">
<svg version="1.1" xmlns="http://www.w3.org/2000/svg" viewBox="0 0 69.79830672320168 214.84205677324888" width="139.59661344640335" height="429.68411354649777"><!-- svg-source:excalidraw --><metadata></metadata><defs><style class="style-fonts">
      </style></defs><g transform="translate(59.79830672320168 10) rotate(0 -1.9339230609964488 87.50966808820328)" stroke="none"><path fill="#1e1e1e" d="M 1.60,0 Q 1.60,0 1.56,2.78 1.52,5.56 1.49,10.91 1.46,16.26 1.44,25.48 1.42,34.71 1.40,48.64 1.39,62.56 1.38,80.16 1.37,97.75 0.80,115.82 0.24,133.88 -0.55,145.74 -1.35,157.60 -1.69,162.64 -2.03,167.67 -2.08,167.88 -2.13,168.09 -2.24,168.27 -2.36,168.45 -2.52,168.59 -2.69,168.73 -2.89,168.81 -3.09,168.88 -3.31,168.89 -3.53,168.90 -3.73,168.84 -3.94,168.78 -4.12,168.66 -4.30,168.53 -4.42,168.36 -4.55,168.19 -4.62,167.98 -4.69,167.78 -4.68,167.56 -4.68,167.34 -4.61,167.14 -4.54,166.94 -4.40,166.77 -4.27,166.60 -4.09,166.48 -3.91,166.36 -3.70,166.30 -3.49,166.25 -3.28,166.26 -3.06,166.28 -2.86,166.36 -2.66,166.44 -2.50,166.58 -2.34,166.73 -2.23,166.91 -2.12,167.10 -2.07,167.31 -2.03,167.52 -2.06,167.74 -2.08,167.95 -2.18,168.15 -2.27,168.34 -2.42,168.50 -2.57,168.65 -2.76,168.75 -2.95,168.85 -3.17,168.88 -3.38,168.91 -3.60,168.87 -3.81,168.84 -4.00,168.73 -4.19,168.63 -4.33,168.47 -4.48,168.31 -4.57,168.11 -4.66,167.92 -4.68,167.70 -4.70,167.49 -4.70,167.49 -4.70,167.49 -4.37,162.46 -4.03,157.43 -3.25,145.61 -2.46,133.80 -1.91,115.78 -1.37,97.75 -1.38,80.16 -1.39,62.56 -1.40,48.64 -1.42,34.71 -1.44,25.48 -1.46,16.26 -1.49,10.91 -1.52,5.56 -1.56,2.78 -1.60,0 -1.57,-0.19 -1.55,-0.38 -1.48,-0.56 -1.41,-0.74 -1.30,-0.90 -1.19,-1.06 -1.05,-1.18 -0.90,-1.31 -0.73,-1.40 -0.56,-1.49 -0.38,-1.54 -0.19,-1.58 0.00,-1.58 0.19,-1.58 0.38,-1.54 0.56,-1.49 0.73,-1.40 0.90,-1.31 1.05,-1.18 1.19,-1.06 1.30,-0.90 1.41,-0.74 1.48,-0.56 1.55,-0.38 1.57,-0.19 1.60,0.00 1.60,0.00 L 1.60,0 Z"></path></g><g transform="translate(59.31483517958077 170.0315892213701) rotate(0 -24.657417589790384 16.92174378906168)" stroke="none"><path fill="#1e1e1e" d="M 0,1.56 Q 0,1.56 -2.22,1.52 -4.44,1.49 -7.61,1.46 -10.78,1.44 -14.86,1.70 -18.94,1.96 -23.33,3.15 -27.73,4.34 -31.72,6.73 -35.70,9.12 -39.01,12.28 -42.32,15.45 -43.92,18.86 -45.53,22.27 -45.68,24.86 -45.84,27.44 -44.43,29.14 -43.01,30.83 -40.13,31.53 -37.25,32.22 -32.80,31.75 -28.35,31.28 -22.41,28.37 -16.46,25.46 -12.89,22.08 -9.32,18.71 -7.59,15.48 -5.86,12.25 -5.95,9.48 -6.03,6.71 -7.32,5.16 -8.60,3.60 -10.39,2.69 -12.18,1.78 -14.11,1.27 -16.03,0.77 -16.25,0.66 -16.47,0.54 -16.64,0.36 -16.81,0.19 -16.92,-0.03 -17.02,-0.25 -17.05,-0.50 -17.08,-0.74 -17.03,-0.99 -16.98,-1.23 -16.85,-1.44 -16.73,-1.65 -16.54,-1.82 -16.35,-1.98 -16.12,-2.07 -15.89,-2.17 -15.65,-2.18 -15.40,-2.20 -15.16,-2.13 -14.92,-2.07 -14.72,-1.93 -14.51,-1.79 -14.36,-1.60 -14.21,-1.40 -14.13,-1.17 -14.05,-0.93 -14.04,-0.69 -14.04,-0.44 -14.12,-0.20 -14.20,0.02 -14.34,0.22 -14.49,0.42 -14.70,0.56 -14.90,0.70 -15.14,0.77 -15.37,0.84 -15.62,0.82 -15.87,0.81 -16.10,0.72 -16.33,0.63 -16.52,0.48 -16.71,0.32 -16.84,0.11 -16.97,-0.10 -17.02,-0.34 -17.08,-0.58 -17.06,-0.82 -17.03,-1.07 -16.93,-1.30 -16.83,-1.52 -16.66,-1.70 -16.49,-1.88 -16.27,-2.00 -16.05,-2.12 -15.81,-2.16 -15.57,-2.20 -15.32,-2.17 -15.08,-2.13 -15.08,-2.13 -15.08,-2.13 -13.01,-1.33 -10.94,-0.52 -8.75,0.71 -6.57,1.96 -5.04,4.17 -3.50,6.38 -3.50,9.86 -3.51,13.34 -5.50,16.97 -7.50,20.60 -11.39,24.21 -15.28,27.81 -21.66,30.85 -28.04,33.89 -32.97,34.33 -37.89,34.78 -41.36,33.71 -44.84,32.64 -46.60,30.18 -48.37,27.71 -48.16,24.45 -47.96,21.18 -46.09,17.36 -44.22,13.54 -40.66,10.16 -37.11,6.78 -32.79,4.23 -28.48,1.68 -23.81,0.41 -19.14,-0.84 -14.96,-1.14 -10.78,-1.44 -7.61,-1.46 -4.44,-1.49 -2.22,-1.52 0,-1.56 0.18,-1.53 0.37,-1.51 0.54,-1.45 0.72,-1.38 0.88,-1.27 1.03,-1.16 1.16,-1.02 1.28,-0.88 1.37,-0.72 1.46,-0.55 1.50,-0.37 1.55,-0.18 1.55,0.00 1.55,0.18 1.50,0.37 1.46,0.55 1.37,0.72 1.28,0.88 1.16,1.02 1.03,1.16 0.88,1.27 0.72,1.38 0.54,1.45 0.37,1.51 0.18,1.53 -0.00,1.56 -0.00,1.56 L 0,1.56 Z"></path></g></svg>