<?xml version="1.0" standalone="no"?>
<!DOCTYPE svg PUBLIC "-//W3C//DTD SVG 1.1//EN" "http://www.w3.org/Graphics/SVG/1.1/DTD/svg11.dtd">
<svg version="1.1" xmlns="http://www.w3.org/2000/svg" viewBox="0 0 66.4140059178576 174.71329158200126" width="132.8280118357152" height="349.4265831640025"><!-- svg-source:excalidraw --><metadata></metadata><defs><style class="style-fonts">
      </style></defs><g transform="translate(56.414005917857594 27.40527066245386) rotate(0 -23.207002958928797 -0.000018443257260969403)" stroke="none"><path fill="#1e1e1e" d="M -0.70,1.41 Q -0.70,1.41 -2.38,0.60 -4.06,-0.21 -5.94,-1.48 -7.82,-2.75 -10.49,-4.37 -13.17,-6.00 -16.77,-7.79 -20.36,-9.59 -24.36,-11.18 -28.35,-12.77 -31.93,-13.71 -35.51,-14.65 -37.86,-14.54 -40.21,-14.44 -41.55,-12.92 -42.88,-11.41 -43.19,-9.12 -43.50,-6.83 -41.54,-3.54 -39.58,-0.25 -35.53,3.06 -31.48,6.37 -25.12,9.16 -18.76,11.94 -14.42,13.13 -10.07,14.32 -7.63,14.59 -5.18,14.87 -4.14,13.70 -3.10,12.52 -2.72,11.09 -2.33,9.66 -2.15,7.99 -1.96,6.32 -1.91,3.70 -1.87,1.07 -1.80,0.79 -1.74,0.50 -1.59,0.25 -1.44,0.00 -1.21,-0.18 -0.99,-0.36 -0.72,-0.47 -0.45,-0.58 -0.15,-0.59 0.13,-0.61 0.41,-0.53 0.69,-0.45 0.93,-0.28 1.17,-0.12 1.35,0.11 1.53,0.34 1.62,0.62 1.71,0.89 1.71,1.19 1.71,1.48 1.61,1.76 1.52,2.03 1.34,2.26 1.16,2.50 0.92,2.66 0.68,2.82 0.40,2.90 0.11,2.98 -0.17,2.96 -0.46,2.94 -0.73,2.83 -1.00,2.72 -1.22,2.53 -1.45,2.34 -1.60,2.09 -1.75,1.84 -1.81,1.55 -1.87,1.27 -1.84,0.98 -1.80,0.69 -1.68,0.42 -1.56,0.16 -1.35,-0.04 -1.15,-0.25 -0.89,-0.39 -0.63,-0.53 -0.34,-0.57 -0.06,-0.62 0.22,-0.57 0.51,-0.52 0.77,-0.38 1.03,-0.24 1.23,-0.03 1.43,0.17 1.55,0.44 1.67,0.70 1.70,0.99 1.73,1.28 1.73,1.28 1.73,1.28 1.46,4.03 1.20,6.77 0.86,8.74 0.53,10.70 -0.29,12.59 -1.13,14.48 -2.96,15.88 -4.78,17.28 -7.77,17.08 -10.77,16.87 -15.29,15.61 -19.82,14.36 -26.49,11.39 -33.15,8.43 -37.50,4.76 -41.86,1.09 -43.97,-2.89 -46.08,-6.89 -45.51,-9.96 -44.94,-13.03 -42.89,-14.99 -40.84,-16.94 -37.85,-17.13 -34.85,-17.32 -31.09,-16.35 -27.33,-15.37 -23.21,-13.77 -19.10,-12.16 -15.38,-10.35 -11.66,-8.55 -8.89,-6.94 -6.13,-5.33 -4.37,-4.23 -2.60,-3.12 -0.94,-2.27 0.70,-1.41 0.86,-1.31 1.02,-1.20 1.15,-1.06 1.28,-0.92 1.37,-0.75 1.46,-0.59 1.51,-0.40 1.56,-0.22 1.57,-0.03 1.57,0.16 1.53,0.34 1.49,0.53 1.40,0.70 1.32,0.87 1.19,1.01 1.07,1.16 0.91,1.27 0.76,1.38 0.58,1.45 0.40,1.53 0.22,1.55 0.03,1.58 -0.15,1.56 -0.34,1.54 -0.52,1.48 -0.70,1.41 -0.70,1.41 L -0.70,1.41 Z"></path></g><g transform="translate(56.414005917857594 24.50436762770198) rotate(0 -5.801732296475166 70.10446197714964)" stroke="none"><path fill="#1e1e1e" d="M 1.59,0.26 Q 1.59,0.26 0.71,5.26 -0.15,10.25 -1.09,17.90 -2.02,25.55 -2.71,36.56 -3.39,47.56 -3.69,60.02 -3.98,72.47 -4.39,83.90 -4.80,95.33 -5.82,104.40 -6.83,113.48 -7.54,119.81 -8.25,126.15 -8.84,129.98 -9.42,133.81 -9.65,136.51 -9.88,139.22 -9.95,139.46 -10.03,139.71 -10.17,139.91 -10.32,140.12 -10.53,140.27 -10.73,140.42 -10.98,140.50 -11.22,140.58 -11.48,140.57 -11.73,140.57 -11.97,140.48 -12.21,140.39 -12.41,140.23 -12.61,140.07 -12.75,139.86 -12.89,139.65 -12.95,139.40 -13.02,139.15 -13.00,138.90 -12.98,138.64 -12.88,138.41 -12.78,138.17 -12.61,137.98 -12.44,137.79 -12.22,137.66 -12.00,137.54 -11.75,137.49 -11.50,137.44 -11.24,137.47 -10.99,137.50 -10.76,137.61 -10.53,137.73 -10.35,137.90 -10.17,138.08 -10.05,138.31 -9.94,138.54 -9.90,138.79 -9.87,139.05 -9.91,139.30 -9.96,139.55 -10.08,139.77 -10.21,139.99 -10.40,140.17 -10.59,140.34 -10.82,140.44 -11.05,140.54 -11.31,140.56 -11.56,140.59 -11.81,140.53 -12.06,140.47 -12.27,140.33 -12.49,140.19 -12.65,140.00 -12.81,139.80 -12.90,139.56 -12.99,139.32 -13.00,139.07 -13.01,138.81 -13.01,138.81 -13.01,138.81 -12.54,136.11 -12.07,133.41 -11.50,129.63 -10.93,125.85 -10.23,119.51 -9.53,113.18 -8.54,104.20 -7.55,95.23 -7.16,83.82 -6.78,72.41 -6.51,59.90 -6.24,47.39 -5.59,36.30 -4.95,25.20 -4.06,17.48 -3.17,9.75 -2.38,4.74 -1.59,-0.26 -1.53,-0.45 -1.48,-0.63 -1.38,-0.80 -1.28,-0.97 -1.14,-1.11 -1.01,-1.25 -0.84,-1.35 -0.68,-1.45 -0.50,-1.52 -0.31,-1.58 -0.12,-1.59 0.07,-1.61 0.26,-1.57 0.45,-1.54 0.63,-1.46 0.81,-1.39 0.96,-1.27 1.12,-1.15 1.24,-1.00 1.36,-0.85 1.44,-0.68 1.53,-0.50 1.56,-0.31 1.60,-0.12 1.59,0.07 1.59,0.26 1.59,0.26 L 1.59,0.26 Z"></path></g></svg>