<?xml version="1.0" standalone="no"?>
<!DOCTYPE svg PUBLIC "-//W3C//DTD SVG 1.1//EN" "http://www.w3.org/Graphics/SVG/1.1/DTD/svg11.dtd">
<svg version="1.1" xmlns="http://www.w3.org/2000/svg" viewBox="0 0 83.06663922909229 77.74781528165053" width="166.13327845818458" height="155.49563056330106"><!-- svg-source:excalidraw --><metadata></metadata><defs><style class="style-fonts">
      </style></defs><g transform="translate(25.956616770196888 13.039354885142842) rotate(0 1.8995986148129305 3.0393621315364925)" stroke="none"><path d="M1.34 1.33 C1.56 1.65, 1.07 2.13, 1.45 2.89 C1.83 3.65, 3.75 6.55, 3.6 5.89 C3.46 5.23, 1.2 0.11, 0.58 -1.09" stroke="none" stroke-width="0" fill="#1e1e1e" fill-rule="evenodd"></path><path fill="#1e1e1e" d="M 1.93,-0.96 Q 1.93,-0.96 2.60,0.33 3.28,1.62 4.04,2.60 4.80,3.57 4.89,3.84 4.99,4.10 5.01,4.37 5.04,4.65 5.00,4.92 4.96,5.20 4.86,5.46 4.76,5.72 4.59,5.94 4.43,6.17 4.22,6.35 4.01,6.53 3.76,6.65 3.51,6.78 3.24,6.84 2.97,6.90 2.69,6.89 2.41,6.89 2.15,6.81 1.88,6.74 1.63,6.61 1.39,6.48 1.19,6.29 0.98,6.10 0.83,5.87 0.67,5.64 -0.50,3.32 -1.69,1.00 -1.81,0.71 -1.92,0.41 -1.94,0.09 -1.96,-0.22 -1.87,-0.53 -1.78,-0.83 -1.60,-1.10 -1.42,-1.36 -1.17,-1.55 -0.91,-1.74 -0.61,-1.84 -0.30,-1.94 0.01,-1.94 0.32,-1.94 0.63,-1.84 0.93,-1.73 1.18,-1.54 1.43,-1.34 1.61,-1.08 1.79,-0.81 1.87,-0.51 1.96,-0.20 1.94,0.11 1.92,0.43 1.80,0.73 1.68,1.02 1.47,1.26 1.26,1.51 0.99,1.67 0.72,1.83 0.40,1.90 0.09,1.97 -0.22,1.93 -0.53,1.89 -0.82,1.76 -1.11,1.62 -1.34,1.40 -1.57,1.18 -1.72,0.90 -1.87,0.62 -1.92,0.30 -1.97,-0.01 -1.92,-0.32 -1.86,-0.64 -1.71,-0.92 -1.56,-1.20 -1.33,-1.42 -1.09,-1.63 -0.80,-1.77 -0.51,-1.90 -0.20,-1.93 0.11,-1.96 0.42,-1.89 0.74,-1.82 1.01,-1.66 1.28,-1.49 1.49,-1.25 1.69,-1.00 1.69,-1.00 1.69,-1.00 3.24,1.28 4.80,3.57 4.89,3.83 4.99,4.10 5.01,4.37 5.04,4.65 5.00,4.92 4.96,5.20 4.86,5.46 4.76,5.72 4.59,5.94 4.43,6.17 4.22,6.35 4.01,6.53 3.76,6.65 3.51,6.78 3.24,6.84 2.97,6.90 2.69,6.89 2.41,6.89 2.15,6.81 1.88,6.74 1.63,6.61 1.39,6.48 1.19,6.29 0.98,6.10 0.83,5.87 0.67,5.64 0.00,4.62 -0.66,3.61 -1.29,2.28 -1.93,0.96 -2.01,0.72 -2.10,0.47 -2.13,0.21 -2.15,-0.04 -2.12,-0.30 -2.08,-0.55 -1.98,-0.79 -1.89,-1.04 -1.73,-1.25 -1.58,-1.46 -1.38,-1.63 -1.19,-1.80 -0.95,-1.91 -0.72,-2.03 -0.47,-2.09 -0.21,-2.14 0.04,-2.14 0.30,-2.13 0.55,-2.07 0.80,-2.00 1.03,-1.87 1.26,-1.75 1.45,-1.57 1.64,-1.39 1.78,-1.18 1.93,-0.96 1.93,-0.96 L 1.93,-0.96 Z"></path></g><g transform="translate(10 35.83453826289514) rotate(0 4.179111155473038 0.37992117224126787)" stroke="none"><path fill="#1e1e1e" d="M 0,-2.44 Q 0,-2.44 1.31,-2.46 2.62,-2.48 3.83,-2.50 5.04,-2.53 7.32,-2.03 9.59,-1.53 9.92,-1.27 10.26,-1.01 10.49,-0.66 10.73,-0.31 10.83,0.09 10.94,0.49 10.92,0.91 10.89,1.33 10.73,1.72 10.57,2.11 10.30,2.43 10.02,2.75 9.66,2.97 9.30,3.18 8.89,3.27 8.47,3.36 8.06,3.31 7.64,3.26 7.26,3.08 6.88,2.90 6.57,2.61 6.27,2.32 6.07,1.94 5.88,1.57 5.81,1.15 5.75,0.73 5.82,0.32 5.89,-0.09 6.09,-0.46 6.29,-0.83 6.60,-1.11 6.91,-1.40 7.29,-1.58 7.68,-1.75 8.09,-1.79 8.51,-1.83 8.93,-1.74 9.34,-1.65 9.70,-1.43 10.05,-1.21 10.32,-0.88 10.60,-0.56 10.75,-0.17 10.90,0.21 10.92,0.64 10.94,1.06 10.82,1.46 10.71,1.87 10.47,2.21 10.23,2.56 9.89,2.81 9.56,3.07 9.15,3.20 8.75,3.33 8.33,3.32 7.91,3.32 7.51,3.18 7.12,3.05 7.12,3.05 7.12,3.05 6.08,2.79 5.04,2.53 3.83,2.50 2.62,2.48 1.31,2.46 0,2.44 -0.29,2.41 -0.58,2.37 -0.86,2.27 -1.13,2.16 -1.38,1.99 -1.62,1.83 -1.81,1.61 -2.01,1.39 -2.15,1.12 -2.28,0.86 -2.35,0.58 -2.43,0.29 -2.43,-0.00 -2.43,-0.29 -2.35,-0.58 -2.28,-0.86 -2.15,-1.12 -2.01,-1.39 -1.81,-1.61 -1.62,-1.83 -1.38,-2.00 -1.13,-2.16 -0.86,-2.27 -0.58,-2.37 -0.29,-2.41 0.00,-2.44 0.00,-2.44 L 0,-2.44 Z"></path></g><g transform="translate(13.799197229625861 62.42893336306008) rotate(0 4.559025081320669 -4.179118401866646)" stroke="none"><path fill="#1e1e1e" d="M -1.36,-1.76 Q -1.36,-1.76 0.67,-3.19 2.71,-4.62 3.93,-5.69 5.16,-6.75 6.31,-8.25 7.46,-9.75 7.72,-9.98 7.99,-10.21 8.32,-10.34 8.64,-10.47 8.99,-10.49 9.34,-10.51 9.68,-10.42 10.02,-10.32 10.31,-10.13 10.60,-9.93 10.81,-9.65 11.03,-9.37 11.14,-9.04 11.25,-8.71 11.25,-8.36 11.25,-8.01 11.14,-7.68 11.03,-7.34 10.82,-7.06 10.61,-6.78 10.32,-6.59 10.03,-6.39 9.69,-6.29 9.35,-6.20 9.00,-6.22 8.65,-6.23 8.33,-6.36 8.00,-6.49 7.73,-6.72 7.46,-6.95 7.28,-7.25 7.10,-7.55 7.02,-7.89 6.95,-8.23 6.98,-8.58 7.02,-8.93 7.17,-9.25 7.31,-9.57 7.56,-9.82 7.80,-10.08 8.11,-10.24 8.42,-10.41 8.76,-10.46 9.11,-10.52 9.45,-10.47 9.80,-10.41 10.11,-10.25 10.42,-10.08 10.66,-9.83 10.91,-9.57 11.05,-9.26 11.20,-8.94 11.24,-8.59 11.28,-8.24 11.20,-7.90 11.13,-7.56 10.95,-7.25 10.77,-6.95 10.77,-6.95 10.77,-6.95 9.28,-5.33 7.78,-3.70 6.46,-2.59 5.15,-1.48 3.26,0.13 1.36,1.76 1.13,1.89 0.90,2.03 0.65,2.11 0.39,2.19 0.12,2.21 -0.14,2.22 -0.40,2.17 -0.67,2.12 -0.91,2.01 -1.16,1.90 -1.37,1.73 -1.58,1.57 -1.74,1.35 -1.91,1.14 -2.02,0.90 -2.13,0.65 -2.17,0.39 -2.22,0.12 -2.21,-0.14 -2.19,-0.41 -2.11,-0.66 -2.03,-0.92 -1.89,-1.15 -1.75,-1.38 -1.56,-1.57 -1.36,-1.76 -1.36,-1.76 L -1.36,-1.76 Z"></path></g><g transform="translate(41.913233540393776 57.86987929616487) rotate(0 -0.7598278516952632 4.938967992742832)" stroke="none"><path fill="#1e1e1e" d="M 2.34,0.26 Q 2.34,0.26 2.02,2.21 1.71,4.17 1.42,5.59 1.12,7.01 0.97,8.56 0.81,10.12 0.71,10.48 0.61,10.85 0.40,11.16 0.19,11.48 -0.10,11.71 -0.40,11.94 -0.76,12.07 -1.12,12.19 -1.50,12.19 -1.88,12.19 -2.24,12.07 -2.61,11.95 -2.91,11.73 -3.21,11.50 -3.43,11.18 -3.64,10.87 -3.75,10.50 -3.85,10.14 -3.83,9.76 -3.81,9.38 -3.67,9.02 -3.53,8.67 -3.29,8.38 -3.04,8.09 -2.72,7.89 -2.39,7.69 -2.02,7.61 -1.65,7.53 -1.27,7.57 -0.90,7.61 -0.55,7.76 -0.21,7.92 0.06,8.18 0.34,8.44 0.52,8.78 0.70,9.11 0.76,9.49 0.82,9.86 0.76,10.24 0.71,10.61 0.53,10.95 0.35,11.29 0.08,11.55 -0.19,11.81 -0.53,11.97 -0.88,12.13 -1.25,12.18 -1.63,12.22 -2.00,12.14 -2.37,12.06 -2.70,11.86 -3.03,11.67 -3.27,11.38 -3.52,11.09 -3.66,10.74 -3.81,10.39 -3.83,10.01 -3.85,9.63 -3.85,9.63 -3.85,9.63 -3.55,7.78 -3.24,5.94 -2.91,4.81 -2.58,3.69 -2.46,1.71 -2.34,-0.26 -2.27,-0.53 -2.21,-0.81 -2.08,-1.06 -1.95,-1.31 -1.76,-1.53 -1.58,-1.74 -1.34,-1.91 -1.11,-2.07 -0.85,-2.18 -0.58,-2.28 -0.30,-2.32 -0.02,-2.35 0.25,-2.32 0.54,-2.29 0.80,-2.19 1.07,-2.09 1.31,-1.94 1.54,-1.78 1.73,-1.57 1.92,-1.35 2.06,-1.10 2.19,-0.85 2.26,-0.58 2.33,-0.30 2.34,-0.02 2.34,0.26 2.34,0.26 L 2.34,0.26 Z"></path></g><g transform="translate(60.14939183682509 44.95264639668551) rotate(0 6.4586236961336 1.1397417775428806)" stroke="none"><path fill="#1e1e1e" d="M 0.92,-2.15 Q 0.92,-2.15 2.43,-1.47 3.95,-0.80 5.23,-0.59 6.51,-0.38 7.92,-0.29 9.32,-0.19 11.17,-0.16 13.02,-0.13 13.41,-0.05 13.79,0.02 14.13,0.22 14.47,0.42 14.72,0.71 14.98,1.01 15.13,1.37 15.27,1.74 15.30,2.13 15.32,2.52 15.22,2.90 15.12,3.27 14.90,3.60 14.68,3.93 14.37,4.17 14.06,4.41 13.69,4.53 13.32,4.66 12.93,4.66 12.54,4.67 12.17,4.55 11.79,4.42 11.48,4.19 11.17,3.95 10.94,3.63 10.72,3.31 10.61,2.93 10.51,2.55 10.52,2.16 10.54,1.77 10.69,1.41 10.83,1.04 11.08,0.74 11.33,0.44 11.66,0.24 12.00,0.03 12.38,-0.05 12.76,-0.13 13.15,-0.09 13.54,-0.05 13.90,0.10 14.26,0.26 14.54,0.53 14.83,0.79 15.02,1.14 15.20,1.48 15.27,1.87 15.33,2.26 15.27,2.64 15.21,3.03 15.03,3.38 14.85,3.73 14.57,4.00 14.29,4.27 13.93,4.44 13.58,4.60 13.19,4.65 12.80,4.69 12.80,4.69 12.80,4.69 10.88,4.54 8.97,4.39 7.33,4.26 5.69,4.12 3.93,3.77 2.16,3.42 0.62,2.79 -0.92,2.15 -1.16,2.01 -1.41,1.87 -1.61,1.67 -1.82,1.48 -1.97,1.24 -2.12,1.00 -2.21,0.73 -2.29,0.46 -2.32,0.18 -2.34,-0.09 -2.29,-0.37 -2.25,-0.65 -2.14,-0.91 -2.02,-1.17 -1.85,-1.40 -1.68,-1.62 -1.46,-1.80 -1.24,-1.98 -0.99,-2.10 -0.73,-2.22 -0.46,-2.28 -0.18,-2.33 0.09,-2.32 0.38,-2.31 0.65,-2.23 0.92,-2.15 0.92,-2.15 L 0.92,-2.15 Z"></path></g><g transform="translate(22.157419540571937 10.75987133005711) rotate(0 2.2795125406601073 2.659426466507938)" stroke="none"><path d="M-1.09 -1.19 C-0.37 -0.6, 4.05 1.36, 4.84 2.24 C5.64 3.13, 4.28 4.7, 3.69 4.11 C3.1 3.53, 2.01 -0.43, 1.31 -1.26" stroke="none" stroke-width="0" fill="#1e1e1e" fill-rule="evenodd"></path><path fill="#1e1e1e" d="M 1.36,-1.64 Q 1.36,-1.64 2.68,-0.52 3.99,0.58 4.58,1.42 5.17,2.25 5.36,2.45 5.54,2.65 5.67,2.89 5.81,3.12 5.88,3.38 5.95,3.64 5.96,3.91 5.97,4.19 5.91,4.45 5.86,4.72 5.74,4.96 5.62,5.20 5.45,5.41 5.27,5.62 5.05,5.78 4.83,5.94 4.58,6.04 4.33,6.15 4.07,6.19 3.80,6.23 3.53,6.20 3.26,6.18 3.00,6.09 2.75,6.00 2.52,5.86 2.29,5.71 0.45,3.50 -1.38,1.30 -1.55,1.04 -1.73,0.78 -1.81,0.49 -1.89,0.19 -1.87,-0.11 -1.85,-0.41 -1.74,-0.70 -1.62,-0.98 -1.42,-1.22 -1.22,-1.45 -0.95,-1.61 -0.69,-1.77 -0.39,-1.83 -0.09,-1.90 0.21,-1.86 0.51,-1.83 0.79,-1.69 1.07,-1.56 1.29,-1.35 1.52,-1.14 1.66,-0.87 1.80,-0.59 1.85,-0.29 1.90,0.01 1.85,0.31 1.79,0.61 1.65,0.88 1.50,1.15 1.28,1.37 1.05,1.58 0.77,1.70 0.49,1.83 0.19,1.86 -0.11,1.89 -0.41,1.83 -0.71,1.76 -0.97,1.60 -1.23,1.44 -1.43,1.20 -1.63,0.97 -1.74,0.68 -1.86,0.39 -1.87,0.09 -1.89,-0.21 -1.80,-0.51 -1.72,-0.80 -1.54,-1.06 -1.37,-1.31 -1.12,-1.50 -0.88,-1.68 -0.58,-1.78 -0.29,-1.87 0.01,-1.87 0.31,-1.87 0.60,-1.77 0.90,-1.67 1.14,-1.48 1.38,-1.30 1.38,-1.30 1.38,-1.30 3.28,0.47 5.17,2.25 5.36,2.45 5.54,2.65 5.67,2.89 5.81,3.12 5.88,3.38 5.95,3.64 5.96,3.91 5.97,4.19 5.91,4.45 5.86,4.71 5.74,4.96 5.62,5.20 5.45,5.41 5.27,5.62 5.05,5.78 4.84,5.94 4.58,6.04 4.33,6.15 4.07,6.19 3.80,6.23 3.53,6.20 3.26,6.18 3.00,6.09 2.75,6.00 2.52,5.86 2.29,5.71 1.77,4.74 1.24,3.78 -0.06,2.71 -1.36,1.64 -1.54,1.45 -1.72,1.26 -1.84,1.04 -1.97,0.81 -2.04,0.56 -2.11,0.32 -2.12,0.06 -2.12,-0.19 -2.07,-0.44 -2.02,-0.69 -1.90,-0.92 -1.79,-1.16 -1.62,-1.35 -1.46,-1.55 -1.25,-1.70 -1.04,-1.86 -0.81,-1.96 -0.57,-2.05 -0.31,-2.09 -0.06,-2.13 0.19,-2.11 0.44,-2.08 0.69,-2.00 0.93,-1.92 1.15,-1.78 1.36,-1.64 1.36,-1.64 L 1.36,-1.64 Z"></path></g><g transform="translate(51.79116952587901 10) rotate(0 -1.8995986148124757 4.179132894653932)" stroke="none"><path fill="#1e1e1e" d="M 1.93,1.07 Q 1.93,1.07 0.73,2.98 -0.45,4.88 -1.12,6.98 -1.79,9.08 -1.96,9.39 -2.13,9.69 -2.38,9.92 -2.64,10.15 -2.96,10.29 -3.27,10.42 -3.62,10.45 -3.96,10.48 -4.30,10.40 -4.63,10.32 -4.92,10.13 -5.22,9.95 -5.43,9.68 -5.65,9.41 -5.77,9.08 -5.89,8.76 -5.90,8.41 -5.91,8.07 -5.81,7.74 -5.71,7.41 -5.51,7.13 -5.31,6.85 -5.03,6.65 -4.75,6.44 -4.42,6.34 -4.09,6.24 -3.74,6.25 -3.40,6.26 -3.07,6.37 -2.75,6.49 -2.48,6.71 -2.21,6.92 -2.02,7.22 -1.84,7.51 -1.75,7.84 -1.67,8.18 -1.69,8.52 -1.72,8.86 -1.86,9.18 -1.99,9.50 -2.22,9.76 -2.45,10.01 -2.75,10.18 -3.05,10.36 -3.39,10.42 -3.73,10.49 -4.07,10.44 -4.42,10.40 -4.73,10.24 -5.04,10.09 -5.28,9.85 -5.53,9.60 -5.68,9.29 -5.83,8.98 -5.88,8.64 -5.93,8.30 -5.86,7.96 -5.80,7.62 -5.80,7.62 -5.80,7.62 -4.85,5.30 -3.91,2.97 -2.92,0.95 -1.93,-1.07 -1.77,-1.29 -1.62,-1.50 -1.41,-1.67 -1.21,-1.85 -0.97,-1.96 -0.73,-2.08 -0.47,-2.14 -0.21,-2.20 0.05,-2.19 0.31,-2.19 0.57,-2.12 0.83,-2.05 1.06,-1.92 1.30,-1.79 1.49,-1.60 1.69,-1.42 1.83,-1.20 1.98,-0.98 2.07,-0.73 2.16,-0.47 2.18,-0.21 2.21,0.05 2.17,0.31 2.13,0.58 2.03,0.82 1.93,1.07 1.93,1.07 L 1.93,1.07 Z"></path></g><g transform="translate(59.389563985130735 28.99598614812689) rotate(0 6.458623696133145 -0.37992117224126787)" stroke="none"><path fill="#1e1e1e" d="M -0.18,-1.99 Q -0.18,-1.99 2.23,-2.11 4.64,-2.24 7.02,-2.27 9.40,-2.30 11.12,-2.40 12.84,-2.51 13.12,-2.47 13.41,-2.44 13.66,-2.32 13.92,-2.19 14.12,-1.99 14.32,-1.80 14.45,-1.54 14.58,-1.29 14.62,-1.01 14.67,-0.73 14.62,-0.45 14.57,-0.17 14.43,0.07 14.29,0.32 14.08,0.51 13.88,0.70 13.62,0.82 13.36,0.93 13.07,0.96 12.79,0.99 12.52,0.92 12.24,0.86 12.00,0.71 11.76,0.56 11.58,0.34 11.40,0.12 11.30,-0.14 11.19,-0.40 11.18,-0.69 11.17,-0.97 11.25,-1.24 11.33,-1.51 11.49,-1.75 11.66,-1.98 11.88,-2.15 12.11,-2.32 12.38,-2.40 12.65,-2.49 12.94,-2.49 13.22,-2.48 13.49,-2.39 13.76,-2.29 13.98,-2.12 14.20,-1.94 14.36,-1.71 14.51,-1.47 14.59,-1.19 14.66,-0.92 14.64,-0.64 14.62,-0.35 14.51,-0.09 14.40,0.16 14.21,0.37 14.03,0.59 13.78,0.73 13.54,0.87 13.26,0.93 12.98,0.99 12.98,0.99 12.98,0.99 11.26,1.02 9.53,1.05 7.25,1.21 4.97,1.37 2.57,1.68 0.18,1.99 -0.05,1.98 -0.30,1.97 -0.53,1.91 -0.76,1.84 -0.97,1.72 -1.18,1.61 -1.36,1.44 -1.53,1.27 -1.66,1.07 -1.79,0.87 -1.87,0.64 -1.95,0.41 -1.97,0.17 -1.99,-0.06 -1.96,-0.29 -1.92,-0.53 -1.83,-0.75 -1.74,-0.98 -1.59,-1.17 -1.45,-1.37 -1.27,-1.52 -1.08,-1.67 -0.86,-1.78 -0.65,-1.88 -0.41,-1.94 -0.18,-1.99 -0.18,-1.99 L -0.18,-1.99 Z"></path></g><g transform="translate(52.550997377575186 54.830524411022026) rotate(0 4.179111155473038 5.698803090831717)" stroke="none"><path fill="#1e1e1e" d="M 1.76,-1.17 Q 1.76,-1.17 2.98,0.84 4.20,2.87 5.19,4.65 6.18,6.42 7.99,8.23 9.81,10.04 9.99,10.31 10.17,10.58 10.25,10.89 10.34,11.20 10.32,11.52 10.29,11.84 10.17,12.14 10.05,12.44 9.84,12.68 9.63,12.93 9.35,13.09 9.07,13.25 8.75,13.32 8.44,13.38 8.12,13.34 7.80,13.31 7.51,13.17 7.22,13.03 6.99,12.80 6.75,12.58 6.61,12.29 6.46,12.01 6.41,11.69 6.36,11.37 6.42,11.05 6.47,10.74 6.63,10.45 6.78,10.17 7.02,9.95 7.25,9.73 7.55,9.60 7.84,9.47 8.16,9.44 8.48,9.40 8.80,9.48 9.11,9.55 9.39,9.72 9.66,9.89 9.87,10.14 10.07,10.38 10.19,10.69 10.30,10.99 10.32,11.31 10.33,11.63 10.24,11.94 10.15,12.25 9.97,12.51 9.78,12.78 9.53,12.97 9.27,13.16 8.96,13.26 8.65,13.36 8.33,13.36 8.01,13.36 7.70,13.25 7.40,13.14 7.15,12.94 6.89,12.75 6.89,12.75 6.89,12.75 4.96,10.51 3.03,8.27 2.03,6.63 1.03,4.99 -0.36,3.08 -1.76,1.17 -1.88,0.94 -1.99,0.72 -2.05,0.47 -2.11,0.22 -2.10,-0.03 -2.10,-0.28 -2.03,-0.53 -1.97,-0.78 -1.84,-1.00 -1.72,-1.23 -1.55,-1.42 -1.38,-1.61 -1.16,-1.75 -0.95,-1.89 -0.71,-1.98 -0.47,-2.06 -0.21,-2.09 0.03,-2.12 0.28,-2.08 0.54,-2.05 0.77,-1.95 1.01,-1.86 1.22,-1.71 1.43,-1.56 1.59,-1.37 1.76,-1.17 1.76,-1.17 L 1.76,-1.17 Z"></path></g></svg>