<?xml version="1.0" standalone="no"?>
<!DOCTYPE svg PUBLIC "-//W3C//DTD SVG 1.1//EN" "http://www.w3.org/Graphics/SVG/1.1/DTD/svg11.dtd">
<svg version="1.1" xmlns="http://www.w3.org/2000/svg" viewBox="0 0 70.28177826682122 216.29243451759606" width="140.56355653364244" height="432.5848690351921"><!-- svg-source:excalidraw --><metadata></metadata><defs><style class="style-fonts">
      </style></defs><g transform="translate(60.28177826682122 171.48196696571728) rotate(0 -24.657417589790384 16.92174378906168)" stroke="none"><path fill="#1e1e1e" d="M 0,1.56 Q 0,1.56 -2.22,1.52 -4.44,1.49 -7.61,1.46 -10.78,1.44 -14.86,1.70 -18.94,1.96 -23.33,3.15 -27.73,4.34 -31.72,6.73 -35.70,9.12 -39.01,12.28 -42.32,15.45 -43.92,18.86 -45.53,22.27 -45.68,24.86 -45.84,27.44 -44.43,29.14 -43.01,30.83 -40.13,31.53 -37.25,32.22 -32.80,31.75 -28.35,31.28 -22.41,28.37 -16.46,25.46 -12.89,22.08 -9.32,18.71 -7.59,15.48 -5.86,12.25 -5.95,9.48 -6.03,6.71 -7.32,5.16 -8.60,3.60 -10.39,2.69 -12.18,1.78 -14.11,1.27 -16.03,0.77 -16.25,0.66 -16.47,0.54 -16.64,0.36 -16.81,0.19 -16.92,-0.03 -17.02,-0.25 -17.05,-0.50 -17.08,-0.74 -17.03,-0.99 -16.98,-1.23 -16.85,-1.44 -16.73,-1.65 -16.54,-1.82 -16.35,-1.98 -16.12,-2.07 -15.89,-2.17 -15.65,-2.18 -15.40,-2.20 -15.16,-2.13 -14.92,-2.07 -14.72,-1.93 -14.51,-1.79 -14.36,-1.60 -14.21,-1.40 -14.13,-1.17 -14.05,-0.93 -14.04,-0.69 -14.04,-0.44 -14.12,-0.20 -14.20,0.02 -14.34,0.22 -14.49,0.42 -14.70,0.56 -14.90,0.70 -15.14,0.77 -15.37,0.84 -15.62,0.82 -15.87,0.81 -16.10,0.72 -16.33,0.63 -16.52,0.48 -16.71,0.32 -16.84,0.11 -16.97,-0.10 -17.02,-0.34 -17.08,-0.58 -17.06,-0.82 -17.03,-1.07 -16.93,-1.30 -16.83,-1.52 -16.66,-1.70 -16.49,-1.88 -16.27,-2.00 -16.05,-2.12 -15.81,-2.16 -15.57,-2.20 -15.32,-2.17 -15.08,-2.13 -15.08,-2.13 -15.08,-2.13 -13.01,-1.33 -10.94,-0.52 -8.75,0.71 -6.57,1.96 -5.04,4.17 -3.50,6.38 -3.50,9.86 -3.51,13.34 -5.50,16.97 -7.50,20.60 -11.39,24.21 -15.28,27.81 -21.66,30.85 -28.04,33.89 -32.97,34.33 -37.89,34.78 -41.36,33.71 -44.84,32.64 -46.60,30.18 -48.37,27.71 -48.16,24.45 -47.96,21.18 -46.09,17.36 -44.22,13.54 -40.66,10.16 -37.11,6.78 -32.79,4.23 -28.48,1.68 -23.81,0.41 -19.14,-0.84 -14.96,-1.14 -10.78,-1.44 -7.61,-1.46 -4.44,-1.49 -2.22,-1.52 0,-1.56 0.18,-1.53 0.37,-1.51 0.54,-1.45 0.72,-1.38 0.88,-1.27 1.03,-1.16 1.16,-1.02 1.28,-0.88 1.37,-0.72 1.46,-0.55 1.50,-0.37 1.55,-0.18 1.55,0.00 1.55,0.18 1.50,0.37 1.46,0.55 1.37,0.72 1.28,0.88 1.16,1.02 1.03,1.16 0.88,1.27 0.72,1.38 0.54,1.45 0.37,1.51 0.18,1.53 -0.00,1.56 -0.00,1.56 L 0,1.56 Z"></path></g><g transform="translate(29.339156836935672 175.34977620119582) rotate(0 3.8678461219928977 14.020896084081386)" stroke="none"><path fill="#1e1e1e" d="M 1.04,1.38 Q 1.04,1.38 -0.02,2.28 -1.09,3.17 -2.69,4.33 -4.30,5.48 -6.26,7.75 -8.23,10.02 -10.49,13.19 -12.75,16.37 -14.23,19.57 -15.72,22.76 -16.70,24.45 -17.68,26.13 -16.38,24.78 -15.09,23.43 -12.15,20.57 -9.22,17.71 -5.72,14.53 -2.22,11.36 0.93,8.62 4.10,5.88 6.26,3.91 8.42,1.94 9.62,0.25 10.82,-1.43 10.95,-1.53 11.09,-1.63 11.24,-1.69 11.40,-1.75 11.57,-1.78 11.73,-1.80 11.90,-1.78 12.07,-1.76 12.22,-1.71 12.38,-1.65 12.52,-1.56 12.66,-1.47 12.77,-1.34 12.89,-1.22 12.97,-1.07 13.05,-0.93 13.09,-0.76 13.14,-0.60 13.14,-0.43 13.14,-0.27 13.11,-0.10 13.07,0.05 12.99,0.20 12.92,0.35 12.81,0.48 12.70,0.61 11.60,1.75 10.50,2.89 8.67,5.37 6.83,7.84 4.32,10.61 1.81,13.39 -0.29,16.41 -2.40,19.43 -3.86,21.82 -5.32,24.20 -6.66,24.75 -8.00,25.30 -6.94,24.26 -5.89,23.22 -3.70,21.24 -1.52,19.25 1.10,16.74 3.73,14.23 6.53,11.51 9.33,8.79 11.64,6.53 13.95,4.27 15.22,2.87 16.50,1.48 16.19,1.65 15.87,1.82 16.01,1.68 16.16,1.53 16.33,1.43 16.50,1.32 16.70,1.26 16.89,1.20 17.09,1.19 17.30,1.17 17.50,1.21 17.70,1.25 17.88,1.33 18.07,1.41 18.23,1.54 18.39,1.66 18.52,1.82 18.64,1.98 18.72,2.17 18.81,2.35 18.85,2.55 18.88,2.75 18.87,2.96 18.86,3.16 18.80,3.35 18.74,3.55 18.63,3.72 18.53,3.90 17.85,5.20 17.18,6.51 15.34,8.84 13.51,11.18 11.38,14.30 9.25,17.42 7.52,20.38 5.78,23.34 4.80,24.80 3.83,26.26 4.01,27.14 4.18,28.01 4.05,28.17 3.91,28.33 3.74,28.46 3.57,28.58 3.37,28.66 3.18,28.75 2.97,28.78 2.76,28.81 2.55,28.79 2.34,28.77 2.14,28.70 1.94,28.63 1.76,28.51 1.59,28.40 1.44,28.25 1.30,28.09 1.19,27.91 1.09,27.72 1.03,27.52 0.98,27.31 0.97,27.10 0.97,26.89 1.01,26.69 1.06,26.48 1.15,26.29 1.24,26.10 3.10,25.24 4.96,24.37 7.05,22.64 9.13,20.92 11.80,18.75 14.46,16.58 17.17,13.27 19.87,9.95 21.58,7.20 23.28,4.44 23.97,2.53 24.66,0.63 24.61,-0.00 24.55,-0.63 24.64,-0.80 24.72,-0.97 24.85,-1.12 24.97,-1.27 25.13,-1.38 25.29,-1.49 25.46,-1.56 25.64,-1.63 25.83,-1.66 26.02,-1.68 26.22,-1.66 26.41,-1.64 26.59,-1.58 26.77,-1.51 26.93,-1.40 27.09,-1.30 27.22,-1.16 27.35,-1.01 27.44,-0.84 27.53,-0.68 27.58,-0.49 27.63,-0.30 27.63,-0.11 27.63,0.07 27.59,0.26 27.55,0.44 26.99,1.66 26.44,2.88 25.65,4.71 24.86,6.54 24.25,8.62 23.63,10.71 23.15,12.27 22.67,13.84 23.15,14.98 23.64,16.13 23.55,16.31 23.45,16.50 23.32,16.66 23.18,16.82 23.01,16.94 22.84,17.06 22.65,17.14 22.45,17.21 22.24,17.24 22.04,17.27 21.83,17.25 21.62,17.22 21.43,17.15 21.23,17.08 21.06,16.97 20.88,16.85 20.74,16.70 20.60,16.54 20.50,16.36 20.40,16.18 20.35,15.97 20.30,15.77 20.29,15.56 20.29,15.35 20.34,15.15 20.38,14.95 21.21,14.38 22.04,13.81 22.31,13.86 22.59,13.91 22.83,14.04 23.08,14.18 23.27,14.38 23.46,14.59 23.57,14.84 23.69,15.10 23.71,15.38 23.74,15.66 23.68,15.93 23.61,16.20 23.46,16.44 23.31,16.68 23.10,16.86 22.88,17.03 22.62,17.13 22.36,17.23 22.08,17.25 21.80,17.26 21.53,17.18 21.26,17.10 21.03,16.94 20.80,16.78 20.64,16.55 20.47,16.33 20.39,16.06 20.30,15.79 20.30,15.51 20.31,15.23 20.40,14.97 20.49,14.70 20.67,14.48 20.84,14.26 21.07,14.11 21.31,13.96 21.58,13.88 21.85,13.81 22.13,13.83 22.41,13.85 22.67,13.96 22.93,14.07 23.14,14.25 23.35,14.44 23.49,14.68 23.63,14.92 23.69,15.20 23.74,15.47 23.71,15.75 23.67,16.03 23.55,16.28 23.43,16.53 23.23,16.73 23.04,16.93 22.79,17.06 22.54,17.19 23.09,16.66 23.64,16.13 23.55,16.31 23.45,16.50 23.32,16.66 23.18,16.82 23.01,16.94 22.84,17.06 22.65,17.14 22.45,17.21 22.24,17.24 22.04,17.27 21.83,17.25 21.62,17.22 21.43,17.15 21.23,17.08 21.06,16.97 20.88,16.85 20.74,16.70 20.60,16.54 20.50,16.36 20.40,16.18 20.35,15.97 20.30,15.77 20.29,15.56 20.29,15.35 20.34,15.15 20.38,14.95 19.96,13.83 19.53,12.70 20.12,11.30 20.71,9.89 21.32,7.60 21.93,5.31 22.71,3.40 23.50,1.48 24.02,0.42 24.55,-0.63 24.64,-0.80 24.72,-0.97 24.85,-1.12 24.97,-1.27 25.13,-1.38 25.29,-1.49 25.46,-1.56 25.64,-1.63 25.83,-1.66 26.02,-1.68 26.22,-1.66 26.41,-1.64 26.59,-1.58 26.77,-1.51 26.93,-1.40 27.09,-1.30 27.22,-1.16 27.35,-1.01 27.44,-0.85 27.53,-0.68 27.58,-0.49 27.63,-0.30 27.63,-0.11 27.63,0.07 27.59,0.26 27.55,0.44 27.42,0.99 27.29,1.54 26.50,3.73 25.71,5.91 23.93,8.86 22.15,11.80 19.28,15.36 16.41,18.92 13.80,21.15 11.19,23.38 7.68,25.69 4.18,28.01 4.05,28.17 3.91,28.33 3.74,28.46 3.57,28.58 3.37,28.66 3.18,28.75 2.97,28.78 2.76,28.81 2.55,28.79 2.34,28.77 2.14,28.70 1.94,28.63 1.76,28.51 1.59,28.40 1.44,28.25 1.30,28.09 1.19,27.91 1.09,27.72 1.03,27.52 0.98,27.31 0.97,27.10 0.97,26.89 1.01,26.69 1.06,26.48 1.15,26.29 1.24,26.10 1.17,25.65 1.10,25.19 2.15,23.53 3.21,21.86 4.94,18.78 6.68,15.70 8.79,12.45 10.91,9.20 12.51,7.00 14.11,4.81 14.99,3.31 15.87,1.82 16.01,1.68 16.16,1.53 16.33,1.43 16.50,1.32 16.70,1.26 16.89,1.20 17.09,1.19 17.30,1.17 17.50,1.21 17.70,1.25 17.88,1.33 18.07,1.41 18.23,1.54 18.39,1.66 18.52,1.82 18.64,1.98 18.72,2.17 18.81,2.35 18.85,2.55 18.88,2.75 18.87,2.96 18.86,3.16 18.80,3.35 18.74,3.55 18.63,3.72 18.53,3.90 17.94,4.01 17.35,4.13 16.69,5.24 16.02,6.34 13.75,8.65 11.47,10.95 8.73,13.73 5.98,16.52 3.41,19.12 0.83,21.73 -1.36,23.92 -3.56,26.12 -4.97,27.06 -6.39,28.01 -7.70,27.34 -9.00,26.67 -8.37,24.71 -7.73,22.75 -6.26,20.27 -4.78,17.79 -2.60,14.59 -0.42,11.40 1.93,8.70 4.29,6.01 6.06,3.47 7.83,0.93 9.32,-0.25 10.82,-1.43 10.95,-1.53 11.09,-1.63 11.24,-1.69 11.40,-1.75 11.57,-1.78 11.73,-1.80 11.90,-1.78 12.07,-1.76 12.22,-1.71 12.38,-1.65 12.52,-1.56 12.66,-1.47 12.77,-1.34 12.89,-1.22 12.97,-1.07 13.05,-0.93 13.09,-0.76 13.14,-0.60 13.14,-0.43 13.14,-0.27 13.11,-0.10 13.07,0.05 12.99,0.20 12.92,0.35 12.81,0.48 12.70,0.61 11.50,2.28 10.30,3.96 8.12,5.98 5.95,8.01 2.83,10.75 -0.27,13.49 -3.70,16.66 -7.12,19.83 -10.02,22.75 -12.92,25.67 -14.87,27.34 -16.81,29.00 -17.95,28.63 -19.08,28.27 -18.77,24.90 -18.46,21.52 -16.90,18.05 -15.35,14.58 -13.07,11.22 -10.80,7.86 -8.64,5.23 -6.48,2.60 -4.92,1.38 -3.35,0.15 -2.19,-0.61 -1.04,-1.38 -0.86,-1.49 -0.67,-1.59 -0.47,-1.65 -0.27,-1.71 -0.06,-1.72 0.14,-1.73 0.34,-1.68 0.55,-1.64 0.74,-1.55 0.93,-1.46 1.09,-1.33 1.25,-1.20 1.37,-1.03 1.50,-0.86 1.58,-0.67 1.66,-0.48 1.70,-0.27 1.73,-0.06 1.71,0.14 1.70,0.34 1.63,0.54 1.56,0.74 1.45,0.92 1.34,1.10 1.19,1.24 1.04,1.39 1.04,1.38 L 1.04,1.38 Z"></path></g><g transform="translate(56.41400591785714 10) rotate(0 -2.9008661482373554 90.8940334449471)" stroke="none"><path fill="#1e1e1e" d="M 1.55,-0.17 Q 1.55,-0.17 1.79,2.33 2.04,4.83 2.13,10.13 2.23,15.43 2.26,23.23 2.30,31.03 2.30,41.29 2.31,51.55 2.03,64.82 1.76,78.09 1.36,92.62 0.96,107.16 -0.04,120.32 -1.05,133.47 -2.03,143.79 -3.02,154.11 -3.72,161.27 -4.42,168.43 -4.71,172.29 -5.01,176.15 -5.04,177.81 -5.08,179.46 -5.14,179.70 -5.20,179.93 -5.33,180.14 -5.46,180.34 -5.64,180.50 -5.83,180.65 -6.06,180.74 -6.29,180.82 -6.53,180.83 -6.77,180.84 -7.01,180.77 -7.24,180.70 -7.44,180.55 -7.63,180.41 -7.78,180.22 -7.92,180.02 -7.99,179.79 -8.06,179.56 -8.06,179.31 -8.05,179.07 -7.97,178.84 -7.89,178.62 -7.74,178.43 -7.59,178.24 -7.38,178.10 -7.18,177.97 -6.94,177.91 -6.71,177.85 -6.47,177.87 -6.22,177.89 -6.00,177.98 -5.78,178.08 -5.59,178.24 -5.41,178.40 -5.29,178.61 -5.17,178.82 -5.12,179.06 -5.08,179.30 -5.11,179.54 -5.14,179.78 -5.25,180.00 -5.35,180.22 -5.53,180.39 -5.70,180.56 -5.91,180.67 -6.13,180.78 -6.37,180.81 -6.61,180.85 -6.85,180.80 -7.09,180.76 -7.30,180.64 -7.51,180.52 -7.68,180.34 -7.84,180.16 -7.94,179.94 -8.03,179.72 -8.05,179.47 -8.07,179.23 -8.07,179.23 -8.07,179.23 -7.86,177.59 -7.65,175.95 -7.35,172.06 -7.06,168.17 -6.36,161.01 -5.67,153.85 -4.70,143.56 -3.72,133.27 -2.73,120.18 -1.73,107.09 -1.35,92.56 -0.96,78.03 -0.70,64.79 -0.44,51.55 -0.48,41.30 -0.51,31.04 -0.58,23.27 -0.65,15.50 -0.79,10.33 -0.92,5.16 -1.24,2.67 -1.55,0.17 -1.55,-0.01 -1.54,-0.20 -1.50,-0.38 -1.45,-0.56 -1.36,-0.73 -1.27,-0.90 -1.15,-1.04 -1.02,-1.17 -0.86,-1.28 -0.71,-1.39 -0.53,-1.45 -0.35,-1.52 -0.17,-1.54 0.01,-1.56 0.20,-1.53 0.38,-1.51 0.56,-1.44 0.74,-1.37 0.89,-1.26 1.04,-1.15 1.17,-1.01 1.29,-0.87 1.38,-0.70 1.46,-0.53 1.50,-0.35 1.55,-0.17 1.55,-0.17 L 1.55,-0.17 Z"></path></g></svg>