<?xml version="1.0" standalone="no"?>
<!DOCTYPE svg PUBLIC "-//W3C//DTD SVG 1.1//EN" "http://www.w3.org/Graphics/SVG/1.1/DTD/svg11.dtd">
<svg version="1.1" xmlns="http://www.w3.org/2000/svg" viewBox="0 0 60.61227362138288 170.84540857349396" width="121.22454724276577" height="341.6908171469879"><!-- svg-source:excalidraw --><metadata></metadata><defs><style class="style-fonts">
      </style></defs><g transform="translate(46.74442749938953 24.504367627701868) rotate(0 -16.43829068869809 4.351317665613465)" stroke="none"><path fill="#1e1e1e" d="M -1.57,0 Q -1.57,0 -1.58,-1.92 -1.58,-3.84 -2.30,-5.47 -3.02,-7.10 -5.09,-8.80 -7.17,-10.49 -9.57,-11.21 -11.96,-11.92 -14.84,-11.98 -17.72,-12.03 -21.08,-11.26 -24.44,-10.48 -27.44,-9.12 -30.43,-7.76 -31.80,-5.48 -33.17,-3.20 -32.98,-0.30 -32.79,2.60 -29.80,5.91 -26.82,9.22 -22.30,12.03 -17.78,14.84 -13.38,16.88 -8.97,18.93 -5.82,19.77 -2.67,20.62 -1.23,20.34 0.20,20.06 0.77,17.92 1.35,15.78 0.85,13.09 0.35,10.41 -0.38,7.84 -1.11,5.28 -1.39,2.10 -1.68,-1.07 -1.43,-1.12 -1.18,-1.16 -0.92,-1.13 -0.67,-1.09 -0.44,-0.97 -0.21,-0.86 -0.04,-0.68 0.13,-0.49 0.24,-0.26 0.36,-0.03 0.39,0.21 0.42,0.46 0.37,0.71 0.32,0.97 0.19,1.19 0.06,1.41 -0.12,1.58 -0.31,1.74 -0.55,1.84 -0.78,1.94 -1.04,1.96 -1.29,1.98 -1.54,1.91 -1.79,1.85 -2.00,1.71 -2.21,1.57 -2.37,1.37 -2.53,1.17 -2.62,0.93 -2.70,0.69 -2.71,0.43 -2.71,0.18 -2.63,-0.06 -2.56,-0.30 -2.40,-0.51 -2.25,-0.71 -2.04,-0.86 -1.84,-1.01 -1.59,-1.08 -1.35,-1.15 -1.09,-1.14 -0.83,-1.13 -0.60,-1.04 -0.36,-0.95 -0.16,-0.79 0.03,-0.63 0.16,-0.41 0.30,-0.19 0.36,0.05 0.42,0.29 0.39,0.55 0.37,0.80 0.27,1.04 0.16,1.27 -0.00,1.46 -0.17,1.65 -0.40,1.77 -0.62,1.89 -0.62,1.89 -0.62,1.89 0.40,3.19 1.42,4.49 2.21,7.23 3.00,9.98 3.46,13.24 3.92,16.50 2.83,19.20 1.74,21.90 -0.72,22.53 -3.20,23.17 -6.64,22.25 -10.08,21.33 -14.64,19.21 -19.19,17.09 -24.00,14.03 -28.81,10.97 -32.06,7.02 -35.32,3.06 -35.41,-0.65 -35.51,-4.36 -33.63,-7.21 -31.75,-10.06 -28.41,-11.61 -25.06,-13.15 -21.37,-13.99 -17.67,-14.82 -14.41,-14.73 -11.15,-14.65 -8.25,-13.71 -5.36,-12.78 -2.83,-10.60 -0.31,-8.43 0.63,-6.18 1.58,-3.94 1.58,-1.97 1.57,0 1.55,0.18 1.53,0.37 1.46,0.55 1.39,0.73 1.29,0.89 1.18,1.04 1.03,1.17 0.89,1.29 0.72,1.38 0.55,1.47 0.37,1.52 0.19,1.56 -0.00,1.56 -0.19,1.56 -0.37,1.52 -0.56,1.47 -0.72,1.38 -0.89,1.29 -1.03,1.17 -1.18,1.04 -1.29,0.89 -1.39,0.73 -1.46,0.55 -1.53,0.37 -1.55,0.18 -1.57,-0.00 -1.57,-0.00 L -1.57,0 Z"></path></g><g transform="translate(45.777484412148624 18.70263533122693) rotate(0 0.4834715436206807 71.07138662113351)" stroke="none"><path fill="#1e1e1e" d="M 1.55,-0.12 Q 1.55,-0.12 1.80,3.20 2.04,6.54 2.41,12.14 2.78,17.74 2.94,25.71 3.09,33.68 3.15,44.01 3.21,54.35 2.95,65.70 2.69,77.06 2.30,89.95 1.91,102.83 1.46,111.93 1.02,121.03 0.83,126.55 0.64,132.07 0.65,136.21 0.66,140.36 0.61,140.61 0.56,140.86 0.44,141.08 0.31,141.30 0.12,141.47 -0.06,141.64 -0.30,141.75 -0.53,141.85 -0.79,141.87 -1.04,141.89 -1.29,141.83 -1.54,141.76 -1.75,141.63 -1.97,141.49 -2.13,141.29 -2.29,141.09 -2.38,140.85 -2.46,140.61 -2.47,140.35 -2.48,140.10 -2.40,139.85 -2.33,139.61 -2.18,139.40 -2.03,139.19 -1.82,139.04 -1.61,138.89 -1.37,138.82 -1.12,138.74 -0.87,138.75 -0.61,138.76 -0.37,138.85 -0.13,138.94 0.06,139.10 0.26,139.26 0.39,139.47 0.53,139.69 0.59,139.94 0.65,140.18 0.63,140.44 0.61,140.69 0.51,140.93 0.41,141.16 0.24,141.35 0.07,141.54 -0.14,141.67 -0.37,141.80 -0.62,141.84 -0.87,141.89 -1.12,141.86 -1.38,141.82 -1.61,141.71 -1.84,141.60 -2.02,141.41 -2.20,141.23 -2.31,141.00 -2.42,140.78 -2.46,140.52 -2.49,140.27 -2.49,140.27 -2.49,140.27 -2.25,136.13 -2.02,131.98 -1.83,126.44 -1.65,120.90 -1.21,111.83 -0.78,102.75 -0.40,89.88 -0.03,77.00 0.20,65.68 0.44,54.37 0.36,44.05 0.27,33.74 0.09,25.84 -0.09,17.94 -0.51,12.37 -0.93,6.79 -1.24,3.46 -1.55,0.12 -1.54,-0.05 -1.54,-0.24 -1.49,-0.42 -1.43,-0.60 -1.34,-0.77 -1.25,-0.93 -1.12,-1.07 -0.99,-1.20 -0.83,-1.30 -0.67,-1.40 -0.49,-1.46 -0.31,-1.52 -0.12,-1.54 0.05,-1.56 0.24,-1.53 0.43,-1.50 0.60,-1.42 0.77,-1.35 0.92,-1.24 1.07,-1.12 1.19,-0.98 1.31,-0.83 1.39,-0.66 1.48,-0.49 1.51,-0.31 1.55,-0.12 1.55,-0.12 L 1.55,-0.12 Z"></path></g><g transform="translate(28.37221374969522 15.801769182989347) rotate(0 1.9339230609962215 14.020914527338562)" stroke="none"><path fill="#1e1e1e" d="M 0.98,1.64 Q 0.98,1.64 -0.38,2.50 -1.76,3.36 -3.79,4.47 -5.81,5.58 -7.83,6.60 -9.85,7.63 -11.21,8.41 -12.56,9.19 -12.76,9.27 -12.96,9.35 -13.18,9.38 -13.39,9.41 -13.61,9.39 -13.82,9.37 -14.02,9.29 -14.23,9.22 -14.41,9.10 -14.59,8.98 -14.73,8.82 -14.88,8.66 -14.98,8.47 -15.08,8.28 -15.14,8.07 -15.19,7.86 -15.20,7.65 -15.20,7.43 -15.15,7.22 -15.10,7.01 -15.00,6.82 -14.91,6.62 -14.77,6.46 -14.62,6.30 -14.45,6.17 -14.27,6.05 -12.67,5.69 -11.06,5.33 -9.04,4.27 -7.02,3.21 -4.73,1.67 -2.43,0.13 -0.92,-1.07 0.58,-2.28 1.43,-3.15 2.29,-4.02 2.39,-4.11 2.49,-4.19 2.67,-4.31 2.85,-4.44 3.06,-4.51 3.27,-4.59 3.49,-4.61 3.71,-4.64 3.93,-4.61 4.15,-4.58 4.35,-4.49 4.56,-4.41 4.74,-4.29 4.92,-4.16 5.07,-3.99 5.21,-3.82 5.31,-3.62 5.41,-3.43 5.46,-3.21 5.51,-3.00 5.51,-2.77 5.50,-2.55 5.45,-2.34 5.39,-2.12 5.29,-1.93 5.18,-1.74 5.03,-1.57 4.88,-1.41 3.36,0.33 1.83,2.08 0.23,3.32 -1.36,4.57 -2.11,5.55 -2.85,6.52 -3.18,7.31 -3.52,8.09 -3.72,8.28 -3.92,8.46 -4.15,8.59 -4.39,8.72 -4.65,8.79 -4.91,8.86 -5.18,8.87 -5.45,8.87 -5.71,8.81 -5.97,8.75 -6.22,8.63 -6.46,8.51 -6.66,8.34 -6.87,8.16 -7.03,7.95 -7.18,7.73 -7.28,7.48 -7.39,7.23 -7.42,6.96 -7.46,6.69 -7.43,6.42 -7.41,6.16 -7.32,5.90 -7.23,5.65 -7.08,5.42 -6.93,5.20 -4.63,5.17 -2.33,5.14 0.53,4.54 3.41,3.95 5.52,3.22 7.64,2.49 8.62,1.65 9.60,0.81 10.08,0.07 10.55,-0.66 10.77,-0.79 10.99,-0.91 11.23,-0.98 11.47,-1.05 11.72,-1.06 11.96,-1.07 12.21,-1.02 12.45,-0.97 12.68,-0.86 12.90,-0.75 13.10,-0.60 13.29,-0.44 13.44,-0.24 13.59,-0.04 13.69,0.18 13.78,0.41 13.82,0.66 13.86,0.90 13.84,1.15 13.82,1.40 13.74,1.64 13.66,1.88 13.53,2.09 13.39,2.30 13.21,2.47 13.03,2.64 11.37,2.51 9.71,2.38 8.47,3.02 7.23,3.67 4.95,5.19 2.67,6.70 0.29,8.70 -2.09,10.71 -3.97,12.38 -5.84,14.06 -6.92,14.92 -7.99,15.78 -8.16,16.17 -8.33,16.56 -8.53,16.67 -8.74,16.77 -8.96,16.83 -9.18,16.88 -9.41,16.88 -9.63,16.88 -9.86,16.83 -10.08,16.77 -10.28,16.66 -10.48,16.56 -10.65,16.41 -10.82,16.26 -10.95,16.07 -11.08,15.88 -11.16,15.67 -11.24,15.45 -11.27,15.23 -11.29,15.00 -11.27,14.77 -11.24,14.55 -11.16,14.34 -11.08,14.12 -10.95,13.94 -10.82,13.75 -10.65,13.60 -10.47,13.45 -8.74,13.12 -7.00,12.80 -3.30,11.48 0.39,10.16 3.75,9.04 7.10,7.92 8.96,6.97 10.81,6.02 11.34,5.18 11.87,4.34 12.07,4.26 12.27,4.19 12.48,4.16 12.69,4.13 12.90,4.15 13.12,4.18 13.32,4.25 13.52,4.33 13.69,4.45 13.87,4.57 14.01,4.72 14.16,4.88 14.26,5.07 14.36,5.26 14.41,5.47 14.47,5.67 14.47,5.89 14.47,6.10 14.42,6.31 14.37,6.52 14.27,6.71 14.17,6.90 14.03,7.06 13.89,7.22 13.72,7.34 13.54,7.47 11.98,7.53 10.41,7.60 8.01,8.58 5.60,9.56 2.89,11.31 0.19,13.05 -1.80,14.61 -3.79,16.16 -4.73,17.14 -5.67,18.12 -4.21,17.70 -2.75,17.29 0.32,16.62 3.41,15.95 6.70,14.86 9.99,13.78 12.12,12.56 14.25,11.33 14.89,10.38 15.53,9.43 15.72,9.35 15.91,9.27 16.11,9.24 16.31,9.20 16.52,9.22 16.72,9.23 16.92,9.30 17.11,9.36 17.29,9.47 17.46,9.58 17.60,9.73 17.75,9.87 17.85,10.05 17.96,10.23 18.01,10.43 18.07,10.62 18.08,10.83 18.09,11.04 18.05,11.24 18.01,11.44 17.92,11.63 17.84,11.81 17.71,11.97 17.58,12.13 17.41,12.26 17.25,12.38 15.54,12.10 13.83,11.82 11.82,12.45 9.80,13.09 7.42,13.89 5.04,14.68 2.72,15.79 0.40,16.90 -0.32,18.06 -1.04,19.22 2.42,19.27 5.88,19.31 8.90,19.44 11.92,19.56 13.07,19.75 14.22,19.94 12.02,20.70 9.81,21.46 8.85,22.08 7.89,22.71 8.32,24.26 8.76,25.80 10.08,27.03 11.40,28.26 12.48,28.71 13.55,29.16 15.11,29.31 16.66,29.47 17.21,29.32 17.76,29.17 18.11,29.01 18.45,28.84 18.83,28.80 19.20,28.75 19.57,28.83 19.95,28.91 20.27,29.10 20.60,29.29 20.85,29.58 21.10,29.87 21.24,30.22 21.39,30.57 21.41,30.95 21.44,31.33 21.34,31.69 21.24,32.06 21.03,32.38 20.82,32.70 20.52,32.93 20.22,33.16 19.87,33.29 19.51,33.41 19.13,33.42 18.75,33.42 18.39,33.30 18.02,33.19 17.72,32.96 17.41,32.73 17.20,32.42 16.98,32.11 16.88,31.74 16.77,31.38 16.79,31.00 16.80,30.62 16.94,30.26 17.08,29.91 17.32,29.62 17.56,29.33 17.89,29.13 18.21,28.93 18.58,28.84 18.95,28.76 19.33,28.79 19.71,28.83 20.05,28.99 20.40,29.14 20.68,29.40 20.96,29.66 21.14,29.99 21.32,30.33 21.38,30.70 21.45,31.07 21.39,31.45 21.33,31.82 21.16,32.16 20.99,32.50 20.71,32.76 20.44,33.03 20.44,33.03 20.44,33.03 17.37,33.31 14.30,33.59 13.02,33.17 11.73,32.75 10.30,31.91 8.86,31.07 6.89,29.27 4.92,27.46 4.30,25.24 3.68,23.02 4.63,21.28 5.57,19.54 7.17,18.65 8.77,17.76 10.85,17.27 12.93,16.79 14.55,17.25 16.16,17.72 16.59,19.01 17.02,20.29 14.46,21.54 11.89,22.79 8.79,22.78 5.68,22.77 2.90,22.67 0.12,22.57 -1.49,22.14 -3.11,21.70 -3.38,19.56 -3.65,17.42 -2.32,15.89 -0.99,14.37 1.51,13.09 4.03,11.81 6.48,10.92 8.93,10.02 12.23,9.73 15.53,9.43 15.72,9.35 15.91,9.27 16.11,9.24 16.31,9.20 16.52,9.22 16.72,9.23 16.92,9.30 17.11,9.36 17.29,9.47 17.46,9.58 17.60,9.73 17.75,9.87 17.85,10.05 17.96,10.23 18.01,10.43 18.07,10.62 18.08,10.83 18.09,11.04 18.05,11.24 18.01,11.44 17.92,11.63 17.84,11.81 17.71,11.97 17.58,12.13 17.41,12.26 17.25,12.38 16.52,13.11 15.79,13.84 13.39,15.26 10.99,16.68 7.55,17.89 4.11,19.10 0.51,19.91 -3.08,20.72 -5.27,20.33 -7.45,19.95 -7.90,18.41 -8.35,16.87 -7.00,15.35 -5.66,13.84 -3.59,12.15 -1.51,10.46 1.41,8.49 4.35,6.52 8.11,5.43 11.87,4.34 12.07,4.26 12.27,4.19 12.48,4.16 12.69,4.13 12.90,4.15 13.12,4.18 13.32,4.25 13.52,4.33 13.69,4.45 13.87,4.57 14.01,4.72 14.16,4.88 14.26,5.07 14.36,5.26 14.41,5.47 14.47,5.67 14.47,5.89 14.47,6.10 14.42,6.31 14.37,6.52 14.27,6.71 14.17,6.90 14.03,7.06 13.89,7.22 13.72,7.34 13.54,7.47 12.96,8.08 12.37,8.69 10.28,9.85 8.20,11.01 4.91,12.24 1.62,13.46 -3.35,15.01 -8.33,16.56 -8.53,16.67 -8.74,16.77 -8.96,16.83 -9.18,16.88 -9.41,16.88 -9.63,16.88 -9.86,16.83 -10.08,16.77 -10.28,16.66 -10.48,16.56 -10.65,16.41 -10.82,16.26 -10.95,16.07 -11.08,15.88 -11.16,15.67 -11.24,15.45 -11.27,15.23 -11.29,15.00 -11.27,14.78 -11.24,14.55 -11.16,14.34 -11.08,14.12 -10.95,13.94 -10.82,13.75 -10.65,13.60 -10.47,13.45 -10.29,13.21 -10.11,12.98 -9.05,12.37 -7.98,11.75 -6.13,9.97 -4.29,8.19 -1.84,5.97 0.60,3.75 3.16,1.88 5.73,0.01 8.14,-0.32 10.55,-0.66 10.77,-0.79 10.99,-0.91 11.23,-0.98 11.47,-1.05 11.72,-1.06 11.96,-1.07 12.21,-1.02 12.45,-0.97 12.68,-0.86 12.90,-0.75 13.10,-0.60 13.29,-0.44 13.44,-0.24 13.59,-0.04 13.69,0.18 13.78,0.41 13.82,0.66 13.86,0.90 13.84,1.15 13.82,1.40 13.74,1.64 13.66,1.88 13.53,2.09 13.39,2.30 13.21,2.47 13.03,2.64 12.47,3.23 11.90,3.83 10.42,4.83 8.95,5.82 6.59,6.81 4.23,7.79 0.35,7.94 -3.52,8.09 -3.72,8.28 -3.91,8.46 -4.15,8.59 -4.39,8.72 -4.65,8.79 -4.91,8.86 -5.18,8.87 -5.45,8.87 -5.71,8.81 -5.97,8.75 -6.22,8.63 -6.46,8.51 -6.66,8.34 -6.87,8.16 -7.03,7.95 -7.18,7.73 -7.28,7.48 -7.39,7.23 -7.42,6.96 -7.46,6.69 -7.43,6.42 -7.41,6.16 -7.32,5.90 -7.23,5.65 -7.08,5.42 -6.93,5.20 -6.49,4.52 -6.05,3.83 -4.97,2.66 -3.89,1.49 -2.51,0.31 -1.14,-0.86 -0.21,-1.71 0.71,-2.56 1.60,-3.37 2.49,-4.19 2.67,-4.31 2.85,-4.44 3.06,-4.51 3.27,-4.59 3.49,-4.61 3.71,-4.64 3.93,-4.61 4.15,-4.58 4.35,-4.49 4.56,-4.41 4.74,-4.29 4.92,-4.16 5.07,-3.99 5.21,-3.82 5.31,-3.62 5.41,-3.43 5.46,-3.21 5.51,-3.00 5.51,-2.77 5.50,-2.55 5.45,-2.34 5.39,-2.12 5.29,-1.93 5.18,-1.74 5.03,-1.57 4.88,-1.41 4.74,-1.36 4.60,-1.31 3.58,-0.57 2.56,0.17 0.97,1.46 -0.62,2.74 -3.01,4.46 -5.41,6.18 -7.88,7.55 -10.35,8.92 -11.45,9.06 -12.56,9.19 -12.76,9.27 -12.96,9.35 -13.18,9.38 -13.39,9.41 -13.61,9.39 -13.82,9.37 -14.02,9.29 -14.23,9.22 -14.41,9.10 -14.59,8.98 -14.73,8.82 -14.88,8.66 -14.98,8.47 -15.08,8.28 -15.14,8.07 -15.19,7.86 -15.20,7.65 -15.20,7.43 -15.15,7.22 -15.10,7.01 -15.00,6.82 -14.91,6.62 -14.77,6.46 -14.62,6.30 -14.45,6.17 -14.27,6.05 -12.86,5.37 -11.44,4.70 -9.55,3.60 -7.66,2.50 -5.73,1.23 -3.79,-0.02 -2.39,-0.83 -0.98,-1.64 -0.77,-1.74 -0.56,-1.83 -0.33,-1.87 -0.10,-1.91 0.12,-1.90 0.35,-1.88 0.57,-1.81 0.79,-1.74 0.99,-1.62 1.18,-1.50 1.35,-1.34 1.51,-1.17 1.63,-0.98 1.75,-0.78 1.82,-0.56 1.89,-0.33 1.90,-0.10 1.91,0.12 1.87,0.35 1.83,0.57 1.73,0.78 1.64,0.99 1.49,1.18 1.35,1.36 1.17,1.50 0.98,1.64 0.98,1.64 L 0.98,1.64 Z"></path></g></svg>