<?xml version="1.0" standalone="no"?>
<!DOCTYPE svg PUBLIC "-//W3C//DTD SVG 1.1//EN" "http://www.w3.org/Graphics/SVG/1.1/DTD/svg11.dtd">
<svg version="1.1" xmlns="http://www.w3.org/2000/svg" viewBox="0 0 187.2837361487068 171.81238854724933" width="374.5674722974136" height="343.62477709449865"><!-- svg-source:excalidraw --><metadata></metadata><defs><style class="style-fonts">
      </style></defs><g transform="translate(36.107832220651744 37.07481219440734) rotate(0 -4.834789209233804 2.900866148237526)" stroke="none"><path fill="#1e1e1e" d="M -1.13,1.41 Q -1.13,1.41 -2.53,0.31 -3.92,-0.78 -5.63,-2.47 -7.33,-4.15 -9.33,-5.63 -11.33,-7.11 -13.57,-8.59 -15.81,-10.08 -17.60,-11.29 -19.40,-12.49 -19.01,-10.62 -18.62,-8.75 -15.42,-3.21 -12.23,2.33 -8.17,6.87 -4.11,11.41 0.23,13.82 4.59,16.23 7.43,17.06 10.28,17.89 11.58,16.48 12.87,15.07 13.17,12.24 13.46,9.41 12.30,6.13 11.14,2.85 8.53,-0.12 5.93,-3.10 2.12,-5.73 -1.67,-8.36 -5.92,-9.44 -10.17,-10.52 -13.80,-10.45 -17.43,-10.38 -19.47,-9.27 -21.51,-8.16 -21.67,-6.18 -21.82,-4.20 -17.89,-1.49 -13.96,1.22 -9.62,2.70 -5.28,4.17 -1.95,4.56 1.37,4.95 3.00,3.74 4.63,2.54 4.54,0.06 4.45,-2.41 2.36,-5.24 0.26,-8.08 -2.43,-9.81 -5.13,-11.55 -6.93,-12.10 -8.74,-12.65 -9.64,-11.35 -10.54,-10.04 -10.69,-8.15 -10.84,-6.26 -9.63,-4.23 -8.43,-2.20 -6.89,-0.51 -5.36,1.18 -5.42,-0.01 -5.47,-1.20 -6.87,-2.63 -8.26,-4.05 -9.43,-3.54 -10.60,-3.02 -10.11,-0.78 -9.62,1.46 -8.19,4.04 -6.75,6.63 -4.86,8.51 -2.96,10.40 -1.62,11.10 -0.28,11.81 0.52,10.18 1.33,8.56 1.31,6.52 1.29,4.49 0.74,3.26 0.20,2.02 -0.93,1.13 -2.07,0.24 -3.54,-0.41 -5.02,-1.07 -6.36,-1.30 -7.70,-1.53 -5.57,-2.09 -3.44,-2.66 -3.13,-2.55 -2.82,-2.44 -2.57,-2.24 -2.31,-2.04 -2.13,-1.77 -1.95,-1.49 -1.87,-1.18 -1.78,-0.86 -1.80,-0.54 -1.83,-0.21 -1.95,0.08 -2.08,0.38 -2.29,0.63 -2.51,0.88 -2.79,1.04 -3.07,1.21 -3.39,1.27 -3.71,1.34 -4.04,1.30 -4.36,1.26 -4.66,1.12 -4.95,0.98 -5.18,0.75 -5.42,0.52 -5.57,0.23 -5.72,-0.05 -5.77,-0.37 -5.81,-0.70 -5.76,-1.02 -5.70,-1.34 -5.54,-1.63 -5.39,-1.91 -5.14,-2.14 -4.90,-2.36 -4.61,-2.49 -4.31,-2.62 -3.98,-2.66 -3.66,-2.69 -3.34,-2.61 -3.02,-2.54 -2.74,-2.36 -2.46,-2.19 -2.26,-1.94 -2.05,-1.69 -1.93,-1.38 -1.81,-1.08 -1.80,-0.75 -1.79,-0.42 -1.88,-0.11 -1.97,0.19 -2.16,0.46 -2.35,0.73 -2.61,0.92 -2.87,1.12 -3.18,1.22 -3.49,1.32 -3.82,1.31 -4.15,1.31 -4.15,1.31 -4.15,1.31 -7.18,0.61 -10.21,-0.08 -10.65,-1.40 -11.09,-2.72 -10.22,-3.83 -9.35,-4.95 -8.19,-5.07 -7.04,-5.20 -5.28,-4.76 -3.52,-4.31 -1.61,-3.38 0.28,-2.45 1.85,-0.91 3.43,0.62 4.03,2.49 4.64,4.36 4.71,7.01 4.78,9.66 3.87,11.60 2.96,13.53 1.02,14.08 -0.90,14.63 -2.98,13.60 -5.05,12.58 -7.28,10.39 -9.50,8.20 -11.22,5.13 -12.94,2.06 -13.33,-1.15 -13.72,-4.37 -12.34,-5.86 -10.97,-7.35 -8.58,-6.83 -6.19,-6.31 -4.29,-4.29 -2.40,-2.27 -1.81,0.11 -1.23,2.50 -2.50,3.52 -3.78,4.53 -5.52,3.79 -7.26,3.05 -9.04,1.07 -10.81,-0.89 -12.17,-3.59 -13.52,-6.28 -13.14,-8.95 -12.77,-11.62 -11.13,-13.20 -9.49,-14.78 -6.61,-14.27 -3.74,-13.77 -0.68,-11.70 2.37,-9.63 4.68,-6.14 6.99,-2.66 6.80,0.58 6.61,3.83 4.08,5.64 1.56,7.44 -2.28,7.05 -6.12,6.66 -10.81,5.01 -15.50,3.35 -19.72,0.01 -23.95,-3.32 -23.68,-6.44 -23.40,-9.56 -20.51,-11.27 -17.63,-12.99 -13.57,-13.04 -9.52,-13.10 -4.86,-11.84 -0.20,-10.58 3.87,-7.73 7.95,-4.87 10.82,-1.47 13.68,1.92 14.92,5.79 16.17,9.66 15.58,13.20 14.99,16.74 12.90,18.55 10.81,20.35 7.00,19.59 3.18,18.82 -1.58,16.16 -6.35,13.50 -10.69,8.74 -15.02,3.97 -18.49,-1.91 -21.96,-7.79 -22.63,-10.61 -23.31,-13.42 -22.74,-14.45 -22.18,-15.48 -19.99,-15.21 -17.80,-14.94 -15.98,-13.78 -14.16,-12.63 -11.82,-11.16 -9.48,-9.70 -7.25,-8.17 -5.03,-6.63 -3.33,-5.14 -1.63,-3.65 -0.24,-2.53 1.13,-1.41 1.28,-1.26 1.43,-1.10 1.55,-0.91 1.66,-0.72 1.72,-0.51 1.78,-0.30 1.79,-0.09 1.80,0.12 1.76,0.34 1.72,0.55 1.63,0.75 1.54,0.95 1.40,1.12 1.26,1.29 1.09,1.42 0.92,1.56 0.72,1.64 0.52,1.73 0.30,1.77 0.09,1.81 -0.12,1.79 -0.34,1.78 -0.55,1.71 -0.76,1.64 -0.94,1.53 -1.13,1.41 -1.13,1.41 L -1.13,1.41 Z"></path></g><g transform="translate(49.64518298808389 29.339156836935842) rotate(0 12.086973023084965 66.23661585515674)" stroke="none"><path fill="#1e1e1e" d="M 1.64,-0.23 Q 1.64,-0.23 2.43,5.60 3.22,11.45 5.19,19.99 7.17,28.52 9.67,38.85 12.17,49.17 15.18,62.75 18.18,76.34 19.74,86.32 21.29,96.30 22.23,102.18 23.16,108.07 23.83,114.23 24.51,120.38 24.79,123.54 25.08,126.71 25.24,128.33 25.41,129.95 25.46,130.17 25.50,130.38 25.48,130.60 25.45,130.82 25.36,131.02 25.27,131.22 25.11,131.38 24.96,131.54 24.76,131.65 24.57,131.75 24.35,131.79 24.13,131.82 23.91,131.78 23.69,131.75 23.50,131.64 23.30,131.54 23.15,131.38 23.00,131.22 22.91,131.01 22.82,130.81 22.79,130.59 22.77,130.37 22.82,130.16 22.87,129.94 22.98,129.75 23.10,129.56 23.27,129.42 23.44,129.28 23.64,129.19 23.85,129.11 24.07,129.10 24.29,129.09 24.50,129.15 24.72,129.21 24.90,129.34 25.08,129.46 25.22,129.64 25.35,129.81 25.42,130.03 25.49,130.24 25.49,130.46 25.49,130.68 25.41,130.89 25.34,131.10 25.21,131.27 25.07,131.45 24.89,131.57 24.71,131.70 24.49,131.75 24.28,131.81 24.06,131.80 23.84,131.79 23.63,131.70 23.43,131.62 23.26,131.48 23.09,131.33 22.98,131.14 22.86,130.95 22.86,130.95 22.86,130.95 22.64,128.96 22.41,126.96 22.12,123.82 21.82,120.67 21.14,114.59 20.46,108.51 19.51,102.62 18.56,96.72 16.99,86.84 15.43,76.95 12.39,63.40 9.36,49.86 6.80,39.53 4.25,29.21 2.18,20.55 0.11,11.89 -0.76,6.06 -1.64,0.23 -1.65,0.03 -1.65,-0.16 -1.61,-0.36 -1.56,-0.55 -1.47,-0.73 -1.38,-0.91 -1.25,-1.06 -1.12,-1.22 -0.96,-1.33 -0.80,-1.45 -0.61,-1.53 -0.43,-1.60 -0.23,-1.63 -0.03,-1.66 0.16,-1.64 0.36,-1.62 0.55,-1.55 0.74,-1.48 0.90,-1.37 1.07,-1.26 1.21,-1.12 1.34,-0.97 1.44,-0.79 1.54,-0.62 1.59,-0.42 1.64,-0.23 1.64,-0.23 L 1.64,-0.23 Z"></path></g><g transform="translate(164.71325469548674 19.66957841846795) rotate(0 -19.82266526707076 1.450433074118763)" stroke="none"><path fill="#1e1e1e" d="M -0.38,1.72 Q -0.38,1.72 -2.87,1.10 -5.35,0.49 -8.25,0.22 -11.14,-0.03 -14.33,-0.16 -17.51,-0.29 -20.82,-0.36 -24.12,-0.43 -26.91,-0.46 -29.71,-0.50 -30.71,-0.92 -31.70,-1.34 -29.16,-0.39 -26.61,0.56 -23.70,1.06 -20.79,1.56 -17.89,1.80 -14.99,2.05 -12.86,1.36 -10.74,0.68 -9.70,-0.14 -8.66,-0.97 -9.52,-1.94 -10.37,-2.91 -13.13,-3.21 -15.89,-3.51 -19.38,-3.70 -22.86,-3.90 -25.74,-4.00 -28.62,-4.11 -30.09,-4.26 -31.56,-4.41 -30.53,-1.69 -29.49,1.02 -26.92,3.35 -24.34,5.69 -21.14,7.23 -17.93,8.78 -14.74,9.44 -11.55,10.11 -9.64,9.65 -7.74,9.19 -6.82,7.82 -5.91,6.45 -5.75,4.79 -5.58,3.14 -7.02,1.24 -8.47,-0.65 -11.99,-2.83 -15.50,-5.02 -19.92,-5.94 -24.34,-6.86 -28.29,-6.47 -32.24,-6.07 -33.87,-5.46 -35.50,-4.86 -33.62,-2.05 -31.74,0.74 -27.54,2.89 -23.34,5.03 -18.03,5.96 -12.72,6.89 -8.77,7.31 -4.82,7.73 -2.83,7.33 -0.84,6.93 -0.68,6.96 -0.52,7.00 -0.37,7.07 -0.23,7.15 -0.10,7.26 0.01,7.36 0.11,7.50 0.21,7.63 0.27,7.79 0.33,7.94 0.35,8.10 0.37,8.27 0.35,8.43 0.34,8.59 0.28,8.75 0.22,8.90 0.13,9.04 0.04,9.18 -0.07,9.29 -0.19,9.40 -0.34,9.48 -0.48,9.56 -0.64,9.60 -0.80,9.64 -0.97,9.65 -1.13,9.65 -2.25,8.08 -3.37,6.51 -5.55,5.40 -7.72,4.30 -11.39,3.19 -15.06,2.09 -19.73,0.76 -24.39,-0.56 -28.55,-1.40 -32.71,-2.24 -35.19,-2.62 -37.68,-3.00 -38.91,-2.18 -40.14,-1.35 -40.33,-1.40 -40.51,-1.45 -40.68,-1.54 -40.85,-1.64 -40.99,-1.77 -41.14,-1.90 -41.24,-2.06 -41.35,-2.22 -41.42,-2.40 -41.48,-2.58 -41.50,-2.77 -41.52,-2.96 -41.50,-3.15 -41.47,-3.34 -41.40,-3.52 -41.33,-3.70 -41.22,-3.86 -41.11,-4.01 -40.96,-4.14 -40.81,-4.27 -40.64,-4.35 -40.47,-4.44 -40.28,-4.48 -40.10,-4.53 -39.90,-4.52 -39.71,-4.52 -37.37,-2.57 -35.02,-0.62 -31.54,0.82 -28.07,2.27 -24.98,2.90 -21.89,3.52 -20.02,3.76 -18.16,3.99 -17.58,3.74 -17.00,3.48 -16.81,3.53 -16.63,3.58 -16.46,3.67 -16.29,3.77 -16.15,3.90 -16.01,4.03 -15.90,4.19 -15.79,4.35 -15.73,4.54 -15.67,4.72 -15.65,4.91 -15.63,5.10 -15.66,5.29 -15.68,5.49 -15.76,5.66 -15.83,5.84 -15.94,6.00 -16.06,6.16 -16.20,6.28 -16.35,6.41 -16.52,6.49 -16.70,6.58 -16.89,6.62 -17.07,6.66 -17.27,6.66 -17.46,6.65 -19.19,5.62 -20.93,4.58 -23.33,3.68 -25.73,2.78 -27.55,2.43 -29.37,2.07 -30.91,1.92 -32.44,1.76 -32.70,1.68 -32.96,1.59 -33.18,1.43 -33.39,1.27 -33.55,1.04 -33.70,0.82 -33.78,0.56 -33.85,0.30 -33.84,0.03 -33.83,-0.24 -33.73,-0.49 -33.63,-0.74 -33.46,-0.95 -33.28,-1.16 -33.05,-1.30 -32.82,-1.44 -32.55,-1.51 -32.29,-1.57 -32.02,-1.54 -31.75,-1.51 -31.50,-1.40 -31.25,-1.29 -31.05,-1.10 -30.85,-0.92 -30.73,-0.68 -30.60,-0.44 -30.55,-0.17 -30.50,0.09 -30.54,0.36 -30.59,0.62 -30.71,0.87 -30.84,1.11 -31.03,1.30 -31.23,1.48 -31.47,1.60 -31.72,1.72 -31.99,1.75 -32.26,1.78 -32.53,1.72 -32.79,1.67 -33.03,1.53 -33.26,1.39 -33.44,1.19 -33.62,0.98 -33.72,0.73 -33.82,0.48 -33.84,0.21 -33.86,-0.06 -33.79,-0.32 -33.72,-0.58 -33.56,-0.81 -33.41,-1.03 -33.20,-1.20 -32.98,-1.37 -32.73,-1.46 -32.47,-1.54 -32.20,-1.55 -31.93,-1.55 -31.93,-1.55 -31.93,-1.55 -30.34,-1.22 -28.76,-0.89 -26.73,-0.45 -24.71,-0.00 -22.00,0.96 -19.29,1.94 -18.14,2.71 -17.00,3.48 -16.81,3.53 -16.63,3.58 -16.46,3.67 -16.29,3.77 -16.15,3.90 -16.01,4.03 -15.90,4.19 -15.79,4.35 -15.73,4.54 -15.67,4.72 -15.65,4.91 -15.63,5.10 -15.66,5.29 -15.68,5.49 -15.76,5.66 -15.83,5.84 -15.94,6.00 -16.06,6.16 -16.20,6.28 -16.35,6.40 -16.52,6.49 -16.70,6.58 -16.89,6.62 -17.07,6.66 -17.27,6.66 -17.46,6.65 -17.96,6.71 -18.46,6.77 -20.44,6.45 -22.42,6.13 -25.76,5.44 -29.10,4.74 -32.91,3.10 -36.72,1.46 -38.43,0.05 -40.14,-1.35 -40.33,-1.40 -40.51,-1.45 -40.68,-1.54 -40.85,-1.64 -40.99,-1.77 -41.14,-1.90 -41.24,-2.06 -41.35,-2.22 -41.42,-2.40 -41.48,-2.58 -41.50,-2.77 -41.52,-2.96 -41.50,-3.15 -41.47,-3.34 -41.40,-3.52 -41.33,-3.70 -41.22,-3.86 -41.11,-4.01 -40.96,-4.14 -40.81,-4.27 -40.64,-4.35 -40.47,-4.44 -40.28,-4.48 -40.10,-4.53 -39.90,-4.52 -39.71,-4.52 -38.71,-5.07 -37.71,-5.61 -34.94,-5.28 -32.17,-4.94 -27.90,-4.11 -23.63,-3.27 -18.94,-1.96 -14.24,-0.66 -10.26,0.51 -6.28,1.69 -3.56,4.31 -0.84,6.93 -0.68,6.96 -0.52,7.00 -0.37,7.07 -0.23,7.15 -0.10,7.26 0.01,7.36 0.11,7.50 0.21,7.63 0.27,7.79 0.33,7.94 0.35,8.10 0.37,8.27 0.35,8.43 0.34,8.59 0.28,8.75 0.23,8.90 0.13,9.04 0.04,9.18 -0.07,9.29 -0.19,9.40 -0.34,9.48 -0.48,9.56 -0.64,9.60 -0.80,9.64 -0.97,9.65 -1.13,9.65 -3.10,10.00 -5.07,10.35 -9.13,9.92 -13.19,9.49 -18.86,8.44 -24.54,7.38 -29.19,4.85 -33.83,2.31 -35.76,-0.65 -37.69,-3.63 -35.19,-6.14 -32.70,-8.66 -28.26,-9.09 -23.81,-9.51 -18.95,-8.43 -14.10,-7.35 -10.17,-4.82 -6.25,-2.29 -4.57,0.35 -2.89,2.99 -3.23,5.50 -3.56,8.00 -5.14,9.86 -6.72,11.73 -9.37,12.35 -12.02,12.97 -15.62,12.25 -19.22,11.53 -22.84,9.80 -26.46,8.08 -29.48,5.35 -32.49,2.61 -33.88,-0.51 -35.27,-3.64 -34.02,-5.38 -32.77,-7.12 -30.66,-7.22 -28.56,-7.33 -25.65,-7.33 -22.74,-7.33 -19.14,-7.28 -15.54,-7.23 -12.10,-6.95 -8.66,-6.66 -6.97,-5.54 -5.28,-4.42 -5.13,-2.59 -4.99,-0.76 -5.87,0.42 -6.75,1.62 -8.29,2.53 -9.84,3.44 -12.48,4.24 -15.12,5.05 -18.21,4.86 -21.29,4.68 -24.61,4.17 -27.92,3.66 -30.88,2.24 -33.84,0.82 -33.98,-0.66 -34.12,-2.16 -31.90,-2.73 -29.69,-3.31 -26.89,-3.31 -24.08,-3.31 -20.75,-3.29 -17.42,-3.27 -14.16,-3.20 -10.90,-3.13 -7.77,-2.92 -4.64,-2.71 -2.13,-2.21 0.38,-1.72 0.58,-1.65 0.78,-1.58 0.96,-1.46 1.13,-1.34 1.28,-1.19 1.42,-1.03 1.53,-0.84 1.63,-0.66 1.69,-0.45 1.74,-0.25 1.75,-0.04 1.75,0.17 1.71,0.38 1.66,0.58 1.56,0.77 1.47,0.96 1.33,1.13 1.20,1.29 1.02,1.41 0.85,1.54 0.65,1.62 0.46,1.70 0.25,1.73 0.04,1.76 -0.17,1.74 -0.38,1.72 -0.38,1.72 L -0.38,1.72 Z"></path></g><g transform="translate(159.87846548625294 12.900866148237526) rotate(0 2.417394604616902 71.55489505126843)" stroke="none"><path fill="#1e1e1e" d="M 1.68,-0.28 Q 1.68,-0.28 2.18,3.06 2.69,6.40 3.44,12.58 4.20,18.76 4.79,28.09 5.38,37.42 5.63,53.92 5.87,70.41 5.96,84.64 6.06,98.86 6.10,109.36 6.13,119.85 6.14,126.26 6.16,132.67 6.16,135.67 6.16,138.67 5.82,139.08 5.47,139.49 5.45,139.66 5.43,139.83 5.37,140.00 5.31,140.16 5.21,140.30 5.11,140.44 4.98,140.56 4.86,140.67 4.70,140.76 4.55,140.84 4.38,140.88 4.21,140.92 4.04,140.92 3.87,140.92 3.70,140.88 3.53,140.84 3.38,140.76 3.22,140.68 3.09,140.56 2.96,140.45 2.87,140.31 2.77,140.17 2.70,140.00 2.64,139.84 2.62,139.67 2.60,139.50 2.63,139.69 2.65,139.87 2.63,139.64 2.60,139.41 2.65,139.19 2.70,138.96 2.82,138.76 2.94,138.56 3.12,138.41 3.30,138.26 3.52,138.18 3.73,138.09 3.96,138.08 4.20,138.07 4.42,138.13 4.64,138.19 4.84,138.32 5.03,138.45 5.17,138.64 5.31,138.83 5.38,139.05 5.45,139.27 5.45,139.50 5.45,139.73 5.38,139.95 5.30,140.17 5.16,140.36 5.02,140.54 4.83,140.67 4.64,140.80 4.41,140.86 4.19,140.92 3.96,140.91 3.72,140.90 3.51,140.81 3.29,140.72 3.12,140.57 2.94,140.42 2.82,140.22 2.70,140.02 2.65,139.80 2.60,139.57 2.63,139.34 2.65,139.11 2.75,138.90 2.85,138.69 3.01,138.52 3.17,138.35 3.38,138.24 3.58,138.13 3.81,138.10 4.04,138.06 4.27,138.10 4.50,138.14 4.70,138.24 4.91,138.35 5.07,138.52 5.23,138.69 5.35,139.09 5.47,139.49 5.45,139.66 5.43,139.83 5.37,140.00 5.31,140.16 5.21,140.30 5.11,140.44 4.98,140.56 4.86,140.67 4.70,140.76 4.55,140.84 4.38,140.88 4.21,140.92 4.04,140.92 3.87,140.92 3.70,140.88 3.53,140.84 3.38,140.76 3.22,140.68 3.09,140.56 2.96,140.45 2.87,140.31 2.77,140.17 2.70,140.00 2.64,139.84 2.62,139.67 2.60,139.50 3.04,139.09 3.47,138.67 3.46,135.67 3.44,132.67 3.42,126.27 3.39,119.87 3.33,109.38 3.27,98.89 3.15,84.67 3.02,70.45 2.74,54.04 2.46,37.62 1.82,28.38 1.18,19.15 0.35,13.04 -0.46,6.93 -1.07,3.60 -1.68,0.28 -1.69,0.07 -1.70,-0.13 -1.66,-0.33 -1.62,-0.53 -1.53,-0.72 -1.44,-0.90 -1.31,-1.06 -1.18,-1.22 -1.02,-1.35 -0.86,-1.47 -0.67,-1.55 -0.48,-1.64 -0.27,-1.67 -0.07,-1.70 0.12,-1.69 0.33,-1.67 0.53,-1.61 0.72,-1.54 0.90,-1.43 1.07,-1.32 1.21,-1.18 1.36,-1.03 1.46,-0.85 1.56,-0.67 1.62,-0.47 1.68,-0.28 1.68,-0.28 L 1.68,-0.28 Z"></path></g><g transform="translate(39.97560456961628 39.975752115673515) rotate(0 0.48350843013486156 -0.9670168602697231)" stroke="none"><path fill="#1e1e1e" d="M -1.51,0.75 Q -1.51,0.75 -2.57,-1.47 -3.62,-3.71 -5.29,-5.29 -6.95,-6.88 -8.44,-7.51 -9.93,-8.13 -10.58,-6.36 -11.23,-4.58 -9.86,-1.98 -8.49,0.61 -6.65,2.55 -4.82,4.48 -3.07,5.26 -1.31,6.04 0.03,5.10 1.39,4.17 2.48,2.05 3.57,-0.06 4.08,-2.28 4.58,-4.50 4.90,-5.96 5.22,-7.41 2.96,-7.21 0.70,-7.00 -0.68,-5.39 -2.08,-3.78 -2.52,-2.27 -2.97,-0.75 -1.08,0.67 0.79,2.09 3.65,3.01 6.51,3.92 8.83,4.35 11.15,4.77 12.15,4.47 13.15,4.18 13.35,4.18 13.55,4.19 13.75,4.24 13.94,4.30 14.12,4.40 14.30,4.50 14.45,4.64 14.59,4.78 14.70,4.95 14.81,5.12 14.88,5.31 14.95,5.50 14.96,5.71 14.98,5.91 14.95,6.11 14.92,6.31 14.84,6.50 14.76,6.68 14.64,6.85 14.52,7.01 14.37,7.14 14.21,7.27 14.03,7.36 13.84,7.45 13.65,7.49 13.45,7.53 12.95,8.30 12.46,9.07 12.27,9.29 12.09,9.51 11.85,9.66 11.61,9.81 11.33,9.87 11.05,9.94 10.77,9.91 10.48,9.88 10.22,9.76 9.96,9.65 9.76,9.45 9.55,9.26 9.41,9.01 9.27,8.76 9.22,8.48 9.18,8.20 9.22,7.92 9.26,7.63 9.39,7.38 9.52,7.13 9.73,6.93 9.93,6.73 10.19,6.61 10.45,6.49 10.73,6.45 11.01,6.42 11.29,6.48 11.57,6.54 11.82,6.68 12.06,6.82 12.25,7.04 12.44,7.25 12.54,7.52 12.65,7.78 12.67,8.07 12.69,8.35 12.62,8.63 12.54,8.90 12.39,9.14 12.23,9.38 12.00,9.55 11.78,9.72 11.51,9.82 11.24,9.91 10.95,9.92 10.67,9.92 10.40,9.83 10.13,9.74 9.90,9.57 9.67,9.40 9.51,9.17 9.35,8.93 9.27,8.66 9.19,8.39 9.20,8.10 9.21,7.82 9.32,7.55 9.42,7.29 9.42,7.29 9.42,7.29 11.28,5.73 13.15,4.18 13.35,4.18 13.55,4.19 13.75,4.24 13.94,4.30 14.12,4.40 14.30,4.50 14.44,4.64 14.59,4.78 14.70,4.95 14.81,5.12 14.88,5.31 14.95,5.50 14.96,5.71 14.98,5.91 14.95,6.11 14.92,6.31 14.84,6.50 14.76,6.68 14.64,6.85 14.52,7.01 14.37,7.14 14.21,7.27 14.03,7.36 13.84,7.45 13.65,7.49 13.45,7.53 13.29,7.54 13.12,7.55 11.91,7.51 10.69,7.47 8.16,7.02 5.63,6.56 2.31,5.42 -0.99,4.28 -3.17,2.18 -5.35,0.08 -4.88,-2.77 -4.42,-5.63 -2.36,-7.79 -0.30,-9.94 2.29,-10.43 4.90,-10.92 6.25,-9.65 7.61,-8.37 7.45,-6.12 7.29,-3.87 6.68,-1.29 6.06,1.28 4.52,3.91 2.98,6.54 0.76,7.61 -1.45,8.69 -4.19,7.67 -6.93,6.64 -9.13,4.34 -11.33,2.04 -12.90,-1.40 -14.47,-4.86 -13.74,-7.24 -13.01,-9.62 -11.29,-10.26 -9.58,-10.89 -7.25,-10.01 -4.93,-9.12 -2.87,-7.15 -0.82,-5.18 0.34,-2.97 1.51,-0.75 1.58,-0.56 1.65,-0.37 1.67,-0.16 1.69,0.03 1.66,0.23 1.63,0.43 1.55,0.62 1.48,0.81 1.36,0.98 1.24,1.14 1.08,1.28 0.93,1.41 0.75,1.50 0.56,1.59 0.37,1.63 0.17,1.68 -0.03,1.68 -0.23,1.67 -0.43,1.62 -0.63,1.57 -0.81,1.47 -0.98,1.37 -1.13,1.23 -1.28,1.09 -1.40,0.92 -1.51,0.75 -1.51,0.75 L -1.51,0.75 Z"></path></g><g transform="translate(64.14955061578576 153.1097532160225) rotate(0 46.897514347992455 -3.384337691858036)" stroke="none"><path fill="#1e1e1e" d="M 0,-1.79 Q 0,-1.79 2.22,-1.73 4.44,-1.66 9.56,-1.61 14.67,-1.57 23.24,-1.53 31.81,-1.50 42.10,-1.75 52.40,-2.00 61.75,-2.65 71.11,-3.31 77.28,-4.13 83.45,-4.96 86.99,-6.14 90.52,-7.32 90.67,-7.50 90.81,-7.68 91.01,-7.81 91.20,-7.94 91.43,-7.99 91.65,-8.05 91.89,-8.03 92.12,-8.01 92.33,-7.92 92.54,-7.83 92.72,-7.67 92.89,-7.52 93.01,-7.32 93.12,-7.12 93.17,-6.89 93.21,-6.66 93.18,-6.43 93.15,-6.20 93.05,-5.99 92.94,-5.78 92.78,-5.62 92.61,-5.45 92.41,-5.35 92.20,-5.25 91.97,-5.21 91.74,-5.18 91.51,-5.22 91.28,-5.27 91.08,-5.38 90.88,-5.50 90.72,-5.67 90.57,-5.84 90.47,-6.05 90.38,-6.27 90.36,-6.50 90.34,-6.73 90.40,-6.96 90.45,-7.18 90.58,-7.38 90.70,-7.57 90.88,-7.72 91.06,-7.87 91.28,-7.95 91.50,-8.03 91.73,-8.03 91.96,-8.04 92.19,-7.97 92.41,-7.91 92.60,-7.77 92.79,-7.64 92.92,-7.45 93.06,-7.26 93.13,-7.04 93.20,-6.81 93.19,-6.58 93.18,-6.35 93.11,-6.13 93.03,-5.91 93.03,-5.91 93.03,-5.91 88.42,-4.06 83.82,-2.21 77.57,-1.35 71.31,-0.49 61.89,0.19 52.48,0.89 42.14,1.19 31.81,1.50 23.24,1.53 14.67,1.57 9.56,1.61 4.44,1.66 2.22,1.73 0,1.79 -0.21,1.77 -0.43,1.74 -0.63,1.66 -0.83,1.59 -1.01,1.46 -1.19,1.34 -1.33,1.18 -1.47,1.02 -1.57,0.82 -1.68,0.63 -1.73,0.42 -1.78,0.21 -1.78,-0.00 -1.78,-0.21 -1.73,-0.42 -1.68,-0.63 -1.57,-0.82 -1.47,-1.02 -1.33,-1.18 -1.19,-1.34 -1.01,-1.46 -0.83,-1.59 -0.63,-1.66 -0.42,-1.74 -0.21,-1.77 0.00,-1.79 0.00,-1.79 L 0,-1.79 Z"></path></g><g transform="translate(74.78614589452354 130.86973023084914) rotate(0 36.74435372636094 6.285222283352709)" stroke="none"><path fill="#1e1e1e" d="M 1.57,0.78 Q 1.57,0.78 0.95,0.10 0.33,-0.58 1.87,0.18 3.41,0.96 6.04,1.57 8.67,2.19 14.86,3.34 21.05,4.49 28.11,5.55 35.18,6.61 43.15,7.35 51.12,8.09 57.28,8.42 63.44,8.74 67.17,8.89 70.90,9.04 72.70,9.34 74.50,9.65 74.85,9.94 75.19,10.23 75.39,10.30 75.59,10.36 75.77,10.48 75.95,10.59 76.09,10.74 76.24,10.90 76.34,11.08 76.45,11.27 76.51,11.47 76.56,11.67 76.57,11.88 76.58,12.10 76.53,12.30 76.49,12.51 76.40,12.70 76.31,12.89 76.17,13.05 76.04,13.22 75.87,13.34 75.70,13.47 75.50,13.55 75.31,13.63 75.10,13.67 74.89,13.70 74.68,13.68 74.47,13.66 72.66,13.75 70.85,13.83 66.59,13.88 62.33,13.93 60.54,14.01 58.75,14.09 58.50,14.05 58.25,14.02 58.02,13.90 57.79,13.79 57.62,13.61 57.44,13.42 57.33,13.20 57.21,12.97 57.18,12.71 57.15,12.46 57.20,12.21 57.25,11.96 57.38,11.74 57.51,11.52 57.70,11.35 57.89,11.18 58.12,11.09 58.36,10.99 58.61,10.97 58.87,10.95 59.11,11.01 59.36,11.08 59.57,11.22 59.78,11.36 59.94,11.56 60.10,11.76 60.19,12.00 60.27,12.24 60.28,12.49 60.28,12.74 60.20,12.99 60.13,13.23 59.98,13.44 59.83,13.64 59.62,13.79 59.41,13.93 59.17,14.01 58.92,14.08 58.67,14.07 58.41,14.06 58.17,13.97 57.94,13.88 57.74,13.72 57.54,13.56 57.41,13.34 57.27,13.13 57.21,12.88 57.15,12.63 57.18,12.38 57.20,12.12 57.30,11.89 57.41,11.66 57.58,11.47 57.75,11.28 57.97,11.16 58.19,11.04 58.44,10.99 58.70,10.94 58.70,10.94 58.69,10.94 60.48,10.96 62.27,10.98 66.43,10.88 70.59,10.77 72.89,10.50 75.19,10.23 75.39,10.30 75.59,10.36 75.77,10.48 75.95,10.59 76.09,10.74 76.24,10.90 76.34,11.08 76.45,11.27 76.51,11.47 76.56,11.67 76.57,11.88 76.58,12.10 76.53,12.30 76.49,12.51 76.40,12.70 76.31,12.89 76.17,13.05 76.04,13.22 75.87,13.34 75.70,13.47 75.50,13.55 75.31,13.63 75.10,13.67 74.89,13.70 74.68,13.68 74.47,13.66 74.02,13.11 73.57,12.57 72.18,12.21 70.80,11.85 67.05,11.74 63.30,11.63 57.08,11.34 50.86,11.06 42.80,10.38 34.73,9.70 27.60,8.72 20.48,7.74 14.21,6.70 7.93,5.66 4.80,5.04 1.67,4.43 0.11,3.62 -1.44,2.80 -1.50,1.01 -1.57,-0.78 -1.45,-0.96 -1.34,-1.14 -1.18,-1.28 -1.02,-1.42 -0.84,-1.53 -0.65,-1.63 -0.45,-1.68 -0.24,-1.74 -0.03,-1.74 0.17,-1.75 0.38,-1.70 0.59,-1.65 0.78,-1.56 0.97,-1.46 1.13,-1.33 1.29,-1.19 1.41,-1.02 1.54,-0.84 1.62,-0.65 1.70,-0.45 1.73,-0.24 1.76,-0.03 1.73,0.17 1.71,0.38 1.64,0.58 1.57,0.78 1.57,0.78 L 1.57,0.78 Z"></path></g><g transform="translate(65.11656747605548 146.34107783230644) rotate(0 52.21573821433276 -2.417394604617016)" stroke="none"><path fill="#1e1e1e" d="M -0.10,-1.74 Q -0.10,-1.74 4.34,-1.96 8.79,-2.18 13.49,-2.26 18.19,-2.33 30.74,-2.63 43.29,-2.93 55.03,-3.04 66.77,-3.16 75.90,-3.48 85.04,-3.80 90.29,-4.21 95.54,-4.61 97.85,-5.02 100.17,-5.42 100.33,-5.59 100.49,-5.76 100.70,-5.88 100.90,-5.99 101.14,-6.03 101.37,-6.07 101.60,-6.03 101.84,-5.99 102.04,-5.88 102.25,-5.77 102.42,-5.60 102.58,-5.43 102.68,-5.22 102.78,-5.00 102.81,-4.77 102.83,-4.53 102.78,-4.30 102.73,-4.07 102.61,-3.87 102.49,-3.67 102.31,-3.51 102.13,-3.36 101.91,-3.27 101.70,-3.18 101.46,-3.17 101.22,-3.16 101.00,-3.22 100.77,-3.28 100.57,-3.41 100.38,-3.54 100.23,-3.73 100.09,-3.92 100.01,-4.14 99.94,-4.37 99.94,-4.60 99.94,-4.84 100.01,-5.06 100.09,-5.29 100.23,-5.47 100.37,-5.66 100.56,-5.79 100.76,-5.93 100.99,-5.99 101.21,-6.06 101.45,-6.04 101.68,-6.03 101.90,-5.95 102.12,-5.86 102.30,-5.71 102.48,-5.56 102.61,-5.35 102.73,-5.15 102.78,-4.92 102.83,-4.69 102.81,-4.46 102.78,-4.22 102.68,-4.01 102.59,-3.79 102.59,-3.79 102.59,-3.79 99.17,-2.83 95.76,-1.87 90.45,-1.43 85.14,-1.00 75.97,-0.64 66.80,-0.29 55.08,-0.12 43.37,0.03 30.82,0.39 18.27,0.75 13.63,0.91 8.99,1.07 4.55,1.41 0.10,1.74 -0.10,1.73 -0.31,1.72 -0.51,1.66 -0.71,1.60 -0.89,1.49 -1.07,1.38 -1.22,1.23 -1.37,1.08 -1.48,0.90 -1.59,0.72 -1.66,0.52 -1.72,0.31 -1.73,0.10 -1.75,-0.10 -1.71,-0.31 -1.67,-0.51 -1.58,-0.71 -1.50,-0.90 -1.37,-1.07 -1.24,-1.23 -1.07,-1.36 -0.90,-1.49 -0.71,-1.58 -0.52,-1.67 -0.31,-1.71 -0.10,-1.74 -0.10,-1.74 L -0.10,-1.74 Z"></path></g><g transform="translate(63.182681301573666 146.34107783230644) rotate(0 44.48004597034674 -4.351317665613465)" stroke="none"><path fill="#1e1e1e" d="M 0,-1.82 Q 0,-1.82 5.28,-1.75 10.56,-1.68 18.06,-1.91 25.55,-2.13 33.75,-2.49 41.95,-2.85 51.79,-3.82 61.63,-4.80 68.30,-5.76 74.98,-6.71 78.63,-7.39 82.29,-8.07 84.65,-8.98 87.02,-9.89 87.25,-9.95 87.49,-10.02 87.73,-10.01 87.97,-10.00 88.19,-9.92 88.42,-9.83 88.60,-9.68 88.79,-9.53 88.92,-9.32 89.05,-9.12 89.10,-8.88 89.16,-8.65 89.13,-8.41 89.11,-8.17 89.01,-7.95 88.92,-7.73 88.75,-7.55 88.59,-7.37 88.38,-7.26 88.17,-7.14 87.93,-7.10 87.69,-7.06 87.46,-7.09 87.22,-7.13 87.00,-7.23 86.79,-7.34 86.62,-7.52 86.45,-7.69 86.35,-7.91 86.24,-8.12 86.21,-8.36 86.18,-8.60 86.23,-8.84 86.28,-9.07 86.40,-9.28 86.52,-9.49 86.70,-9.65 86.88,-9.81 87.10,-9.90 87.33,-9.99 87.57,-10.01 87.81,-10.03 88.04,-9.97 88.27,-9.91 88.48,-9.77 88.68,-9.64 88.83,-9.45 88.98,-9.26 89.06,-9.04 89.14,-8.81 89.14,-8.57 89.14,-8.33 89.07,-8.10 89.00,-7.87 88.85,-7.67 88.71,-7.48 88.51,-7.34 88.32,-7.20 88.32,-7.20 88.32,-7.20 85.56,-6.27 82.80,-5.34 79.10,-4.62 75.39,-3.91 68.66,-2.90 61.93,-1.90 52.01,-0.87 42.09,0.15 33.88,0.59 25.67,1.02 18.12,1.35 10.56,1.68 5.28,1.75 0,1.82 -0.21,1.79 -0.43,1.76 -0.64,1.68 -0.84,1.61 -1.02,1.48 -1.20,1.36 -1.35,1.19 -1.49,1.03 -1.60,0.83 -1.70,0.64 -1.75,0.43 -1.80,0.21 -1.80,-0.00 -1.80,-0.21 -1.75,-0.43 -1.70,-0.64 -1.60,-0.83 -1.49,-1.03 -1.35,-1.19 -1.20,-1.36 -1.02,-1.48 -0.84,-1.61 -0.64,-1.68 -0.43,-1.76 -0.21,-1.79 0.00,-1.82 0.00,-1.82 L 0,-1.82 Z"></path></g><g transform="translate(65.11656747605548 140.53927176280268) rotate(0 43.99661131324069 -2.4173761613598117)" stroke="none"><path fill="#1e1e1e" d="M 0,-1.74 Q 0,-1.74 3.33,-1.69 6.67,-1.63 12.53,-1.58 18.40,-1.54 26.45,-1.51 34.50,-1.48 43.74,-1.73 52.98,-1.99 61.08,-2.36 69.17,-2.74 74.25,-3.18 79.34,-3.61 82.66,-4.76 85.97,-5.92 86.24,-5.95 86.50,-5.99 86.75,-5.94 87.01,-5.89 87.24,-5.76 87.47,-5.63 87.65,-5.43 87.82,-5.23 87.92,-4.99 88.03,-4.75 88.05,-4.49 88.07,-4.23 88.00,-3.97 87.94,-3.71 87.80,-3.49 87.66,-3.27 87.45,-3.11 87.24,-2.94 87.00,-2.85 86.75,-2.76 86.49,-2.76 86.22,-2.75 85.97,-2.83 85.72,-2.91 85.51,-3.06 85.30,-3.21 85.14,-3.43 84.99,-3.64 84.91,-3.89 84.84,-4.15 84.84,-4.41 84.85,-4.67 84.94,-4.92 85.03,-5.17 85.20,-5.37 85.37,-5.57 85.59,-5.72 85.81,-5.86 86.07,-5.92 86.32,-5.98 86.58,-5.96 86.85,-5.94 87.09,-5.83 87.33,-5.73 87.52,-5.55 87.72,-5.38 87.85,-5.15 87.98,-4.92 88.03,-4.66 88.07,-4.40 88.04,-4.14 88.00,-3.88 87.88,-3.64 87.77,-3.41 87.58,-3.22 87.39,-3.04 87.16,-2.92 86.92,-2.81 86.92,-2.81 86.92,-2.81 83.26,-1.84 79.59,-0.86 74.45,-0.40 69.31,0.05 61.19,0.46 53.07,0.87 43.79,1.18 34.50,1.48 26.45,1.51 18.40,1.54 12.53,1.58 6.67,1.63 3.33,1.69 0,1.74 -0.20,1.72 -0.41,1.69 -0.61,1.62 -0.81,1.54 -0.98,1.42 -1.16,1.30 -1.30,1.15 -1.43,0.99 -1.53,0.80 -1.63,0.62 -1.68,0.41 -1.73,0.21 -1.73,-0.00 -1.73,-0.21 -1.68,-0.41 -1.63,-0.62 -1.53,-0.80 -1.43,-0.99 -1.30,-1.15 -1.16,-1.30 -0.98,-1.42 -0.81,-1.54 -0.61,-1.62 -0.41,-1.69 -0.20,-1.72 0.00,-1.74 0.00,-1.74 L 0,-1.74 Z"></path></g><g transform="translate(67.05045365053775 103.79488114992745) rotate(0 55.11664124908452 1.4504515173759387)" stroke="none"><path fill="#1e1e1e" d="M 0.25,-1.69 Q 0.25,-1.69 5.80,-0.80 11.35,0.08 18.36,0.46 25.37,0.85 33.64,1.03 41.91,1.21 50.69,1.01 59.46,0.82 68.50,0.75 77.53,0.67 84.99,0.64 92.44,0.61 97.27,0.61 102.11,0.60 105.34,0.07 108.57,-0.44 108.83,-0.43 109.09,-0.42 109.33,-0.33 109.57,-0.24 109.77,-0.07 109.97,0.08 110.11,0.31 110.25,0.53 110.31,0.78 110.37,1.03 110.34,1.29 110.32,1.55 110.21,1.79 110.11,2.03 109.93,2.22 109.75,2.41 109.52,2.53 109.30,2.66 109.04,2.70 108.78,2.75 108.53,2.71 108.27,2.67 108.04,2.55 107.81,2.43 107.63,2.25 107.44,2.06 107.33,1.83 107.22,1.59 107.19,1.33 107.16,1.08 107.21,0.82 107.26,0.57 107.39,0.34 107.52,0.12 107.72,-0.04 107.92,-0.22 108.16,-0.31 108.40,-0.41 108.66,-0.43 108.92,-0.45 109.17,-0.38 109.42,-0.32 109.64,-0.17 109.85,-0.03 110.01,0.16 110.17,0.37 110.26,0.62 110.35,0.86 110.35,1.12 110.35,1.38 110.27,1.63 110.19,1.88 110.04,2.08 109.88,2.29 109.67,2.44 109.46,2.59 109.21,2.66 108.96,2.74 108.96,2.74 108.96,2.74 105.54,3.02 102.12,3.31 97.29,3.33 92.45,3.36 85.01,3.41 77.56,3.46 68.55,3.56 59.53,3.67 50.69,3.90 41.86,4.14 33.54,4.02 25.22,3.89 18.05,3.57 10.88,3.25 5.31,2.47 -0.25,1.69 -0.45,1.63 -0.65,1.58 -0.83,1.47 -1.01,1.37 -1.16,1.23 -1.31,1.09 -1.42,0.92 -1.53,0.75 -1.60,0.55 -1.67,0.36 -1.68,0.15 -1.70,-0.04 -1.67,-0.25 -1.64,-0.45 -1.56,-0.64 -1.49,-0.83 -1.36,-1.00 -1.24,-1.16 -1.08,-1.30 -0.93,-1.43 -0.74,-1.52 -0.56,-1.61 -0.35,-1.65 -0.15,-1.70 0.04,-1.69 0.25,-1.69 0.25,-1.69 L 0.25,-1.69 Z"></path></g><g transform="translate(55.44698905758787 91.22443658322203) rotate(0 54.14962438881457 4.351317665613408)" stroke="none"><path fill="#1e1e1e" d="M 0.24,-1.68 Q 0.24,-1.68 4.12,-1.07 8.00,-0.46 13.82,0.36 19.63,1.19 27.65,2.10 35.66,3.02 45.16,3.70 54.66,4.37 64.28,5.22 73.90,6.08 81.85,6.44 89.80,6.80 94.84,6.96 99.89,7.12 103.29,7.25 106.69,7.37 106.89,7.47 107.10,7.56 107.26,7.71 107.42,7.86 107.52,8.06 107.62,8.25 107.66,8.47 107.70,8.69 107.66,8.90 107.63,9.12 107.53,9.32 107.42,9.51 107.26,9.66 107.10,9.82 106.90,9.91 106.70,10.00 106.48,10.03 106.26,10.05 106.05,10.01 105.83,9.96 105.64,9.85 105.45,9.73 105.31,9.57 105.17,9.40 105.09,9.19 105.00,8.99 104.99,8.77 104.98,8.55 105.04,8.33 105.09,8.12 105.22,7.94 105.34,7.76 105.52,7.62 105.69,7.49 105.90,7.42 106.11,7.35 106.33,7.34 106.55,7.34 106.76,7.41 106.97,7.48 107.14,7.62 107.32,7.75 107.45,7.93 107.57,8.11 107.63,8.33 107.69,8.54 107.68,8.76 107.67,8.98 107.59,9.18 107.51,9.39 107.36,9.56 107.22,9.73 107.03,9.84 106.84,9.96 106.63,10.00 106.41,10.05 106.19,10.03 105.97,10.01 105.97,10.01 105.97,10.01 102.89,9.92 99.81,9.83 94.74,9.69 89.67,9.54 81.67,9.20 73.66,8.85 64.06,8.03 54.46,7.21 44.90,6.57 35.34,5.93 27.28,5.07 19.22,4.20 13.39,3.44 7.55,2.69 3.65,2.19 -0.24,1.68 -0.43,1.63 -0.63,1.57 -0.81,1.48 -0.99,1.38 -1.14,1.24 -1.29,1.10 -1.41,0.93 -1.52,0.75 -1.59,0.56 -1.66,0.37 -1.68,0.16 -1.70,-0.03 -1.67,-0.23 -1.64,-0.44 -1.56,-0.63 -1.49,-0.82 -1.37,-0.98 -1.25,-1.15 -1.09,-1.28 -0.93,-1.42 -0.75,-1.51 -0.57,-1.60 -0.36,-1.65 -0.16,-1.69 0.03,-1.69 0.24,-1.68 0.24,-1.68 L 0.24,-1.68 Z"></path></g><g transform="translate(63.182681301573666 102.82801183571513) rotate(0 51.24872135406281 1.9338861744820974)" stroke="none"><path fill="#1e1e1e" d="M 0,-1.67 Q 0,-1.67 2.22,-1.62 4.44,-1.57 7.06,-1.53 9.67,-1.50 14.12,-1.47 18.56,-1.45 25.51,-0.87 32.46,-0.29 42.05,0.22 51.63,0.75 61.82,1.26 72.01,1.76 79.95,1.98 87.88,2.20 92.04,2.02 96.20,1.83 97.41,1.51 98.62,1.19 98.86,0.89 99.09,0.59 99.29,0.56 99.48,0.54 99.67,0.57 99.86,0.59 100.04,0.66 100.23,0.73 100.38,0.85 100.54,0.96 100.67,1.10 100.80,1.25 100.89,1.42 100.98,1.60 101.02,1.79 101.07,1.97 101.06,2.17 101.06,2.36 101.01,2.55 100.97,2.74 100.87,2.91 100.78,3.08 100.65,3.23 100.52,3.37 100.36,3.48 100.20,3.59 100.02,3.65 99.83,3.72 97.60,3.76 95.37,3.80 95.08,3.75 94.78,3.69 94.52,3.54 94.26,3.39 94.06,3.17 93.86,2.95 93.74,2.67 93.62,2.40 93.59,2.10 93.57,1.80 93.64,1.51 93.71,1.21 93.87,0.96 94.04,0.71 94.27,0.52 94.50,0.33 94.79,0.23 95.07,0.12 95.37,0.11 95.67,0.11 95.96,0.19 96.24,0.28 96.49,0.46 96.73,0.63 96.91,0.88 97.08,1.12 97.17,1.41 97.26,1.69 97.25,1.99 97.24,2.29 97.14,2.58 97.04,2.86 96.85,3.09 96.66,3.33 96.41,3.49 96.15,3.65 95.86,3.72 95.57,3.80 95.27,3.77 94.97,3.75 94.70,3.63 94.42,3.51 94.20,3.31 93.97,3.11 93.82,2.85 93.68,2.59 93.62,2.29 93.56,2.00 93.60,1.70 93.64,1.40 93.78,1.13 93.91,0.86 94.12,0.65 94.33,0.44 94.60,0.31 94.87,0.17 95.17,0.13 95.47,0.09 95.47,0.09 95.47,0.09 97.28,0.34 99.09,0.59 99.29,0.56 99.48,0.54 99.67,0.57 99.86,0.59 100.04,0.66 100.23,0.73 100.38,0.85 100.54,0.96 100.67,1.10 100.80,1.25 100.89,1.42 100.98,1.60 101.02,1.79 101.07,1.97 101.06,2.17 101.06,2.36 101.01,2.55 100.97,2.74 100.87,2.91 100.78,3.08 100.65,3.23 100.52,3.37 100.36,3.48 100.20,3.59 100.02,3.65 99.83,3.72 99.90,3.72 99.96,3.72 98.14,4.12 96.33,4.51 92.07,4.71 87.81,4.90 79.84,4.70 71.88,4.49 61.68,4.01 51.48,3.52 41.86,3.02 32.24,2.52 25.40,1.98 18.56,1.45 14.12,1.47 9.67,1.50 7.06,1.53 4.44,1.57 2.22,1.62 0,1.67 -0.20,1.64 -0.40,1.62 -0.58,1.55 -0.77,1.48 -0.94,1.36 -1.10,1.25 -1.24,1.10 -1.37,0.95 -1.47,0.77 -1.56,0.59 -1.61,0.39 -1.66,0.20 -1.66,-0.00 -1.66,-0.20 -1.61,-0.39 -1.56,-0.59 -1.47,-0.77 -1.37,-0.95 -1.24,-1.10 -1.10,-1.25 -0.94,-1.36 -0.77,-1.48 -0.58,-1.55 -0.40,-1.62 -0.19,-1.64 0.00,-1.67 0.00,-1.67 L 0,-1.67 Z"></path></g><g transform="translate(62.21566444130394 99.92707191444885) rotate(0 50.76528669695654 0.9669799737554854)" stroke="none"><path fill="#1e1e1e" d="M 0,-1.79 Q 0,-1.79 3.05,-1.72 6.11,-1.66 10.75,-1.61 15.38,-1.56 22.97,-0.97 30.55,-0.38 40.96,0.15 51.37,0.69 61.90,0.93 72.42,1.16 80.24,1.27 88.05,1.37 91.76,0.91 95.47,0.44 96.34,-0.48 97.21,-1.42 97.40,-1.42 97.60,-1.42 97.79,-1.38 97.98,-1.33 98.15,-1.24 98.32,-1.15 98.47,-1.03 98.62,-0.90 98.73,-0.74 98.84,-0.58 98.91,-0.40 98.98,-0.22 99.01,-0.03 99.03,0.16 99.01,0.35 98.99,0.54 98.93,0.73 98.86,0.91 98.75,1.07 98.64,1.23 98.50,1.36 98.35,1.49 98.18,1.58 98.01,1.68 97.82,1.73 97.63,1.77 95.77,1.40 93.91,1.02 91.44,0.94 88.98,0.86 88.70,0.79 88.43,0.73 88.19,0.57 87.95,0.42 87.77,0.20 87.59,-0.01 87.49,-0.27 87.40,-0.54 87.39,-0.82 87.38,-1.10 87.46,-1.38 87.54,-1.65 87.71,-1.88 87.87,-2.11 88.10,-2.27 88.33,-2.44 88.60,-2.52 88.87,-2.61 89.16,-2.60 89.44,-2.59 89.70,-2.50 89.97,-2.40 90.19,-2.22 90.41,-2.05 90.57,-1.81 90.72,-1.57 90.79,-1.30 90.86,-1.02 90.84,-0.74 90.81,-0.46 90.70,-0.20 90.59,0.05 90.40,0.27 90.21,0.48 89.97,0.62 89.72,0.76 89.44,0.81 89.17,0.87 88.89,0.83 88.61,0.79 88.35,0.67 88.10,0.54 87.90,0.34 87.70,0.14 87.57,-0.10 87.44,-0.36 87.40,-0.64 87.36,-0.92 87.42,-1.19 87.47,-1.47 87.61,-1.72 87.75,-1.97 87.96,-2.16 88.17,-2.35 88.43,-2.46 88.69,-2.57 88.97,-2.60 89.25,-2.62 89.25,-2.62 89.25,-2.62 91.89,-2.30 94.53,-1.98 95.87,-1.70 97.21,-1.42 97.40,-1.42 97.60,-1.42 97.79,-1.38 97.98,-1.33 98.15,-1.24 98.32,-1.15 98.47,-1.03 98.62,-0.90 98.73,-0.74 98.84,-0.58 98.91,-0.40 98.98,-0.22 99.01,-0.03 99.03,0.16 99.01,0.35 98.99,0.54 98.93,0.73 98.86,0.91 98.75,1.07 98.64,1.23 98.50,1.36 98.35,1.49 98.18,1.58 98.01,1.68 97.82,1.73 97.63,1.77 96.88,2.39 96.12,3.01 92.07,3.58 88.02,4.14 80.19,4.06 72.37,3.98 61.80,3.78 51.23,3.58 40.78,3.09 30.33,2.60 22.86,2.08 15.38,1.56 10.75,1.61 6.11,1.66 3.05,1.72 0,1.79 -0.21,1.76 -0.42,1.74 -0.63,1.66 -0.83,1.58 -1.01,1.46 -1.18,1.34 -1.33,1.18 -1.47,1.01 -1.57,0.82 -1.67,0.63 -1.72,0.42 -1.77,0.21 -1.77,-0.00 -1.77,-0.21 -1.72,-0.42 -1.67,-0.63 -1.57,-0.82 -1.47,-1.01 -1.33,-1.18 -1.18,-1.34 -1.01,-1.46 -0.83,-1.58 -0.63,-1.66 -0.42,-1.74 -0.21,-1.76 0.00,-1.79 0.00,-1.79 L 0,-1.79 Z"></path></g><g transform="translate(54.47997219731815 107.66280104494905) rotate(0 48.347892092339634 -2.417394604616959)" stroke="none"><path fill="#1e1e1e" d="M -0.21,-1.68 Q -0.21,-1.68 2.01,-1.91 4.25,-2.13 8.27,-2.49 12.30,-2.85 18.23,-3.00 24.15,-3.14 31.92,-3.47 39.68,-3.80 48.55,-4.21 57.41,-4.62 65.92,-4.79 74.44,-4.96 80.24,-5.31 86.05,-5.66 90.38,-5.99 94.70,-6.33 94.96,-6.30 95.22,-6.27 95.45,-6.16 95.68,-6.05 95.87,-5.87 96.06,-5.69 96.18,-5.47 96.30,-5.24 96.34,-4.98 96.38,-4.73 96.33,-4.47 96.29,-4.22 96.17,-3.99 96.05,-3.76 95.86,-3.59 95.67,-3.41 95.44,-3.30 95.20,-3.20 94.95,-3.17 94.69,-3.14 94.44,-3.20 94.19,-3.26 93.97,-3.39 93.75,-3.52 93.58,-3.72 93.41,-3.92 93.32,-4.16 93.23,-4.40 93.21,-4.66 93.20,-4.91 93.27,-5.16 93.34,-5.41 93.49,-5.62 93.63,-5.84 93.84,-5.99 94.04,-6.15 94.29,-6.23 94.53,-6.31 94.79,-6.31 95.05,-6.31 95.29,-6.22 95.54,-6.14 95.74,-5.98 95.95,-5.83 96.09,-5.61 96.23,-5.40 96.30,-5.15 96.37,-4.90 96.35,-4.64 96.34,-4.38 96.24,-4.15 96.15,-3.91 95.98,-3.71 95.81,-3.52 95.59,-3.38 95.37,-3.25 95.11,-3.20 94.86,-3.14 94.86,-3.14 94.86,-3.14 90.54,-3.05 86.22,-2.95 80.35,-2.59 74.49,-2.23 66.02,-2.03 57.54,-1.84 48.68,-1.40 39.81,-0.96 32.02,-0.59 24.23,-0.22 18.42,-0.03 12.60,0.16 8.62,0.59 4.64,1.02 2.42,1.35 0.21,1.68 0.00,1.68 -0.19,1.68 -0.39,1.63 -0.59,1.59 -0.77,1.49 -0.96,1.40 -1.11,1.26 -1.26,1.13 -1.38,0.96 -1.50,0.79 -1.57,0.60 -1.64,0.41 -1.67,0.20 -1.69,0.00 -1.67,-0.19 -1.65,-0.40 -1.57,-0.59 -1.50,-0.78 -1.39,-0.95 -1.27,-1.12 -1.12,-1.25 -0.96,-1.39 -0.78,-1.49 -0.60,-1.58 -0.40,-1.63 -0.21,-1.68 -0.21,-1.68 L -0.21,-1.68 Z"></path></g></svg>