<?xml version="1.0" standalone="no"?>
<!DOCTYPE svg PUBLIC "-//W3C//DTD SVG 1.1//EN" "http://www.w3.org/Graphics/SVG/1.1/DTD/svg11.dtd">
<svg version="1.1" xmlns="http://www.w3.org/2000/svg" viewBox="0 0 196.95331456717486 217.2594144913515" width="393.9066291343497" height="434.518828982703"><!-- svg-source:excalidraw --><metadata></metadata><defs><style class="style-fonts">
      </style></defs><g transform="translate(42.87665515042545 178.2506792359477) rotate(0 -11.120103708872648 13.053916110325957)" stroke="none"><path fill="#1e1e1e" d="M 0.26,1.57 Q 0.26,1.57 -1.39,1.90 -3.05,2.23 -5.35,2.83 -7.65,3.43 -10.84,4.50 -14.04,5.57 -17.18,7.87 -20.33,10.16 -23.34,13.05 -26.35,15.94 -27.81,18.59 -29.27,21.24 -29.00,22.72 -28.73,24.20 -25.74,25.10 -22.75,26.00 -17.73,25.64 -12.72,25.27 -7.87,23.78 -3.02,22.29 0.54,19.00 4.10,15.71 5.58,12.77 7.06,9.83 7.41,7.63 7.77,5.43 7.25,4.33 6.74,3.24 3.58,4.07 0.43,4.91 -3.00,7.15 -6.45,9.38 -9.83,12.51 -13.22,15.64 -15.78,18.34 -18.35,21.05 -19.72,22.29 -21.10,23.52 -18.05,23.71 -14.99,23.90 -9.89,21.15 -4.78,18.40 -1.54,15.38 1.70,12.36 3.00,9.32 4.30,6.27 4.38,4.16 4.46,2.06 3.31,1.13 2.15,0.21 -0.28,0.05 -2.72,-0.09 -6.43,1.12 -10.14,2.34 -13.92,4.49 -17.71,6.63 -20.41,8.62 -23.12,10.61 -24.30,12.33 -25.48,14.05 -25.63,14.13 -25.77,14.21 -25.93,14.25 -26.09,14.30 -26.25,14.30 -26.41,14.31 -26.58,14.27 -26.74,14.24 -26.89,14.17 -27.03,14.09 -27.16,13.99 -27.29,13.88 -27.39,13.75 -27.48,13.62 -27.55,13.47 -27.61,13.32 -27.63,13.15 -27.66,12.99 -27.65,12.83 -27.63,12.66 -27.58,12.51 -27.52,12.35 -27.43,12.21 -27.35,12.07 -27.23,11.96 -27.11,11.85 -24.93,12.43 -22.75,13.01 -19.63,13.28 -16.50,13.55 -11.64,12.60 -6.78,11.65 -4.53,10.77 -2.27,9.89 -1.79,9.05 -1.31,8.20 -1.12,8.15 -0.93,8.10 -0.73,8.10 -0.53,8.09 -0.34,8.14 -0.15,8.18 0.02,8.27 0.20,8.36 0.34,8.49 0.49,8.61 0.61,8.77 0.72,8.93 0.80,9.12 0.87,9.30 0.90,9.49 0.93,9.69 0.91,9.89 0.89,10.08 0.82,10.27 0.75,10.45 0.64,10.62 0.54,10.78 0.39,10.91 0.25,11.05 0.07,11.14 -0.09,11.24 -2.23,10.93 -4.37,10.63 -7.30,11.57 -10.24,12.51 -13.74,14.25 -17.24,16.00 -20.10,17.82 -22.96,19.65 -24.29,20.97 -25.63,22.30 -23.43,23.78 -21.23,25.27 -17.94,25.64 -14.65,26.02 -11.63,25.93 -8.61,25.83 -6.69,24.95 -4.78,24.07 -4.61,24.08 -4.44,24.10 -4.28,24.15 -4.12,24.21 -3.98,24.30 -3.84,24.39 -3.72,24.51 -3.60,24.63 -3.52,24.78 -3.44,24.93 -3.39,25.09 -3.34,25.25 -3.34,25.42 -3.33,25.59 -3.37,25.76 -3.40,25.92 -3.47,26.07 -3.55,26.23 -3.66,26.36 -3.76,26.49 -3.90,26.59 -4.03,26.69 -4.19,26.75 -4.35,26.82 -4.51,26.85 -4.68,26.87 -6.58,25.21 -8.49,23.54 -11.85,22.78 -15.22,22.03 -18.63,21.65 -22.04,21.27 -24.07,21.11 -26.09,20.96 -26.41,20.96 -26.73,20.95 -26.91,20.91 -27.09,20.88 -27.25,20.80 -27.42,20.72 -27.56,20.61 -27.70,20.49 -27.81,20.34 -27.92,20.20 -27.99,20.03 -28.07,19.86 -28.10,19.68 -28.12,19.50 -28.11,19.32 -28.10,19.13 -28.04,18.96 -27.98,18.79 -27.88,18.63 -27.78,18.48 -27.65,18.35 -27.52,18.22 -27.36,18.13 -27.20,18.04 -27.03,17.99 -26.85,17.94 -26.67,17.93 -26.49,17.92 -25.13,18.13 -23.78,18.34 -21.97,18.43 -20.16,18.51 -18.25,18.56 -16.35,18.60 -13.74,18.13 -11.12,17.67 -10.83,17.68 -10.53,17.69 -10.25,17.79 -9.97,17.89 -9.74,18.08 -9.50,18.27 -9.34,18.52 -9.18,18.77 -9.11,19.06 -9.04,19.35 -9.07,19.65 -9.09,19.95 -9.21,20.22 -9.33,20.49 -9.53,20.72 -9.73,20.94 -9.99,21.08 -10.25,21.23 -10.54,21.28 -10.83,21.34 -11.13,21.30 -11.42,21.26 -11.69,21.13 -11.96,20.99 -12.17,20.78 -12.38,20.57 -12.51,20.30 -12.64,20.03 -12.68,19.74 -12.72,19.44 -12.66,19.15 -12.61,18.86 -12.46,18.60 -12.31,18.34 -12.09,18.14 -11.87,17.94 -11.59,17.82 -11.32,17.71 -11.02,17.68 -10.72,17.66 -10.44,17.73 -10.15,17.80 -9.89,17.97 -9.64,18.13 -9.46,18.36 -9.27,18.59 -9.17,18.87 -9.07,19.15 -9.06,19.45 -9.05,19.75 -9.14,20.04 -9.23,20.32 -9.40,20.56 -9.58,20.80 -9.82,20.98 -10.06,21.15 -10.35,21.24 -10.63,21.32 -10.63,21.32 -10.63,21.32 -13.53,21.60 -16.42,21.87 -18.38,21.82 -20.33,21.78 -22.37,21.65 -24.41,21.53 -25.57,21.24 -26.73,20.95 -26.91,20.91 -27.09,20.88 -27.25,20.80 -27.42,20.72 -27.56,20.61 -27.70,20.49 -27.81,20.34 -27.92,20.20 -27.99,20.03 -28.07,19.86 -28.09,19.68 -28.12,19.50 -28.11,19.32 -28.10,19.13 -28.04,18.96 -27.98,18.79 -27.88,18.63 -27.78,18.48 -27.65,18.35 -27.52,18.22 -27.36,18.13 -27.20,18.04 -27.03,17.99 -26.85,17.94 -26.67,17.93 -26.49,17.92 -26.18,18.06 -25.87,18.19 -23.81,18.37 -21.74,18.55 -18.15,18.94 -14.56,19.33 -10.60,20.39 -6.65,21.46 -5.71,22.76 -4.78,24.07 -4.61,24.08 -4.44,24.10 -4.28,24.15 -4.12,24.21 -3.98,24.30 -3.84,24.39 -3.72,24.51 -3.60,24.63 -3.52,24.78 -3.44,24.93 -3.39,25.09 -3.34,25.25 -3.34,25.42 -3.33,25.59 -3.37,25.76 -3.40,25.92 -3.47,26.07 -3.55,26.23 -3.66,26.36 -3.76,26.49 -3.90,26.59 -4.03,26.69 -4.19,26.75 -4.35,26.82 -4.51,26.85 -4.68,26.87 -6.55,27.75 -8.42,28.63 -11.70,28.76 -14.97,28.89 -18.64,28.48 -22.32,28.06 -24.88,26.86 -27.44,25.65 -27.66,23.43 -27.89,21.21 -26.19,19.27 -24.48,17.32 -21.50,15.39 -18.52,13.45 -14.81,11.58 -11.10,9.71 -7.55,8.67 -4.01,7.64 -2.66,7.92 -1.31,8.20 -1.12,8.15 -0.93,8.10 -0.73,8.10 -0.53,8.09 -0.34,8.14 -0.15,8.18 0.02,8.27 0.19,8.36 0.34,8.49 0.49,8.61 0.61,8.77 0.72,8.93 0.80,9.12 0.87,9.30 0.90,9.49 0.93,9.69 0.91,9.89 0.89,10.08 0.82,10.27 0.75,10.45 0.64,10.62 0.54,10.78 0.39,10.91 0.25,11.05 0.07,11.14 -0.09,11.24 -0.56,11.78 -1.02,12.32 -3.62,13.38 -6.23,14.45 -11.48,15.46 -16.73,16.48 -20.39,16.13 -24.05,15.78 -24.77,14.91 -25.48,14.05 -25.62,14.13 -25.77,14.21 -25.93,14.25 -26.09,14.30 -26.25,14.30 -26.41,14.31 -26.58,14.27 -26.74,14.24 -26.89,14.17 -27.03,14.09 -27.16,13.99 -27.29,13.88 -27.38,13.75 -27.48,13.62 -27.55,13.47 -27.61,13.32 -27.63,13.15 -27.66,12.99 -27.65,12.83 -27.63,12.66 -27.58,12.51 -27.52,12.35 -27.43,12.21 -27.35,12.07 -27.23,11.96 -27.11,11.85 -25.93,10.16 -24.76,8.47 -21.91,6.36 -19.06,4.25 -15.02,1.98 -10.99,-0.28 -6.75,-1.59 -2.52,-2.90 0.64,-2.47 3.81,-2.03 5.38,-0.27 6.96,1.48 6.92,4.40 6.89,7.32 5.30,10.85 3.71,14.38 0.17,17.69 -3.37,21.00 -9.02,23.97 -14.68,26.95 -17.96,27.03 -21.24,27.11 -22.20,25.90 -23.17,24.69 -21.79,21.91 -20.41,19.13 -17.80,16.32 -15.20,13.51 -11.65,10.19 -8.10,6.88 -4.38,4.42 -0.67,1.97 2.27,0.96 5.21,-0.04 6.98,0.71 8.74,1.46 9.55,3.55 10.35,5.65 9.89,8.33 9.43,11.01 7.67,14.32 5.92,17.63 1.88,21.21 -2.14,24.79 -7.33,26.37 -12.53,27.94 -18.05,28.26 -23.57,28.57 -27.07,27.15 -30.57,25.72 -31.18,23.04 -31.78,20.36 -30.07,17.15 -28.35,13.93 -25.21,10.87 -22.06,7.80 -18.56,5.26 -15.07,2.71 -11.79,1.54 -8.52,0.36 -6.07,-0.37 -3.61,-1.12 -1.93,-1.34 -0.26,-1.57 -0.07,-1.58 0.12,-1.59 0.31,-1.55 0.49,-1.51 0.67,-1.43 0.84,-1.35 0.99,-1.23 1.14,-1.10 1.26,-0.95 1.37,-0.80 1.45,-0.62 1.53,-0.45 1.56,-0.26 1.59,-0.07 1.57,0.12 1.56,0.31 1.50,0.49 1.44,0.67 1.34,0.84 1.23,1.00 1.10,1.13 0.96,1.27 0.79,1.36 0.63,1.46 0.44,1.51 0.26,1.57 0.26,1.57 L 0.26,1.57 Z"></path></g><g transform="translate(46.74442749938953 53.51310288310569) rotate(0 1.933886174482268 60.91833665904507)" stroke="none"><path fill="#1e1e1e" d="M 1.70,-0.12 Q 1.70,-0.12 1.92,3.77 2.15,7.66 2.51,14.89 2.86,22.12 3.28,32.15 3.70,42.17 3.87,54.24 4.04,66.30 4.10,77.26 4.17,88.22 4.19,95.94 4.22,103.65 4.50,108.28 4.78,112.91 5.09,116.53 5.39,120.16 5.36,120.42 5.33,120.67 5.22,120.91 5.11,121.15 4.93,121.33 4.75,121.52 4.52,121.64 4.29,121.76 4.03,121.80 3.78,121.84 3.52,121.80 3.26,121.76 3.03,121.63 2.80,121.51 2.63,121.32 2.45,121.13 2.34,120.89 2.23,120.66 2.21,120.40 2.18,120.14 2.24,119.89 2.29,119.63 2.43,119.41 2.56,119.19 2.76,119.02 2.96,118.85 3.21,118.76 3.45,118.66 3.71,118.65 3.97,118.64 4.22,118.71 4.47,118.78 4.68,118.93 4.90,119.07 5.05,119.28 5.21,119.49 5.29,119.74 5.37,119.98 5.37,120.24 5.37,120.50 5.29,120.75 5.20,121.00 5.04,121.20 4.88,121.41 4.67,121.55 4.45,121.70 4.20,121.77 3.95,121.84 3.69,121.82 3.43,121.80 3.19,121.71 2.95,121.61 2.75,121.44 2.55,121.27 2.42,121.05 2.29,120.82 2.23,120.57 2.18,120.31 2.18,120.31 2.18,120.31 2.13,116.70 2.08,113.08 1.78,108.37 1.47,103.67 1.43,95.95 1.38,88.24 1.29,77.29 1.19,66.34 0.98,54.32 0.77,42.30 0.30,32.30 -0.17,22.29 -0.60,15.09 -1.04,7.89 -1.37,4.00 -1.70,0.12 -1.69,-0.08 -1.68,-0.28 -1.62,-0.48 -1.56,-0.68 -1.46,-0.86 -1.35,-1.03 -1.21,-1.18 -1.06,-1.33 -0.89,-1.44 -0.71,-1.55 -0.52,-1.61 -0.32,-1.67 -0.12,-1.69 0.08,-1.70 0.28,-1.67 0.49,-1.63 0.67,-1.55 0.86,-1.47 1.03,-1.34 1.19,-1.22 1.32,-1.06 1.45,-0.89 1.53,-0.71 1.62,-0.52 1.66,-0.32 1.70,-0.12 1.70,-0.12 L 1.70,-0.12 Z"></path></g><g transform="translate(41.909638290155726 57.38096744835576) rotate(0 62.8522597200415 -22.723540636936832)" stroke="none"><path fill="#1e1e1e" d="M -0.82,-1.47 Q -0.82,-1.47 1.70,-2.82 4.23,-4.16 10.02,-7.49 15.82,-10.83 24.45,-15.04 33.09,-19.25 44.04,-23.28 54.99,-27.30 69.39,-31.51 83.79,-35.72 93.78,-38.61 103.78,-41.50 109.69,-43.28 115.60,-45.06 119.91,-46.64 124.23,-48.22 124.48,-48.26 124.74,-48.31 124.99,-48.26 125.24,-48.22 125.47,-48.10 125.69,-47.98 125.87,-47.80 126.05,-47.61 126.15,-47.38 126.26,-47.15 126.29,-46.89 126.32,-46.64 126.26,-46.39 126.21,-46.14 126.08,-45.92 125.95,-45.70 125.75,-45.53 125.56,-45.37 125.32,-45.27 125.08,-45.18 124.82,-45.16 124.57,-45.15 124.32,-45.22 124.08,-45.29 123.86,-45.43 123.65,-45.57 123.50,-45.78 123.34,-45.98 123.26,-46.22 123.18,-46.47 123.18,-46.72 123.18,-46.98 123.26,-47.22 123.34,-47.46 123.49,-47.67 123.65,-47.87 123.86,-48.02 124.07,-48.16 124.32,-48.23 124.57,-48.30 124.82,-48.28 125.08,-48.27 125.31,-48.17 125.55,-48.08 125.75,-47.91 125.94,-47.75 126.08,-47.53 126.21,-47.31 126.26,-47.06 126.32,-46.81 126.29,-46.56 126.26,-46.30 126.16,-46.07 126.05,-45.84 125.87,-45.65 125.70,-45.46 125.47,-45.34 125.24,-45.22 125.24,-45.22 125.25,-45.22 120.81,-43.85 116.38,-42.47 110.46,-40.67 104.54,-38.87 94.56,-35.96 84.57,-33.05 70.27,-28.85 55.97,-24.64 45.17,-20.64 34.37,-16.63 25.86,-12.42 17.34,-8.21 11.56,-4.80 5.77,-1.39 3.29,0.04 0.82,1.47 0.63,1.55 0.44,1.63 0.24,1.66 0.04,1.69 -0.16,1.67 -0.36,1.65 -0.55,1.58 -0.75,1.51 -0.92,1.40 -1.09,1.29 -1.23,1.14 -1.36,0.99 -1.46,0.81 -1.56,0.63 -1.62,0.44 -1.67,0.24 -1.67,0.03 -1.68,-0.16 -1.63,-0.36 -1.59,-0.56 -1.50,-0.74 -1.41,-0.92 -1.28,-1.08 -1.15,-1.23 -0.98,-1.35 -0.82,-1.47 -0.82,-1.47 L -0.82,-1.47 Z"></path></g><g transform="translate(41.909638290155726 72.85225972004156) rotate(0 50.2817782668219 -24.657408368161754)" stroke="none"><path fill="#1e1e1e" d="M -1.17,-1.36 Q -1.17,-1.36 2.76,-4.65 6.70,-7.94 13.23,-11.63 19.76,-15.32 28.38,-19.36 37.00,-23.41 47.38,-27.08 57.76,-30.75 66.86,-34.23 75.95,-37.71 82.01,-40.56 88.06,-43.41 91.46,-45.16 94.86,-46.92 96.33,-48.38 97.81,-49.85 98.02,-49.99 98.24,-50.12 98.49,-50.18 98.74,-50.24 99.00,-50.22 99.25,-50.19 99.48,-50.09 99.72,-49.99 99.91,-49.81 100.10,-49.64 100.22,-49.41 100.34,-49.19 100.39,-48.94 100.44,-48.69 100.40,-48.43 100.36,-48.18 100.24,-47.95 100.13,-47.72 99.95,-47.54 99.76,-47.36 99.53,-47.25 99.30,-47.14 99.05,-47.11 98.79,-47.08 98.54,-47.13 98.29,-47.18 98.07,-47.31 97.85,-47.44 97.68,-47.63 97.51,-47.82 97.41,-48.06 97.31,-48.29 97.29,-48.55 97.28,-48.81 97.34,-49.05 97.40,-49.30 97.54,-49.52 97.68,-49.73 97.89,-49.89 98.09,-50.05 98.33,-50.13 98.57,-50.22 98.83,-50.22 99.08,-50.23 99.33,-50.15 99.57,-50.07 99.78,-49.92 99.98,-49.77 100.13,-49.56 100.28,-49.35 100.35,-49.10 100.42,-48.86 100.41,-48.60 100.40,-48.35 100.31,-48.11 100.22,-47.87 100.06,-47.67 99.90,-47.47 99.90,-47.47 99.90,-47.47 98.02,-45.99 96.13,-44.51 92.69,-42.70 89.24,-40.90 83.11,-37.99 76.97,-35.07 67.85,-31.55 58.74,-28.02 48.51,-24.35 38.28,-20.69 29.80,-16.64 21.32,-12.58 15.09,-8.99 8.86,-5.40 5.01,-2.01 1.17,1.36 0.99,1.48 0.81,1.60 0.60,1.68 0.40,1.75 0.18,1.77 -0.02,1.80 -0.24,1.77 -0.45,1.74 -0.66,1.66 -0.86,1.58 -1.04,1.45 -1.21,1.32 -1.35,1.16 -1.50,0.99 -1.59,0.80 -1.69,0.61 -1.74,0.39 -1.79,0.18 -1.78,-0.02 -1.78,-0.24 -1.73,-0.45 -1.67,-0.66 -1.57,-0.85 -1.46,-1.04 -1.31,-1.20 -1.17,-1.36 -1.17,-1.36 L -1.17,-1.36 Z"></path></g><g transform="translate(35.140962906439654 60.281796710078936) rotate(0 56.5670189934317 -22.72350375042248)" stroke="none"><path fill="#1e1e1e" d="M -0.26,-1.71 Q -0.26,-1.71 3.35,-2.21 6.97,-2.71 12.85,-4.54 18.72,-6.38 30.70,-10.76 42.67,-15.15 54.43,-19.78 66.19,-24.41 76.48,-28.60 86.76,-32.79 93.32,-35.93 99.88,-39.08 103.50,-40.97 107.12,-42.86 108.49,-43.82 109.86,-44.79 109.99,-45.44 110.11,-46.08 110.29,-46.17 110.46,-46.27 110.65,-46.32 110.84,-46.36 111.03,-46.37 111.23,-46.37 111.42,-46.32 111.61,-46.28 111.78,-46.19 111.95,-46.10 112.10,-45.97 112.25,-45.84 112.36,-45.68 112.47,-45.52 112.54,-45.34 112.61,-45.16 112.64,-44.97 112.67,-44.77 112.64,-44.58 112.62,-44.39 112.55,-44.20 112.49,-44.02 112.38,-43.86 112.27,-43.70 112.12,-43.57 111.98,-43.43 108.67,-42.27 105.37,-41.11 102.41,-40.17 99.45,-39.24 99.16,-39.21 98.87,-39.18 98.58,-39.24 98.30,-39.30 98.05,-39.45 97.80,-39.60 97.61,-39.82 97.42,-40.04 97.32,-40.31 97.21,-40.58 97.19,-40.87 97.18,-41.16 97.26,-41.45 97.33,-41.73 97.50,-41.97 97.66,-42.21 97.89,-42.38 98.12,-42.56 98.40,-42.65 98.67,-42.75 98.96,-42.75 99.26,-42.75 99.53,-42.65 99.81,-42.56 100.04,-42.38 100.27,-42.21 100.43,-41.97 100.60,-41.73 100.68,-41.45 100.75,-41.17 100.74,-40.88 100.72,-40.59 100.61,-40.31 100.51,-40.04 100.32,-39.82 100.13,-39.60 99.88,-39.45 99.63,-39.30 99.35,-39.24 99.06,-39.18 98.77,-39.21 98.48,-39.24 98.22,-39.36 97.96,-39.48 97.75,-39.68 97.53,-39.88 97.40,-40.14 97.26,-40.40 97.21,-40.68 97.17,-40.97 97.21,-41.26 97.26,-41.55 97.40,-41.80 97.53,-42.06 97.74,-42.26 97.96,-42.46 98.22,-42.58 98.48,-42.70 98.48,-42.70 98.48,-42.70 101.46,-43.42 104.43,-44.13 107.27,-45.11 110.11,-46.08 110.29,-46.17 110.46,-46.27 110.65,-46.32 110.84,-46.36 111.03,-46.37 111.23,-46.37 111.42,-46.32 111.61,-46.28 111.78,-46.19 111.95,-46.10 112.10,-45.97 112.25,-45.84 112.36,-45.68 112.47,-45.52 112.54,-45.34 112.61,-45.16 112.64,-44.97 112.67,-44.77 112.64,-44.58 112.62,-44.39 112.55,-44.20 112.49,-44.02 112.38,-43.86 112.27,-43.70 112.12,-43.57 111.98,-43.43 111.90,-43.16 111.83,-42.88 110.11,-41.67 108.38,-40.45 104.73,-38.53 101.08,-36.61 94.45,-33.40 87.82,-30.20 77.53,-25.97 67.25,-21.75 55.47,-17.06 43.69,-12.38 31.67,-7.91 19.66,-3.45 13.56,-1.48 7.47,0.48 3.87,1.10 0.26,1.71 0.05,1.71 -0.15,1.72 -0.35,1.68 -0.56,1.63 -0.75,1.54 -0.93,1.45 -1.09,1.32 -1.26,1.19 -1.38,1.02 -1.50,0.85 -1.58,0.66 -1.66,0.46 -1.70,0.26 -1.73,0.05 -1.71,-0.15 -1.69,-0.36 -1.62,-0.55 -1.55,-0.75 -1.44,-0.93 -1.33,-1.10 -1.18,-1.25 -1.02,-1.39 -0.84,-1.49 -0.66,-1.60 -0.46,-1.65 -0.26,-1.71 -0.26,-1.71 L -0.26,-1.71 Z"></path></g><g transform="translate(35.140962906439654 59.31485362283786) rotate(0 75.9061758303676 -23.206993737300166)" stroke="none"><path fill="#1e1e1e" d="M -0.69,-1.50 Q -0.69,-1.50 5.99,-4.52 12.69,-7.53 18.36,-9.66 24.04,-11.78 33.70,-14.90 43.35,-18.02 55.82,-21.29 68.29,-24.56 81.37,-27.88 94.44,-31.21 108.60,-35.12 122.76,-39.03 130.73,-41.24 138.70,-43.46 142.33,-44.67 145.97,-45.87 147.50,-46.48 149.03,-47.08 149.27,-47.12 149.51,-47.16 149.75,-47.12 149.99,-47.08 150.21,-46.96 150.43,-46.85 150.59,-46.67 150.76,-46.49 150.87,-46.27 150.97,-46.04 150.99,-45.80 151.02,-45.55 150.97,-45.31 150.91,-45.08 150.79,-44.87 150.66,-44.66 150.47,-44.50 150.28,-44.34 150.05,-44.25 149.83,-44.16 149.58,-44.15 149.34,-44.13 149.10,-44.20 148.86,-44.27 148.66,-44.40 148.46,-44.54 148.31,-44.74 148.16,-44.93 148.09,-45.17 148.01,-45.40 148.01,-45.65 148.01,-45.89 148.09,-46.12 148.17,-46.36 148.32,-46.55 148.47,-46.75 148.67,-46.88 148.87,-47.02 149.11,-47.08 149.35,-47.15 149.59,-47.14 149.84,-47.12 150.06,-47.03 150.29,-46.94 150.48,-46.78 150.66,-46.62 150.79,-46.41 150.92,-46.20 150.97,-45.96 151.02,-45.72 150.99,-45.47 150.97,-45.23 150.86,-45.01 150.76,-44.79 150.59,-44.61 150.42,-44.43 150.20,-44.32 149.98,-44.20 149.98,-44.20 149.98,-44.20 148.40,-43.77 146.81,-43.33 143.12,-42.09 139.42,-40.86 131.46,-38.63 123.49,-36.40 109.31,-32.46 95.12,-28.53 82.07,-25.18 69.01,-21.83 56.63,-18.55 44.25,-15.26 34.67,-12.12 25.10,-8.98 19.55,-6.83 13.99,-4.69 7.34,-1.59 0.69,1.50 0.50,1.57 0.31,1.63 0.11,1.64 -0.08,1.65 -0.28,1.62 -0.48,1.58 -0.66,1.50 -0.84,1.42 -1.00,1.30 -1.16,1.18 -1.29,1.02 -1.41,0.86 -1.49,0.68 -1.58,0.50 -1.61,0.30 -1.65,0.11 -1.64,-0.08 -1.63,-0.28 -1.57,-0.47 -1.51,-0.67 -1.41,-0.84 -1.31,-1.01 -1.17,-1.15 -1.03,-1.30 -0.86,-1.40 -0.69,-1.50 -0.69,-1.50 L -0.69,-1.50 Z"></path></g><g transform="translate(43.843524464637994 76.72012428529166) rotate(0 62.36882506293523 -25.624397563545784)" stroke="none"><path fill="#1e1e1e" d="M -1.34,-1.00 Q -1.34,-1.00 0.36,-3.21 2.08,-5.41 6.58,-8.70 11.09,-12.00 18.59,-15.89 26.10,-19.77 36.56,-23.65 47.02,-27.53 59.55,-31.12 72.07,-34.71 85.72,-38.45 99.37,-42.19 106.79,-44.87 114.20,-47.55 118.63,-49.66 123.06,-51.77 123.31,-51.84 123.55,-51.90 123.81,-51.89 124.06,-51.87 124.29,-51.77 124.53,-51.68 124.72,-51.51 124.91,-51.35 125.04,-51.13 125.17,-50.91 125.22,-50.66 125.27,-50.42 125.24,-50.16 125.21,-49.91 125.10,-49.68 124.99,-49.46 124.82,-49.27 124.64,-49.09 124.41,-48.98 124.19,-48.86 123.94,-48.82 123.69,-48.78 123.44,-48.83 123.19,-48.87 122.97,-48.99 122.75,-49.11 122.57,-49.30 122.40,-49.48 122.30,-49.71 122.19,-49.94 122.17,-50.20 122.15,-50.45 122.20,-50.69 122.26,-50.94 122.39,-51.16 122.53,-51.37 122.72,-51.53 122.91,-51.70 123.15,-51.79 123.39,-51.88 123.64,-51.89 123.89,-51.90 124.14,-51.83 124.38,-51.76 124.59,-51.62 124.79,-51.47 124.95,-51.27 125.10,-51.06 125.17,-50.82 125.25,-50.58 125.25,-50.33 125.25,-50.08 125.16,-49.84 125.08,-49.60 124.93,-49.40 124.77,-49.20 124.56,-49.06 124.35,-48.92 124.35,-48.92 124.35,-48.92 119.74,-46.96 115.13,-45.01 107.61,-42.28 100.10,-39.55 86.47,-35.79 72.84,-32.04 60.42,-28.45 48.01,-24.87 37.73,-21.03 27.44,-17.19 20.15,-13.38 12.87,-9.56 8.72,-6.52 4.58,-3.48 2.96,-1.23 1.34,1.00 1.20,1.15 1.06,1.30 0.89,1.41 0.72,1.51 0.53,1.58 0.33,1.64 0.13,1.66 -0.06,1.68 -0.26,1.64 -0.46,1.61 -0.65,1.53 -0.83,1.45 -1.00,1.33 -1.16,1.21 -1.29,1.05 -1.42,0.90 -1.50,0.71 -1.59,0.53 -1.63,0.33 -1.67,0.13 -1.66,-0.06 -1.66,-0.26 -1.60,-0.46 -1.54,-0.65 -1.44,-0.83 -1.34,-1.00 -1.34,-1.00 L -1.34,-1.00 Z"></path></g><g transform="translate(165.68027155575692 10.966961530498224) rotate(0 -3.384337691858036 72.03835737326037)" stroke="none"><path fill="#1e1e1e" d="M 1.74,0.23 Q 1.74,0.23 0.84,6.34 -0.04,12.45 -1.55,26.42 -3.05,40.38 -3.71,54.90 -4.36,69.42 -4.65,82.54 -4.93,95.67 -5.06,105.97 -5.19,116.27 -5.25,123.16 -5.31,130.04 -5.07,133.75 -4.82,137.45 -4.54,140.13 -4.27,142.80 -4.30,143.06 -4.32,143.31 -4.43,143.55 -4.54,143.78 -4.72,143.97 -4.89,144.16 -5.12,144.28 -5.35,144.41 -5.60,144.45 -5.86,144.49 -6.11,144.45 -6.37,144.41 -6.60,144.29 -6.83,144.17 -7.01,143.98 -7.18,143.80 -7.29,143.56 -7.40,143.33 -7.43,143.07 -7.46,142.81 -7.41,142.56 -7.35,142.31 -7.22,142.09 -7.09,141.86 -6.89,141.70 -6.70,141.53 -6.46,141.43 -6.22,141.33 -5.96,141.32 -5.70,141.30 -5.45,141.37 -5.20,141.44 -4.99,141.58 -4.77,141.73 -4.61,141.93 -4.46,142.14 -4.37,142.38 -4.29,142.63 -4.29,142.89 -4.29,143.15 -4.37,143.39 -4.45,143.64 -4.61,143.84 -4.76,144.05 -4.98,144.20 -5.19,144.34 -5.44,144.41 -5.69,144.48 -5.94,144.47 -6.20,144.46 -6.44,144.36 -6.68,144.27 -6.88,144.10 -7.08,143.93 -7.21,143.71 -7.35,143.49 -7.40,143.24 -7.46,142.99 -7.46,142.99 -7.46,142.99 -7.50,140.31 -7.54,137.64 -7.80,133.83 -8.07,130.02 -8.04,123.13 -8.00,116.24 -7.91,105.93 -7.81,95.61 -7.57,82.45 -7.33,69.29 -6.73,54.68 -6.14,40.06 -4.71,26.03 -3.29,12.01 -2.51,5.88 -1.74,-0.23 -1.68,-0.44 -1.63,-0.64 -1.53,-0.83 -1.43,-1.02 -1.29,-1.17 -1.14,-1.33 -0.97,-1.45 -0.79,-1.56 -0.59,-1.64 -0.39,-1.71 -0.18,-1.73 0.02,-1.75 0.23,-1.73 0.44,-1.70 0.64,-1.62 0.84,-1.54 1.01,-1.42 1.18,-1.29 1.32,-1.13 1.46,-0.97 1.55,-0.78 1.65,-0.59 1.70,-0.39 1.74,-0.18 1.74,0.02 1.74,0.23 1.74,0.23 L 1.74,0.23 Z"></path></g><g transform="translate(157.94457931177112 16.768712270230424) rotate(0 2.9009030347517637 70.587915077513)" stroke="none"><path fill="#1e1e1e" d="M 1.53,-0.27 Q 1.53,-0.27 2.05,2.78 2.58,5.84 3.35,12.47 4.13,19.10 5.00,27.75 5.88,36.40 6.25,46.23 6.62,56.06 6.49,66.93 6.37,77.79 5.75,88.27 5.14,98.74 4.88,108.71 4.62,118.69 4.78,124.29 4.95,129.89 5.01,132.57 5.08,135.25 5.21,137.92 5.33,140.60 5.30,140.83 5.26,141.07 5.15,141.28 5.04,141.50 4.87,141.66 4.70,141.83 4.49,141.93 4.27,142.04 4.03,142.07 3.80,142.09 3.56,142.05 3.33,142.00 3.12,141.88 2.91,141.76 2.76,141.58 2.60,141.40 2.51,141.18 2.42,140.96 2.40,140.72 2.38,140.48 2.44,140.25 2.50,140.02 2.64,139.82 2.77,139.62 2.96,139.47 3.14,139.32 3.37,139.24 3.59,139.16 3.83,139.16 4.07,139.16 4.30,139.23 4.53,139.30 4.72,139.45 4.91,139.59 5.05,139.78 5.19,139.98 5.25,140.21 5.32,140.44 5.31,140.68 5.30,140.92 5.22,141.14 5.13,141.36 4.98,141.55 4.83,141.73 4.62,141.86 4.42,141.98 4.19,142.04 3.96,142.09 3.72,142.07 3.48,142.05 3.26,141.95 3.04,141.85 2.87,141.69 2.69,141.53 2.58,141.32 2.46,141.11 2.42,140.88 2.38,140.64 2.38,140.64 2.38,140.64 2.40,137.98 2.43,135.32 2.36,132.65 2.28,129.97 2.11,124.30 1.94,118.62 2.19,108.60 2.44,98.58 3.04,88.17 3.64,77.76 3.75,66.97 3.85,56.17 3.47,46.43 3.08,36.69 2.17,28.07 1.26,19.45 0.45,12.91 -0.35,6.38 -0.94,3.33 -1.53,0.27 -1.54,0.09 -1.55,-0.09 -1.52,-0.28 -1.49,-0.46 -1.41,-0.63 -1.33,-0.81 -1.21,-0.95 -1.10,-1.10 -0.95,-1.22 -0.80,-1.33 -0.63,-1.41 -0.46,-1.49 -0.27,-1.52 -0.09,-1.55 0.09,-1.54 0.28,-1.53 0.46,-1.47 0.64,-1.42 0.80,-1.32 0.96,-1.22 1.09,-1.09 1.23,-0.96 1.32,-0.80 1.42,-0.63 1.48,-0.45 1.53,-0.27 1.53,-0.27 L 1.53,-0.27 Z"></path></g><g transform="translate(160.84548234652266 161.81238854724933) rotate(0 -15.47138448797159 18.372195306437646)" stroke="none"><path fill="#1e1e1e" d="M 0.70,1.41 Q 0.70,1.41 -2.08,2.77 -4.88,4.12 -6.81,5.47 -8.75,6.81 -11.79,9.31 -14.84,11.82 -18.02,15.58 -21.19,19.35 -23.35,23.11 -25.50,26.86 -26.53,29.32 -27.55,31.77 -26.21,32.72 -24.87,33.67 -21.26,33.29 -17.64,32.91 -13.42,30.65 -9.20,28.39 -5.25,23.93 -1.31,19.47 0.33,15.47 1.97,11.47 2.44,8.90 2.91,6.33 1.96,5.29 1.01,4.25 -0.73,4.31 -2.48,4.36 -5.02,6.17 -7.56,7.98 -11.24,10.97 -14.91,13.96 -17.84,16.87 -20.76,19.78 -22.22,21.75 -23.68,23.72 -22.03,23.89 -20.37,24.06 -17.14,23.97 -13.90,23.88 -10.80,21.99 -7.70,20.11 -6.44,19.22 -5.19,18.32 -7.56,18.17 -9.94,18.01 -13.59,18.79 -17.25,19.56 -21.25,21.24 -25.25,22.92 -28.26,24.95 -31.27,26.98 -32.33,27.62 -33.39,28.26 -31.96,29.16 -30.53,30.06 -26.93,29.86 -23.33,29.66 -19.05,28.27 -14.78,26.88 -11.30,25.21 -7.82,23.54 -6.31,22.22 -4.80,20.91 -4.63,20.86 -4.47,20.80 -4.30,20.79 -4.12,20.77 -3.95,20.80 -3.78,20.82 -3.62,20.89 -3.46,20.96 -3.32,21.06 -3.18,21.16 -3.07,21.30 -2.96,21.43 -2.89,21.59 -2.81,21.74 -2.78,21.91 -2.74,22.08 -2.75,22.25 -2.75,22.43 -2.80,22.59 -2.84,22.76 -2.93,22.91 -3.02,23.06 -3.13,23.19 -3.25,23.31 -3.40,23.41 -3.54,23.50 -4.68,23.34 -5.81,23.17 -7.37,24.10 -8.93,25.04 -11.05,26.74 -13.17,28.44 -14.65,29.75 -16.13,31.06 -16.97,31.71 -17.81,32.36 -17.98,32.48 -18.15,32.60 -18.34,32.67 -18.54,32.74 -18.74,32.77 -18.95,32.79 -19.15,32.77 -19.36,32.74 -19.55,32.67 -19.75,32.59 -19.92,32.48 -20.09,32.36 -20.23,32.20 -20.36,32.05 -20.46,31.86 -20.56,31.68 -20.60,31.48 -20.65,31.27 -20.65,31.07 -20.65,30.86 -20.60,30.66 -20.55,30.46 -20.46,30.27 -20.36,30.09 -20.22,29.93 -20.08,29.78 -18.90,29.56 -17.71,29.33 -16.36,28.35 -15.02,27.37 -13.24,25.88 -11.47,24.40 -10.25,22.51 -9.02,20.62 -8.60,19.32 -8.19,18.01 -8.30,17.33 -8.42,16.66 -8.31,16.46 -8.21,16.27 -8.06,16.11 -7.91,15.94 -7.72,15.82 -7.54,15.70 -7.33,15.62 -7.12,15.55 -6.90,15.52 -6.68,15.50 -6.46,15.53 -6.24,15.56 -6.04,15.64 -5.83,15.72 -5.65,15.85 -5.47,15.98 -5.33,16.15 -5.18,16.31 -5.08,16.51 -4.98,16.71 -4.93,16.92 -4.88,17.14 -4.89,17.36 -4.89,17.58 -4.95,17.80 -5.00,18.01 -7.69,18.77 -10.38,19.54 -11.85,20.20 -13.33,20.86 -14.28,21.51 -15.23,22.17 -15.45,22.23 -15.67,22.29 -15.89,22.30 -16.12,22.31 -16.34,22.26 -16.56,22.21 -16.77,22.11 -16.97,22.01 -17.15,21.86 -17.32,21.71 -17.45,21.53 -17.59,21.35 -17.67,21.14 -17.76,20.93 -17.79,20.70 -17.83,20.48 -17.80,20.25 -17.78,20.02 -17.71,19.81 -17.63,19.60 -17.51,19.41 -17.38,19.22 -17.22,19.06 -17.05,18.91 -16.85,18.79 -16.66,18.68 -14.07,17.64 -11.49,16.60 -8.96,15.34 -6.42,14.08 -5.28,12.63 -4.14,11.18 -3.41,9.72 -2.68,8.26 -3.55,9.12 -4.43,9.98 -4.70,10.11 -4.97,10.23 -5.26,10.28 -5.55,10.34 -5.85,10.32 -6.14,10.31 -6.42,10.22 -6.71,10.14 -6.96,9.99 -7.21,9.84 -7.42,9.63 -7.63,9.42 -7.79,9.17 -7.94,8.92 -8.03,8.64 -8.12,8.36 -8.14,8.06 -8.16,7.77 -8.11,7.48 -8.06,7.18 -7.94,6.91 -7.82,6.64 -7.64,6.41 -7.46,6.18 -7.23,5.99 -7.00,5.81 -5.70,4.16 -4.39,2.51 -3.66,1.19 -2.93,-0.12 -2.71,-0.32 -2.49,-0.53 -2.22,-0.68 -1.95,-0.82 -1.66,-0.90 -1.37,-0.98 -1.06,-0.99 -0.76,-1.00 -0.46,-0.93 -0.17,-0.86 0.10,-0.73 0.37,-0.59 0.60,-0.40 0.83,-0.20 1.01,0.04 1.19,0.28 1.30,0.56 1.41,0.85 1.46,1.15 1.50,1.45 1.47,1.75 1.44,2.05 1.34,2.34 1.24,2.62 1.07,2.88 0.90,3.13 -0.31,3.68 -1.54,4.22 -1.14,3.78 -0.74,3.33 -1.06,3.36 -1.37,3.39 -1.68,3.35 -1.99,3.31 -2.28,3.19 -2.58,3.07 -2.83,2.89 -3.09,2.70 -3.29,2.46 -3.50,2.23 -3.64,1.94 -3.78,1.66 -3.85,1.36 -3.92,1.05 -3.91,0.73 -3.90,0.42 -3.82,0.12 -3.74,-0.18 -3.59,-0.45 -3.44,-0.73 -3.22,-0.96 -3.01,-1.19 -2.75,-1.37 -2.49,-1.54 -2.19,-1.65 -1.89,-1.75 -1.88,-1.75 -1.87,-1.76 -1.45,-1.78 -1.03,-1.80 -0.62,-1.68 -0.21,-1.57 0.13,-1.33 0.47,-1.09 0.73,-0.76 0.98,-0.42 1.11,-0.02 1.25,0.37 1.25,0.80 1.24,1.22 1.11,1.62 0.97,2.02 0.71,2.35 0.46,2.69 0.11,2.92 -0.23,3.16 -0.64,3.27 -1.05,3.38 -1.47,3.35 -1.89,3.33 -2.28,3.17 -2.67,3.01 -3.00,2.74 -3.32,2.46 -3.53,2.10 -3.75,1.74 -3.84,1.33 -3.93,0.91 -3.88,0.49 -3.83,0.07 -3.65,-0.30 -3.47,-0.68 -3.18,-0.99 -2.89,-1.29 -2.52,-1.49 -2.14,-1.68 -1.72,-1.75 -1.31,-1.82 -0.89,-1.75 -0.47,-1.68 -0.10,-1.48 0.26,-1.28 0.55,-0.97 0.84,-0.66 1.01,-0.28 1.19,0.10 1.23,0.52 1.28,0.94 1.18,1.35 1.09,1.76 0.87,2.12 0.65,2.48 0.33,2.75 0.01,3.03 -0.36,3.18 -0.74,3.33 -1.06,3.36 -1.37,3.39 -1.68,3.35 -1.99,3.31 -2.28,3.19 -2.58,3.07 -2.83,2.89 -3.09,2.70 -3.29,2.46 -3.49,2.23 -3.64,1.94 -3.78,1.66 -3.85,1.36 -3.92,1.05 -3.91,0.73 -3.90,0.42 -3.82,0.12 -3.74,-0.18 -3.59,-0.45 -3.44,-0.73 -3.23,-0.96 -3.01,-1.19 -2.75,-1.37 -2.49,-1.54 -2.19,-1.65 -1.90,-1.75 -2.41,-0.93 -2.93,-0.12 -2.71,-0.32 -2.49,-0.53 -2.22,-0.68 -1.95,-0.82 -1.66,-0.90 -1.37,-0.98 -1.06,-0.99 -0.76,-1.00 -0.46,-0.93 -0.17,-0.86 0.09,-0.73 0.37,-0.59 0.60,-0.40 0.83,-0.20 1.01,0.04 1.19,0.28 1.30,0.56 1.41,0.85 1.46,1.15 1.50,1.45 1.47,1.75 1.44,2.05 1.34,2.34 1.24,2.62 1.07,2.88 0.90,3.13 0.89,3.35 0.88,3.56 0.10,4.48 -0.67,5.39 -1.74,6.85 -2.81,8.31 -3.62,9.15 -4.43,9.98 -4.70,10.11 -4.97,10.23 -5.26,10.28 -5.55,10.34 -5.85,10.32 -6.14,10.31 -6.42,10.22 -6.71,10.14 -6.96,9.99 -7.21,9.84 -7.42,9.63 -7.63,9.42 -7.79,9.17 -7.94,8.92 -8.03,8.64 -8.12,8.36 -8.14,8.06 -8.16,7.77 -8.11,7.48 -8.06,7.18 -7.94,6.91 -7.82,6.64 -7.64,6.41 -7.46,6.18 -7.23,5.99 -7.00,5.81 -6.26,5.31 -5.53,4.82 -3.34,4.13 -1.16,3.44 -0.05,4.33 1.04,5.21 1.12,6.45 1.19,7.69 0.68,8.76 0.17,9.83 -0.78,11.46 -1.75,13.09 -3.29,14.98 -4.84,16.87 -7.30,18.23 -9.77,19.60 -12.50,20.88 -15.23,22.17 -15.45,22.23 -15.67,22.29 -15.89,22.30 -16.12,22.31 -16.34,22.26 -16.56,22.21 -16.77,22.11 -16.97,22.01 -17.15,21.86 -17.32,21.71 -17.45,21.53 -17.59,21.35 -17.67,21.14 -17.76,20.93 -17.79,20.70 -17.83,20.48 -17.80,20.25 -17.78,20.02 -17.71,19.81 -17.63,19.60 -17.51,19.41 -17.38,19.22 -17.22,19.06 -17.05,18.91 -16.85,18.79 -16.66,18.68 -15.63,18.21 -14.61,17.73 -12.75,17.02 -10.89,16.32 -9.65,16.49 -8.42,16.66 -8.31,16.46 -8.21,16.27 -8.06,16.11 -7.91,15.94 -7.72,15.82 -7.54,15.70 -7.33,15.62 -7.12,15.55 -6.90,15.52 -6.68,15.50 -6.46,15.53 -6.24,15.56 -6.04,15.64 -5.83,15.72 -5.65,15.85 -5.47,15.98 -5.33,16.15 -5.18,16.31 -5.08,16.51 -4.98,16.71 -4.93,16.92 -4.88,17.14 -4.89,17.36 -4.89,17.58 -4.95,17.80 -5.00,18.01 -5.04,18.55 -5.08,19.10 -5.80,20.66 -6.52,22.22 -7.96,24.47 -9.41,26.71 -11.30,28.41 -13.20,30.10 -15.50,31.23 -17.81,32.36 -17.98,32.48 -18.15,32.60 -18.34,32.67 -18.54,32.74 -18.74,32.77 -18.95,32.79 -19.15,32.77 -19.36,32.74 -19.55,32.67 -19.75,32.59 -19.92,32.48 -20.09,32.36 -20.23,32.20 -20.36,32.05 -20.46,31.86 -20.56,31.68 -20.60,31.48 -20.65,31.27 -20.65,31.07 -20.65,30.86 -20.60,30.66 -20.55,30.46 -20.46,30.27 -20.36,30.09 -20.22,29.93 -20.08,29.78 -19.09,29.30 -18.09,28.82 -16.56,27.48 -15.03,26.14 -12.68,24.21 -10.33,22.29 -7.56,21.60 -4.80,20.91 -4.63,20.86 -4.47,20.80 -4.30,20.79 -4.12,20.77 -3.95,20.80 -3.78,20.82 -3.62,20.89 -3.46,20.96 -3.32,21.06 -3.18,21.16 -3.07,21.30 -2.96,21.43 -2.89,21.59 -2.81,21.74 -2.78,21.91 -2.74,22.08 -2.75,22.25 -2.75,22.43 -2.80,22.59 -2.84,22.76 -2.93,22.91 -3.02,23.06 -3.13,23.19 -3.25,23.31 -3.40,23.41 -3.54,23.50 -5.06,24.77 -6.58,26.03 -10.24,27.81 -13.90,29.59 -18.55,31.09 -23.21,32.59 -27.56,32.63 -31.90,32.68 -33.46,31.55 -35.03,30.41 -33.97,27.57 -32.92,24.73 -29.64,22.51 -26.37,20.28 -22.13,18.47 -17.88,16.67 -13.90,15.80 -9.92,14.93 -7.10,15.11 -4.28,15.30 -3.61,16.44 -2.95,17.59 -4.59,20.05 -6.22,22.52 -9.93,24.63 -13.63,26.74 -17.26,26.89 -20.88,27.03 -23.11,26.64 -25.34,26.24 -25.62,24.28 -25.90,22.31 -24.28,20.09 -22.66,17.88 -19.64,14.87 -16.62,11.86 -12.85,8.78 -9.08,5.70 -5.88,3.69 -2.68,1.68 -0.09,1.90 2.50,2.12 3.93,4.10 5.36,6.08 4.90,9.28 4.44,12.49 2.57,16.86 0.71,21.22 -3.59,25.99 -7.89,30.75 -12.63,33.19 -17.36,35.62 -21.73,35.81 -26.10,35.99 -27.85,34.37 -29.61,32.74 -28.74,29.13 -27.88,25.52 -25.60,21.54 -23.32,17.57 -19.99,13.60 -16.65,9.64 -13.54,7.04 -10.43,4.44 -8.33,2.93 -6.23,1.43 -3.47,0.00 -0.70,-1.41 -0.52,-1.48 -0.34,-1.54 -0.15,-1.56 0.03,-1.58 0.22,-1.55 0.40,-1.52 0.58,-1.45 0.76,-1.38 0.91,-1.27 1.07,-1.16 1.19,-1.01 1.32,-0.87 1.40,-0.70 1.49,-0.53 1.53,-0.34 1.57,-0.15 1.57,0.03 1.56,0.22 1.51,0.40 1.46,0.59 1.37,0.75 1.28,0.92 1.15,1.06 1.02,1.20 0.86,1.31 0.70,1.41 0.70,1.41 L 0.70,1.41 Z"></path></g><g transform="translate(43.843524464637994 98.96011038395062) rotate(0 52.699246644467394 -22.240022985173354)" stroke="none"><path fill="#1e1e1e" d="M -0.19,-1.55 Q -0.19,-1.55 2.02,-1.79 4.25,-2.03 8.09,-3.48 11.94,-4.92 18.05,-7.75 24.15,-10.57 32.05,-14.28 39.95,-17.99 48.91,-21.52 57.87,-25.06 66.13,-27.95 74.40,-30.84 81.53,-33.18 88.65,-35.52 92.99,-37.59 97.33,-39.66 99.22,-40.62 101.12,-41.59 100.15,-43.52 99.18,-45.45 99.34,-45.53 99.49,-45.61 99.66,-45.65 99.83,-45.69 100.01,-45.68 100.19,-45.68 100.36,-45.64 100.53,-45.59 100.68,-45.51 100.84,-45.43 100.97,-45.31 101.10,-45.19 101.19,-45.05 101.29,-44.90 101.35,-44.73 101.41,-44.57 101.43,-44.39 101.45,-44.22 101.43,-44.05 101.41,-43.87 101.34,-43.71 101.28,-43.54 101.18,-43.40 101.07,-43.26 100.94,-43.14 100.81,-43.03 99.85,-43.16 98.89,-43.29 98.76,-43.49 98.64,-43.69 98.59,-43.92 98.54,-44.15 98.56,-44.38 98.59,-44.62 98.68,-44.83 98.78,-45.05 98.94,-45.22 99.10,-45.39 99.31,-45.50 99.52,-45.62 99.75,-45.66 99.99,-45.69 100.22,-45.66 100.45,-45.62 100.66,-45.51 100.87,-45.40 101.03,-45.23 101.20,-45.06 101.30,-44.85 101.40,-44.63 101.42,-44.40 101.45,-44.16 101.40,-43.93 101.35,-43.70 101.23,-43.50 101.11,-43.30 100.93,-43.14 100.75,-42.99 100.53,-42.90 100.31,-42.81 100.08,-42.80 99.84,-42.79 99.62,-42.85 99.39,-42.91 99.19,-43.04 99.00,-43.17 98.85,-43.36 98.71,-43.55 98.63,-43.77 98.56,-43.99 98.55,-44.23 98.55,-44.46 98.63,-44.69 98.70,-44.91 98.84,-45.10 98.99,-45.29 99.18,-45.42 99.37,-45.56 99.60,-45.62 99.83,-45.69 100.06,-45.67 100.30,-45.66 100.52,-45.58 100.74,-45.49 99.96,-45.47 99.18,-45.45 99.33,-45.53 99.49,-45.61 99.66,-45.65 99.83,-45.69 100.01,-45.68 100.19,-45.68 100.36,-45.64 100.53,-45.59 100.68,-45.51 100.84,-45.43 100.97,-45.31 101.10,-45.19 101.19,-45.05 101.29,-44.90 101.35,-44.73 101.41,-44.57 101.43,-44.39 101.45,-44.22 101.43,-44.05 101.41,-43.87 101.34,-43.71 101.28,-43.54 101.18,-43.40 101.07,-43.26 100.94,-43.14 100.81,-43.03 102.06,-42.08 103.30,-41.14 100.89,-39.20 98.48,-37.26 93.99,-35.12 89.49,-32.98 82.39,-30.63 75.29,-28.29 67.08,-25.41 58.87,-22.52 50.00,-19.00 41.13,-15.49 33.24,-11.75 25.34,-8.02 19.15,-5.12 12.96,-2.22 8.80,-0.64 4.64,0.92 2.41,1.23 0.19,1.55 0.00,1.55 -0.18,1.55 -0.36,1.50 -0.54,1.46 -0.71,1.37 -0.88,1.28 -1.02,1.16 -1.16,1.03 -1.27,0.88 -1.38,0.73 -1.44,0.55 -1.51,0.37 -1.53,0.19 -1.56,0.00 -1.54,-0.18 -1.51,-0.36 -1.45,-0.54 -1.38,-0.72 -1.27,-0.87 -1.17,-1.03 -1.03,-1.15 -0.89,-1.28 -0.72,-1.37 -0.55,-1.45 -0.37,-1.50 -0.19,-1.55 -0.19,-1.55 L -0.19,-1.55 Z"></path></g><g transform="translate(53.5131028831056 89.29053196548273) rotate(0 58.98441359804883 -18.372176863180457)" stroke="none"><path fill="#1e1e1e" d="M -0.14,-1.55 Q -0.14,-1.55 2.91,-1.79 5.98,-2.04 11.96,-2.96 17.94,-3.88 26.30,-5.65 34.67,-7.42 44.03,-10.11 53.39,-12.79 62.08,-15.87 70.77,-18.94 77.78,-21.90 84.78,-24.87 90.57,-27.25 96.35,-29.62 100.16,-31.45 103.97,-33.28 106.46,-34.35 108.96,-35.42 110.85,-36.18 112.75,-36.94 114.76,-37.51 116.76,-38.08 117.02,-38.10 117.27,-38.11 117.52,-38.05 117.76,-37.98 117.97,-37.84 118.19,-37.70 118.34,-37.50 118.50,-37.29 118.58,-37.05 118.66,-36.81 118.67,-36.56 118.67,-36.30 118.59,-36.06 118.51,-35.82 118.36,-35.61 118.20,-35.41 117.99,-35.26 117.78,-35.12 117.54,-35.05 117.29,-34.98 117.04,-34.99 116.79,-35.00 116.55,-35.10 116.31,-35.19 116.11,-35.35 115.92,-35.51 115.79,-35.73 115.65,-35.95 115.60,-36.20 115.54,-36.45 115.56,-36.70 115.59,-36.95 115.70,-37.19 115.80,-37.42 115.97,-37.61 116.15,-37.79 116.37,-37.91 116.60,-38.03 116.85,-38.08 117.10,-38.12 117.35,-38.08 117.60,-38.04 117.83,-37.92 118.06,-37.81 118.23,-37.62 118.41,-37.44 118.52,-37.21 118.63,-36.98 118.66,-36.72 118.69,-36.47 118.63,-36.22 118.58,-35.97 118.45,-35.75 118.32,-35.53 118.13,-35.37 117.93,-35.20 117.70,-35.10 117.46,-35.01 117.46,-35.01 117.46,-35.01 115.60,-34.69 113.74,-34.38 111.87,-33.68 110.01,-32.98 107.56,-31.93 105.12,-30.88 101.25,-29.01 97.37,-27.15 91.60,-24.76 85.84,-22.38 78.76,-19.38 71.68,-16.37 62.92,-13.25 54.16,-10.13 44.71,-7.40 35.25,-4.67 26.82,-2.85 18.39,-1.03 12.32,-0.05 6.25,0.93 3.19,1.24 0.14,1.55 -0.04,1.55 -0.23,1.54 -0.41,1.49 -0.59,1.44 -0.76,1.35 -0.92,1.25 -1.06,1.12 -1.20,1.00 -1.30,0.84 -1.40,0.68 -1.46,0.50 -1.52,0.32 -1.54,0.14 -1.56,-0.04 -1.53,-0.23 -1.50,-0.41 -1.43,-0.59 -1.36,-0.76 -1.24,-0.91 -1.13,-1.07 -0.99,-1.19 -0.84,-1.31 -0.67,-1.39 -0.50,-1.47 -0.32,-1.51 -0.14,-1.55 -0.14,-1.55 L -0.14,-1.55 Z"></path></g><g transform="translate(47.711444359659254 92.1914165569774) rotate(0 65.26965432465863 -21.273070676303718)" stroke="none"><path fill="#1e1e1e" d="M -0.15,-1.69 Q -0.15,-1.69 2.90,-1.92 5.96,-2.14 10.77,-3.31 15.57,-4.49 26.54,-7.48 37.52,-10.47 50.27,-13.69 63.02,-16.90 76.22,-20.21 89.42,-23.51 99.14,-26.84 108.86,-30.17 114.88,-33.22 120.90,-36.27 123.37,-38.33 125.84,-40.40 126.50,-41.48 127.16,-42.56 127.24,-42.77 127.32,-42.99 127.46,-43.17 127.60,-43.35 127.79,-43.47 127.99,-43.60 128.21,-43.65 128.43,-43.71 128.66,-43.69 128.89,-43.68 129.10,-43.59 129.31,-43.50 129.48,-43.34 129.66,-43.19 129.77,-42.99 129.88,-42.79 129.93,-42.57 129.97,-42.34 129.94,-42.12 129.91,-41.89 129.81,-41.68 129.71,-41.48 129.55,-41.31 129.39,-41.15 129.18,-41.05 128.98,-40.94 128.75,-40.91 128.52,-40.88 128.30,-40.92 128.07,-40.96 127.87,-41.07 127.67,-41.19 127.52,-41.36 127.36,-41.53 127.27,-41.74 127.18,-41.95 127.16,-42.18 127.14,-42.40 127.19,-42.63 127.25,-42.85 127.37,-43.04 127.49,-43.24 127.67,-43.38 127.85,-43.53 128.07,-43.61 128.28,-43.69 128.51,-43.70 128.74,-43.70 128.96,-43.64 129.18,-43.57 129.37,-43.44 129.55,-43.31 129.69,-43.12 129.82,-42.93 129.89,-42.72 129.96,-42.50 129.95,-42.27 129.95,-42.04 129.95,-42.04 129.95,-42.04 128.75,-40.18 127.56,-38.33 124.85,-36.10 122.13,-33.86 115.95,-30.72 109.76,-27.58 99.93,-24.20 90.10,-20.81 76.91,-17.48 63.72,-14.15 51.01,-10.90 38.30,-7.65 27.30,-4.59 16.31,-1.54 11.28,-0.25 6.26,1.03 3.20,1.36 0.15,1.69 -0.05,1.68 -0.25,1.68 -0.45,1.62 -0.65,1.57 -0.83,1.47 -1.00,1.37 -1.15,1.23 -1.30,1.08 -1.41,0.91 -1.53,0.74 -1.59,0.55 -1.66,0.35 -1.68,0.15 -1.70,-0.05 -1.67,-0.25 -1.63,-0.45 -1.56,-0.64 -1.48,-0.83 -1.36,-1.00 -1.23,-1.16 -1.08,-1.29 -0.92,-1.42 -0.73,-1.51 -0.55,-1.60 -0.35,-1.65 -0.15,-1.69 -0.15,-1.69 L -0.15,-1.69 Z"></path></g><g transform="translate(50.61219984835407 96.0592811222275) rotate(0 58.98448737107719 -17.40526144082517)" stroke="none"><path fill="#1e1e1e" d="M -0.49,-1.63 Q -0.49,-1.63 2.30,-2.41 5.09,-3.20 13.18,-6.27 21.27,-9.35 30.61,-12.34 39.96,-15.33 50.63,-17.98 61.30,-20.64 71.95,-23.15 82.59,-25.66 91.27,-27.83 99.95,-30.01 105.01,-31.48 110.07,-32.95 112.46,-33.83 114.86,-34.72 115.57,-35.22 116.29,-35.72 116.47,-35.77 116.66,-35.81 116.85,-35.81 117.04,-35.81 117.23,-35.76 117.42,-35.72 117.58,-35.63 117.75,-35.54 117.90,-35.41 118.04,-35.28 118.15,-35.12 118.25,-34.96 118.32,-34.79 118.39,-34.61 118.41,-34.42 118.43,-34.23 118.41,-34.04 118.38,-33.85 118.31,-33.67 118.25,-33.49 118.14,-33.33 118.03,-33.17 117.88,-33.05 117.74,-32.92 117.57,-32.83 117.40,-32.75 115.48,-32.97 113.57,-33.20 113.34,-33.28 113.10,-33.35 112.91,-33.50 112.71,-33.65 112.57,-33.85 112.43,-34.05 112.36,-34.29 112.29,-34.52 112.30,-34.77 112.31,-35.01 112.40,-35.24 112.49,-35.47 112.65,-35.66 112.81,-35.85 113.02,-35.98 113.22,-36.11 113.46,-36.16 113.70,-36.22 113.95,-36.19 114.19,-36.17 114.42,-36.07 114.64,-35.97 114.82,-35.80 115.00,-35.63 115.12,-35.42 115.23,-35.20 115.28,-34.96 115.32,-34.72 115.28,-34.47 115.24,-34.23 115.13,-34.01 115.02,-33.80 114.84,-33.63 114.66,-33.45 114.44,-33.35 114.22,-33.24 113.98,-33.22 113.73,-33.19 113.49,-33.24 113.25,-33.29 113.04,-33.41 112.83,-33.54 112.67,-33.72 112.51,-33.91 112.41,-34.13 112.32,-34.36 112.31,-34.61 112.29,-34.85 112.35,-35.09 112.42,-35.33 112.55,-35.53 112.69,-35.74 112.88,-35.89 113.08,-36.04 113.31,-36.12 113.54,-36.20 113.79,-36.20 114.03,-36.20 114.03,-36.20 114.03,-36.20 115.16,-35.96 116.29,-35.72 116.47,-35.77 116.66,-35.81 116.85,-35.81 117.04,-35.81 117.23,-35.76 117.41,-35.72 117.58,-35.63 117.75,-35.54 117.90,-35.41 118.04,-35.28 118.15,-35.12 118.25,-34.96 118.32,-34.79 118.39,-34.61 118.41,-34.42 118.43,-34.23 118.41,-34.04 118.38,-33.85 118.31,-33.67 118.25,-33.49 118.14,-33.33 118.03,-33.17 117.88,-33.05 117.74,-32.92 117.57,-32.83 117.40,-32.75 116.60,-32.47 115.80,-32.20 113.31,-31.27 110.83,-30.34 105.73,-28.84 100.62,-27.35 91.93,-25.15 83.23,-22.95 72.61,-20.42 62.00,-17.88 51.43,-15.21 40.86,-12.54 31.61,-9.52 22.37,-6.51 14.19,-3.32 6.02,-0.13 3.25,0.75 0.49,1.63 0.28,1.67 0.08,1.70 -0.12,1.69 -0.32,1.67 -0.52,1.61 -0.71,1.54 -0.89,1.44 -1.06,1.33 -1.21,1.18 -1.35,1.03 -1.45,0.86 -1.56,0.68 -1.62,0.48 -1.68,0.28 -1.69,0.08 -1.70,-0.12 -1.66,-0.32 -1.62,-0.52 -1.53,-0.71 -1.45,-0.89 -1.32,-1.05 -1.19,-1.22 -1.03,-1.34 -0.86,-1.47 -0.67,-1.55 -0.49,-1.63 -0.49,-1.63 L -0.49,-1.63 Z"></path></g><g transform="translate(44.81054132490772 116.36536260314722) rotate(0 57.050527423566564 -29.008735255403792)" stroke="none"><path fill="#1e1e1e" d="M -0.89,-1.27 Q -0.89,-1.27 1.90,-3.19 4.70,-5.11 9.80,-8.43 14.91,-11.75 24.63,-17.07 34.35,-22.39 43.49,-26.88 52.64,-31.36 61.55,-35.21 70.46,-39.07 78.41,-42.37 86.37,-45.67 92.21,-48.45 98.06,-51.22 101.93,-53.23 105.80,-55.24 108.89,-56.97 111.98,-58.71 112.23,-58.79 112.47,-58.87 112.73,-58.87 112.98,-58.86 113.23,-58.78 113.47,-58.69 113.67,-58.53 113.87,-58.38 114.02,-58.16 114.16,-57.95 114.22,-57.70 114.29,-57.45 114.27,-57.19 114.26,-56.94 114.16,-56.70 114.06,-56.46 113.89,-56.27 113.72,-56.08 113.50,-55.95 113.28,-55.82 113.03,-55.76 112.78,-55.71 112.52,-55.74 112.27,-55.77 112.03,-55.88 111.80,-55.99 111.62,-56.17 111.43,-56.35 111.31,-56.58 111.20,-56.81 111.16,-57.06 111.12,-57.32 111.16,-57.57 111.21,-57.82 111.33,-58.05 111.46,-58.27 111.64,-58.45 111.83,-58.62 112.07,-58.73 112.30,-58.83 112.56,-58.86 112.81,-58.88 113.06,-58.82 113.31,-58.77 113.53,-58.63 113.75,-58.50 113.92,-58.30 114.08,-58.10 114.17,-57.86 114.26,-57.62 114.27,-57.36 114.29,-57.11 114.21,-56.86 114.14,-56.61 114.00,-56.40 113.85,-56.19 113.64,-56.04 113.44,-55.89 113.44,-55.89 113.44,-55.89 110.23,-54.38 107.03,-52.87 103.12,-50.84 99.21,-48.80 93.31,-45.99 87.40,-43.18 79.47,-39.87 71.54,-36.57 62.70,-32.72 53.86,-28.88 44.78,-24.40 35.70,-19.92 26.10,-14.63 16.49,-9.34 11.45,-6.00 6.41,-2.66 3.65,-0.69 0.89,1.27 0.72,1.36 0.56,1.45 0.38,1.50 0.19,1.54 0.01,1.55 -0.17,1.55 -0.36,1.50 -0.54,1.46 -0.71,1.37 -0.87,1.29 -1.02,1.16 -1.16,1.04 -1.27,0.88 -1.37,0.73 -1.44,0.55 -1.51,0.38 -1.53,0.19 -1.56,0.01 -1.54,-0.17 -1.51,-0.36 -1.45,-0.54 -1.38,-0.71 -1.28,-0.87 -1.17,-1.02 -1.03,-1.15 -0.89,-1.27 -0.89,-1.27 L -0.89,-1.27 Z"></path></g><g transform="translate(46.74442749938953 88.32358887824165) rotate(0 51.7322297841979 -20.306099924176905)" stroke="none"><path fill="#1e1e1e" d="M -0.41,-1.50 Q -0.41,-1.50 2.65,-2.30 5.72,-3.10 10.00,-4.80 14.29,-6.49 20.63,-8.62 26.97,-10.75 35.23,-13.32 43.49,-15.88 51.99,-18.63 60.49,-21.38 68.25,-24.21 76.02,-27.04 82.07,-29.62 88.13,-32.20 92.05,-34.38 95.96,-36.56 98.61,-38.75 101.26,-40.93 101.49,-41.05 101.71,-41.17 101.97,-41.21 102.22,-41.25 102.48,-41.21 102.73,-41.17 102.96,-41.05 103.18,-40.93 103.36,-40.74 103.54,-40.56 103.65,-40.32 103.75,-40.09 103.78,-39.84 103.81,-39.58 103.75,-39.33 103.70,-39.08 103.57,-38.86 103.43,-38.64 103.24,-38.47 103.04,-38.31 102.80,-38.21 102.56,-38.11 102.31,-38.10 102.05,-38.09 101.80,-38.16 101.56,-38.22 101.34,-38.37 101.13,-38.51 100.98,-38.72 100.82,-38.92 100.74,-39.17 100.66,-39.41 100.66,-39.67 100.66,-39.92 100.74,-40.17 100.82,-40.41 100.97,-40.61 101.13,-40.82 101.34,-40.96 101.56,-41.11 101.80,-41.18 102.05,-41.25 102.31,-41.23 102.56,-41.22 102.80,-41.12 103.04,-41.03 103.24,-40.86 103.43,-40.69 103.57,-40.47 103.70,-40.25 103.75,-40.00 103.81,-39.75 103.78,-39.50 103.75,-39.24 103.65,-39.01 103.54,-38.77 103.36,-38.59 103.18,-38.40 103.18,-38.40 103.18,-38.40 100.22,-36.32 97.26,-34.23 93.22,-31.98 89.18,-29.73 83.06,-27.12 76.94,-24.50 69.14,-21.65 61.33,-18.79 52.82,-16.02 44.31,-13.24 36.10,-10.66 27.88,-8.08 21.62,-5.95 15.36,-3.81 10.93,-2.02 6.51,-0.22 3.46,0.64 0.41,1.50 0.22,1.53 0.03,1.56 -0.14,1.54 -0.33,1.52 -0.51,1.46 -0.69,1.40 -0.84,1.29 -1.00,1.19 -1.13,1.05 -1.26,0.91 -1.35,0.75 -1.44,0.58 -1.49,0.40 -1.54,0.22 -1.55,0.03 -1.55,-0.15 -1.51,-0.33 -1.47,-0.51 -1.39,-0.68 -1.30,-0.85 -1.18,-0.99 -1.06,-1.14 -0.91,-1.25 -0.75,-1.36 -0.58,-1.43 -0.41,-1.50 -0.41,-1.50 L -0.41,-1.50 Z"></path></g><g transform="translate(39.008735255403735 98.96011038395062) rotate(0 62.85225972004173 -23.206966072414403)" stroke="none"><path fill="#1e1e1e" d="M -0.53,-1.46 Q -0.53,-1.46 2.53,-2.54 5.60,-3.62 10.74,-5.99 15.88,-8.37 22.82,-11.60 29.76,-14.84 38.03,-18.17 46.30,-21.50 55.94,-24.86 65.59,-28.22 75.84,-31.05 86.09,-33.87 94.58,-36.45 103.07,-39.03 108.86,-41.22 114.66,-43.42 118.94,-45.26 123.21,-47.09 123.46,-47.15 123.70,-47.20 123.95,-47.18 124.21,-47.15 124.44,-47.05 124.67,-46.94 124.85,-46.77 125.03,-46.59 125.15,-46.37 125.27,-46.15 125.31,-45.90 125.35,-45.65 125.31,-45.40 125.27,-45.15 125.16,-44.92 125.04,-44.70 124.85,-44.53 124.67,-44.35 124.44,-44.25 124.21,-44.14 123.96,-44.11 123.71,-44.08 123.46,-44.14 123.22,-44.19 123.00,-44.32 122.78,-44.45 122.62,-44.64 122.45,-44.84 122.36,-45.07 122.27,-45.30 122.25,-45.56 122.24,-45.81 122.30,-46.05 122.37,-46.30 122.51,-46.51 122.65,-46.72 122.86,-46.87 123.06,-47.02 123.30,-47.10 123.54,-47.19 123.79,-47.19 124.04,-47.19 124.28,-47.11 124.52,-47.03 124.72,-46.87 124.92,-46.72 125.07,-46.51 125.21,-46.30 125.28,-46.06 125.34,-45.82 125.33,-45.56 125.32,-45.31 125.23,-45.08 125.13,-44.84 124.97,-44.65 124.81,-44.45 124.59,-44.32 124.37,-44.19 124.37,-44.19 124.37,-44.19 119.99,-42.56 115.61,-40.93 109.73,-38.70 103.85,-36.47 95.33,-33.87 86.80,-31.27 76.65,-28.46 66.49,-25.65 56.91,-22.29 47.33,-18.93 39.15,-15.61 30.96,-12.28 24.03,-9.02 17.10,-5.75 11.86,-3.28 6.62,-0.81 3.58,0.32 0.53,1.46 0.35,1.51 0.16,1.55 -0.02,1.55 -0.20,1.54 -0.39,1.50 -0.57,1.45 -0.73,1.36 -0.90,1.27 -1.04,1.14 -1.18,1.01 -1.28,0.86 -1.39,0.70 -1.45,0.52 -1.52,0.35 -1.54,0.16 -1.56,-0.02 -1.53,-0.20 -1.51,-0.39 -1.44,-0.56 -1.37,-0.74 -1.26,-0.89 -1.15,-1.05 -1.01,-1.17 -0.86,-1.29 -0.70,-1.38 -0.53,-1.46 -0.53,-1.46 L -0.53,-1.46 Z"></path></g></svg>