<?xml version="1.0" standalone="no"?>
<!DOCTYPE svg PUBLIC "-//W3C//DTD SVG 1.1//EN" "http://www.w3.org/Graphics/SVG/1.1/DTD/svg11.dtd">
<svg version="1.1" xmlns="http://www.w3.org/2000/svg" viewBox="0 0 139.0853672118219 190.88106106770567" width="278.1707344236438" height="381.76212213541135"><!-- svg-source:excalidraw --><metadata></metadata><defs><style class="style-fonts">
      </style></defs><g transform="translate(78.8624801174692 109.4680592671632) rotate(0 -14.66513483096469 -14.027528733310362)" stroke="none"><path fill="#ffffff" d="M -1.12,-1.50 Q -1.12,-1.50 0.34,-2.59 1.81,-3.69 4.71,-5.58 7.60,-7.48 11.04,-9.73 14.48,-11.97 18.10,-14.72 21.73,-17.46 23.96,-19.67 26.19,-21.87 27.50,-23.24 28.82,-24.61 29.81,-25.35 30.80,-26.10 31.18,-26.82 31.55,-27.53 31.77,-27.63 31.98,-27.72 32.21,-27.77 32.44,-27.81 32.67,-27.80 32.91,-27.78 33.13,-27.71 33.35,-27.65 33.55,-27.53 33.75,-27.40 33.92,-27.24 34.09,-27.08 34.21,-26.88 34.33,-26.68 34.40,-26.45 34.47,-26.23 34.48,-26.00 34.50,-25.77 34.46,-25.54 34.42,-25.31 34.32,-25.09 34.23,-24.88 34.08,-24.69 33.94,-24.51 33.76,-24.36 33.57,-24.22 34.05,-22.80 34.53,-21.38 34.56,-18.16 34.59,-14.93 34.22,-10.21 33.85,-5.49 33.32,-0.92 32.78,3.65 31.42,7.91 30.06,12.17 28.74,15.78 27.43,19.39 25.73,22.47 24.03,25.56 22.55,27.63 21.07,29.69 20.60,30.90 20.13,32.10 18.40,32.92 16.68,33.74 15.45,32.91 14.21,32.08 11.93,29.37 9.65,26.65 5.89,23.40 2.13,20.15 -4.90,15.47 -11.95,10.80 -18.90,7.73 -25.84,4.66 -31.01,2.60 -36.19,0.54 -39.07,-0.32 -41.95,-1.18 -43.80,-1.69 -45.65,-2.21 -46.11,-4.13 -46.57,-6.06 -44.77,-7.38 -42.97,-8.71 -39.22,-10.64 -35.48,-12.57 -30.19,-14.85 -24.90,-17.13 -17.85,-19.57 -10.80,-22.00 -2.70,-24.85 5.40,-27.70 13.58,-31.09 21.76,-34.48 26.31,-36.64 30.87,-38.80 33.04,-40.72 35.21,-42.65 36.03,-43.84 36.86,-45.04 37.10,-46.72 37.34,-48.39 37.30,-50.15 37.26,-51.91 36.65,-53.03 36.05,-54.15 35.37,-55.53 34.70,-56.90 33.79,-59.01 32.89,-61.11 32.12,-63.60 31.36,-66.08 30.05,-68.42 28.74,-70.75 25.65,-75.05 22.55,-79.36 19.10,-82.98 15.64,-86.60 13.09,-88.88 10.54,-91.15 8.70,-92.89 6.86,-94.63 6.29,-95.58 5.72,-96.53 5.89,-95.22 6.05,-93.91 6.43,-92.15 6.82,-90.39 7.45,-88.54 8.08,-86.68 8.31,-84.81 8.54,-82.94 8.83,-80.48 9.12,-78.03 9.57,-73.98 10.02,-69.93 10.18,-63.73 10.34,-57.54 10.38,-49.42 10.42,-41.31 10.42,-31.26 10.41,-21.22 10.03,-8.13 9.65,4.95 9.48,14.16 9.31,23.37 8.86,29.89 8.41,36.41 8.22,41.35 8.02,46.28 7.93,49.84 7.85,53.40 7.81,56.02 7.77,58.63 7.37,60.95 6.98,63.26 6.94,64.57 6.89,65.87 6.43,67.13 5.97,68.40 4.41,69.53 2.86,70.66 0.64,71.36 -1.57,72.05 -5.94,72.33 -10.32,72.60 -15.06,72.69 -19.79,72.77 -25.61,71.68 -31.43,70.59 -37.58,68.63 -43.74,66.68 -49.37,63.59 -55.01,60.51 -58.95,56.92 -62.89,53.33 -64.98,50.24 -67.07,47.16 -67.59,44.40 -68.12,41.65 -66.76,39.55 -65.40,37.45 -62.84,35.82 -60.29,34.18 -57.25,33.48 -54.21,32.78 -51.46,32.50 -48.71,32.23 -46.81,32.06 -44.90,31.89 -43.44,32.15 -41.98,32.41 -40.72,33.41 -39.46,34.41 -39.29,36.67 -39.12,38.92 -40.43,39.66 -41.74,40.40 -43.26,40.82 -44.79,41.25 -45.91,41.72 -47.03,42.20 -48.08,42.51 -49.13,42.82 -49.87,42.96 -50.61,43.11 -50.91,43.14 -51.21,43.17 -51.51,43.13 -51.80,43.09 -52.08,42.97 -52.36,42.86 -52.61,42.69 -52.85,42.51 -53.05,42.28 -53.24,42.05 -53.38,41.79 -53.52,41.52 -53.58,41.22 -53.65,40.93 -53.64,40.63 -53.64,40.33 -53.56,40.04 -53.48,39.75 -53.34,39.48 -53.20,39.22 -52.99,39.00 -52.79,38.77 -52.54,38.61 -52.29,38.44 -52.00,38.34 -51.72,38.24 -49.74,38.82 -47.75,39.41 -46.07,40.04 -44.38,40.66 -43.99,40.85 -43.60,41.03 -43.29,41.33 -42.99,41.63 -42.79,42.01 -42.59,42.39 -42.53,42.81 -42.46,43.24 -42.53,43.66 -42.61,44.09 -42.81,44.46 -43.02,44.84 -43.33,45.13 -43.65,45.42 -44.04,45.60 -44.43,45.78 -44.86,45.82 -45.28,45.86 -45.70,45.76 -46.12,45.67 -46.49,45.44 -46.85,45.22 -47.13,44.89 -47.40,44.56 -47.56,44.16 -47.71,43.76 -47.73,43.33 -47.75,42.90 -47.63,42.49 -47.51,42.07 -47.27,41.72 -47.02,41.37 -46.68,41.11 -46.33,40.86 -45.93,40.72 -45.52,40.59 -45.09,40.59 -44.66,40.60 -44.25,40.74 -43.85,40.88 -43.51,41.14 -43.17,41.41 -42.93,41.77 -42.69,42.12 -42.58,42.54 -42.47,42.95 -42.50,43.38 -42.53,43.81 -42.69,44.21 -42.85,44.60 -43.14,44.93 -43.42,45.25 -43.79,45.47 -44.16,45.69 -44.58,45.78 -45.00,45.86 -45.42,45.81 -45.85,45.76 -45.85,45.76 -45.85,45.76 -48.23,44.43 -50.61,43.11 -50.91,43.14 -51.21,43.17 -51.51,43.13 -51.80,43.09 -52.08,42.97 -52.36,42.86 -52.61,42.69 -52.85,42.51 -53.05,42.28 -53.24,42.05 -53.38,41.79 -53.52,41.52 -53.58,41.22 -53.65,40.93 -53.64,40.63 -53.64,40.33 -53.56,40.04 -53.48,39.75 -53.34,39.48 -53.20,39.22 -52.99,39.00 -52.79,38.77 -52.54,38.61 -52.29,38.44 -52.00,38.34 -51.72,38.24 -50.18,38.10 -48.64,37.96 -47.20,37.46 -45.75,36.95 -43.94,36.96 -42.13,36.97 -43.46,35.86 -44.78,34.74 -46.61,34.80 -48.45,34.86 -51.05,35.11 -53.64,35.37 -56.29,35.92 -58.93,36.46 -61.11,37.77 -63.30,39.08 -64.46,40.44 -65.63,41.81 -65.20,43.76 -64.78,45.71 -62.90,48.51 -61.01,51.31 -57.33,54.68 -53.65,58.06 -48.26,61.00 -42.87,63.94 -36.87,65.81 -30.88,67.67 -25.37,68.68 -19.86,69.68 -15.20,69.51 -10.55,69.35 -6.61,69.04 -2.67,68.73 -0.87,68.04 0.93,67.36 2.35,66.40 3.78,65.43 4.06,64.12 4.34,62.81 4.71,60.70 5.07,58.59 5.10,55.97 5.12,53.34 5.19,49.76 5.26,46.18 5.43,41.20 5.60,36.22 6.01,29.78 6.42,23.33 6.55,14.10 6.67,4.87 6.99,-8.16 7.30,-21.20 7.21,-31.23 7.13,-41.27 6.97,-49.33 6.80,-57.40 6.49,-63.40 6.18,-69.40 5.52,-73.34 4.86,-77.28 4.26,-79.82 3.66,-82.37 3.52,-83.63 3.39,-84.90 2.86,-86.98 2.34,-89.06 1.99,-90.59 1.63,-92.12 1.93,-94.10 2.23,-96.08 3.77,-97.62 5.32,-99.16 7.05,-97.93 8.78,-96.70 10.62,-95.01 12.46,-93.33 15.13,-91.01 17.80,-88.69 21.44,-84.95 25.09,-81.22 28.35,-76.83 31.62,-72.44 33.19,-69.85 34.76,-67.26 35.59,-65.06 36.43,-62.86 37.56,-60.84 38.69,-58.82 39.36,-57.41 40.03,-55.99 40.87,-53.99 41.70,-51.98 41.45,-49.88 41.19,-47.78 40.85,-46.45 40.51,-45.13 39.90,-44.13 39.28,-43.13 38.14,-41.87 37.00,-40.61 34.53,-38.48 32.07,-36.34 27.45,-34.13 22.83,-31.91 14.59,-28.46 6.35,-25.02 -1.74,-22.13 -9.84,-19.23 -16.76,-16.79 -23.68,-14.34 -28.83,-12.04 -33.98,-9.74 -37.54,-7.80 -41.10,-5.85 -42.51,-5.10 -43.92,-4.34 -42.54,-4.11 -41.15,-3.88 -38.14,-3.01 -35.13,-2.13 -29.89,-0.10 -24.65,1.93 -17.45,5.06 -10.25,8.19 -2.99,12.91 4.26,17.63 8.29,20.97 12.32,24.31 14.84,27.45 17.37,30.60 18.12,29.36 18.87,28.13 20.26,26.19 21.65,24.24 23.24,21.35 24.84,18.45 26.11,14.88 27.38,11.32 28.66,7.32 29.93,3.32 30.41,-1.19 30.89,-5.70 31.20,-10.28 31.50,-14.86 31.38,-18.00 31.27,-21.14 31.41,-24.33 31.55,-27.53 31.77,-27.63 31.98,-27.72 32.21,-27.77 32.44,-27.81 32.67,-27.80 32.91,-27.78 33.13,-27.71 33.35,-27.65 33.55,-27.53 33.75,-27.41 33.92,-27.24 34.08,-27.08 34.21,-26.88 34.33,-26.68 34.40,-26.45 34.47,-26.23 34.48,-26.00 34.50,-25.77 34.46,-25.54 34.42,-25.31 34.32,-25.09 34.23,-24.88 34.08,-24.69 33.94,-24.51 33.76,-24.36 33.57,-24.22 32.27,-23.32 30.98,-22.43 29.62,-21.11 28.27,-19.80 25.93,-17.42 23.60,-15.04 19.93,-12.17 16.27,-9.31 12.91,-6.98 9.54,-4.65 6.80,-2.67 4.05,-0.70 2.59,0.39 1.12,1.50 0.93,1.61 0.73,1.73 0.51,1.79 0.29,1.85 0.07,1.86 -0.15,1.87 -0.37,1.82 -0.59,1.78 -0.80,1.68 -1.00,1.58 -1.18,1.44 -1.35,1.30 -1.49,1.11 -1.62,0.93 -1.71,0.72 -1.80,0.52 -1.84,0.29 -1.87,0.07 -1.86,-0.15 -1.84,-0.37 -1.76,-0.59 -1.69,-0.80 -1.57,-0.99 -1.45,-1.19 -1.29,-1.34 -1.12,-1.50 -1.12,-1.50 L -1.12,-1.50 Z"></path></g><g transform="translate(30.16810486137274 143.05136077251666) rotate(0 10.488898811719991 -0.2996839663912283)" stroke="none"><path fill="#ffffff" d="M -0.22,-2.34 Q -0.22,-2.34 1.59,-2.45 3.40,-2.57 5.09,-2.64 6.78,-2.71 8.79,-2.66 10.81,-2.61 12.53,-2.62 14.24,-2.63 15.49,-2.69 16.73,-2.76 19.42,-2.33 22.10,-1.90 22.38,-1.67 22.65,-1.44 22.84,-1.14 23.03,-0.83 23.11,-0.48 23.19,-0.13 23.15,0.22 23.11,0.57 22.97,0.90 22.82,1.23 22.57,1.49 22.33,1.75 22.01,1.92 21.69,2.09 21.34,2.15 20.99,2.21 20.63,2.16 20.28,2.10 19.96,1.94 19.64,1.77 19.39,1.51 19.14,1.25 18.99,0.93 18.84,0.60 18.80,0.25 18.76,-0.10 18.83,-0.45 18.91,-0.80 19.09,-1.11 19.27,-1.42 19.54,-1.65 19.82,-1.89 20.15,-2.02 20.48,-2.16 20.84,-2.18 21.20,-2.20 21.54,-2.11 21.89,-2.01 22.19,-1.81 22.49,-1.62 22.71,-1.33 22.93,-1.05 23.04,-0.71 23.16,-0.37 23.16,-0.01 23.16,0.34 23.05,0.68 22.94,1.02 22.72,1.31 22.51,1.60 22.21,1.80 21.92,2.00 21.57,2.10 21.23,2.20 20.87,2.18 20.51,2.16 20.18,2.03 19.84,1.90 19.84,1.90 19.84,1.90 18.30,1.74 16.75,1.58 15.51,1.52 14.27,1.47 12.57,1.48 10.88,1.50 8.93,1.61 6.97,1.72 5.40,1.80 3.83,1.88 2.02,2.11 0.22,2.34 -0.06,2.33 -0.34,2.32 -0.61,2.25 -0.89,2.17 -1.13,2.04 -1.38,1.90 -1.59,1.70 -1.80,1.51 -1.95,1.27 -2.11,1.03 -2.20,0.77 -2.29,0.50 -2.32,0.22 -2.35,-0.06 -2.31,-0.34 -2.26,-0.62 -2.16,-0.88 -2.05,-1.14 -1.88,-1.37 -1.72,-1.60 -1.50,-1.78 -1.28,-1.97 -1.03,-2.09 -0.77,-2.22 -0.50,-2.28 -0.22,-2.34 -0.22,-2.34 L -0.22,-2.34 Z"></path></g><g transform="translate(24.474126647927733 144.5497748884767) rotate(0 11.837473802482691 -0.5993679327825134)" stroke="none"><path fill="#ffffff" d="M -0.18,-2.14 Q -0.18,-2.14 1.80,-2.23 3.79,-2.33 5.80,-2.36 7.81,-2.38 9.93,-2.42 12.04,-2.46 14.09,-2.48 16.14,-2.50 17.74,-2.65 19.34,-2.81 21.47,-2.96 23.61,-3.11 23.92,-3.07 24.23,-3.03 24.50,-2.89 24.78,-2.76 25.00,-2.54 25.22,-2.32 25.36,-2.04 25.50,-1.77 25.55,-1.46 25.59,-1.15 25.53,-0.84 25.47,-0.54 25.32,-0.27 25.17,-0.00 24.94,0.20 24.71,0.41 24.43,0.53 24.14,0.66 23.83,0.68 23.52,0.71 23.22,0.64 22.92,0.56 22.66,0.40 22.39,0.23 22.20,-0.00 22.00,-0.24 21.89,-0.53 21.79,-0.82 21.78,-1.13 21.77,-1.44 21.86,-1.74 21.95,-2.04 22.13,-2.29 22.31,-2.55 22.56,-2.73 22.81,-2.91 23.11,-3.00 23.40,-3.09 23.71,-3.09 24.02,-3.08 24.32,-2.97 24.61,-2.87 24.85,-2.68 25.09,-2.48 25.26,-2.22 25.43,-1.96 25.51,-1.66 25.58,-1.36 25.56,-1.05 25.53,-0.74 25.41,-0.45 25.29,-0.17 25.09,0.06 24.88,0.29 24.61,0.44 24.34,0.60 24.03,0.66 23.73,0.72 23.73,0.72 23.73,0.71 21.65,0.72 19.57,0.73 17.90,0.79 16.22,0.85 14.23,0.93 12.23,1.01 10.09,1.21 7.95,1.40 6.04,1.52 4.13,1.64 2.16,1.89 0.18,2.14 -0.07,2.13 -0.33,2.12 -0.58,2.05 -0.82,1.98 -1.05,1.85 -1.28,1.72 -1.46,1.54 -1.65,1.36 -1.79,1.15 -1.93,0.93 -2.01,0.68 -2.10,0.44 -2.12,0.18 -2.14,-0.07 -2.10,-0.32 -2.06,-0.58 -1.96,-0.82 -1.86,-1.06 -1.71,-1.27 -1.55,-1.47 -1.35,-1.64 -1.15,-1.80 -0.92,-1.92 -0.69,-2.03 -0.43,-2.08 -0.18,-2.14 -0.18,-2.14 L -0.18,-2.14 Z"></path></g><g transform="translate(53.243695965547886 143.35103902291166) rotate(0 -5.993656463840125 10.488898811720162)" stroke="none"><path fill="#ffffff" d="M 1.72,1.49 Q 1.72,1.49 0.58,2.76 -0.55,4.04 -1.61,5.48 -2.66,6.93 -4.14,9.07 -5.61,11.20 -6.55,12.86 -7.50,14.51 -8.09,15.77 -8.69,17.04 -9.27,19.31 -9.85,21.59 -10.00,21.91 -10.16,22.24 -10.41,22.50 -10.66,22.75 -10.98,22.92 -11.30,23.08 -11.65,23.14 -12.01,23.19 -12.36,23.13 -12.71,23.07 -13.03,22.90 -13.34,22.73 -13.59,22.46 -13.83,22.20 -13.98,21.87 -14.13,21.54 -14.16,21.19 -14.20,20.83 -14.12,20.48 -14.04,20.13 -13.85,19.82 -13.66,19.52 -13.38,19.29 -13.11,19.06 -12.77,18.93 -12.44,18.80 -12.08,18.78 -11.72,18.77 -11.37,18.87 -11.03,18.97 -10.73,19.17 -10.44,19.38 -10.22,19.67 -10.01,19.95 -9.90,20.30 -9.79,20.64 -9.79,21.00 -9.80,21.36 -9.91,21.70 -10.03,22.03 -10.25,22.32 -10.47,22.60 -10.77,22.80 -11.07,23.00 -11.42,23.09 -11.77,23.18 -12.13,23.16 -12.48,23.14 -12.82,23.00 -13.15,22.86 -13.42,22.63 -13.69,22.39 -13.87,22.08 -14.05,21.77 -14.13,21.42 -14.20,21.07 -14.16,20.71 -14.11,20.36 -14.11,20.36 -14.11,20.36 -13.12,17.79 -12.13,15.22 -11.41,13.99 -10.68,12.76 -9.74,10.97 -8.80,9.18 -7.46,6.87 -6.13,4.56 -5.02,2.84 -3.92,1.12 -2.82,-0.18 -1.72,-1.49 -1.52,-1.68 -1.31,-1.86 -1.07,-1.99 -0.83,-2.12 -0.56,-2.19 -0.29,-2.26 -0.02,-2.26 0.25,-2.27 0.51,-2.20 0.78,-2.14 1.03,-2.01 1.27,-1.89 1.48,-1.71 1.69,-1.53 1.85,-1.30 2.01,-1.08 2.11,-0.82 2.21,-0.57 2.24,-0.29 2.28,-0.02 2.25,0.24 2.22,0.52 2.12,0.78 2.03,1.03 1.88,1.26 1.72,1.49 1.72,1.49 L 1.72,1.49 Z"></path></g><g transform="translate(28.070334244622245 144.5497748884767) rotate(0 7.791748830195047 8.99048469576013)" stroke="none"><path fill="#ffffff" d="M 1.68,-1.12 Q 1.68,-1.12 2.69,0.44 3.70,2.01 5.33,4.31 6.96,6.61 8.55,8.53 10.14,10.44 11.50,11.84 12.86,13.23 14.85,14.93 16.83,16.63 17.01,16.87 17.19,17.10 17.29,17.38 17.39,17.66 17.39,17.96 17.39,18.26 17.30,18.54 17.21,18.82 17.03,19.06 16.85,19.30 16.61,19.47 16.37,19.63 16.08,19.72 15.79,19.80 15.50,19.79 15.20,19.77 14.92,19.67 14.65,19.56 14.42,19.37 14.19,19.18 14.04,18.93 13.88,18.67 13.81,18.38 13.75,18.09 13.78,17.80 13.80,17.50 13.93,17.23 14.05,16.96 14.25,16.74 14.45,16.53 14.71,16.38 14.98,16.24 15.27,16.19 15.56,16.14 15.85,16.19 16.15,16.23 16.41,16.37 16.68,16.50 16.88,16.72 17.09,16.93 17.22,17.20 17.34,17.47 17.38,17.76 17.41,18.06 17.35,18.35 17.29,18.64 17.14,18.89 16.99,19.15 16.76,19.35 16.54,19.54 16.27,19.65 15.99,19.76 15.69,19.78 15.40,19.80 15.11,19.73 14.82,19.65 14.58,19.49 14.33,19.32 14.33,19.32 14.33,19.32 12.44,17.42 10.54,15.52 9.09,14.08 7.64,12.63 5.87,10.70 4.10,8.77 2.26,6.48 0.43,4.19 -0.62,2.65 -1.68,1.12 -1.79,0.90 -1.90,0.68 -1.95,0.44 -2.01,0.21 -2.01,-0.03 -2.00,-0.27 -1.94,-0.51 -1.88,-0.74 -1.76,-0.96 -1.64,-1.17 -1.48,-1.35 -1.31,-1.53 -1.11,-1.67 -0.91,-1.80 -0.68,-1.89 -0.45,-1.97 -0.20,-1.99 0.03,-2.02 0.27,-1.99 0.51,-1.95 0.74,-1.86 0.97,-1.77 1.16,-1.63 1.36,-1.49 1.52,-1.30 1.68,-1.12 1.68,-1.12 L 1.68,-1.12 Z"></path></g><g transform="translate(34.663347209252606 144.8494531388717) rotate(0 6.443185271425591 5.69397249744884)" stroke="none"><path fill="#ffffff" d="M 2.46,0.82 Q 2.46,0.82 2.03,2.11 1.60,3.40 1.54,3.96 1.48,4.53 1.34,4.82 1.21,5.11 1.00,5.36 0.80,5.61 0.54,5.81 0.28,6.00 -0.01,6.13 -0.30,6.25 -0.62,6.30 -0.94,6.36 -1.26,6.33 -1.59,6.31 -1.89,6.20 -2.20,6.10 -2.47,5.93 -2.75,5.76 -2.97,5.52 -3.19,5.29 -3.35,5.01 -3.52,4.73 -3.61,4.42 -3.70,4.11 -3.71,3.79 -3.72,3.46 -3.66,3.15 -3.59,2.83 -1.72,2.00 0.13,1.17 1.38,0.33 2.62,-0.51 4.16,-1.52 5.71,-2.53 6.26,-3.02 6.82,-3.51 7.14,-3.66 7.46,-3.80 7.81,-3.86 8.15,-3.93 8.51,-3.91 8.86,-3.89 9.20,-3.78 9.53,-3.68 9.83,-3.49 10.14,-3.31 10.39,-3.06 10.63,-2.81 10.82,-2.51 11.00,-2.21 11.10,-1.87 11.21,-1.53 11.23,-1.18 11.25,-0.83 11.19,-0.48 11.13,-0.14 10.98,0.18 10.84,0.50 10.62,0.77 10.40,1.05 10.12,1.27 9.85,1.49 8.73,2.50 7.61,3.52 6.68,4.38 5.76,5.23 4.72,4.18 3.68,3.13 5.57,1.98 7.46,0.82 8.53,0.30 9.59,-0.22 10.13,-0.78 10.66,-1.33 10.99,-1.49 11.31,-1.64 11.66,-1.71 12.01,-1.79 12.36,-1.77 12.72,-1.76 13.06,-1.66 13.41,-1.56 13.72,-1.38 14.03,-1.20 14.28,-0.96 14.54,-0.71 14.73,-0.41 14.93,-0.11 15.04,0.22 15.15,0.56 15.18,0.91 15.21,1.27 15.15,1.62 15.10,1.98 14.96,2.30 14.82,2.63 14.60,2.92 14.39,3.21 14.11,3.43 13.84,3.66 12.17,4.87 10.51,6.08 9.57,6.86 8.63,7.65 7.72,8.71 6.81,9.78 6.52,10.00 6.23,10.21 5.89,10.35 5.55,10.48 5.19,10.54 4.83,10.59 4.47,10.55 4.11,10.52 3.77,10.40 3.42,10.28 3.12,10.08 2.82,9.88 2.57,9.61 2.32,9.34 2.15,9.03 1.97,8.71 1.88,8.36 1.78,8.01 1.77,7.64 1.76,7.28 1.84,6.93 1.92,6.57 2.08,6.25 2.24,5.92 2.48,5.64 2.71,5.37 3.87,4.83 5.03,4.30 6.96,3.12 8.89,1.95 10.30,0.70 11.71,-0.55 12.01,-0.73 12.31,-0.91 12.65,-1.02 12.99,-1.13 13.34,-1.15 13.69,-1.17 14.04,-1.10 14.39,-1.04 14.71,-0.90 15.04,-0.75 15.31,-0.53 15.59,-0.31 15.81,-0.04 16.03,0.23 16.17,0.56 16.32,0.88 16.38,1.23 16.45,1.58 16.43,1.93 16.40,2.28 16.30,2.62 16.19,2.96 16.01,3.26 15.83,3.56 15.58,3.81 15.33,4.06 14.15,4.35 12.97,4.63 11.96,5.80 10.94,6.96 10.05,7.89 9.15,8.82 8.24,10.29 7.34,11.76 8.08,11.74 8.82,11.73 8.67,12.05 8.51,12.38 8.29,12.66 8.06,12.93 7.77,13.15 7.48,13.37 7.15,13.51 6.82,13.65 6.47,13.71 6.11,13.77 5.75,13.74 5.39,13.71 5.05,13.60 4.71,13.48 4.41,13.29 4.10,13.10 3.85,12.84 3.60,12.58 3.42,12.27 3.24,11.96 3.14,11.61 3.04,11.27 3.03,10.91 3.01,10.55 3.08,10.19 3.16,9.84 3.71,9.09 4.27,8.34 4.70,8.13 5.14,7.92 5.62,7.86 6.10,7.80 6.57,7.89 7.04,7.99 7.46,8.23 7.88,8.47 8.20,8.84 8.52,9.20 8.71,9.64 8.89,10.09 8.93,10.57 8.96,11.05 8.84,11.52 8.72,11.99 8.46,12.39 8.19,12.80 7.81,13.10 7.44,13.40 6.98,13.56 6.53,13.72 6.04,13.73 5.56,13.74 5.10,13.59 4.64,13.45 4.25,13.16 3.86,12.88 3.58,12.48 3.30,12.09 3.16,11.62 3.03,11.16 3.04,10.68 3.06,10.20 3.23,9.74 3.40,9.29 3.71,8.92 4.01,8.54 4.42,8.29 4.83,8.03 5.30,7.92 5.77,7.81 6.25,7.85 6.73,7.89 7.18,8.09 7.62,8.28 7.98,8.61 8.33,8.93 8.57,9.36 8.80,9.78 8.89,10.25 8.97,10.73 8.90,11.21 8.83,11.69 8.62,12.12 8.40,12.55 8.61,12.14 8.82,11.73 8.67,12.05 8.51,12.38 8.29,12.66 8.06,12.93 7.77,13.15 7.48,13.37 7.15,13.51 6.82,13.65 6.47,13.71 6.11,13.77 5.75,13.74 5.39,13.71 5.05,13.60 4.71,13.48 4.41,13.29 4.10,13.10 3.85,12.84 3.60,12.58 3.42,12.27 3.24,11.96 3.14,11.61 3.04,11.27 3.03,10.91 3.01,10.55 3.08,10.19 3.16,9.84 2.42,10.17 1.67,10.50 2.55,8.84 3.42,7.17 4.20,6.07 4.98,4.98 5.95,3.90 6.92,2.81 8.05,1.69 9.19,0.57 10.45,0.01 11.70,-0.55 12.01,-0.73 12.31,-0.91 12.65,-1.02 12.99,-1.13 13.34,-1.15 13.69,-1.17 14.04,-1.10 14.39,-1.04 14.71,-0.90 15.03,-0.75 15.31,-0.53 15.59,-0.31 15.81,-0.04 16.03,0.23 16.17,0.56 16.32,0.88 16.38,1.23 16.45,1.57 16.43,1.93 16.41,2.28 16.30,2.62 16.19,2.96 16.01,3.26 15.83,3.56 15.58,3.81 15.33,4.06 14.73,4.63 14.13,5.19 13.03,6.05 11.93,6.92 10.72,7.72 9.50,8.53 8.16,9.16 6.81,9.78 6.52,10.00 6.23,10.21 5.89,10.35 5.55,10.48 5.19,10.54 4.83,10.59 4.47,10.55 4.11,10.52 3.77,10.40 3.42,10.28 3.12,10.08 2.82,9.88 2.57,9.61 2.32,9.34 2.15,9.03 1.97,8.71 1.88,8.36 1.78,8.01 1.77,7.64 1.76,7.28 1.84,6.93 1.92,6.57 2.08,6.25 2.24,5.92 2.48,5.64 2.71,5.37 2.51,5.76 2.31,6.16 3.60,4.69 4.89,3.22 5.80,2.44 6.72,1.65 8.69,0.15 10.66,-1.33 10.99,-1.49 11.31,-1.64 11.66,-1.71 12.01,-1.79 12.36,-1.77 12.72,-1.76 13.06,-1.66 13.41,-1.56 13.72,-1.38 14.03,-1.21 14.28,-0.96 14.54,-0.71 14.73,-0.41 14.93,-0.11 15.04,0.22 15.15,0.56 15.18,0.91 15.21,1.27 15.15,1.62 15.10,1.98 14.96,2.30 14.82,2.63 14.60,2.92 14.39,3.20 14.11,3.43 13.84,3.66 14.06,3.43 14.27,3.20 13.23,4.06 12.19,4.92 10.98,5.55 9.76,6.18 8.48,6.77 7.21,7.36 5.71,7.95 4.21,8.54 2.17,8.11 0.13,7.68 0.23,5.18 0.32,2.67 1.07,1.88 1.81,1.09 2.77,0.15 3.73,-0.78 5.28,-2.15 6.82,-3.51 7.14,-3.66 7.46,-3.80 7.81,-3.86 8.15,-3.93 8.51,-3.91 8.86,-3.89 9.19,-3.78 9.53,-3.68 9.83,-3.49 10.14,-3.31 10.38,-3.06 10.63,-2.81 10.82,-2.51 11.00,-2.21 11.10,-1.87 11.21,-1.53 11.23,-1.18 11.25,-0.83 11.19,-0.48 11.13,-0.14 10.98,0.17 10.84,0.50 10.62,0.77 10.40,1.05 10.12,1.27 9.85,1.49 9.97,1.38 10.10,1.28 8.64,2.26 7.18,3.23 6.12,3.83 5.06,4.43 4.00,4.95 2.94,5.46 1.46,5.95 -0.00,6.43 0.74,5.48 1.48,4.53 1.34,4.82 1.21,5.11 1.00,5.36 0.80,5.61 0.54,5.80 0.28,6.00 -0.01,6.13 -0.30,6.25 -0.62,6.30 -0.94,6.36 -1.26,6.33 -1.59,6.31 -1.89,6.20 -2.20,6.10 -2.47,5.93 -2.74,5.76 -2.97,5.52 -3.19,5.29 -3.35,5.01 -3.52,4.73 -3.61,4.42 -3.70,4.11 -3.71,3.79 -3.72,3.46 -3.66,3.15 -3.59,2.83 -3.46,2.30 -3.32,1.76 -2.89,0.47 -2.46,-0.82 -2.33,-1.10 -2.19,-1.38 -1.99,-1.63 -1.80,-1.87 -1.55,-2.06 -1.30,-2.25 -1.01,-2.37 -0.72,-2.49 -0.41,-2.54 -0.10,-2.59 0.20,-2.57 0.51,-2.54 0.81,-2.44 1.11,-2.34 1.37,-2.18 1.64,-2.01 1.86,-1.78 2.07,-1.56 2.23,-1.29 2.39,-1.01 2.47,-0.71 2.56,-0.41 2.57,-0.10 2.59,0.20 2.52,0.51 2.46,0.82 2.46,0.82 L 2.46,0.82 Z"></path></g><g transform="translate(29.269070110187386 148.74532755396922) rotate(0 -7.042553204207707 1.0488910243713008)" stroke="none"><path fill="#ffffff" d="M 0.25,2.27 Q 0.25,2.27 -1.29,2.44 -2.84,2.61 -4.25,2.92 -5.65,3.24 -7.57,3.50 -9.48,3.76 -11.66,4.07 -13.83,4.37 -14.20,4.35 -14.57,4.33 -14.92,4.20 -15.26,4.06 -15.55,3.82 -15.83,3.58 -16.02,3.26 -16.21,2.94 -16.29,2.58 -16.37,2.22 -16.33,1.85 -16.29,1.48 -16.14,1.14 -15.98,0.81 -15.72,0.54 -15.47,0.27 -15.14,0.09 -14.81,-0.07 -14.45,-0.13 -14.08,-0.19 -13.71,-0.13 -13.35,-0.07 -13.02,0.09 -12.69,0.27 -12.44,0.53 -12.18,0.80 -12.03,1.14 -11.87,1.48 -11.83,1.85 -11.79,2.22 -11.87,2.58 -11.95,2.94 -12.14,3.26 -12.33,3.58 -12.61,3.82 -12.90,4.06 -13.24,4.20 -13.59,4.33 -13.96,4.35 -14.33,4.37 -14.69,4.27 -15.04,4.18 -15.35,3.97 -15.66,3.76 -15.88,3.46 -16.11,3.17 -16.23,2.82 -16.34,2.46 -16.34,2.09 -16.34,1.72 -16.23,1.37 -16.11,1.02 -15.88,0.72 -15.66,0.43 -15.35,0.22 -15.04,0.01 -14.69,-0.08 -14.33,-0.18 -14.33,-0.18 -14.33,-0.18 -12.27,-0.33 -10.20,-0.49 -8.41,-0.85 -6.62,-1.22 -4.99,-1.57 -3.35,-1.92 -1.80,-2.10 -0.25,-2.27 0.02,-2.27 0.29,-2.26 0.56,-2.20 0.83,-2.13 1.07,-2.00 1.31,-1.87 1.52,-1.68 1.72,-1.50 1.88,-1.27 2.03,-1.04 2.13,-0.78 2.22,-0.52 2.25,-0.25 2.28,0.02 2.25,0.29 2.21,0.57 2.11,0.82 2.01,1.08 1.85,1.31 1.69,1.53 1.48,1.71 1.28,1.89 1.03,2.02 0.78,2.14 0.52,2.21 0.25,2.27 0.25,2.27 L 0.25,2.27 Z"></path></g><g transform="translate(17.88111368329737 147.2469134380092) rotate(0 3.895874415097296 -0.5993622167862327)" stroke="none"><path fill="#ffffff" d="M 0,-2.44 Q 0,-2.44 1.20,-2.47 2.40,-2.50 4.59,-3.05 6.77,-3.60 7.18,-3.70 7.59,-3.80 8.01,-3.77 8.43,-3.73 8.82,-3.56 9.21,-3.39 9.52,-3.11 9.84,-2.82 10.04,-2.45 10.25,-2.08 10.32,-1.67 10.40,-1.25 10.34,-0.83 10.28,-0.41 10.09,-0.03 9.90,0.33 9.60,0.63 9.30,0.93 8.92,1.12 8.54,1.30 8.12,1.36 7.70,1.41 7.29,1.33 6.87,1.25 6.50,1.04 6.14,0.83 5.86,0.51 5.57,0.19 5.41,-0.19 5.24,-0.58 5.21,-1.00 5.18,-1.42 5.29,-1.83 5.39,-2.24 5.62,-2.60 5.85,-2.95 6.18,-3.22 6.51,-3.48 6.91,-3.62 7.31,-3.77 7.73,-3.77 8.16,-3.78 8.56,-3.66 8.96,-3.53 9.31,-3.28 9.65,-3.03 9.89,-2.69 10.14,-2.34 10.26,-1.94 10.38,-1.53 10.37,-1.11 10.35,-0.69 10.20,-0.29 10.06,0.10 9.79,0.43 9.52,0.75 9.16,0.98 8.81,1.21 8.81,1.21 8.81,1.21 6.99,1.69 5.17,2.18 3.79,2.34 2.41,2.50 1.20,2.47 0,2.44 -0.29,2.41 -0.58,2.37 -0.86,2.27 -1.13,2.16 -1.38,2.00 -1.62,1.83 -1.82,1.61 -2.01,1.39 -2.15,1.13 -2.29,0.86 -2.36,0.58 -2.43,0.29 -2.43,-0.00 -2.43,-0.29 -2.36,-0.58 -2.29,-0.86 -2.15,-1.13 -2.01,-1.39 -1.82,-1.61 -1.62,-1.83 -1.38,-2.00 -1.13,-2.16 -0.86,-2.27 -0.58,-2.37 -0.29,-2.41 0.00,-2.44 0.00,-2.44 L 0,-2.44 Z"></path></g><g transform="translate(24.474126647927733 145.74849932204927) rotate(0 -3.2965064823151806 1.6482589571537574)" stroke="none"><path fill="#ffffff" d="M 0.86,2.21 Q 0.86,2.21 -0.69,2.79 -2.26,3.36 -3.70,4.30 -5.14,5.23 -5.49,5.41 -5.84,5.59 -6.23,5.65 -6.61,5.71 -7.00,5.64 -7.38,5.57 -7.73,5.39 -8.07,5.20 -8.34,4.91 -8.60,4.63 -8.76,4.27 -8.92,3.91 -8.96,3.53 -9.00,3.14 -8.91,2.76 -8.82,2.37 -8.62,2.04 -8.41,1.71 -8.11,1.46 -7.81,1.21 -7.45,1.07 -7.08,0.93 -6.69,0.91 -6.30,0.89 -5.93,1.00 -5.55,1.11 -5.23,1.33 -4.91,1.55 -4.67,1.87 -4.44,2.18 -4.32,2.55 -4.20,2.92 -4.20,3.32 -4.21,3.71 -4.34,4.08 -4.46,4.45 -4.70,4.75 -4.94,5.06 -5.27,5.28 -5.60,5.50 -5.97,5.60 -6.35,5.70 -6.74,5.67 -7.13,5.65 -7.49,5.50 -7.86,5.35 -8.15,5.09 -8.45,4.84 -8.64,4.50 -8.84,4.16 -8.92,3.78 -9.00,3.40 -8.96,3.01 -8.91,2.62 -8.74,2.27 -8.57,1.91 -8.30,1.63 -8.03,1.35 -8.03,1.35 -8.03,1.35 -5.98,0.20 -3.94,-0.95 -2.40,-1.58 -0.86,-2.21 -0.58,-2.28 -0.30,-2.35 -0.01,-2.36 0.26,-2.36 0.54,-2.29 0.82,-2.23 1.07,-2.09 1.33,-1.96 1.55,-1.77 1.76,-1.59 1.93,-1.35 2.09,-1.12 2.19,-0.85 2.30,-0.58 2.34,-0.30 2.37,-0.01 2.34,0.26 2.31,0.54 2.21,0.81 2.11,1.08 1.95,1.32 1.79,1.56 1.57,1.75 1.36,1.94 1.11,2.08 0.86,2.21 0.86,2.21 L 0.86,2.21 Z"></path></g><g transform="translate(16.98205606812735 150.24374166992925) rotate(0 10.788588494107444 1.348574990762529)" stroke="none"><path fill="#ffffff" d="M 0,-2.04 Q 0,-2.04 1.55,-2.07 3.10,-2.09 5.01,-1.96 6.92,-1.84 9.13,-1.53 11.35,-1.23 13.80,-0.71 16.25,-0.20 19.11,0.32 21.98,0.86 22.26,0.97 22.54,1.08 22.77,1.28 23.00,1.48 23.16,1.74 23.32,2.00 23.38,2.29 23.45,2.59 23.41,2.89 23.38,3.19 23.25,3.47 23.12,3.75 22.92,3.97 22.71,4.19 22.44,4.33 22.17,4.47 21.87,4.52 21.57,4.57 21.27,4.52 20.97,4.47 20.70,4.33 20.44,4.19 20.23,3.97 20.02,3.74 19.89,3.47 19.76,3.19 19.73,2.89 19.70,2.59 19.76,2.29 19.83,2.00 19.99,1.74 20.14,1.48 20.37,1.28 20.61,1.08 20.89,0.97 21.17,0.86 21.47,0.84 21.78,0.83 22.07,0.91 22.36,0.99 22.61,1.16 22.86,1.33 23.05,1.57 23.23,1.81 23.33,2.10 23.42,2.39 23.42,2.69 23.42,3.00 23.33,3.28 23.23,3.57 23.05,3.81 22.86,4.06 22.61,4.23 22.36,4.40 22.07,4.48 21.77,4.56 21.47,4.54 21.17,4.52 21.17,4.52 21.17,4.52 18.41,3.82 15.64,3.12 13.32,2.76 10.99,2.41 8.86,2.29 6.73,2.18 4.92,2.14 3.10,2.09 1.55,2.07 0,2.04 -0.24,2.01 -0.48,1.98 -0.72,1.89 -0.95,1.81 -1.15,1.67 -1.35,1.53 -1.52,1.34 -1.68,1.16 -1.79,0.94 -1.91,0.72 -1.97,0.48 -2.03,0.24 -2.03,-0.00 -2.03,-0.24 -1.97,-0.48 -1.91,-0.72 -1.79,-0.94 -1.68,-1.16 -1.52,-1.34 -1.35,-1.53 -1.15,-1.67 -0.95,-1.81 -0.72,-1.89 -0.48,-1.98 -0.24,-2.01 0.00,-2.04 0.00,-2.04 L 0,-2.04 Z"></path></g><g transform="translate(82.03080799589952 106.23775850287689) rotate(0 6.671915912432723 1.7557525399005272)" stroke="none"><path fill="#ffffff" d="M 0,-2.62 Q 0,-2.62 1.06,-2.64 2.13,-2.66 3.51,-2.16 4.88,-1.66 5.95,-1.04 7.03,-0.42 8.08,0.25 9.14,0.92 10.23,2.01 11.32,3.10 12.09,3.88 12.86,4.66 13.47,5.77 14.08,6.88 14.66,7.90 15.23,8.91 14.03,8.51 12.83,8.11 11.54,8.80 10.26,9.50 10.27,8.19 10.29,6.87 10.18,5.48 10.07,4.09 10.06,2.30 10.05,0.51 10.05,-1.04 10.04,-2.60 9.98,-5.15 9.91,-7.70 9.98,-8.13 10.05,-8.57 10.25,-8.96 10.45,-9.35 10.77,-9.66 11.09,-9.96 11.49,-10.15 11.88,-10.34 12.32,-10.39 12.76,-10.44 13.19,-10.35 13.62,-10.26 14.00,-10.04 14.38,-9.81 14.67,-9.48 14.96,-9.15 15.13,-8.74 15.29,-8.33 15.32,-7.89 15.35,-7.45 15.23,-7.02 15.12,-6.60 14.88,-6.23 14.63,-5.86 14.28,-5.59 13.93,-5.32 13.52,-5.18 13.10,-5.04 12.66,-5.03 12.22,-5.03 11.80,-5.16 11.38,-5.30 11.03,-5.57 10.67,-5.83 10.42,-6.19 10.17,-6.55 10.05,-6.98 9.93,-7.40 9.95,-7.84 9.97,-8.28 10.13,-8.69 10.29,-9.11 10.57,-9.44 10.85,-9.78 11.23,-10.01 11.61,-10.24 12.04,-10.34 12.47,-10.44 12.90,-10.40 13.34,-10.35 13.74,-10.17 14.15,-9.99 14.47,-9.69 14.79,-9.39 15.00,-9.00 15.21,-8.61 15.29,-8.18 15.36,-7.74 15.36,-7.74 15.36,-7.74 15.35,-5.23 15.33,-2.72 15.41,-1.24 15.48,0.24 15.63,1.80 15.79,3.37 16.07,5.14 16.36,6.90 16.39,8.34 16.42,9.77 15.77,11.09 15.12,12.41 14.10,12.82 13.07,13.23 11.37,11.95 9.68,10.66 9.22,9.57 8.76,8.48 7.44,7.03 6.11,5.58 5.14,4.96 4.17,4.33 3.03,3.50 1.90,2.66 0.95,2.64 0,2.62 -0.31,2.58 -0.62,2.54 -0.92,2.43 -1.21,2.32 -1.48,2.14 -1.74,1.96 -1.95,1.72 -2.16,1.49 -2.30,1.21 -2.45,0.93 -2.53,0.62 -2.60,0.31 -2.60,-0.00 -2.60,-0.31 -2.53,-0.62 -2.45,-0.93 -2.30,-1.21 -2.16,-1.49 -1.95,-1.72 -1.74,-1.96 -1.48,-2.14 -1.21,-2.32 -0.92,-2.43 -0.62,-2.54 -0.31,-2.58 0.00,-2.62 0.00,-2.62 L 0,-2.62 Z"></path></g><g transform="translate(91.1608122923135 103.42852229000141) rotate(0 -1.4046181064377379 2.458074988550493)" stroke="none"><path fill="#ffffff" d="M 1.86,1.48 Q 1.86,1.48 1.08,2.50 0.29,3.51 0.24,4.24 0.18,4.96 0.03,5.23 -0.11,5.51 -0.32,5.73 -0.53,5.96 -0.79,6.13 -1.05,6.30 -1.35,6.40 -1.64,6.50 -1.95,6.53 -2.26,6.56 -2.56,6.51 -2.87,6.46 -3.16,6.35 -3.44,6.23 -3.69,6.04 -3.95,5.86 -4.14,5.62 -4.34,5.38 -4.48,5.11 -4.62,4.83 -4.68,4.52 -4.75,4.22 -4.74,3.91 -4.73,3.60 -4.65,3.30 -4.56,3.00 -3.78,2.16 -2.99,1.32 -2.69,0.23 -2.38,-0.85 -2.18,-1.21 -1.99,-1.57 -1.68,-1.84 -1.38,-2.12 -1.00,-2.29 -0.63,-2.45 -0.22,-2.49 0.18,-2.53 0.58,-2.43 0.98,-2.33 1.33,-2.12 1.67,-1.90 1.93,-1.58 2.19,-1.26 2.34,-0.88 2.48,-0.49 2.50,-0.08 2.51,0.32 2.39,0.71 2.28,1.10 2.04,1.44 1.80,1.77 1.47,2.02 1.14,2.26 0.75,2.38 0.36,2.51 -0.04,2.50 -0.45,2.49 -0.84,2.35 -1.23,2.21 -1.55,1.96 -1.87,1.70 -2.09,1.36 -2.32,1.02 -2.42,0.62 -2.52,0.22 -2.49,-0.18 -2.46,-0.59 -2.30,-0.97 -2.14,-1.34 -1.87,-1.65 -1.60,-1.96 -1.25,-2.16 -0.89,-2.37 -0.49,-2.45 -0.08,-2.53 0.31,-2.48 0.72,-2.43 1.09,-2.25 1.46,-2.07 1.75,-1.78 2.04,-1.49 2.23,-1.13 2.41,-0.76 2.47,-0.35 2.53,0.04 2.46,0.45 2.38,0.85 2.38,0.85 2.38,0.85 1.28,2.91 0.18,4.96 0.03,5.23 -0.11,5.51 -0.32,5.73 -0.53,5.96 -0.79,6.13 -1.05,6.30 -1.35,6.40 -1.64,6.50 -1.95,6.53 -2.26,6.56 -2.56,6.51 -2.87,6.46 -3.16,6.35 -3.44,6.23 -3.69,6.04 -3.94,5.86 -4.14,5.62 -4.34,5.38 -4.48,5.11 -4.62,4.83 -4.68,4.52 -4.75,4.22 -4.74,3.91 -4.73,3.60 -4.65,3.30 -4.56,3.00 -4.61,3.10 -4.65,3.20 -4.09,1.86 -3.53,0.52 -2.69,-0.48 -1.86,-1.48 -1.65,-1.68 -1.45,-1.89 -1.20,-2.03 -0.95,-2.18 -0.68,-2.26 -0.40,-2.34 -0.11,-2.36 0.16,-2.37 0.45,-2.32 0.73,-2.26 0.99,-2.14 1.25,-2.02 1.47,-1.84 1.70,-1.66 1.87,-1.43 2.05,-1.21 2.16,-0.94 2.28,-0.68 2.33,-0.40 2.38,-0.11 2.35,0.16 2.33,0.45 2.25,0.72 2.16,1.00 2.01,1.24 1.86,1.48 1.86,1.48 L 1.86,1.48 Z"></path></g><g transform="translate(86.24468910607447 12.128693652756738) rotate(0 21.420339052873715 15.099584364765747)" stroke="none"><path fill="#ffffff" d="M 0.89,-1.60 Q 0.89,-1.60 2.68,-0.54 4.47,0.51 7.52,2.87 10.58,5.22 12.81,6.79 15.04,8.37 19.02,11.07 23.00,13.77 26.50,16.14 30.00,18.51 32.70,20.33 35.40,22.15 37.19,23.56 38.98,24.98 40.08,25.95 41.18,26.92 42.56,27.84 43.94,28.77 44.14,28.98 44.33,29.19 44.46,29.46 44.58,29.72 44.61,30.01 44.64,30.30 44.57,30.59 44.51,30.87 44.35,31.12 44.20,31.37 43.98,31.56 43.75,31.75 43.48,31.85 43.21,31.96 42.92,31.97 42.63,31.99 42.35,31.91 42.07,31.83 41.83,31.66 41.59,31.49 41.41,31.26 41.24,31.03 41.15,30.75 41.05,30.47 41.06,30.18 41.06,29.89 41.15,29.61 41.25,29.34 41.43,29.11 41.60,28.88 41.85,28.71 42.09,28.55 42.37,28.48 42.65,28.40 42.94,28.42 43.24,28.44 43.51,28.55 43.78,28.66 44.00,28.85 44.22,29.04 44.37,29.29 44.52,29.54 44.58,29.82 44.64,30.11 44.60,30.40 44.57,30.69 44.45,30.95 44.32,31.22 44.12,31.43 43.92,31.64 43.66,31.77 43.40,31.91 43.11,31.95 42.82,32.00 42.54,31.95 42.25,31.90 41.99,31.76 41.73,31.62 41.74,31.62 41.74,31.62 40.31,30.38 38.88,29.14 38.08,28.14 37.29,27.14 35.57,25.80 33.85,24.47 31.13,22.68 28.42,20.88 24.89,18.55 21.36,16.21 17.34,13.55 13.32,10.89 10.98,9.34 8.65,7.79 5.72,5.66 2.79,3.52 0.95,2.56 -0.89,1.60 -1.07,1.47 -1.24,1.34 -1.39,1.17 -1.53,1.00 -1.63,0.80 -1.73,0.60 -1.77,0.39 -1.82,0.17 -1.82,-0.04 -1.81,-0.26 -1.75,-0.47 -1.70,-0.69 -1.59,-0.88 -1.48,-1.07 -1.33,-1.24 -1.18,-1.40 -0.99,-1.52 -0.81,-1.64 -0.60,-1.71 -0.39,-1.79 -0.17,-1.81 0.04,-1.83 0.26,-1.80 0.48,-1.77 0.68,-1.68 0.89,-1.60 0.89,-1.60 L 0.89,-1.60 Z"></path></g><g transform="translate(129.0853672118219 39.51866635570593) rotate(0 -5.2672978059949855 14.046127482653048)" stroke="none"><path fill="#ffffff" d="M 1.80,0.82 Q 1.80,0.82 0.71,3.00 -0.37,5.18 -1.67,7.91 -2.96,10.64 -3.91,13.15 -4.87,15.67 -5.69,17.96 -6.52,20.25 -7.00,21.85 -7.48,23.46 -8.12,26.03 -8.77,28.60 -8.89,28.87 -9.02,29.14 -9.23,29.35 -9.44,29.56 -9.70,29.70 -9.97,29.83 -10.26,29.88 -10.55,29.92 -10.85,29.87 -11.14,29.82 -11.40,29.68 -11.66,29.53 -11.86,29.32 -12.06,29.10 -12.18,28.83 -12.31,28.56 -12.33,28.26 -12.36,27.96 -12.29,27.68 -12.23,27.39 -12.07,27.13 -11.91,26.88 -11.68,26.69 -11.46,26.50 -11.18,26.40 -10.90,26.29 -10.60,26.28 -10.31,26.26 -10.02,26.35 -9.74,26.43 -9.49,26.60 -9.25,26.77 -9.07,27.01 -8.90,27.25 -8.80,27.53 -8.71,27.81 -8.72,28.11 -8.72,28.41 -8.82,28.69 -8.92,28.97 -9.10,29.20 -9.28,29.44 -9.53,29.60 -9.78,29.76 -10.07,29.84 -10.35,29.92 -10.65,29.90 -10.95,29.88 -11.22,29.76 -11.50,29.65 -11.72,29.45 -11.94,29.26 -12.09,29.00 -12.24,28.74 -12.30,28.45 -12.36,28.16 -12.33,27.87 -12.29,27.57 -12.29,27.57 -12.29,27.57 -11.43,24.99 -10.57,22.40 -9.97,20.83 -9.36,19.26 -8.60,16.93 -7.83,14.60 -6.92,11.94 -6.01,9.28 -4.83,6.48 -3.66,3.69 -2.73,1.43 -1.80,-0.82 -1.67,-1.02 -1.55,-1.22 -1.38,-1.39 -1.21,-1.56 -1.01,-1.68 -0.80,-1.81 -0.57,-1.88 -0.34,-1.95 -0.11,-1.96 0.12,-1.97 0.36,-1.93 0.59,-1.88 0.81,-1.79 1.03,-1.69 1.21,-1.54 1.40,-1.39 1.55,-1.20 1.69,-1.01 1.79,-0.80 1.89,-0.58 1.93,-0.34 1.97,-0.11 1.96,0.12 1.94,0.36 1.87,0.59 1.80,0.82 1.80,0.82 L 1.80,0.82 Z"></path></g><g transform="translate(101.24178053392825 24.203309103105425) rotate(0 1.6891388326037031 2.2088647074332926)" stroke="none"><path fill="#ffffff" d="M 2.15,-1.16 Q 2.15,-1.16 2.71,-0.21 3.26,0.73 4.21,1.64 5.15,2.54 5.40,2.88 5.65,3.21 5.79,3.60 5.92,4.00 5.92,4.42 5.92,4.83 5.78,5.23 5.65,5.62 5.40,5.96 5.14,6.29 4.80,6.52 4.45,6.75 4.05,6.87 3.65,6.98 3.23,6.95 2.81,6.93 2.43,6.77 2.04,6.62 1.72,6.35 1.41,6.08 1.19,5.72 0.98,5.36 0.89,4.96 0.80,4.55 0.84,4.13 0.89,3.72 1.07,3.34 1.24,2.96 1.53,2.66 1.82,2.36 2.19,2.16 2.55,1.97 2.97,1.90 3.38,1.83 3.79,1.90 4.20,1.97 4.57,2.17 4.94,2.36 5.22,2.67 5.51,2.97 5.68,3.35 5.86,3.73 5.90,4.14 5.95,4.56 5.86,4.96 5.77,5.37 5.55,5.73 5.33,6.09 5.02,6.35 4.70,6.62 4.31,6.78 3.92,6.93 3.51,6.95 3.09,6.97 2.69,6.86 2.29,6.75 1.94,6.52 1.60,6.28 1.60,6.28 1.60,6.28 0.21,4.71 -1.17,3.14 -1.66,2.15 -2.15,1.16 -2.26,0.88 -2.37,0.61 -2.41,0.31 -2.45,0.02 -2.41,-0.26 -2.38,-0.56 -2.28,-0.83 -2.18,-1.11 -2.01,-1.36 -1.85,-1.60 -1.63,-1.80 -1.41,-2.00 -1.15,-2.14 -0.89,-2.28 -0.60,-2.35 -0.32,-2.43 -0.02,-2.43 0.26,-2.43 0.55,-2.36 0.84,-2.30 1.10,-2.16 1.37,-2.03 1.59,-1.83 1.81,-1.64 1.98,-1.40 2.15,-1.16 2.15,-1.16 L 2.15,-1.16 Z"></path></g><g transform="translate(104.10031249803478 25.242765809332695) rotate(0 10.264744638057437 13.902880284111802)" stroke="none"><path fill="#ffffff" d="M 2.19,-1.19 Q 2.19,-1.19 3.01,0.48 3.83,2.17 4.62,3.50 5.42,4.83 6.34,6.23 7.27,7.63 5.60,7.98 3.94,8.34 4.00,7.18 4.06,6.01 4.09,5.75 4.13,5.49 4.27,5.17 4.41,4.85 4.63,4.57 4.84,4.29 5.12,4.07 5.40,3.85 5.72,3.70 6.04,3.55 6.39,3.49 6.73,3.42 7.09,3.44 7.44,3.46 7.78,3.56 8.12,3.66 8.42,3.85 8.72,4.03 8.98,4.27 9.23,4.52 9.41,4.82 9.60,5.12 9.70,5.46 9.81,5.80 9.83,6.15 9.86,6.50 9.80,6.85 9.74,7.20 10.05,8.87 10.37,10.53 8.97,10.50 7.56,10.46 7.82,9.31 8.07,8.17 8.60,7.32 9.12,6.48 9.37,6.17 9.62,5.86 9.93,5.62 10.25,5.39 10.61,5.23 10.98,5.07 11.37,5.01 11.76,4.94 12.15,4.98 12.54,5.01 12.92,5.13 13.30,5.25 13.63,5.46 13.96,5.67 14.24,5.96 14.51,6.24 14.71,6.59 14.91,6.93 15.02,7.31 15.13,7.69 15.15,8.08 15.17,8.48 15.09,8.86 15.01,9.25 14.84,9.61 14.67,9.97 14.86,8.65 15.04,7.33 15.17,8.59 15.29,9.85 15.29,11.08 15.29,12.31 13.54,11.81 11.79,11.31 12.96,9.37 14.13,7.42 13.09,8.13 12.06,8.84 12.26,8.48 12.46,8.12 12.74,7.81 13.02,7.51 13.37,7.28 13.71,7.05 14.10,6.92 14.49,6.78 14.90,6.74 15.31,6.70 15.72,6.75 16.13,6.81 16.52,6.97 16.90,7.12 17.23,7.37 17.57,7.61 17.84,7.92 18.10,8.24 18.29,8.61 18.47,8.98 18.56,9.38 18.65,9.79 18.64,10.20 18.64,10.61 18.53,11.01 18.42,11.41 18.03,12.47 17.64,13.52 17.36,14.92 17.08,16.33 17.10,17.10 17.11,17.87 17.03,18.28 16.94,18.69 16.76,19.06 16.58,19.44 16.32,19.76 16.05,20.08 15.72,20.33 15.39,20.57 15.00,20.74 14.62,20.90 14.21,20.96 13.80,21.03 13.38,20.99 12.97,20.96 12.57,20.82 12.18,20.69 11.83,20.46 11.48,20.24 11.19,19.94 10.91,19.64 10.70,19.28 10.49,18.92 10.38,18.52 10.27,18.12 10.25,17.70 10.24,17.28 10.83,16.10 11.42,14.92 11.54,14.24 11.65,13.57 11.84,13.19 12.02,12.81 12.29,12.49 12.56,12.16 12.90,11.91 13.24,11.66 13.63,11.50 14.02,11.34 14.44,11.28 14.85,11.21 15.27,11.25 15.69,11.29 16.09,11.42 16.49,11.56 16.84,11.79 17.20,12.02 17.49,12.33 17.78,12.63 17.98,13.00 18.19,13.37 18.31,13.77 18.42,14.18 18.43,14.60 18.44,15.02 18.36,15.44 18.27,15.85 17.57,16.72 16.87,17.59 16.63,18.70 16.40,19.82 16.22,20.66 16.05,21.50 15.89,21.90 15.73,22.29 15.48,22.63 15.23,22.97 14.91,23.24 14.59,23.51 14.21,23.70 13.83,23.89 13.42,23.98 13.01,24.07 12.59,24.06 12.17,24.05 11.76,23.94 11.36,23.83 10.99,23.63 10.62,23.42 10.31,23.13 10.00,22.85 9.77,22.50 9.54,22.14 9.40,21.75 9.26,21.35 9.22,20.93 9.17,20.51 9.24,20.09 9.30,19.67 9.98,18.66 10.66,17.64 11.35,16.79 12.04,15.94 12.83,14.56 13.62,13.17 13.75,12.98 13.87,12.79 14.10,12.44 14.32,12.09 14.63,11.81 14.93,11.53 15.29,11.33 15.66,11.13 16.06,11.02 16.46,10.91 16.87,10.90 17.28,10.89 17.69,10.98 18.09,11.07 18.46,11.25 18.84,11.44 19.15,11.70 19.47,11.97 19.71,12.31 19.96,12.64 20.11,13.03 20.27,13.41 20.33,13.82 20.39,14.23 20.35,14.64 20.31,15.05 20.17,15.45 20.03,15.84 20.08,17.16 20.12,18.49 20.09,19.91 20.06,21.34 17.46,20.95 14.86,20.57 15.89,19.11 16.93,17.65 17.10,17.30 17.27,16.95 17.47,16.59 17.67,16.22 17.95,15.92 18.23,15.61 18.57,15.38 18.92,15.16 19.31,15.02 19.70,14.88 20.11,14.83 20.53,14.79 20.94,14.85 21.35,14.91 21.73,15.06 22.12,15.21 22.45,15.46 22.79,15.70 23.06,16.01 23.33,16.33 23.51,16.70 23.70,17.07 23.79,17.47 23.88,17.88 23.88,18.29 23.87,18.71 23.76,19.11 23.66,19.51 22.87,20.96 22.08,22.40 21.47,23.34 20.86,24.28 19.96,26.49 19.06,28.70 18.83,29.19 18.61,29.68 18.24,30.07 17.86,30.46 17.39,30.71 16.91,30.96 16.38,31.05 15.84,31.14 15.31,31.05 14.78,30.96 14.30,30.71 13.83,30.46 13.45,30.06 13.08,29.67 12.86,29.18 12.63,28.69 12.57,28.15 12.52,27.62 12.63,27.09 12.75,26.56 13.03,26.10 13.31,25.64 13.72,25.29 14.13,24.94 14.63,24.74 15.13,24.54 15.67,24.51 16.21,24.48 16.73,24.63 17.25,24.77 17.70,25.08 18.14,25.38 18.47,25.81 18.80,26.24 18.97,26.75 19.14,27.26 19.14,27.80 19.14,28.34 18.97,28.85 18.79,29.37 18.47,29.80 18.14,30.23 17.69,30.53 17.24,30.83 16.72,30.97 16.20,31.12 15.67,31.09 15.13,31.06 14.63,30.86 14.12,30.66 13.71,30.31 13.30,29.96 13.02,29.50 12.75,29.03 12.63,28.51 12.52,27.98 12.57,27.44 12.63,26.90 12.63,26.91 12.63,26.91 13.35,25.01 14.06,23.11 14.59,21.94 15.12,20.77 15.65,19.85 16.18,18.93 16.72,17.94 17.27,16.95 17.47,16.59 17.67,16.23 17.95,15.92 18.23,15.61 18.57,15.39 18.92,15.16 19.31,15.02 19.70,14.88 20.11,14.83 20.53,14.79 20.94,14.85 21.35,14.91 21.73,15.06 22.12,15.21 22.45,15.46 22.79,15.70 23.06,16.01 23.33,16.33 23.51,16.70 23.70,17.07 23.79,17.47 23.88,17.88 23.88,18.29 23.87,18.71 23.76,19.11 23.66,19.51 23.40,20.00 23.15,20.48 22.25,21.85 21.36,23.22 20.03,24.58 18.70,25.94 16.05,24.80 13.40,23.65 13.31,22.45 13.22,21.24 13.26,19.64 13.29,18.04 13.47,16.81 13.65,15.58 13.76,14.18 13.87,12.79 14.10,12.44 14.32,12.09 14.63,11.81 14.93,11.53 15.29,11.33 15.66,11.13 16.06,11.02 16.46,10.91 16.87,10.90 17.28,10.89 17.69,10.98 18.09,11.07 18.46,11.25 18.84,11.44 19.15,11.70 19.47,11.97 19.71,12.31 19.96,12.64 20.11,13.03 20.27,13.41 20.33,13.82 20.39,14.23 20.35,14.64 20.31,15.05 20.17,15.45 20.03,15.84 19.52,16.76 19.02,17.67 18.45,18.72 17.87,19.76 16.96,20.63 16.05,21.50 15.89,21.90 15.73,22.29 15.48,22.63 15.23,22.97 14.91,23.24 14.59,23.51 14.21,23.70 13.84,23.89 13.42,23.98 13.01,24.07 12.59,24.06 12.17,24.05 11.76,23.94 11.36,23.83 10.99,23.63 10.62,23.42 10.31,23.13 10.00,22.85 9.77,22.50 9.54,22.14 9.40,21.75 9.26,21.35 9.22,20.93 9.17,20.51 9.24,20.09 9.30,19.68 9.39,19.11 9.49,18.54 10.01,17.11 10.53,15.69 11.09,14.63 11.65,13.57 11.84,13.19 12.02,12.81 12.29,12.49 12.56,12.16 12.90,11.91 13.24,11.66 13.63,11.50 14.02,11.34 14.44,11.28 14.85,11.21 15.27,11.25 15.69,11.29 16.09,11.42 16.49,11.56 16.84,11.79 17.20,12.02 17.49,12.33 17.78,12.63 17.98,13.00 18.19,13.37 18.31,13.77 18.42,14.18 18.43,14.60 18.44,15.02 18.36,15.44 18.27,15.85 17.69,16.86 17.11,17.87 17.03,18.28 16.94,18.69 16.76,19.06 16.58,19.44 16.32,19.76 16.05,20.08 15.72,20.33 15.39,20.57 15.00,20.74 14.62,20.90 14.21,20.96 13.80,21.03 13.38,20.99 12.97,20.96 12.57,20.82 12.18,20.69 11.83,20.46 11.48,20.24 11.19,19.94 10.91,19.64 10.70,19.28 10.49,18.92 10.38,18.52 10.27,18.12 10.25,17.70 10.24,17.29 10.39,17.77 10.53,18.25 10.45,16.66 10.38,15.08 10.74,13.23 11.11,11.38 11.58,10.11 12.06,8.84 12.26,8.48 12.46,8.12 12.74,7.81 13.02,7.51 13.37,7.28 13.71,7.05 14.10,6.92 14.49,6.78 14.90,6.74 15.31,6.70 15.72,6.75 16.13,6.81 16.52,6.97 16.90,7.12 17.23,7.37 17.57,7.61 17.84,7.92 18.10,8.24 18.29,8.61 18.47,8.98 18.56,9.38 18.65,9.79 18.64,10.20 18.64,10.61 18.53,11.01 18.42,11.41 17.71,12.71 17.00,14.00 16.30,14.94 15.61,15.87 14.31,16.45 13.01,17.03 11.54,16.58 10.07,16.13 9.35,14.18 8.63,12.24 8.87,11.03 9.11,9.81 9.12,8.14 9.12,6.48 9.37,6.17 9.62,5.86 9.93,5.62 10.25,5.39 10.61,5.23 10.98,5.07 11.37,5.01 11.76,4.94 12.15,4.98 12.54,5.01 12.92,5.13 13.29,5.25 13.63,5.46 13.96,5.67 14.24,5.96 14.51,6.24 14.71,6.58 14.91,6.93 15.02,7.31 15.13,7.69 15.15,8.08 15.17,8.48 15.09,8.86 15.01,9.25 14.84,9.61 14.67,9.97 14.14,10.72 13.60,11.47 12.65,12.82 11.70,14.17 10.73,14.75 9.76,15.33 7.92,15.04 6.09,14.75 5.23,13.03 4.37,11.30 4.38,9.48 4.39,7.67 4.26,6.58 4.13,5.49 4.27,5.17 4.41,4.85 4.63,4.57 4.84,4.29 5.12,4.07 5.40,3.85 5.72,3.70 6.04,3.55 6.39,3.49 6.73,3.42 7.09,3.44 7.44,3.46 7.78,3.56 8.12,3.66 8.42,3.85 8.72,4.03 8.98,4.27 9.23,4.52 9.41,4.82 9.60,5.12 9.70,5.46 9.81,5.80 9.83,6.15 9.86,6.50 9.80,6.85 9.74,7.20 9.52,7.81 9.30,8.43 8.57,9.78 7.84,11.13 5.31,10.52 2.78,9.91 2.13,8.56 1.48,7.22 0.61,5.81 -0.24,4.40 -1.22,2.79 -2.19,1.19 -2.30,0.91 -2.41,0.63 -2.45,0.33 -2.49,0.03 -2.46,-0.25 -2.43,-0.55 -2.33,-0.84 -2.22,-1.12 -2.06,-1.37 -1.89,-1.62 -1.67,-1.82 -1.45,-2.03 -1.18,-2.17 -0.92,-2.31 -0.63,-2.39 -0.34,-2.47 -0.03,-2.47 0.26,-2.48 0.55,-2.41 0.84,-2.34 1.11,-2.21 1.38,-2.07 1.61,-1.88 1.84,-1.68 2.01,-1.44 2.19,-1.19 2.19,-1.19 L 2.19,-1.19 Z"></path></g><g transform="translate(51.08748021454994 96.70616404334226) rotate(0 3.378267752071679 8.575610762021824)" stroke="none"><path fill="#ffffff" d="M 2.35,-0.67 Q 2.35,-0.67 2.77,0.90 3.19,2.48 3.65,3.92 4.12,5.37 4.61,6.81 5.10,8.24 5.67,9.43 6.23,10.61 6.79,11.73 7.36,12.84 8.18,14.44 9.01,16.04 9.13,16.43 9.25,16.82 9.24,17.22 9.22,17.63 9.08,18.01 8.94,18.39 8.68,18.71 8.43,19.03 8.08,19.25 7.74,19.46 7.34,19.56 6.95,19.66 6.54,19.62 6.13,19.59 5.76,19.43 5.39,19.26 5.08,18.99 4.78,18.72 4.58,18.36 4.38,18.01 4.31,17.60 4.23,17.20 4.29,16.80 4.35,16.40 4.53,16.03 4.71,15.67 5.00,15.38 5.29,15.09 5.66,14.91 6.02,14.73 6.43,14.68 6.83,14.63 7.23,14.71 7.63,14.79 7.98,14.99 8.34,15.19 8.61,15.49 8.88,15.80 9.04,16.17 9.20,16.55 9.23,16.95 9.26,17.36 9.16,17.76 9.06,18.15 8.84,18.49 8.62,18.84 8.30,19.09 7.98,19.34 7.60,19.48 7.22,19.62 6.81,19.63 6.40,19.64 6.01,19.52 5.62,19.40 5.29,19.16 4.96,18.92 4.73,18.59 4.49,18.26 4.49,18.26 4.49,18.26 3.73,16.60 2.96,14.95 2.43,13.77 1.90,12.59 1.28,11.19 0.66,9.79 0.14,8.32 -0.37,6.85 -0.88,5.32 -1.40,3.79 -1.87,2.23 -2.35,0.67 -2.40,0.38 -2.44,0.08 -2.42,-0.20 -2.39,-0.49 -2.30,-0.77 -2.20,-1.05 -2.04,-1.30 -1.89,-1.55 -1.67,-1.75 -1.46,-1.96 -1.20,-2.10 -0.95,-2.25 -0.66,-2.33 -0.38,-2.41 -0.08,-2.42 0.20,-2.44 0.49,-2.37 0.78,-2.31 1.05,-2.19 1.31,-2.06 1.54,-1.87 1.77,-1.68 1.94,-1.45 2.12,-1.21 2.23,-0.94 2.35,-0.67 2.35,-0.67 L 2.35,-0.67 Z"></path></g><g transform="translate(40.95266704519963 103.20283661007034) rotate(0 5.327269522090319 0.7796135950836742)" stroke="none"><path fill="#ffffff" d="M 2.19,-1.46 Q 2.19,-1.46 0.76,-1.65 -0.67,-1.84 0.14,-2.68 0.96,-3.52 2.14,-4.41 3.33,-5.31 3.64,-5.47 3.96,-5.64 4.30,-5.72 4.65,-5.80 5.00,-5.80 5.35,-5.80 5.70,-5.72 6.04,-5.63 6.35,-5.47 6.67,-5.30 6.93,-5.07 7.20,-4.83 7.40,-4.54 7.60,-4.25 7.72,-3.92 7.85,-3.59 7.89,-3.23 7.93,-2.88 7.89,-2.53 7.85,-2.18 7.72,-1.85 7.59,-1.52 7.39,-1.23 7.19,-0.94 6.92,-0.70 6.66,-0.47 6.24,0.55 5.81,1.58 3.97,0.53 2.13,-0.51 3.95,-1.40 5.77,-2.30 6.94,-3.05 8.10,-3.81 8.23,-3.94 8.36,-4.08 8.70,-4.23 9.05,-4.38 9.42,-4.44 9.79,-4.51 10.17,-4.48 10.54,-4.45 10.90,-4.33 11.26,-4.22 11.58,-4.02 11.90,-3.82 12.17,-3.55 12.43,-3.28 12.62,-2.96 12.81,-2.63 12.92,-2.27 13.03,-1.91 13.05,-1.53 13.07,-1.15 12.99,-0.78 12.92,-0.41 12.76,-0.07 12.60,0.26 12.37,0.55 12.13,0.85 11.83,1.08 11.53,1.31 9.77,2.73 8.01,4.16 7.10,4.89 6.18,5.63 5.17,6.42 4.17,7.20 3.83,7.38 3.50,7.55 3.14,7.64 2.77,7.73 2.39,7.73 2.02,7.73 1.65,7.64 1.29,7.55 0.96,7.37 0.62,7.20 0.34,6.95 0.06,6.70 -0.14,6.39 -0.36,6.08 -0.49,5.73 -0.62,5.37 -0.67,5.00 -0.71,4.63 -0.66,4.25 -0.62,3.88 -0.48,3.53 -0.35,3.18 -0.14,2.87 0.07,2.56 0.35,2.31 0.63,2.06 1.96,1.80 3.28,1.54 4.88,0.85 6.48,0.16 7.96,-0.45 9.44,-1.08 9.56,-1.16 9.68,-1.24 10.05,-1.33 10.41,-1.41 10.78,-1.40 11.16,-1.40 11.52,-1.30 11.88,-1.20 12.21,-1.02 12.53,-0.84 12.81,-0.59 13.08,-0.34 13.29,-0.03 13.49,0.27 13.62,0.62 13.74,0.98 13.78,1.35 13.82,1.72 13.77,2.09 13.72,2.46 13.58,2.80 13.44,3.15 13.22,3.45 13.00,3.75 12.72,4.00 12.44,4.24 12.10,4.41 11.77,4.57 10.96,5.10 10.15,5.64 9.80,5.79 9.44,5.94 9.06,6.00 8.68,6.06 8.30,6.03 7.91,6.00 7.55,5.88 7.18,5.76 6.85,5.55 6.53,5.35 6.26,5.07 5.99,4.79 5.80,4.46 5.61,4.12 5.50,3.75 5.39,3.38 5.37,2.99 5.36,2.61 5.44,2.23 5.51,1.85 5.68,1.50 5.84,1.15 6.09,0.86 6.33,0.56 6.64,0.32 6.95,0.09 8.55,0.09 10.15,0.09 11.29,0.38 12.43,0.66 13.53,1.95 14.63,3.24 13.23,2.96 11.83,2.68 11.96,3.06 12.09,3.44 12.13,3.84 12.17,4.24 12.11,4.64 12.05,5.04 11.90,5.41 11.75,5.78 11.51,6.11 11.27,6.43 10.96,6.69 10.65,6.95 10.29,7.13 9.93,7.31 9.54,7.39 9.15,7.48 8.74,7.47 8.34,7.46 7.95,7.35 7.56,7.24 7.21,7.05 6.86,6.85 6.57,6.58 6.27,6.30 6.05,5.96 5.83,5.63 6.40,6.27 6.96,6.92 6.57,6.55 6.17,6.18 5.92,5.70 5.67,5.22 5.58,4.69 5.49,4.16 5.58,3.62 5.67,3.09 5.92,2.61 6.17,2.13 6.56,1.76 6.95,1.39 7.44,1.16 7.93,0.94 8.47,0.88 9.01,0.82 9.54,0.93 10.06,1.05 10.53,1.33 10.99,1.61 11.34,2.02 11.69,2.43 11.89,2.93 12.09,3.43 12.12,3.97 12.15,4.51 12.01,5.03 11.86,5.55 11.56,6.00 11.26,6.45 10.83,6.77 10.40,7.10 9.88,7.27 9.37,7.45 8.83,7.45 8.29,7.45 7.78,7.28 7.27,7.10 6.84,6.78 6.41,6.45 6.10,6.00 5.80,5.56 5.66,5.04 5.51,4.52 5.54,3.98 5.57,3.44 5.77,2.94 5.97,2.43 6.32,2.02 6.67,1.61 7.13,1.33 7.59,1.05 8.12,0.94 8.65,0.82 9.18,0.88 9.72,0.93 10.77,1.81 11.83,2.68 11.96,3.06 12.09,3.44 12.13,3.84 12.17,4.24 12.11,4.64 12.05,5.04 11.90,5.41 11.75,5.78 11.51,6.11 11.27,6.43 10.96,6.69 10.65,6.95 10.29,7.13 9.93,7.30 9.54,7.39 9.15,7.48 8.74,7.47 8.34,7.46 7.95,7.35 7.56,7.24 7.21,7.05 6.86,6.85 6.57,6.58 6.27,6.30 6.05,5.96 5.83,5.63 7.86,6.16 9.88,6.70 8.73,6.31 7.57,5.92 8.86,5.78 10.15,5.64 9.80,5.79 9.44,5.94 9.06,6.00 8.68,6.06 8.30,6.03 7.91,6.00 7.55,5.88 7.18,5.76 6.85,5.55 6.53,5.35 6.26,5.07 5.99,4.79 5.80,4.46 5.61,4.12 5.50,3.75 5.39,3.38 5.37,2.99 5.36,2.61 5.44,2.23 5.51,1.85 5.68,1.50 5.84,1.15 6.09,0.86 6.33,0.56 6.64,0.32 6.95,0.09 7.10,-0.04 7.26,-0.19 8.47,-0.72 9.68,-1.24 10.05,-1.33 10.41,-1.41 10.78,-1.40 11.16,-1.40 11.52,-1.30 11.88,-1.20 12.21,-1.02 12.53,-0.84 12.81,-0.59 13.08,-0.34 13.29,-0.03 13.49,0.27 13.62,0.62 13.74,0.98 13.78,1.35 13.82,1.72 13.77,2.09 13.72,2.46 13.58,2.80 13.44,3.15 13.22,3.45 13.00,3.75 12.72,4.00 12.44,4.24 12.10,4.41 11.77,4.57 11.65,4.63 11.52,4.69 10.22,5.19 8.93,5.68 6.55,6.44 4.17,7.20 3.83,7.38 3.50,7.55 3.14,7.64 2.77,7.73 2.39,7.73 2.02,7.73 1.65,7.64 1.29,7.55 0.96,7.37 0.62,7.20 0.34,6.95 0.06,6.70 -0.14,6.39 -0.36,6.08 -0.49,5.73 -0.62,5.37 -0.67,5.00 -0.71,4.63 -0.66,4.26 -0.62,3.88 -0.48,3.53 -0.35,3.18 -0.14,2.87 0.07,2.56 0.35,2.31 0.63,2.06 1.45,1.49 2.27,0.92 3.21,0.11 4.15,-0.69 5.05,-1.44 5.95,-2.19 7.16,-3.13 8.36,-4.08 8.70,-4.23 9.05,-4.38 9.42,-4.44 9.79,-4.51 10.17,-4.48 10.54,-4.45 10.90,-4.33 11.26,-4.22 11.58,-4.02 11.90,-3.82 12.17,-3.55 12.43,-3.28 12.62,-2.96 12.81,-2.63 12.92,-2.27 13.03,-1.91 13.05,-1.53 13.07,-1.16 12.99,-0.78 12.92,-0.41 12.76,-0.07 12.60,0.26 12.37,0.55 12.13,0.85 11.83,1.08 11.53,1.31 11.41,1.41 11.28,1.51 9.99,2.26 8.71,3.02 7.54,3.68 6.38,4.35 4.20,5.01 2.02,5.67 0.93,2.70 -0.15,-0.25 1.00,-1.59 2.16,-2.93 2.75,-4.12 3.33,-5.31 3.64,-5.47 3.96,-5.64 4.30,-5.72 4.65,-5.80 5.00,-5.80 5.35,-5.80 5.70,-5.72 6.04,-5.63 6.35,-5.47 6.67,-5.30 6.93,-5.07 7.20,-4.83 7.40,-4.54 7.60,-4.25 7.72,-3.92 7.85,-3.59 7.89,-3.23 7.93,-2.88 7.89,-2.53 7.85,-2.18 7.72,-1.85 7.59,-1.52 7.39,-1.23 7.19,-0.94 6.93,-0.70 6.66,-0.47 5.65,0.13 4.64,0.73 2.95,1.73 1.26,2.73 -0.46,2.10 -2.19,1.46 -2.34,1.18 -2.48,0.89 -2.55,0.58 -2.62,0.27 -2.62,-0.04 -2.61,-0.36 -2.53,-0.66 -2.45,-0.97 -2.30,-1.25 -2.14,-1.53 -1.93,-1.76 -1.71,-2.00 -1.45,-2.18 -1.18,-2.35 -0.88,-2.46 -0.59,-2.57 -0.27,-2.60 0.04,-2.64 0.35,-2.59 0.67,-2.55 0.96,-2.43 1.26,-2.31 1.52,-2.13 1.78,-1.94 1.99,-1.70 2.19,-1.46 2.19,-1.46 L 2.19,-1.46 Z"></path></g><g transform="translate(45.630259397481495 101.383776221895) rotate(0 -0.3897944061227463 4.157866477451762)" stroke="none"><path fill="#ffffff" d="M 1.00,2.37 Q 1.00,2.37 -0.42,2.95 -1.85,3.52 -3.27,4.02 -4.69,4.52 -5.45,4.96 -6.20,5.41 -6.51,5.49 -6.82,5.56 -7.14,5.56 -7.46,5.57 -7.77,5.49 -8.08,5.42 -8.36,5.27 -8.64,5.12 -8.88,4.91 -9.12,4.70 -9.30,4.44 -9.48,4.18 -9.60,3.88 -9.71,3.58 -9.75,3.27 -9.79,2.95 -9.76,2.63 -9.72,2.32 -9.61,2.02 -9.50,1.72 -9.32,1.46 -9.14,1.19 -8.90,0.98 -8.66,0.77 -8.38,0.62 -8.10,0.47 -6.64,0.40 -5.18,0.33 -3.29,0.70 -1.41,1.06 0.15,1.67 1.72,2.29 3.16,2.90 4.61,3.51 6.61,4.50 8.62,5.49 9.03,5.78 9.45,6.07 9.75,6.47 10.05,6.88 10.21,7.36 10.36,7.84 10.36,8.35 10.35,8.85 10.18,9.33 10.01,9.81 9.70,10.21 9.39,10.61 8.97,10.88 8.55,11.16 8.06,11.29 7.57,11.42 7.07,11.39 6.56,11.35 6.10,11.16 5.63,10.97 5.25,10.64 4.86,10.31 4.61,9.87 4.35,9.43 4.25,8.94 4.15,8.44 4.21,7.94 4.27,7.44 4.49,6.98 4.71,6.53 5.06,6.16 5.41,5.80 5.86,5.57 6.31,5.34 6.81,5.26 7.31,5.19 7.81,5.27 8.31,5.36 8.75,5.60 9.19,5.85 9.54,6.22 9.88,6.59 10.09,7.05 10.29,7.51 10.34,8.01 10.39,8.52 10.28,9.01 10.16,9.50 9.89,9.93 9.63,10.36 9.24,10.69 8.85,11.01 8.38,11.19 7.91,11.37 7.40,11.39 6.90,11.41 6.41,11.27 5.92,11.13 5.92,11.13 5.92,11.13 4.06,10.13 2.19,9.12 0.80,8.45 -0.59,7.78 -1.78,7.19 -2.96,6.60 -4.58,6.01 -6.20,5.41 -6.51,5.49 -6.82,5.56 -7.14,5.56 -7.46,5.57 -7.77,5.49 -8.08,5.42 -8.36,5.27 -8.64,5.12 -8.88,4.91 -9.12,4.70 -9.30,4.44 -9.48,4.18 -9.60,3.88 -9.71,3.58 -9.75,3.27 -9.79,2.95 -9.76,2.63 -9.72,2.32 -9.61,2.02 -9.50,1.72 -9.32,1.46 -9.14,1.19 -8.90,0.98 -8.66,0.77 -8.38,0.62 -8.10,0.47 -7.24,0.12 -6.37,-0.22 -5.09,-0.67 -3.81,-1.13 -2.41,-1.75 -1.00,-2.37 -0.70,-2.46 -0.40,-2.54 -0.09,-2.55 0.21,-2.57 0.52,-2.50 0.82,-2.44 1.10,-2.30 1.38,-2.17 1.62,-1.97 1.86,-1.77 2.05,-1.52 2.23,-1.28 2.36,-0.99 2.48,-0.70 2.52,-0.39 2.57,-0.09 2.55,0.21 2.52,0.52 2.42,0.82 2.32,1.11 2.15,1.37 1.99,1.64 1.76,1.85 1.54,2.06 1.27,2.22 1.00,2.37 1.00,2.37 L 1.00,2.37 Z"></path></g><g transform="translate(49.788145701204485 98.00549855668783) rotate(0 31.963627045675366 -23.128153346238605)" stroke="none"><path fill="#ffffff" d="M -0.97,-1.22 Q -0.97,-1.22 1.58,-3.21 4.14,-5.20 6.14,-6.72 8.14,-8.23 12.69,-11.29 17.24,-14.34 22.39,-17.58 27.54,-20.81 32.71,-24.05 37.89,-27.28 42.16,-30.21 46.42,-33.13 49.80,-35.64 53.17,-38.14 55.56,-40.09 57.95,-42.03 59.37,-43.49 60.79,-44.95 61.81,-46.14 62.83,-47.32 63.02,-47.47 63.22,-47.62 63.46,-47.69 63.70,-47.77 63.95,-47.76 64.19,-47.76 64.43,-47.68 64.66,-47.60 64.86,-47.44 65.05,-47.29 65.19,-47.08 65.32,-46.87 65.39,-46.63 65.45,-46.39 65.43,-46.15 65.41,-45.90 65.32,-45.67 65.22,-45.44 65.06,-45.25 64.90,-45.07 64.68,-44.94 64.47,-44.82 64.22,-44.77 63.98,-44.72 63.74,-44.75 63.49,-44.78 63.27,-44.89 63.04,-45.00 62.86,-45.17 62.69,-45.34 62.57,-45.56 62.46,-45.78 62.43,-46.03 62.39,-46.27 62.43,-46.52 62.48,-46.76 62.60,-46.98 62.72,-47.20 62.90,-47.37 63.08,-47.53 63.31,-47.63 63.53,-47.73 63.78,-47.76 64.03,-47.78 64.27,-47.72 64.51,-47.67 64.72,-47.54 64.93,-47.40 65.09,-47.21 65.25,-47.02 65.34,-46.79 65.42,-46.56 65.43,-46.31 65.44,-46.06 65.37,-45.82 65.30,-45.59 65.16,-45.38 65.02,-45.18 65.02,-45.18 65.02,-45.18 63.86,-44.13 62.70,-43.09 61.17,-41.53 59.64,-39.97 57.21,-37.98 54.77,-35.99 51.36,-33.45 47.95,-30.91 43.65,-27.94 39.34,-24.97 34.18,-21.72 29.02,-18.47 23.92,-15.24 18.82,-12.00 14.37,-8.97 9.91,-5.94 7.96,-4.40 6.01,-2.86 3.49,-0.81 0.97,1.22 0.81,1.32 0.65,1.42 0.47,1.48 0.29,1.53 0.10,1.55 -0.08,1.56 -0.27,1.53 -0.45,1.49 -0.62,1.42 -0.80,1.34 -0.95,1.23 -1.10,1.11 -1.21,0.96 -1.33,0.81 -1.41,0.64 -1.49,0.47 -1.52,0.29 -1.56,0.10 -1.55,-0.08 -1.54,-0.27 -1.48,-0.45 -1.43,-0.63 -1.33,-0.79 -1.23,-0.95 -1.10,-1.09 -0.97,-1.22 -0.97,-1.22 L -0.97,-1.22 Z"></path></g><g transform="translate(69.01828063770245 85.53188921119693) rotate(0 25.856758798205192 -16.761417204785744)" stroke="none"><path fill="#ffffff" d="M -1.02,-2.04 Q -1.02,-2.04 0.81,-2.85 2.64,-3.66 4.32,-4.66 6.00,-5.65 7.55,-6.70 9.10,-7.74 10.22,-8.66 11.34,-9.58 12.33,-10.47 13.33,-11.37 13.56,-11.50 13.79,-11.64 14.05,-11.71 14.31,-11.79 14.57,-11.80 14.84,-11.81 15.10,-11.76 15.37,-11.71 15.61,-11.59 15.85,-11.48 16.06,-11.31 16.27,-11.14 16.43,-10.93 16.59,-10.72 16.70,-10.47 16.80,-10.23 16.85,-9.96 16.89,-9.70 16.87,-9.43 16.85,-9.16 16.77,-8.91 16.69,-8.65 16.54,-8.43 16.40,-8.20 16.21,-8.01 16.02,-7.83 15.43,-6.67 14.84,-5.52 14.18,-4.31 13.52,-3.10 12.95,-1.96 12.38,-0.83 12.37,-0.07 12.35,0.67 12.20,0.94 12.05,1.21 11.84,1.44 11.63,1.67 11.37,1.84 11.11,2.01 10.82,2.12 10.53,2.22 10.22,2.25 9.91,2.28 9.60,2.24 9.29,2.19 9.00,2.08 8.72,1.96 8.46,1.78 8.21,1.60 8.01,1.36 7.81,1.13 7.67,0.85 7.53,0.57 7.46,0.27 7.40,-0.03 7.40,-0.34 7.41,-0.65 7.49,-0.95 7.57,-1.25 8.78,-2.40 10.00,-3.55 11.03,-4.59 12.06,-5.62 13.22,-6.97 14.38,-8.31 15.29,-9.71 16.20,-11.11 17.26,-12.75 18.31,-14.39 19.01,-15.60 19.70,-16.81 20.30,-17.77 20.90,-18.74 21.10,-18.95 21.29,-19.16 21.52,-19.32 21.76,-19.48 22.03,-19.57 22.30,-19.67 22.58,-19.70 22.86,-19.74 23.15,-19.70 23.43,-19.66 23.69,-19.56 23.96,-19.45 24.19,-19.29 24.42,-19.12 24.61,-18.91 24.80,-18.69 24.93,-18.44 25.06,-18.18 25.12,-17.91 25.19,-17.63 25.18,-17.34 25.18,-17.06 25.11,-16.78 25.04,-16.51 24.90,-16.26 24.77,-16.01 24.95,-13.72 25.13,-11.44 24.99,-10.17 24.84,-8.89 24.83,-7.51 24.82,-6.13 24.91,-5.81 25.00,-5.50 24.95,-5.17 24.89,-4.84 24.75,-4.54 24.62,-4.23 24.42,-3.97 24.21,-3.71 23.95,-3.50 23.69,-3.30 23.39,-3.16 23.09,-3.02 22.76,-2.96 22.44,-2.90 22.10,-2.91 21.77,-2.93 21.45,-3.03 21.14,-3.13 20.85,-3.30 20.57,-3.47 20.33,-3.70 20.09,-3.93 19.92,-4.22 19.75,-4.50 19.65,-4.82 19.54,-5.13 19.52,-5.46 19.50,-5.79 20.65,-7.14 21.81,-8.49 23.30,-11.05 24.80,-13.62 26.11,-15.47 27.42,-17.32 28.39,-18.70 29.36,-20.08 30.19,-21.23 31.02,-22.39 31.23,-22.59 31.43,-22.79 31.67,-22.93 31.92,-23.08 32.19,-23.16 32.46,-23.24 32.74,-23.26 33.03,-23.27 33.30,-23.22 33.58,-23.16 33.84,-23.05 34.10,-22.93 34.32,-22.75 34.54,-22.57 34.72,-22.35 34.89,-22.13 35.00,-21.87 35.12,-21.61 35.17,-21.33 35.22,-21.05 35.20,-20.76 35.18,-20.48 35.09,-20.21 35.01,-19.94 34.86,-19.70 34.71,-19.46 34.47,-17.50 34.23,-15.54 34.02,-14.30 33.81,-13.07 33.65,-11.51 33.49,-9.95 33.41,-9.66 33.32,-9.38 33.17,-9.12 33.01,-8.86 32.80,-8.64 32.59,-8.43 32.33,-8.27 32.08,-8.11 31.79,-8.02 31.50,-7.93 31.20,-7.91 30.90,-7.89 30.61,-7.94 30.31,-7.99 30.04,-8.11 29.76,-8.24 29.52,-8.42 29.28,-8.60 29.10,-8.84 28.91,-9.07 28.78,-9.35 28.66,-9.62 28.60,-9.92 28.54,-10.21 28.56,-10.51 28.58,-10.81 29.58,-11.83 30.58,-12.84 31.52,-14.66 32.47,-16.47 32.90,-17.60 33.32,-18.73 33.50,-19.89 33.68,-21.06 33.79,-21.35 33.91,-21.65 34.09,-21.91 34.27,-22.17 34.51,-22.38 34.76,-22.59 35.04,-22.74 35.32,-22.88 35.63,-22.96 35.94,-23.03 36.26,-23.03 36.58,-23.02 36.89,-22.95 37.20,-22.87 37.48,-22.72 37.76,-22.56 38.00,-22.35 38.24,-22.14 38.41,-21.87 38.59,-21.61 38.70,-21.31 38.81,-21.01 38.85,-20.69 38.89,-20.38 38.84,-20.06 38.80,-19.75 38.62,-18.35 38.43,-16.95 38.45,-16.05 38.47,-15.16 38.42,-14.82 38.36,-14.48 38.22,-14.16 38.08,-13.84 37.87,-13.57 37.66,-13.29 37.39,-13.08 37.12,-12.86 36.81,-12.72 36.50,-12.57 36.16,-12.51 35.82,-12.44 35.48,-12.46 35.13,-12.47 34.80,-12.57 34.47,-12.67 34.17,-12.85 33.87,-13.02 33.63,-13.26 33.38,-13.51 33.20,-13.80 33.02,-14.09 32.91,-14.42 32.81,-14.75 32.78,-15.09 32.76,-15.44 33.70,-16.44 34.64,-17.45 34.81,-19.58 34.99,-21.71 35.39,-23.16 35.78,-24.61 36.18,-25.83 36.58,-27.04 37.03,-28.20 37.49,-29.36 37.68,-29.66 37.87,-29.95 38.13,-30.18 38.38,-30.42 38.69,-30.59 38.99,-30.76 39.33,-30.85 39.66,-30.94 40.01,-30.95 40.36,-30.96 40.70,-30.88 41.04,-30.81 41.36,-30.65 41.67,-30.50 41.94,-30.27 42.20,-30.05 42.41,-29.77 42.61,-29.48 42.74,-29.16 42.87,-28.84 42.92,-28.49 42.97,-28.15 42.94,-27.80 42.91,-27.45 42.79,-27.12 42.67,-26.79 43.27,-25.85 43.87,-24.91 44.26,-23.56 44.66,-22.21 45.02,-21.45 45.39,-20.69 45.42,-20.31 45.46,-19.94 45.40,-19.56 45.35,-19.19 45.21,-18.84 45.06,-18.49 44.84,-18.19 44.62,-17.88 44.33,-17.64 44.04,-17.40 43.71,-17.23 43.37,-17.06 43.00,-16.98 42.63,-16.90 42.26,-16.91 41.88,-16.92 41.52,-17.02 41.15,-17.12 40.82,-17.30 40.49,-17.49 40.22,-17.74 39.94,-18.00 39.74,-18.31 39.53,-18.63 39.41,-18.99 39.28,-19.34 39.89,-21.03 40.51,-22.72 40.77,-23.89 41.04,-25.05 41.31,-26.29 41.59,-27.53 41.87,-28.76 42.15,-30.00 42.57,-31.52 42.99,-33.05 42.96,-32.96 42.92,-32.88 43.05,-33.23 43.18,-33.58 43.39,-33.88 43.60,-34.19 43.88,-34.44 44.16,-34.69 44.49,-34.86 44.81,-35.04 45.18,-35.13 45.54,-35.22 45.91,-35.22 46.28,-35.22 46.64,-35.13 47.00,-35.05 47.33,-34.87 47.66,-34.70 47.94,-34.46 48.22,-34.21 48.44,-33.91 48.65,-33.60 48.78,-33.25 48.92,-32.91 48.96,-32.54 49.01,-32.17 48.97,-31.80 48.92,-31.43 49.45,-30.13 49.98,-28.83 50.26,-27.76 50.54,-26.68 50.90,-25.29 51.27,-23.90 51.54,-23.64 51.80,-23.38 51.86,-23.02 51.92,-22.65 51.90,-22.29 51.87,-21.92 51.75,-21.57 51.64,-21.23 51.44,-20.91 51.25,-20.60 50.98,-20.35 50.72,-20.09 50.40,-19.91 50.09,-19.72 49.73,-19.62 49.38,-19.52 49.01,-19.50 48.65,-19.49 48.29,-19.56 47.93,-19.63 47.60,-19.79 47.26,-19.94 46.98,-20.17 46.69,-20.40 46.47,-20.70 46.25,-20.99 46.11,-21.33 45.96,-21.66 46.29,-23.22 46.62,-24.77 46.98,-26.12 47.34,-27.48 47.63,-29.37 47.92,-31.26 48.30,-32.89 48.68,-34.52 48.87,-34.99 49.07,-35.45 49.41,-35.83 49.75,-36.21 50.19,-36.46 50.63,-36.71 51.12,-36.80 51.62,-36.90 52.12,-36.83 52.62,-36.77 53.07,-36.54 53.53,-36.32 53.88,-35.96 54.24,-35.61 54.47,-35.15 54.69,-34.70 54.76,-34.20 54.83,-33.70 54.74,-33.20 54.64,-32.71 54.39,-32.27 54.15,-31.83 53.77,-31.49 53.40,-31.15 52.93,-30.95 52.47,-30.75 51.96,-30.71 51.46,-30.66 50.97,-30.79 50.48,-30.91 50.05,-31.18 49.63,-31.45 49.31,-31.84 48.99,-32.24 48.82,-32.71 48.64,-33.18 48.63,-33.69 48.61,-34.19 48.76,-34.68 48.91,-35.16 49.20,-35.57 49.50,-35.98 49.91,-36.28 50.32,-36.57 50.80,-36.72 51.28,-36.87 51.79,-36.86 52.29,-36.85 52.77,-36.67 53.24,-36.50 53.64,-36.18 54.03,-35.87 54.30,-35.44 54.58,-35.02 54.70,-34.53 54.82,-34.04 54.78,-33.53 54.74,-33.03 54.74,-33.03 54.74,-33.03 54.23,-30.72 53.73,-28.40 53.55,-27.31 53.38,-26.21 52.59,-24.80 51.80,-23.38 51.86,-23.02 51.92,-22.65 51.90,-22.29 51.87,-21.92 51.75,-21.57 51.64,-21.23 51.44,-20.91 51.25,-20.60 50.98,-20.35 50.72,-20.09 50.40,-19.91 50.09,-19.72 49.73,-19.62 49.38,-19.52 49.01,-19.50 48.65,-19.49 48.29,-19.56 47.93,-19.63 47.60,-19.79 47.26,-19.94 46.98,-20.17 46.69,-20.40 46.47,-20.70 46.25,-20.99 46.11,-21.33 45.96,-21.66 45.65,-22.46 45.34,-23.25 44.83,-25.23 44.33,-27.22 43.81,-28.69 43.30,-30.15 43.11,-31.52 42.92,-32.88 43.05,-33.23 43.18,-33.58 43.39,-33.88 43.60,-34.19 43.88,-34.44 44.16,-34.69 44.49,-34.86 44.81,-35.04 45.18,-35.13 45.54,-35.22 45.91,-35.22 46.28,-35.22 46.64,-35.13 47.00,-35.05 47.33,-34.87 47.66,-34.70 47.94,-34.46 48.22,-34.21 48.44,-33.91 48.65,-33.60 48.78,-33.26 48.92,-32.91 48.96,-32.54 49.01,-32.17 48.97,-31.80 48.92,-31.43 48.80,-31.26 48.67,-31.09 48.36,-29.93 48.04,-28.77 47.82,-27.57 47.59,-26.38 47.37,-25.07 47.16,-23.76 46.27,-22.22 45.39,-20.69 45.42,-20.31 45.46,-19.94 45.40,-19.56 45.35,-19.19 45.21,-18.84 45.06,-18.49 44.84,-18.19 44.62,-17.88 44.33,-17.64 44.04,-17.40 43.71,-17.23 43.37,-17.06 43.00,-16.98 42.63,-16.90 42.26,-16.91 41.88,-16.92 41.52,-17.02 41.15,-17.12 40.82,-17.30 40.49,-17.49 40.22,-17.74 39.94,-18.00 39.74,-18.31 39.53,-18.63 39.41,-18.98 39.28,-19.34 39.08,-19.80 38.88,-20.25 38.49,-21.87 38.10,-23.49 37.72,-25.22 37.35,-26.95 37.42,-28.16 37.49,-29.36 37.68,-29.65 37.87,-29.95 38.13,-30.18 38.38,-30.42 38.69,-30.59 38.99,-30.76 39.33,-30.85 39.66,-30.94 40.01,-30.95 40.36,-30.96 40.70,-30.88 41.04,-30.81 41.36,-30.65 41.67,-30.50 41.93,-30.27 42.20,-30.05 42.41,-29.77 42.61,-29.48 42.74,-29.16 42.87,-28.84 42.92,-28.49 42.97,-28.15 42.94,-27.80 42.91,-27.45 42.79,-27.12 42.67,-26.79 42.25,-26.03 41.83,-25.27 41.48,-24.27 41.13,-23.26 40.83,-21.94 40.52,-20.62 40.21,-18.87 39.90,-17.11 39.46,-16.05 39.03,-14.99 38.10,-14.08 37.17,-13.18 37.82,-14.17 38.47,-15.16 38.42,-14.82 38.36,-14.48 38.22,-14.16 38.08,-13.84 37.87,-13.57 37.66,-13.29 37.39,-13.08 37.12,-12.86 36.81,-12.72 36.50,-12.57 36.16,-12.51 35.82,-12.44 35.48,-12.46 35.13,-12.47 34.80,-12.57 34.47,-12.67 34.17,-12.85 33.88,-13.02 33.63,-13.26 33.38,-13.51 33.20,-13.80 33.02,-14.09 32.91,-14.42 32.81,-14.75 32.78,-15.09 32.76,-15.44 32.86,-16.41 32.97,-17.38 33.32,-19.22 33.68,-21.05 33.79,-21.35 33.91,-21.65 34.09,-21.91 34.27,-22.17 34.51,-22.38 34.76,-22.59 35.04,-22.74 35.32,-22.88 35.63,-22.96 35.94,-23.03 36.26,-23.03 36.58,-23.02 36.89,-22.95 37.20,-22.87 37.48,-22.72 37.76,-22.57 38.00,-22.35 38.24,-22.14 38.41,-21.87 38.59,-21.61 38.70,-21.31 38.81,-21.01 38.85,-20.69 38.89,-20.38 38.84,-20.06 38.80,-19.75 38.36,-18.34 37.92,-16.93 37.32,-15.47 36.73,-14.01 35.11,-11.98 33.49,-9.95 33.41,-9.66 33.32,-9.38 33.17,-9.12 33.01,-8.86 32.80,-8.64 32.59,-8.43 32.33,-8.27 32.08,-8.11 31.79,-8.02 31.50,-7.93 31.20,-7.91 30.90,-7.89 30.61,-7.94 30.31,-7.99 30.04,-8.11 29.76,-8.24 29.52,-8.42 29.28,-8.60 29.10,-8.84 28.91,-9.07 28.78,-9.35 28.66,-9.62 28.60,-9.92 28.54,-10.21 28.56,-10.51 28.58,-10.81 28.70,-11.33 28.83,-11.84 29.07,-12.92 29.32,-14.00 29.62,-15.26 29.93,-16.52 30.25,-18.10 30.57,-19.67 30.80,-21.03 31.02,-22.39 31.23,-22.59 31.43,-22.79 31.67,-22.93 31.92,-23.08 32.19,-23.16 32.46,-23.24 32.74,-23.26 33.03,-23.27 33.30,-23.22 33.58,-23.17 33.84,-23.05 34.10,-22.93 34.32,-22.75 34.54,-22.58 34.72,-22.35 34.89,-22.13 35.00,-21.87 35.12,-21.61 35.17,-21.33 35.22,-21.05 35.20,-20.76 35.18,-20.48 35.09,-20.21 35.01,-19.94 34.86,-19.70 34.71,-19.46 33.77,-18.53 32.82,-17.60 31.92,-16.35 31.01,-15.10 30.01,-13.22 29.02,-11.35 27.98,-9.04 26.94,-6.74 25.97,-6.12 25.00,-5.50 24.95,-5.17 24.89,-4.84 24.75,-4.54 24.62,-4.23 24.42,-3.97 24.21,-3.71 23.95,-3.50 23.69,-3.30 23.39,-3.16 23.09,-3.02 22.76,-2.96 22.44,-2.90 22.10,-2.91 21.77,-2.93 21.45,-3.03 21.14,-3.13 20.85,-3.30 20.57,-3.47 20.33,-3.70 20.09,-3.93 19.92,-4.22 19.75,-4.50 19.65,-4.82 19.54,-5.13 19.52,-5.46 19.50,-5.79 19.47,-6.09 19.43,-6.38 19.62,-7.95 19.81,-9.52 19.99,-10.87 20.17,-12.22 20.41,-14.14 20.65,-16.06 20.78,-17.40 20.90,-18.74 21.10,-18.95 21.29,-19.16 21.52,-19.32 21.76,-19.48 22.03,-19.57 22.30,-19.67 22.58,-19.70 22.86,-19.74 23.14,-19.70 23.43,-19.66 23.69,-19.56 23.96,-19.45 24.19,-19.29 24.42,-19.12 24.61,-18.91 24.80,-18.69 24.93,-18.44 25.06,-18.18 25.12,-17.91 25.19,-17.63 25.18,-17.34 25.18,-17.06 25.11,-16.78 25.04,-16.51 24.90,-16.26 24.77,-16.01 24.07,-15.27 23.37,-14.54 22.62,-13.42 21.86,-12.29 20.92,-10.54 19.98,-8.78 19.00,-7.12 18.03,-5.46 16.85,-3.83 15.68,-2.19 14.02,-0.76 12.35,0.67 12.20,0.94 12.05,1.21 11.84,1.44 11.63,1.67 11.37,1.84 11.11,2.01 10.82,2.12 10.53,2.22 10.22,2.25 9.91,2.28 9.60,2.24 9.29,2.19 9.00,2.08 8.72,1.96 8.46,1.78 8.21,1.60 8.01,1.36 7.81,1.13 7.67,0.85 7.53,0.57 7.46,0.27 7.40,-0.03 7.40,-0.34 7.41,-0.65 7.49,-0.95 7.57,-1.25 7.51,-1.00 7.45,-0.76 7.78,-1.92 8.10,-3.08 8.74,-4.24 9.38,-5.39 10.16,-6.77 10.93,-8.16 12.13,-9.76 13.33,-11.37 13.56,-11.50 13.79,-11.64 14.05,-11.71 14.31,-11.79 14.57,-11.80 14.84,-11.81 15.10,-11.76 15.37,-11.71 15.61,-11.59 15.85,-11.48 16.06,-11.31 16.27,-11.14 16.43,-10.93 16.59,-10.72 16.70,-10.47 16.80,-10.23 16.85,-9.96 16.89,-9.70 16.87,-9.43 16.85,-9.16 16.77,-8.91 16.69,-8.65 16.54,-8.43 16.40,-8.20 16.21,-8.01 16.02,-7.83 14.88,-7.14 13.73,-6.44 12.48,-5.55 11.23,-4.66 9.66,-3.55 8.10,-2.43 6.31,-1.17 4.52,0.08 2.77,1.06 1.02,2.04 0.76,2.13 0.50,2.23 0.22,2.25 -0.04,2.28 -0.31,2.24 -0.59,2.20 -0.84,2.10 -1.10,2.00 -1.32,1.84 -1.55,1.68 -1.72,1.47 -1.90,1.26 -2.03,1.01 -2.15,0.76 -2.21,0.49 -2.27,0.23 -2.27,-0.04 -2.26,-0.32 -2.19,-0.58 -2.12,-0.85 -1.98,-1.09 -1.85,-1.33 -1.66,-1.53 -1.48,-1.74 -1.25,-1.89 -1.02,-2.04 -1.02,-2.04 L -1.02,-2.04 Z"></path></g><g transform="translate(127.22847080084102 43.95318478413685) rotate(0 -1.6891289194677483 8.96541012471198)" stroke="none"><path fill="#ffffff" d="M 2.61,-0.27 Q 2.61,-0.27 2.75,1.14 2.88,2.56 2.90,3.84 2.92,5.12 2.78,6.25 2.64,7.39 2.34,8.50 2.03,9.61 1.43,11.61 0.84,13.60 -0.35,16.46 -1.56,19.32 -1.85,19.69 -2.14,20.07 -2.53,20.34 -2.93,20.60 -3.39,20.73 -3.85,20.85 -4.32,20.83 -4.80,20.80 -5.24,20.62 -5.68,20.44 -6.04,20.13 -6.41,19.82 -6.65,19.41 -6.89,19.00 -6.99,18.54 -7.09,18.07 -7.04,17.60 -6.99,17.13 -6.78,16.69 -6.58,16.26 -6.25,15.92 -5.92,15.57 -5.50,15.35 -5.08,15.13 -4.61,15.06 -4.14,14.98 -3.67,15.06 -3.20,15.14 -2.78,15.37 -2.36,15.59 -2.03,15.94 -1.71,16.29 -1.51,16.72 -1.31,17.15 -1.26,17.63 -1.21,18.10 -1.32,18.56 -1.42,19.03 -1.67,19.44 -1.92,19.84 -2.28,20.15 -2.65,20.46 -3.09,20.63 -3.53,20.80 -4.01,20.83 -4.49,20.85 -4.94,20.72 -5.40,20.59 -5.79,20.32 -6.19,20.05 -6.47,19.67 -6.76,19.29 -6.91,18.84 -7.06,18.39 -7.06,17.91 -7.06,17.44 -6.90,16.98 -6.75,16.53 -6.75,16.53 -6.75,16.54 -5.96,15.07 -5.17,13.60 -4.52,11.80 -3.86,10.00 -3.29,8.25 -2.71,6.49 -2.50,4.80 -2.29,3.10 -2.45,1.69 -2.61,0.27 -2.61,-0.04 -2.60,-0.35 -2.52,-0.66 -2.44,-0.97 -2.29,-1.25 -2.14,-1.52 -1.92,-1.76 -1.71,-1.99 -1.44,-2.17 -1.18,-2.35 -0.88,-2.45 -0.58,-2.56 -0.27,-2.59 0.04,-2.63 0.35,-2.58 0.67,-2.54 0.96,-2.42 1.26,-2.31 1.51,-2.12 1.77,-1.94 1.98,-1.70 2.19,-1.46 2.33,-1.17 2.47,-0.89 2.54,-0.58 2.61,-0.27 2.61,-0.27 L 2.61,-0.27 Z"></path></g><g transform="translate(111.18152516729515 83.25816355179006) rotate(0 1.2386847026589294 29.10952760081426)" stroke="none"><path fill="#ffffff" d="M -0.17,-2.25 Q -0.17,-2.25 2.15,-2.31 4.47,-2.36 6.01,-2.47 7.56,-2.58 8.79,-2.67 10.03,-2.76 11.39,-2.34 12.76,-1.93 13.62,-1.07 14.49,-0.21 14.88,1.16 15.28,2.54 15.37,4.01 15.46,5.47 14.86,7.36 14.27,9.24 13.15,11.18 12.04,13.12 10.83,15.27 9.61,17.43 8.56,20.02 7.52,22.61 5.58,26.66 3.64,30.70 1.72,34.37 -0.18,38.03 -1.88,41.51 -3.59,45.00 -5.02,48.24 -6.46,51.48 -7.25,53.70 -8.03,55.92 -8.55,57.63 -9.08,59.33 -9.19,59.55 -9.31,59.77 -9.49,59.94 -9.67,60.11 -9.90,60.21 -10.12,60.31 -10.37,60.34 -10.62,60.36 -10.86,60.31 -11.10,60.25 -11.31,60.12 -11.52,59.99 -11.68,59.80 -11.84,59.62 -11.93,59.38 -12.02,59.15 -12.03,58.91 -12.05,58.66 -11.98,58.42 -11.91,58.18 -11.77,57.98 -11.63,57.77 -11.43,57.62 -11.23,57.48 -11.00,57.40 -10.76,57.32 -10.51,57.32 -10.27,57.32 -10.03,57.40 -9.80,57.48 -9.60,57.64 -9.41,57.79 -9.27,57.99 -9.13,58.20 -9.07,58.44 -9.00,58.68 -9.02,58.92 -9.03,59.17 -9.12,59.40 -9.22,59.63 -9.38,59.82 -9.54,60.01 -9.75,60.13 -9.97,60.26 -10.21,60.31 -10.45,60.36 -10.70,60.33 -10.94,60.31 -11.17,60.20 -11.39,60.10 -11.57,59.92 -11.75,59.75 -11.86,59.53 -11.98,59.31 -12.02,59.07 -12.06,58.82 -12.01,58.58 -11.97,58.34 -11.97,58.34 -11.97,58.34 -11.34,56.67 -10.70,55.00 -9.92,52.66 -9.13,50.32 -7.72,47.01 -6.31,43.70 -4.65,40.15 -3.00,36.60 -1.20,32.95 0.59,29.29 2.35,25.32 4.11,21.36 5.08,18.50 6.04,15.65 7.04,13.38 8.03,11.11 8.77,9.34 9.51,7.56 9.93,6.57 10.35,5.59 10.18,3.60 10.01,1.61 8.89,1.59 7.76,1.57 6.27,1.61 4.78,1.65 2.47,1.95 0.17,2.25 -0.09,2.24 -0.37,2.23 -0.63,2.15 -0.89,2.08 -1.13,1.94 -1.36,1.80 -1.56,1.61 -1.76,1.42 -1.90,1.19 -2.05,0.96 -2.13,0.70 -2.22,0.44 -2.24,0.17 -2.26,-0.09 -2.21,-0.36 -2.17,-0.63 -2.06,-0.88 -1.95,-1.14 -1.79,-1.35 -1.62,-1.57 -1.41,-1.74 -1.20,-1.91 -0.95,-2.03 -0.70,-2.15 -0.44,-2.20 -0.17,-2.25 -0.17,-2.25 L -0.17,-2.25 Z"></path></g><g transform="translate(114.27828417673481 88.21297324161424) rotate(0 3.7160777343729023 11.148327708703732)" stroke="none"><path fill="#ffffff" d="M -0.83,-2.49 Q -0.83,-2.49 0.26,-2.87 1.36,-3.25 1.77,-3.25 2.17,-3.26 2.50,-3.32 2.82,-3.39 3.15,-3.38 3.48,-3.36 3.80,-3.27 4.12,-3.18 4.40,-3.01 4.69,-2.85 4.93,-2.62 5.17,-2.39 5.34,-2.11 5.52,-1.83 5.62,-1.52 5.73,-1.20 5.76,-0.87 5.78,-0.54 5.73,-0.22 5.68,0.10 5.55,0.41 5.42,0.71 5.22,0.97 5.02,1.24 4.76,1.45 4.51,1.66 4.21,1.80 3.91,1.94 2.81,1.36 1.71,0.78 2.83,-0.18 3.96,-1.16 4.89,-1.78 5.81,-2.40 6.15,-2.53 6.49,-2.65 6.85,-2.70 7.21,-2.74 7.57,-2.70 7.93,-2.65 8.26,-2.53 8.60,-2.40 8.90,-2.19 9.20,-1.99 9.44,-1.71 9.68,-1.44 9.84,-1.12 10.01,-0.80 10.10,-0.45 10.18,-0.10 10.18,0.25 10.18,0.61 10.10,0.96 10.01,1.32 9.84,1.64 9.67,1.96 9.43,2.23 9.19,2.50 8.90,2.70 8.60,2.91 7.87,3.96 7.14,5.00 6.32,6.09 5.50,7.17 4.77,8.23 4.03,9.28 3.59,10.40 3.15,11.52 2.94,11.79 2.72,12.07 2.45,12.29 2.17,12.50 1.85,12.65 1.53,12.79 1.18,12.86 0.84,12.92 0.49,12.90 0.14,12.88 -0.19,12.77 -0.52,12.67 -0.82,12.49 -1.12,12.31 -1.37,12.06 -1.62,11.81 -1.80,11.51 -1.98,11.21 -2.09,10.88 -2.19,10.54 -2.22,10.19 -2.24,9.84 -2.18,9.50 -2.11,9.15 -1.97,8.83 -1.83,8.51 -0.19,7.78 1.44,7.06 2.42,6.54 3.40,6.02 4.38,5.32 5.35,4.63 5.64,4.19 5.94,3.75 6.19,3.53 6.45,3.31 6.75,3.16 7.05,3.01 7.38,2.93 7.71,2.86 8.05,2.86 8.39,2.87 8.71,2.95 9.04,3.04 9.34,3.20 9.63,3.37 9.88,3.59 10.13,3.82 10.32,4.10 10.50,4.38 10.62,4.70 10.73,5.02 10.77,5.36 10.80,5.69 10.76,6.03 10.71,6.36 10.58,6.68 10.46,6.99 10.26,7.26 10.06,7.54 8.94,9.07 7.81,10.60 6.68,12.12 5.55,13.64 4.29,15.65 3.02,17.67 2.37,19.18 1.72,20.70 1.33,22.41 0.95,24.13 0.79,24.46 0.64,24.80 0.39,25.06 0.14,25.33 -0.18,25.51 -0.50,25.68 -0.86,25.74 -1.23,25.80 -1.59,25.74 -1.95,25.68 -2.28,25.51 -2.60,25.34 -2.85,25.08 -3.11,24.81 -3.26,24.48 -3.42,24.15 -3.46,23.78 -3.50,23.42 -3.42,23.06 -3.34,22.70 -3.16,22.38 -2.97,22.07 -2.69,21.83 -2.41,21.59 -2.07,21.45 -1.73,21.32 -1.36,21.29 -1.00,21.27 -0.64,21.37 -0.29,21.47 0.01,21.67 0.31,21.88 0.53,22.17 0.76,22.46 0.88,22.81 0.99,23.16 1.00,23.52 1.00,23.89 0.88,24.24 0.76,24.59 0.54,24.88 0.32,25.17 0.02,25.38 -0.27,25.59 -0.63,25.69 -0.98,25.79 -1.35,25.77 -1.71,25.75 -2.06,25.61 -2.40,25.48 -2.68,25.24 -2.96,25.01 -3.15,24.69 -3.34,24.38 -3.42,24.02 -3.50,23.66 -3.46,23.30 -3.42,22.93 -3.42,22.93 -3.42,22.93 -2.81,21.00 -2.20,19.07 -1.50,17.33 -0.80,15.59 0.26,13.30 1.34,11.00 2.36,9.09 3.39,7.17 4.66,5.46 5.94,3.75 6.19,3.53 6.45,3.31 6.75,3.16 7.05,3.01 7.38,2.93 7.71,2.86 8.05,2.86 8.39,2.87 8.71,2.95 9.04,3.04 9.34,3.20 9.63,3.37 9.88,3.59 10.13,3.82 10.32,4.10 10.50,4.38 10.62,4.70 10.73,5.02 10.77,5.36 10.80,5.69 10.76,6.03 10.71,6.36 10.58,6.68 10.46,6.99 10.26,7.26 10.06,7.54 9.31,8.27 8.56,9.00 7.22,9.99 5.87,10.98 4.51,11.25 3.15,11.52 2.94,11.79 2.72,12.07 2.45,12.29 2.17,12.50 1.85,12.65 1.53,12.79 1.18,12.86 0.84,12.92 0.49,12.90 0.14,12.88 -0.19,12.77 -0.52,12.67 -0.82,12.49 -1.12,12.31 -1.37,12.06 -1.62,11.81 -1.80,11.51 -1.98,11.21 -2.09,10.88 -2.19,10.54 -2.22,10.19 -2.24,9.84 -2.18,9.50 -2.11,9.15 -1.97,8.83 -1.83,8.51 -1.79,8.24 -1.76,7.97 -1.19,7.04 -0.62,6.11 0.10,5.01 0.83,3.91 2.45,1.73 4.08,-0.44 4.94,-1.42 5.81,-2.40 6.15,-2.53 6.49,-2.65 6.85,-2.70 7.21,-2.74 7.57,-2.70 7.92,-2.65 8.26,-2.53 8.60,-2.40 8.90,-2.19 9.20,-1.99 9.44,-1.71 9.68,-1.44 9.84,-1.12 10.01,-0.80 10.10,-0.45 10.18,-0.10 10.18,0.25 10.18,0.61 10.10,0.96 10.01,1.31 9.84,1.64 9.67,1.96 9.43,2.23 9.19,2.50 8.90,2.70 8.60,2.91 7.68,3.44 6.76,3.97 5.62,4.58 4.49,5.19 2.70,5.51 0.91,5.83 -0.15,5.25 -1.21,4.66 -0.43,1.43 0.34,-1.79 1.26,-2.52 2.17,-3.26 2.50,-3.32 2.82,-3.39 3.15,-3.38 3.48,-3.36 3.80,-3.27 4.12,-3.18 4.40,-3.01 4.69,-2.85 4.93,-2.62 5.17,-2.39 5.34,-2.11 5.52,-1.83 5.62,-1.52 5.73,-1.20 5.76,-0.87 5.78,-0.54 5.73,-0.22 5.68,0.10 5.55,0.41 5.42,0.71 5.22,0.97 5.02,1.24 4.76,1.45 4.51,1.66 4.21,1.80 3.91,1.94 3.41,1.88 2.91,1.83 1.87,2.16 0.83,2.49 0.52,2.55 0.21,2.62 -0.10,2.60 -0.42,2.59 -0.72,2.50 -1.03,2.41 -1.30,2.25 -1.58,2.10 -1.80,1.88 -2.03,1.66 -2.20,1.39 -2.37,1.12 -2.47,0.82 -2.57,0.52 -2.60,0.20 -2.62,-0.10 -2.57,-0.41 -2.52,-0.73 -2.40,-1.02 -2.27,-1.31 -2.08,-1.56 -1.89,-1.82 -1.64,-2.02 -1.40,-2.22 -1.11,-2.35 -0.83,-2.49 -0.83,-2.49 L -0.83,-2.49 Z"></path></g></svg>