<?xml version="1.0" standalone="no"?>
<!DOCTYPE svg PUBLIC "-//W3C//DTD SVG 1.1//EN" "http://www.w3.org/Graphics/SVG/1.1/DTD/svg11.dtd">
<svg version="1.1" xmlns="http://www.w3.org/2000/svg" viewBox="0 0 146.6714625273239 54.81050443839314" width="293.3429250546478" height="109.62100887678628"><!-- svg-source:excalidraw --><metadata></metadata><defs><style class="style-fonts">
      </style></defs><g transform="translate(84.45576119950556 11.933923060996449) rotate(0 -18.85568529331522 15.47132915820012)" stroke="none"><path fill="#1e1e1e" d="M 0,1.56 Q 0,1.56 -2.78,1.52 -5.56,1.49 -8.96,1.46 -12.37,1.44 -16.26,1.70 -20.16,1.96 -24.48,3.15 -28.80,4.34 -33.05,6.73 -37.30,9.13 -40.13,12.00 -42.97,14.87 -44.12,17.10 -45.27,19.34 -43.65,22.01 -42.04,24.68 -38.50,26.32 -34.97,27.96 -29.64,28.97 -24.31,29.99 -18.74,30.16 -13.18,30.32 -8.43,29.31 -3.68,28.29 -0.42,26.27 2.84,24.25 4.69,21.59 6.54,18.92 7.32,16.32 8.10,13.72 7.13,11.49 6.16,9.27 2.87,7.02 -0.41,4.77 -5.87,3.24 -11.33,1.72 -17.79,1.05 -24.25,0.38 -30.26,0.93 -36.27,1.47 -38.87,1.70 -41.48,1.93 -41.69,1.91 -41.90,1.90 -42.10,1.82 -42.29,1.73 -42.45,1.59 -42.61,1.45 -42.72,1.27 -42.82,1.08 -42.86,0.87 -42.90,0.67 -42.88,0.46 -42.85,0.24 -42.76,0.05 -42.66,-0.13 -42.51,-0.28 -42.36,-0.43 -42.17,-0.53 -41.99,-0.62 -41.77,-0.65 -41.56,-0.68 -41.36,-0.64 -41.15,-0.60 -40.96,-0.50 -40.78,-0.40 -40.63,-0.24 -40.49,-0.08 -40.40,0.10 -40.32,0.30 -40.30,0.51 -40.28,0.72 -40.33,0.93 -40.38,1.13 -40.49,1.31 -40.61,1.49 -40.77,1.63 -40.94,1.76 -41.14,1.84 -41.33,1.91 -41.55,1.92 -41.76,1.92 -41.96,1.86 -42.17,1.80 -42.34,1.68 -42.51,1.56 -42.64,1.38 -42.76,1.21 -42.83,1.01 -42.89,0.81 -42.89,0.60 -42.88,0.38 -42.81,0.18 -42.74,-0.01 -42.61,-0.17 -42.47,-0.34 -42.30,-0.46 -42.12,-0.57 -41.91,-0.62 -41.71,-0.68 -41.71,-0.68 -41.71,-0.68 -39.10,-0.91 -36.50,-1.14 -30.24,-1.68 -23.99,-2.22 -17.30,-1.51 -10.62,-0.80 -4.77,0.90 1.06,2.61 4.76,5.36 8.46,8.12 9.53,11.11 10.61,14.11 9.66,17.26 8.71,20.41 6.49,23.43 4.27,26.45 0.58,28.65 -3.09,30.85 -8.17,31.91 -13.25,32.96 -19.03,32.78 -24.81,32.59 -30.47,31.47 -36.13,30.34 -40.14,28.25 -44.16,26.16 -45.91,22.68 -47.67,19.19 -46.29,16.10 -44.91,13.01 -41.78,9.89 -38.65,6.77 -34.11,4.23 -29.56,1.68 -24.96,0.41 -20.37,-0.84 -16.37,-1.14 -12.37,-1.44 -8.96,-1.46 -5.56,-1.49 -2.78,-1.52 0,-1.56 0.18,-1.53 0.37,-1.51 0.54,-1.45 0.72,-1.38 0.88,-1.27 1.03,-1.16 1.16,-1.02 1.28,-0.88 1.37,-0.72 1.46,-0.55 1.50,-0.37 1.55,-0.18 1.55,0.00 1.55,0.18 1.50,0.37 1.46,0.55 1.37,0.72 1.28,0.88 1.16,1.02 1.03,1.16 0.88,1.27 0.72,1.38 0.54,1.45 0.37,1.51 0.18,1.53 -0.00,1.56 -0.00,1.56 L 0,1.56 Z"></path></g><g transform="translate(10 37.07484908092164) rotate(0 63.335731263661955 -10.153068405345607)" stroke="none"><path fill="#1e1e1e" d="M -0.30,-1.67 Q -0.30,-1.67 2.76,-2.17 5.83,-2.68 12.40,-3.98 18.97,-5.29 33.50,-7.23 48.02,-9.18 59.19,-10.55 70.36,-11.92 86.46,-14.72 102.57,-17.51 109.43,-18.70 116.29,-19.88 116.51,-19.88 116.73,-19.89 116.95,-19.82 117.16,-19.75 117.33,-19.62 117.51,-19.48 117.64,-19.30 117.76,-19.12 117.83,-18.91 117.89,-18.69 117.88,-18.47 117.87,-18.25 117.79,-18.04 117.71,-17.84 117.57,-17.67 117.42,-17.50 117.24,-17.38 117.05,-17.27 116.83,-17.22 116.61,-17.17 116.39,-17.19 116.17,-17.21 115.97,-17.30 115.77,-17.39 115.61,-17.54 115.44,-17.69 115.34,-17.89 115.23,-18.08 115.19,-18.30 115.16,-18.52 115.19,-18.74 115.22,-18.96 115.33,-19.15 115.43,-19.35 115.59,-19.50 115.75,-19.66 115.95,-19.75 116.15,-19.85 116.37,-19.88 116.59,-19.90 116.80,-19.86 117.02,-19.81 117.21,-19.70 117.40,-19.59 117.55,-19.42 117.69,-19.25 117.78,-19.05 117.86,-18.84 117.88,-18.62 117.89,-18.40 117.83,-18.18 117.78,-17.97 117.65,-17.79 117.53,-17.60 117.36,-17.46 117.18,-17.33 116.97,-17.26 116.76,-17.18 116.76,-17.18 116.76,-17.18 109.91,-15.98 103.05,-14.77 86.88,-11.93 70.71,-9.10 59.56,-7.69 48.42,-6.28 34.00,-4.30 19.58,-2.32 12.99,-0.93 6.40,0.45 3.35,1.06 0.30,1.67 0.09,1.68 -0.10,1.69 -0.30,1.65 -0.50,1.62 -0.69,1.53 -0.88,1.45 -1.04,1.32 -1.20,1.19 -1.32,1.03 -1.45,0.87 -1.53,0.68 -1.62,0.50 -1.65,0.30 -1.69,0.10 -1.68,-0.10 -1.67,-0.30 -1.60,-0.50 -1.54,-0.69 -1.44,-0.87 -1.33,-1.04 -1.19,-1.19 -1.04,-1.33 -0.87,-1.44 -0.69,-1.54 -0.49,-1.61 -0.30,-1.67 -0.30,-1.67 L -0.30,-1.67 Z"></path></g></svg>