<?xml version="1.0" standalone="no"?>
<!DOCTYPE svg PUBLIC "-//W3C//DTD SVG 1.1//EN" "http://www.w3.org/Graphics/SVG/1.1/DTD/svg11.dtd">
<svg version="1.1" xmlns="http://www.w3.org/2000/svg" viewBox="0 0 216.03854226598014 102.8225112000631" width="432.0770845319603" height="205.6450224001262"><!-- svg-source:excalidraw --><metadata></metadata><defs><style class="style-fonts">
      </style></defs><g transform="translate(14.559025081321124 90.5429841666155) rotate(0 31.913262525968094 -22.03534103326973)" stroke="none"><path fill="#1e1e1e" d="M -1.62,0 Q -1.62,0 -1.69,-1.52 -1.76,-3.05 -1.74,-5.02 -1.72,-6.98 -1.21,-9.70 -0.70,-12.43 1.12,-15.92 2.95,-19.42 6.22,-22.92 9.49,-26.43 13.53,-29.66 17.58,-32.89 22.65,-35.61 27.72,-38.33 33.22,-40.15 38.72,-41.97 44.60,-42.96 50.49,-43.96 53.85,-44.37 57.21,-44.79 58.85,-45.05 60.48,-45.32 62.08,-45.55 63.68,-45.78 63.96,-45.76 64.24,-45.74 64.49,-45.63 64.75,-45.52 64.96,-45.33 65.16,-45.15 65.30,-44.90 65.44,-44.66 65.49,-44.39 65.54,-44.11 65.51,-43.84 65.47,-43.56 65.35,-43.31 65.22,-43.06 65.02,-42.86 64.83,-42.67 64.58,-42.54 64.33,-42.42 64.05,-42.38 63.78,-42.34 63.50,-42.40 63.23,-42.45 62.99,-42.58 62.74,-42.72 62.56,-42.93 62.37,-43.14 62.26,-43.39 62.15,-43.65 62.13,-43.93 62.10,-44.20 62.17,-44.48 62.24,-44.75 62.39,-44.98 62.54,-45.22 62.76,-45.39 62.97,-45.57 63.23,-45.66 63.50,-45.76 63.77,-45.77 64.05,-45.77 64.32,-45.69 64.59,-45.61 64.81,-45.45 65.04,-45.28 65.20,-45.06 65.37,-44.83 65.45,-44.57 65.53,-44.30 65.52,-44.02 65.51,-43.74 65.42,-43.48 65.32,-43.22 65.15,-43.00 64.97,-42.78 64.74,-42.63 64.50,-42.48 64.23,-42.42 63.96,-42.35 63.96,-42.35 63.96,-42.35 62.39,-42.32 60.81,-42.29 59.18,-42.20 57.54,-42.12 54.24,-41.70 50.94,-41.28 45.26,-40.32 39.58,-39.36 34.31,-37.61 29.04,-35.86 24.20,-33.26 19.36,-30.66 15.50,-27.54 11.64,-24.42 8.64,-21.20 5.65,-17.98 4.05,-14.91 2.45,-11.84 2.09,-9.41 1.72,-6.97 1.74,-5.01 1.76,-3.05 1.69,-1.52 1.62,0 1.59,0.19 1.57,0.38 1.50,0.57 1.43,0.75 1.32,0.91 1.21,1.07 1.06,1.20 0.92,1.33 0.74,1.42 0.57,1.51 0.38,1.56 0.19,1.60 -0.00,1.60 -0.19,1.60 -0.38,1.56 -0.57,1.51 -0.74,1.42 -0.92,1.33 -1.06,1.20 -1.21,1.07 -1.32,0.91 -1.43,0.75 -1.50,0.57 -1.57,0.38 -1.59,0.19 -1.62,-0.00 -1.62,-0.00 L -1.62,0 Z"></path></g><g transform="translate(10 62.42893336306008) rotate(0 9.877906999911374 15.196788918501511)" stroke="none"><path fill="#1e1e1e" d="M 2.05,0 Q 2.05,0 2.04,1.74 2.03,3.49 2.05,5.11 2.06,6.72 2.21,8.62 2.35,10.51 2.79,13.03 3.22,15.56 3.40,18.52 3.58,21.49 3.64,23.60 3.70,25.71 3.84,27.03 3.97,28.34 5.61,26.21 7.25,24.08 9.58,23.01 11.91,21.94 13.99,21.09 16.07,20.24 17.53,19.54 19.00,18.83 19.29,18.76 19.57,18.68 19.87,18.70 20.17,18.72 20.44,18.83 20.72,18.95 20.94,19.14 21.17,19.34 21.32,19.59 21.47,19.85 21.53,20.14 21.59,20.43 21.55,20.73 21.52,21.02 21.39,21.29 21.26,21.56 21.05,21.77 20.85,21.99 20.58,22.12 20.32,22.26 20.02,22.31 19.73,22.35 19.44,22.30 19.14,22.25 18.88,22.10 18.62,21.96 18.42,21.74 18.22,21.53 18.09,21.25 17.97,20.98 17.94,20.69 17.91,20.39 17.98,20.10 18.05,19.81 18.21,19.56 18.36,19.30 18.59,19.11 18.82,18.92 19.10,18.82 19.38,18.71 19.67,18.70 19.97,18.68 20.26,18.77 20.54,18.85 20.79,19.02 21.03,19.19 21.21,19.43 21.39,19.67 21.48,19.95 21.57,20.23 21.57,20.53 21.56,20.83 21.46,21.11 21.37,21.39 21.18,21.63 21.00,21.86 20.75,22.03 20.50,22.19 20.50,22.19 20.50,22.19 19.00,22.81 17.50,23.44 15.57,24.39 13.63,25.35 11.65,26.46 9.68,27.57 8.37,28.50 7.06,29.44 5.61,30.46 4.16,31.49 3.03,31.24 1.89,30.99 1.17,29.76 0.46,28.53 0.51,27.19 0.56,25.86 0.43,23.80 0.30,21.74 0.03,19.00 -0.23,16.26 -0.85,13.60 -1.48,10.93 -1.77,8.83 -2.06,6.72 -2.05,5.11 -2.03,3.49 -2.04,1.74 -2.05,0 -2.02,-0.24 -2.00,-0.49 -1.91,-0.72 -1.82,-0.95 -1.68,-1.16 -1.54,-1.36 -1.35,-1.53 -1.17,-1.69 -0.95,-1.81 -0.73,-1.92 -0.48,-1.98 -0.24,-2.04 0.00,-2.04 0.24,-2.04 0.48,-1.98 0.73,-1.92 0.95,-1.81 1.17,-1.69 1.35,-1.53 1.54,-1.36 1.68,-1.16 1.82,-0.95 1.91,-0.72 2.00,-0.49 2.02,-0.24 2.05,0.00 2.05,0.00 L 2.05,0 Z"></path></g><g transform="translate(117.89717813290099 27.47631595194912) rotate(0 -0.3799139258476316 11.77751286111743)" stroke="none"><path fill="#1e1e1e" d="M 0,1.79 Q 0,1.79 -1.52,1.85 -3.05,1.90 -4.15,2.16 -5.25,2.41 -6.30,3.21 -7.34,4.00 -8.86,6.28 -10.38,8.56 -11.53,11.03 -12.68,13.50 -13.41,15.77 -14.13,18.04 -13.96,19.09 -13.79,20.14 -12.21,20.55 -10.63,20.95 -7.50,20.82 -4.36,20.68 -0.61,20.01 3.13,19.35 5.91,18.03 8.69,16.72 10.48,15.34 12.27,13.97 13.65,12.84 15.02,11.70 15.24,11.59 15.46,11.47 15.70,11.43 15.94,11.39 16.19,11.43 16.43,11.47 16.65,11.58 16.87,11.70 17.04,11.87 17.21,12.05 17.31,12.27 17.42,12.50 17.45,12.74 17.47,12.99 17.42,13.23 17.37,13.47 17.24,13.68 17.12,13.89 16.93,14.05 16.74,14.21 16.51,14.31 16.29,14.40 16.04,14.41 15.79,14.43 15.56,14.36 15.32,14.30 15.11,14.16 14.91,14.02 14.76,13.83 14.61,13.63 14.53,13.40 14.45,13.17 14.45,12.92 14.45,12.67 14.52,12.44 14.60,12.21 14.75,12.01 14.90,11.81 15.10,11.67 15.31,11.53 15.54,11.47 15.78,11.40 16.03,11.41 16.27,11.42 16.50,11.51 16.73,11.60 16.92,11.76 17.11,11.92 17.24,12.13 17.36,12.34 17.42,12.58 17.47,12.82 17.45,13.07 17.42,13.31 17.32,13.54 17.22,13.76 17.05,13.94 16.88,14.12 16.88,14.12 16.88,14.12 15.43,15.16 13.98,16.19 11.96,17.75 9.93,19.31 6.81,20.78 3.69,22.26 -0.27,23.01 -4.24,23.77 -7.96,23.90 -11.69,24.03 -13.90,23.00 -16.12,21.97 -16.66,19.65 -17.19,17.32 -16.49,14.73 -15.79,12.14 -14.63,9.35 -13.46,6.55 -11.58,3.64 -9.70,0.73 -7.89,-0.40 -6.07,-1.54 -4.57,-1.72 -3.06,-1.90 -1.53,-1.85 0,-1.79 0.21,-1.77 0.43,-1.74 0.63,-1.66 0.83,-1.59 1.01,-1.46 1.19,-1.34 1.33,-1.18 1.47,-1.02 1.57,-0.82 1.68,-0.63 1.73,-0.42 1.78,-0.21 1.78,0.00 1.78,0.21 1.73,0.42 1.68,0.63 1.57,0.82 1.47,1.02 1.33,1.18 1.19,1.34 1.01,1.46 0.83,1.59 0.63,1.66 0.42,1.74 0.21,1.77 -0.00,1.79 -0.00,1.79 L 0,1.79 Z"></path></g><g transform="translate(134.6136807259427 10) rotate(0 -0.379942911422404 22.79519062414593)" stroke="none"><path fill="#1e1e1e" d="M 1.91,0 Q 1.91,0 1.83,3.05 1.75,6.11 1.69,10.25 1.63,14.39 1.37,19.03 1.10,23.66 0.98,28.22 0.86,32.77 0.79,36.02 0.73,39.27 0.42,40.92 0.12,42.56 0.35,42.62 0.59,42.68 0.80,42.81 1.00,42.94 1.15,43.13 1.31,43.32 1.39,43.55 1.47,43.78 1.48,44.03 1.49,44.27 1.42,44.50 1.34,44.73 1.20,44.93 1.06,45.13 0.86,45.27 0.66,45.42 0.43,45.49 0.20,45.56 -0.04,45.55 -0.28,45.54 -0.51,45.46 -0.74,45.38 -0.93,45.22 -1.12,45.07 -1.25,44.87 -1.38,44.66 -1.44,44.42 -1.50,44.19 -1.48,43.94 -1.46,43.70 -1.36,43.48 -1.26,43.25 -1.10,43.07 -0.94,42.89 -0.73,42.77 -0.51,42.65 -0.27,42.61 -0.04,42.56 0.20,42.59 0.44,42.63 0.66,42.73 0.87,42.84 1.05,43.01 1.22,43.19 1.33,43.41 1.43,43.62 1.47,43.87 1.50,44.11 1.45,44.35 1.41,44.59 1.29,44.80 1.17,45.01 0.99,45.17 0.81,45.34 0.58,45.43 0.36,45.53 0.12,45.55 -0.12,45.57 -0.12,45.57 -0.12,45.57 -1.13,42.40 -2.13,39.24 -2.12,35.97 -2.10,32.71 -2.04,28.11 -1.98,23.52 -1.80,18.95 -1.63,14.39 -1.69,10.25 -1.75,6.11 -1.83,3.05 -1.91,0 -1.88,-0.22 -1.85,-0.45 -1.77,-0.67 -1.69,-0.89 -1.56,-1.08 -1.43,-1.27 -1.26,-1.42 -1.08,-1.57 -0.88,-1.68 -0.67,-1.79 -0.45,-1.84 -0.23,-1.90 0.00,-1.90 0.23,-1.90 0.45,-1.84 0.67,-1.79 0.88,-1.68 1.08,-1.57 1.26,-1.42 1.43,-1.27 1.56,-1.08 1.69,-0.89 1.77,-0.67 1.86,-0.45 1.88,-0.22 1.91,0.00 1.91,0.00 L 1.91,0 Z"></path></g><g transform="translate(147.53092811820898 35.83455275568244) rotate(0 -0.3799139258476316 7.978315631492038)" stroke="none"><path fill="#1e1e1e" d="M 2.15,0.23 Q 2.15,0.23 1.86,2.19 1.57,4.15 1.43,6.01 1.30,7.88 1.23,9.76 1.17,11.64 1.22,13.81 1.28,15.98 1.23,16.31 1.17,16.63 1.01,16.92 0.85,17.21 0.61,17.44 0.36,17.66 0.06,17.80 -0.23,17.93 -0.56,17.96 -0.89,18.00 -1.22,17.92 -1.54,17.84 -1.82,17.67 -2.10,17.49 -2.31,17.24 -2.52,16.98 -2.64,16.67 -2.76,16.36 -2.77,16.03 -2.79,15.70 -2.69,15.38 -2.60,15.07 -2.41,14.79 -2.22,14.52 -1.96,14.33 -1.69,14.13 -1.37,14.03 -1.06,13.93 -0.73,13.93 -0.40,13.94 -0.08,14.05 0.22,14.16 0.48,14.36 0.74,14.56 0.92,14.84 1.11,15.12 1.19,15.44 1.27,15.76 1.25,16.09 1.23,16.42 1.10,16.73 0.98,17.03 0.76,17.28 0.54,17.53 0.25,17.70 -0.02,17.86 -0.35,17.93 -0.67,18.00 -1.00,17.96 -1.33,17.92 -1.63,17.77 -1.93,17.63 -2.16,17.40 -2.40,17.17 -2.55,16.87 -2.70,16.58 -2.75,16.25 -2.80,15.92 -2.80,15.92 -2.80,15.92 -2.69,13.75 -2.57,11.57 -2.56,9.63 -2.55,7.69 -2.49,5.70 -2.44,3.70 -2.30,1.73 -2.15,-0.23 -2.09,-0.49 -2.03,-0.74 -1.91,-0.98 -1.79,-1.21 -1.62,-1.41 -1.45,-1.60 -1.24,-1.75 -1.02,-1.90 -0.78,-2.00 -0.54,-2.10 -0.28,-2.13 -0.02,-2.16 0.23,-2.13 0.49,-2.11 0.74,-2.02 0.98,-1.93 1.20,-1.78 1.42,-1.63 1.59,-1.44 1.77,-1.24 1.89,-1.01 2.01,-0.78 2.08,-0.53 2.15,-0.28 2.15,-0.02 2.15,0.23 2.15,0.23 L 2.15,0.23 Z"></path></g><g transform="translate(146.7711002665137 26.716502593041156) rotate(0 0.00005000000010113581 0.00005000000000165983)" stroke="none"><path fill="#1e1e1e" d="M 1.57,-1.57 Q 1.57,-1.57 1.77,-1.27 1.98,-0.98 2.09,-0.64 2.20,-0.29 2.19,0.05 2.18,0.41 2.05,0.75 1.93,1.09 1.70,1.37 1.48,1.65 1.18,1.84 0.87,2.04 0.52,2.12 0.18,2.21 -0.17,2.18 -0.53,2.15 -0.86,2.01 -1.19,1.87 -1.46,1.63 -1.73,1.39 -1.90,1.07 -2.08,0.76 -2.15,0.41 -2.21,0.05 -2.17,-0.29 -2.12,-0.65 -1.96,-0.97 -1.80,-1.29 -1.54,-1.54 -1.29,-1.80 -0.97,-1.96 -0.65,-2.12 -0.29,-2.17 0.06,-2.21 0.41,-2.15 0.76,-2.08 1.07,-1.90 1.39,-1.73 1.63,-1.46 1.87,-1.19 2.01,-0.86 2.15,-0.53 2.18,-0.17 2.21,0.18 2.12,0.52 2.03,0.87 1.84,1.18 1.65,1.48 1.37,1.70 1.09,1.93 0.75,2.05 0.41,2.18 0.05,2.19 -0.30,2.20 -0.64,2.09 -0.98,1.98 -1.27,1.77 -1.57,1.56 -1.57,1.57 -1.57,1.57 -1.73,1.35 -1.90,1.14 -2.01,0.90 -2.12,0.66 -2.16,0.39 -2.21,0.13 -2.20,-0.13 -2.18,-0.40 -2.10,-0.65 -2.02,-0.91 -1.88,-1.14 -1.74,-1.36 -1.55,-1.55 -1.36,-1.74 -1.14,-1.88 -0.91,-2.02 -0.65,-2.10 -0.40,-2.18 -0.13,-2.20 0.13,-2.21 0.39,-2.16 0.66,-2.12 0.90,-2.01 1.14,-1.90 1.35,-1.73 1.57,-1.57 1.57,-1.57 L 1.57,-1.57 Z"></path></g><g transform="translate(169.56628364426615 35.83455275568244) rotate(0 -3.0393693779299156 7.218473287009488)" stroke="none"><path fill="#1e1e1e" d="M 0.66,1.82 Q 0.66,1.82 -1.75,2.61 -4.17,3.40 -5.86,4.67 -7.55,5.95 -8.40,7.43 -9.24,8.92 -8.72,10.25 -8.19,11.59 -6.35,11.88 -4.51,12.17 -2.57,12.36 -0.62,12.55 0.57,12.17 1.78,11.78 3.25,10.12 4.72,8.45 4.98,8.27 5.25,8.09 5.55,8.01 5.86,7.92 6.18,7.94 6.49,7.95 6.79,8.07 7.08,8.19 7.33,8.39 7.57,8.60 7.73,8.87 7.90,9.14 7.97,9.45 8.03,9.76 8.00,10.08 7.97,10.39 7.83,10.68 7.70,10.97 7.48,11.20 7.26,11.43 6.98,11.58 6.70,11.73 6.39,11.78 6.08,11.84 5.76,11.79 5.45,11.73 5.17,11.59 4.89,11.44 4.67,11.21 4.45,10.98 4.32,10.69 4.18,10.40 4.15,10.09 4.11,9.77 4.18,9.46 4.25,9.15 4.41,8.88 4.58,8.60 4.82,8.40 5.06,8.19 5.35,8.07 5.65,7.96 5.97,7.94 6.28,7.92 6.59,8.01 6.90,8.09 7.16,8.27 7.42,8.45 7.61,8.70 7.81,8.95 7.91,9.25 8.01,9.55 8.01,9.87 8.01,10.19 7.91,10.49 7.81,10.79 7.62,11.04 7.43,11.30 7.43,11.30 7.43,11.30 5.13,13.21 2.83,15.13 0.99,15.48 -0.83,15.84 -2.97,15.70 -5.10,15.56 -7.71,15.09 -10.32,14.61 -11.57,13.28 -12.82,11.94 -12.43,9.61 -12.04,7.28 -10.83,5.34 -9.63,3.39 -7.53,1.74 -5.43,0.09 -3.05,-0.86 -0.66,-1.82 -0.43,-1.88 -0.20,-1.93 0.02,-1.93 0.26,-1.92 0.48,-1.86 0.71,-1.81 0.92,-1.69 1.12,-1.58 1.30,-1.42 1.47,-1.27 1.60,-1.07 1.73,-0.88 1.81,-0.66 1.89,-0.43 1.92,-0.20 1.94,0.02 1.91,0.25 1.88,0.49 1.79,0.71 1.71,0.92 1.57,1.11 1.43,1.31 1.26,1.46 1.08,1.61 0.87,1.72 0.66,1.82 0.66,1.82 L 0.66,1.82 Z"></path></g><g transform="translate(187.04255611785356 11.519713674539645) rotate(0 7.598394459250585 22.415247712723712)" stroke="none"><path fill="#1e1e1e" d="M 1.84,0.20 Q 1.84,0.20 1.33,4.12 0.82,8.05 0.14,12.57 -0.53,17.10 -1.05,21.61 -1.57,26.12 -1.80,29.76 -2.03,33.39 -2.14,35.81 -2.24,38.24 -2.21,39.92 -2.17,41.60 -2.08,42.54 -1.98,43.48 -2.02,43.69 -2.05,43.91 -2.13,44.11 -2.21,44.31 -2.33,44.48 -2.46,44.65 -2.62,44.79 -2.79,44.93 -2.98,45.03 -3.17,45.12 -3.38,45.17 -3.59,45.22 -3.81,45.21 -4.03,45.21 -4.23,45.15 -4.44,45.10 -4.63,44.99 -4.82,44.89 -4.98,44.74 -5.13,44.60 -5.25,44.42 -5.37,44.24 -5.44,44.03 -5.51,43.83 -5.54,43.62 -5.56,43.40 -4.80,41.70 -4.03,39.99 -2.81,37.88 -1.59,35.76 -0.19,33.35 1.20,30.94 2.70,28.58 4.19,26.23 5.75,24.31 7.31,22.38 8.89,20.87 10.46,19.35 11.47,18.24 12.47,17.12 15.41,14.84 18.36,12.56 18.67,12.51 18.99,12.45 19.30,12.51 19.62,12.56 19.90,12.71 20.18,12.86 20.40,13.09 20.63,13.32 20.76,13.61 20.89,13.90 20.93,14.22 20.97,14.54 20.90,14.85 20.83,15.16 20.66,15.43 20.50,15.71 20.26,15.92 20.01,16.12 19.72,16.24 19.42,16.36 19.10,16.38 18.78,16.40 18.47,16.31 18.16,16.23 17.90,16.05 17.63,15.87 17.44,15.62 17.25,15.36 17.14,15.06 17.04,14.76 17.04,14.44 17.04,14.12 17.14,13.81 17.24,13.51 17.44,13.25 17.63,13.00 17.89,12.82 18.16,12.64 18.47,12.55 18.77,12.47 19.09,12.48 19.41,12.50 19.71,12.62 20.01,12.74 20.25,12.94 20.50,13.15 20.66,13.42 20.83,13.70 20.90,14.01 20.96,14.32 20.93,14.64 20.90,14.96 20.76,15.25 20.63,15.54 20.41,15.77 20.19,16.00 19.91,16.15 19.63,16.30 19.63,16.30 19.63,16.30 18.01,16.96 16.39,17.61 15.56,18.51 14.72,19.42 13.57,20.40 12.42,21.39 10.98,22.78 9.55,24.17 8.12,25.98 6.70,27.79 5.29,30.12 3.88,32.44 2.56,34.88 1.23,37.31 0.16,39.40 -0.91,41.49 -1.45,42.49 -1.98,43.48 -2.02,43.69 -2.05,43.91 -2.13,44.11 -2.21,44.30 -2.33,44.48 -2.46,44.65 -2.62,44.79 -2.79,44.93 -2.98,45.03 -3.17,45.12 -3.38,45.17 -3.59,45.22 -3.81,45.21 -4.03,45.21 -4.23,45.15 -4.44,45.10 -4.63,44.99 -4.82,44.89 -4.98,44.74 -5.13,44.60 -5.25,44.42 -5.37,44.24 -5.44,44.03 -5.51,43.83 -5.54,43.62 -5.56,43.40 -5.43,42.47 -5.31,41.53 -5.20,39.83 -5.09,38.13 -5.02,35.68 -4.95,33.23 -4.77,29.51 -4.59,25.80 -4.15,21.23 -3.70,16.66 -3.13,12.17 -2.57,7.67 -2.20,3.73 -1.84,-0.20 -1.78,-0.42 -1.73,-0.63 -1.63,-0.83 -1.53,-1.03 -1.38,-1.20 -1.24,-1.37 -1.05,-1.50 -0.87,-1.63 -0.66,-1.71 -0.46,-1.79 -0.24,-1.82 -0.01,-1.85 0.20,-1.82 0.42,-1.80 0.63,-1.72 0.84,-1.64 1.02,-1.52 1.21,-1.39 1.36,-1.23 1.51,-1.06 1.61,-0.87 1.72,-0.67 1.78,-0.45 1.83,-0.24 1.83,-0.01 1.84,0.20 1.84,0.20 L 1.84,0.20 Z"></path></g><g transform="translate(190.84175334747852 38.87390764082528) rotate(0 6.078738755860286 8.358236803733291)" stroke="none"><path fill="#1e1e1e" d="M 1.21,-1.81 Q 1.21,-1.81 2.53,-0.93 3.86,-0.05 5.10,1.40 6.33,2.87 7.24,4.97 8.15,7.06 8.90,8.99 9.65,10.92 10.56,12.20 11.48,13.49 12.53,14.36 13.58,15.23 13.77,15.50 13.97,15.76 14.08,16.08 14.18,16.39 14.18,16.73 14.18,17.06 14.07,17.37 13.96,17.69 13.76,17.95 13.55,18.21 13.28,18.40 13.00,18.58 12.68,18.67 12.36,18.75 12.03,18.73 11.70,18.71 11.39,18.59 11.08,18.46 10.83,18.25 10.58,18.03 10.41,17.74 10.24,17.46 10.17,17.13 10.10,16.81 10.14,16.48 10.18,16.15 10.32,15.85 10.46,15.55 10.69,15.31 10.92,15.07 11.22,14.91 11.51,14.76 11.84,14.71 12.17,14.66 12.50,14.71 12.82,14.77 13.12,14.93 13.41,15.09 13.63,15.33 13.86,15.57 14.00,15.87 14.14,16.18 14.17,16.51 14.20,16.84 14.13,17.16 14.05,17.49 13.88,17.77 13.71,18.05 13.45,18.27 13.20,18.48 12.89,18.60 12.58,18.72 12.25,18.74 11.91,18.75 11.60,18.66 11.28,18.57 11.00,18.38 10.73,18.19 10.73,18.19 10.73,18.19 9.55,16.92 8.36,15.64 7.29,14.02 6.21,12.41 5.35,10.59 4.49,8.77 3.69,7.18 2.88,5.59 2.13,4.57 1.37,3.55 0.08,2.68 -1.21,1.81 -1.40,1.64 -1.60,1.47 -1.76,1.25 -1.91,1.04 -2.01,0.80 -2.10,0.55 -2.14,0.29 -2.18,0.03 -2.15,-0.22 -2.12,-0.48 -2.03,-0.73 -1.94,-0.98 -1.80,-1.20 -1.65,-1.42 -1.46,-1.59 -1.26,-1.77 -1.03,-1.90 -0.80,-2.02 -0.55,-2.09 -0.29,-2.16 -0.03,-2.16 0.22,-2.16 0.48,-2.11 0.74,-2.05 0.97,-1.93 1.21,-1.81 1.21,-1.81 L 1.21,-1.81 Z"></path></g></svg>