<?xml version="1.0" standalone="no"?>
<!DOCTYPE svg PUBLIC "-//W3C//DTD SVG 1.1//EN" "http://www.w3.org/Graphics/SVG/1.1/DTD/svg11.dtd">
<svg version="1.1" xmlns="http://www.w3.org/2000/svg" viewBox="0 0 178.80639782142134 185.6449934145516" width="357.6127956428427" height="371.2899868291032"><!-- svg-source:excalidraw --><metadata></metadata><defs><style class="style-fonts">
      </style></defs><g transform="translate(15.318852933015478 16.078709770285684) rotate(0 0 75.60403066665998)" stroke="none"><path fill="#1e1e1e" d="M 1.55,0.15 Q 1.55,0.15 1.08,4.52 0.61,8.88 0.40,15.27 0.19,21.66 0.10,30.72 0.00,39.78 -0.04,50.63 -0.08,61.47 -0.11,72.85 -0.13,84.23 -0.14,94.53 -0.16,104.83 0.04,113.34 0.26,121.85 0.56,128.52 0.87,135.18 1.43,139.28 1.99,143.37 2.23,145.59 2.47,147.80 2.74,149.42 3.01,151.04 3.00,151.28 2.98,151.53 2.90,151.75 2.81,151.98 2.65,152.16 2.49,152.35 2.28,152.47 2.07,152.60 1.84,152.65 1.60,152.71 1.36,152.68 1.11,152.65 0.89,152.55 0.67,152.45 0.49,152.28 0.32,152.12 0.20,151.90 0.09,151.69 0.05,151.44 0.01,151.20 0.05,150.96 0.09,150.72 0.20,150.51 0.32,150.29 0.49,150.13 0.67,149.96 0.89,149.86 1.11,149.75 1.35,149.73 1.59,149.70 1.83,149.75 2.07,149.80 2.28,149.93 2.49,150.06 2.65,150.24 2.80,150.43 2.89,150.65 2.98,150.88 3.00,151.12 3.01,151.36 2.95,151.60 2.88,151.83 2.74,152.04 2.61,152.24 2.41,152.38 2.22,152.53 1.99,152.61 1.76,152.69 1.52,152.69 1.27,152.69 1.04,152.61 0.81,152.53 0.62,152.39 0.42,152.24 0.29,152.04 0.15,151.84 0.08,151.60 0.02,151.37 0.02,151.37 0.02,151.37 -0.06,149.73 -0.15,148.09 -0.39,145.91 -0.63,143.73 -1.21,139.52 -1.78,135.31 -2.10,128.61 -2.41,121.91 -2.63,113.37 -2.86,104.82 -2.86,94.53 -2.86,84.23 -2.85,72.84 -2.85,61.46 -2.83,50.61 -2.81,39.76 -2.75,30.67 -2.68,21.58 -2.52,15.08 -2.36,8.58 -1.95,4.21 -1.55,-0.15 -1.51,-0.33 -1.47,-0.52 -1.38,-0.69 -1.30,-0.86 -1.18,-1.00 -1.06,-1.14 -0.90,-1.25 -0.75,-1.36 -0.58,-1.43 -0.40,-1.50 -0.21,-1.53 -0.03,-1.56 0.15,-1.54 0.34,-1.52 0.51,-1.46 0.69,-1.39 0.85,-1.29 1.01,-1.19 1.13,-1.05 1.26,-0.91 1.35,-0.74 1.44,-0.58 1.49,-0.40 1.54,-0.22 1.55,-0.03 1.55,0.15 1.55,0.15 L 1.55,0.15 Z"></path></g><g transform="translate(16.838508636406004 16.838566607555492) rotate(0 53.94864703760004 79.40321340349806)" stroke="none"><path fill="#1e1e1e" d="M 1.16,-1.04 Q 1.16,-1.04 3.10,1.16 5.04,3.36 8.40,6.20 11.77,9.05 17.12,12.88 22.46,16.71 32.61,23.81 42.76,30.92 53.16,37.42 63.56,43.92 73.00,49.53 82.44,55.13 89.70,58.81 96.95,62.48 101.80,64.93 106.64,67.38 109.28,68.82 111.91,70.26 112.29,71.90 112.66,73.55 110.62,75.38 108.58,77.22 104.61,79.43 100.63,81.64 92.26,87.32 83.89,93.00 75.32,99.55 66.74,106.10 58.26,112.18 49.77,118.26 41.80,123.90 33.83,129.53 26.93,134.12 20.03,138.71 14.48,142.40 8.93,146.09 5.32,149.14 1.72,152.19 -0.23,154.13 -2.19,156.07 -3.96,158.00 -5.72,159.92 -5.93,160.07 -6.14,160.22 -6.38,160.29 -6.63,160.37 -6.88,160.36 -7.14,160.35 -7.38,160.26 -7.62,160.17 -7.82,160.01 -8.02,159.85 -8.15,159.64 -8.29,159.42 -8.35,159.17 -8.41,158.92 -8.39,158.67 -8.37,158.41 -8.26,158.18 -8.16,157.94 -7.99,157.75 -7.82,157.56 -7.59,157.44 -7.37,157.31 -7.12,157.27 -6.87,157.22 -6.62,157.26 -6.36,157.29 -6.13,157.41 -5.91,157.52 -5.73,157.70 -5.55,157.89 -5.43,158.11 -5.32,158.34 -5.29,158.60 -5.25,158.85 -5.30,159.10 -5.35,159.35 -5.48,159.58 -5.61,159.80 -5.80,159.97 -5.99,160.14 -6.22,160.24 -6.46,160.34 -6.71,160.36 -6.97,160.38 -7.22,160.31 -7.47,160.25 -7.68,160.11 -7.89,159.97 -8.05,159.77 -8.21,159.57 -8.30,159.33 -8.39,159.09 -8.39,158.84 -8.40,158.58 -8.32,158.34 -8.25,158.09 -8.10,157.89 -7.95,157.68 -7.95,157.68 -7.95,157.68 -6.00,155.93 -4.05,154.18 -2.02,152.17 0.00,150.17 3.73,147.02 7.45,143.87 13.00,140.17 18.54,136.47 25.40,131.90 32.26,127.32 40.22,121.68 48.18,116.04 56.61,109.97 65.05,103.89 73.68,97.27 82.30,90.66 90.75,84.88 99.21,79.10 102.96,76.98 106.70,74.85 108.43,73.38 110.17,71.90 107.81,70.83 105.44,69.76 100.59,67.32 95.74,64.88 88.40,61.16 81.06,57.45 71.59,51.84 62.11,46.23 51.64,39.71 41.17,33.19 31.00,26.09 20.83,19.00 15.37,15.13 9.91,11.26 6.37,8.31 2.82,5.37 0.83,3.20 -1.16,1.04 -1.26,0.89 -1.37,0.73 -1.44,0.56 -1.51,0.38 -1.53,0.19 -1.56,0.01 -1.54,-0.17 -1.51,-0.36 -1.45,-0.53 -1.38,-0.71 -1.28,-0.87 -1.17,-1.02 -1.03,-1.15 -0.89,-1.27 -0.73,-1.36 -0.56,-1.45 -0.38,-1.50 -0.20,-1.54 -0.01,-1.55 0.17,-1.55 0.35,-1.50 0.54,-1.46 0.71,-1.37 0.87,-1.29 1.01,-1.16 1.16,-1.04 1.16,-1.04 L 1.16,-1.04 Z"></path></g><g transform="translate(14.559025081320215 17.598394459250756) rotate(0 13.297190303689149 -2.27950529426667)" stroke="none"><path fill="#1e1e1e" d="M -0.25,-2.05 Q -0.25,-2.05 3.25,-2.39 6.75,-2.73 10.17,-3.27 13.58,-3.81 16.60,-4.24 19.62,-4.67 21.26,-5.12 22.90,-5.57 24.57,-5.98 26.24,-6.40 26.54,-6.41 26.85,-6.41 27.14,-6.32 27.43,-6.23 27.67,-6.06 27.92,-5.88 28.10,-5.63 28.27,-5.39 28.36,-5.10 28.45,-4.80 28.44,-4.50 28.43,-4.20 28.33,-3.91 28.22,-3.63 28.03,-3.39 27.84,-3.15 27.58,-2.99 27.33,-2.83 27.03,-2.76 26.74,-2.68 26.44,-2.71 26.13,-2.73 25.85,-2.85 25.58,-2.97 25.35,-3.18 25.12,-3.38 24.98,-3.64 24.83,-3.91 24.77,-4.21 24.71,-4.51 24.75,-4.81 24.80,-5.11 24.93,-5.38 25.07,-5.65 25.28,-5.87 25.50,-6.08 25.77,-6.21 26.04,-6.35 26.34,-6.39 26.64,-6.43 26.94,-6.37 27.24,-6.32 27.50,-6.17 27.77,-6.02 27.97,-5.79 28.17,-5.56 28.29,-5.28 28.41,-5.00 28.44,-4.70 28.46,-4.40 28.39,-4.10 28.31,-3.81 28.15,-3.55 27.98,-3.30 27.75,-3.11 27.51,-2.92 27.23,-2.81 26.94,-2.71 26.94,-2.71 26.94,-2.71 25.32,-2.50 23.71,-2.29 21.92,-1.89 20.14,-1.49 17.17,-0.95 14.19,-0.42 10.71,0.27 7.22,0.98 3.74,1.52 0.25,2.05 0.00,2.05 -0.24,2.06 -0.48,2.00 -0.72,1.94 -0.95,1.82 -1.17,1.71 -1.36,1.54 -1.54,1.38 -1.69,1.17 -1.83,0.97 -1.92,0.73 -2.01,0.50 -2.04,0.25 -2.07,0.00 -2.04,-0.24 -2.01,-0.48 -1.92,-0.72 -1.84,-0.95 -1.69,-1.16 -1.55,-1.37 -1.37,-1.53 -1.18,-1.70 -0.96,-1.82 -0.74,-1.93 -0.49,-1.99 -0.25,-2.05 -0.25,-2.05 L -0.25,-2.05 Z"></path></g><g transform="translate(37.35420845907265 10) rotate(0 65.72609468117435 37.991972296253806)" stroke="none"><path fill="#1e1e1e" d="M 0.95,-1.23 Q 0.95,-1.23 2.90,0.32 4.84,1.87 8.25,4.27 11.66,6.66 16.81,9.86 21.95,13.06 28.51,17.05 35.07,21.04 42.87,25.57 50.67,30.11 59.43,34.87 68.20,39.63 76.95,44.28 85.70,48.93 94.21,53.31 102.73,57.68 107.46,60.21 112.18,62.73 114.62,64.02 117.06,65.31 118.47,66.28 119.89,67.25 121.26,68.42 122.63,69.59 124.12,69.64 125.62,69.69 127.17,70.41 128.73,71.14 130.76,72.31 132.79,73.49 133.15,73.77 133.52,74.05 133.77,74.43 134.02,74.81 134.14,75.26 134.26,75.70 134.23,76.15 134.20,76.61 134.03,77.03 133.86,77.46 133.56,77.80 133.26,78.15 132.86,78.38 132.47,78.61 132.02,78.71 131.58,78.80 131.12,78.75 130.67,78.70 130.25,78.50 129.84,78.30 129.51,77.99 129.18,77.67 128.97,77.26 128.76,76.86 128.69,76.41 128.62,75.95 128.70,75.50 128.78,75.05 128.99,74.65 129.21,74.25 129.55,73.94 129.88,73.63 130.30,73.44 130.72,73.25 131.17,73.20 131.63,73.16 132.07,73.26 132.52,73.36 132.91,73.60 133.30,73.84 133.59,74.19 133.88,74.54 134.05,74.97 134.21,75.40 134.23,75.85 134.25,76.31 134.13,76.75 134.00,77.19 133.74,77.56 133.48,77.94 133.12,78.21 132.75,78.49 132.31,78.63 131.88,78.77 131.42,78.77 130.96,78.76 130.53,78.61 130.10,78.46 130.10,78.46 130.10,78.46 127.26,76.51 124.41,74.56 123.09,74.29 121.76,74.01 120.66,72.91 119.56,71.81 118.79,70.72 118.02,69.64 116.92,68.64 115.82,67.65 113.38,66.36 110.93,65.07 106.22,62.56 101.52,60.05 92.98,55.68 84.44,51.30 75.67,46.65 66.91,42.01 58.11,37.24 49.30,32.47 41.47,27.93 33.63,23.40 27.05,19.43 20.47,15.45 15.24,12.24 10.02,9.04 6.51,6.63 3.01,4.23 1.02,2.73 -0.95,1.23 -1.09,1.10 -1.22,0.96 -1.32,0.80 -1.42,0.64 -1.47,0.46 -1.53,0.28 -1.54,0.09 -1.55,-0.08 -1.52,-0.27 -1.49,-0.45 -1.41,-0.63 -1.33,-0.80 -1.22,-0.95 -1.10,-1.10 -0.96,-1.21 -0.81,-1.33 -0.64,-1.41 -0.46,-1.48 -0.28,-1.52 -0.09,-1.55 0.08,-1.54 0.27,-1.53 0.45,-1.48 0.63,-1.42 0.79,-1.32 0.95,-1.23 0.95,-1.23 L 0.95,-1.23 Z"></path></g><g transform="translate(127.01522829554233 86.74377244420288) rotate(0 16.71647360746647 -2.2795125406603347)" stroke="none"><path fill="#1e1e1e" d="M -0.58,-2.00 Q -0.58,-2.00 3.15,-2.99 6.89,-3.99 10.54,-4.61 14.19,-5.24 17.31,-5.49 20.43,-5.73 22.85,-5.82 25.27,-5.90 26.95,-6.02 28.63,-6.13 31.02,-6.26 33.40,-6.38 33.70,-6.33 33.99,-6.29 34.25,-6.15 34.51,-6.02 34.72,-5.81 34.92,-5.60 35.05,-5.33 35.18,-5.07 35.21,-4.77 35.25,-4.48 35.19,-4.19 35.13,-3.90 34.98,-3.65 34.83,-3.39 34.61,-3.20 34.39,-3.01 34.12,-2.89 33.84,-2.78 33.55,-2.76 33.26,-2.74 32.97,-2.81 32.68,-2.89 32.44,-3.05 32.19,-3.21 32.01,-3.45 31.83,-3.68 31.73,-3.96 31.63,-4.24 31.63,-4.53 31.63,-4.82 31.72,-5.11 31.81,-5.39 31.98,-5.62 32.16,-5.86 32.40,-6.03 32.64,-6.20 32.92,-6.28 33.21,-6.36 33.50,-6.35 33.80,-6.34 34.07,-6.23 34.35,-6.13 34.57,-5.94 34.80,-5.75 34.96,-5.50 35.11,-5.25 35.18,-4.96 35.25,-4.68 35.22,-4.38 35.19,-4.09 35.07,-3.82 34.95,-3.55 34.75,-3.33 34.55,-3.12 34.29,-2.98 34.03,-2.83 33.74,-2.78 33.45,-2.73 33.45,-2.73 33.45,-2.73 31.09,-2.77 28.74,-2.82 27.08,-2.83 25.43,-2.84 23.08,-2.68 20.74,-2.52 17.79,-2.18 14.84,-1.85 11.40,-1.11 7.95,-0.37 4.27,0.81 0.58,2.00 0.34,2.04 0.09,2.08 -0.15,2.06 -0.40,2.04 -0.64,1.96 -0.88,1.89 -1.10,1.75 -1.31,1.62 -1.48,1.44 -1.66,1.26 -1.79,1.04 -1.91,0.82 -1.98,0.58 -2.05,0.34 -2.07,0.09 -2.08,-0.15 -2.03,-0.40 -1.98,-0.65 -1.87,-0.88 -1.76,-1.10 -1.61,-1.30 -1.45,-1.50 -1.25,-1.65 -1.05,-1.80 -0.82,-1.90 -0.58,-2.00 -0.58,-2.00 L -0.58,-2.00 Z"></path></g><g transform="translate(19.11805016264134 164.2474017256755) rotate(0 16.71647360746647 -0.7598423444825357)" stroke="none"><path fill="#1e1e1e" d="M 0,-1.97 Q 0,-1.97 2.83,-1.88 5.67,-1.79 9.07,-1.73 12.46,-1.66 16.08,-1.61 19.71,-1.57 22.67,-1.96 25.64,-2.35 27.63,-2.56 29.63,-2.76 31.46,-3.00 33.30,-3.25 33.58,-3.22 33.86,-3.20 34.12,-3.09 34.37,-2.97 34.58,-2.78 34.79,-2.60 34.93,-2.35 35.06,-2.10 35.12,-1.83 35.17,-1.55 35.13,-1.27 35.09,-0.99 34.96,-0.74 34.83,-0.49 34.63,-0.29 34.43,-0.10 34.18,0.02 33.93,0.14 33.65,0.18 33.37,0.21 33.09,0.16 32.82,0.10 32.57,-0.03 32.33,-0.17 32.14,-0.38 31.96,-0.59 31.85,-0.85 31.74,-1.11 31.72,-1.39 31.70,-1.67 31.77,-1.94 31.83,-2.21 31.99,-2.45 32.14,-2.68 32.36,-2.86 32.58,-3.03 32.85,-3.13 33.11,-3.22 33.39,-3.23 33.67,-3.24 33.94,-3.15 34.21,-3.07 34.44,-2.90 34.67,-2.74 34.83,-2.51 34.99,-2.28 35.07,-2.01 35.15,-1.74 35.14,-1.46 35.13,-1.18 35.03,-0.91 34.94,-0.65 34.76,-0.43 34.58,-0.21 34.34,-0.06 34.10,0.08 33.83,0.14 33.56,0.21 33.56,0.21 33.56,0.21 31.74,0.24 29.91,0.27 27.99,0.44 26.06,0.61 22.89,1.09 19.71,1.57 16.08,1.61 12.46,1.66 9.07,1.73 5.67,1.79 2.83,1.88 0,1.97 -0.23,1.94 -0.47,1.91 -0.69,1.83 -0.91,1.74 -1.11,1.61 -1.31,1.47 -1.46,1.30 -1.62,1.12 -1.73,0.91 -1.84,0.70 -1.90,0.46 -1.96,0.23 -1.96,-0.00 -1.96,-0.23 -1.90,-0.46 -1.84,-0.70 -1.73,-0.91 -1.62,-1.12 -1.46,-1.30 -1.31,-1.47 -1.11,-1.61 -0.91,-1.74 -0.69,-1.83 -0.47,-1.91 -0.23,-1.94 0.00,-1.97 0.00,-1.97 L 0,-1.97 Z"></path></g><g transform="translate(47.99197229625406 163.48757387398024) rotate(0 55.46827375541534 -39.89157091106648)" stroke="none"><path fill="#1e1e1e" d="M -0.69,-1.39 Q -0.69,-1.39 1.50,-2.45 3.70,-3.52 7.64,-5.89 11.58,-8.27 16.28,-11.87 20.98,-15.47 26.73,-19.85 32.47,-24.23 39.30,-29.16 46.12,-34.09 53.61,-39.46 61.09,-44.82 68.21,-49.94 75.32,-55.06 81.41,-59.42 87.49,-63.78 92.03,-67.15 96.57,-70.52 100.02,-73.26 103.47,-75.99 105.40,-77.39 107.33,-78.80 108.70,-79.88 110.07,-80.97 110.28,-81.08 110.49,-81.18 110.73,-81.22 110.96,-81.25 111.20,-81.21 111.43,-81.16 111.64,-81.05 111.85,-80.93 112.01,-80.75 112.17,-80.58 112.26,-80.36 112.36,-80.14 112.38,-79.90 112.40,-79.67 112.34,-79.43 112.29,-79.20 112.16,-79.00 112.03,-78.80 111.85,-78.65 111.66,-78.50 111.44,-78.42 111.22,-78.33 110.98,-78.33 110.74,-78.32 110.51,-78.39 110.28,-78.46 110.09,-78.59 109.90,-78.73 109.76,-78.92 109.62,-79.12 109.55,-79.34 109.47,-79.57 109.48,-79.81 109.48,-80.05 109.57,-80.27 109.65,-80.50 109.79,-80.68 109.94,-80.87 110.14,-81.00 110.34,-81.13 110.57,-81.19 110.80,-81.24 111.04,-81.23 111.28,-81.21 111.50,-81.12 111.72,-81.02 111.90,-80.86 112.07,-80.71 112.19,-80.50 112.31,-80.29 112.36,-80.06 112.40,-79.83 112.37,-79.59 112.34,-79.35 112.24,-79.14 112.13,-78.93 111.96,-78.76 111.80,-78.59 111.80,-78.59 111.80,-78.59 110.34,-77.62 108.89,-76.66 107.00,-75.29 105.12,-73.92 101.64,-71.16 98.16,-68.39 93.60,-65.00 89.04,-61.61 82.96,-57.25 76.89,-52.88 69.78,-47.76 62.67,-42.63 55.20,-37.26 47.72,-31.88 40.94,-26.96 34.15,-22.04 28.43,-17.63 22.70,-13.23 17.90,-9.52 13.09,-5.81 9.06,-3.33 5.03,-0.84 2.86,0.27 0.69,1.39 0.52,1.46 0.34,1.52 0.15,1.54 -0.03,1.56 -0.21,1.53 -0.40,1.50 -0.57,1.43 -0.75,1.36 -0.90,1.25 -1.05,1.14 -1.18,1.00 -1.30,0.86 -1.38,0.69 -1.47,0.52 -1.51,0.34 -1.55,0.15 -1.55,-0.03 -1.54,-0.21 -1.49,-0.40 -1.44,-0.58 -1.35,-0.74 -1.26,-0.91 -1.14,-1.05 -1.01,-1.18 -0.85,-1.29 -0.69,-1.39 -0.69,-1.39 L -0.69,-1.39 Z"></path></g><g transform="translate(35.07466693283823 156.6490072664248) rotate(0 14.05704714095873 0)" stroke="none"><path fill="#1e1e1e" d="M 0,-2.02 Q 0,-2.02 2.40,-1.92 4.80,-1.83 9.32,-1.76 13.83,-1.69 17.06,-1.64 20.29,-1.59 22.32,-1.57 24.35,-1.56 26.23,-1.66 28.11,-1.77 28.39,-1.72 28.68,-1.68 28.93,-1.54 29.18,-1.41 29.38,-1.20 29.58,-0.99 29.70,-0.73 29.82,-0.47 29.85,-0.18 29.88,0.09 29.82,0.37 29.76,0.65 29.61,0.90 29.46,1.14 29.24,1.33 29.02,1.52 28.76,1.62 28.49,1.73 28.20,1.74 27.92,1.76 27.64,1.68 27.36,1.61 27.13,1.44 26.89,1.28 26.71,1.05 26.54,0.83 26.45,0.55 26.36,0.28 26.36,-0.00 26.36,-0.28 26.45,-0.55 26.54,-0.83 26.71,-1.06 26.89,-1.28 27.13,-1.45 27.36,-1.61 27.64,-1.68 27.92,-1.76 28.20,-1.74 28.49,-1.73 28.76,-1.62 29.02,-1.52 29.24,-1.33 29.46,-1.14 29.61,-0.90 29.76,-0.65 29.82,-0.37 29.88,-0.09 29.85,0.18 29.82,0.47 29.70,0.73 29.58,0.99 29.38,1.20 29.18,1.41 28.93,1.54 28.68,1.68 28.39,1.72 28.11,1.77 28.11,1.77 28.11,1.77 26.23,1.66 24.35,1.56 22.32,1.57 20.29,1.59 17.06,1.64 13.83,1.69 9.32,1.76 4.80,1.83 2.40,1.92 0,2.02 -0.24,1.99 -0.48,1.96 -0.71,1.87 -0.94,1.79 -1.14,1.65 -1.34,1.51 -1.50,1.33 -1.66,1.14 -1.77,0.93 -1.89,0.71 -1.94,0.48 -2.00,0.24 -2.00,-0.00 -2.00,-0.24 -1.94,-0.48 -1.89,-0.71 -1.77,-0.93 -1.66,-1.14 -1.50,-1.33 -1.34,-1.51 -1.14,-1.65 -0.93,-1.79 -0.71,-1.87 -0.48,-1.96 -0.24,-1.99 0.00,-2.02 0.00,-2.02 L 0,-2.02 Z"></path></g><g transform="translate(45.71243077001873 149.8104696444438) rotate(0 14.057018155383957 0)" stroke="none"><path fill="#1e1e1e" d="M 0,-1.95 Q 0,-1.95 1.09,-2.03 2.18,-2.10 3.74,-2.12 5.29,-2.14 7.70,-2.03 10.11,-1.92 13.10,-1.84 16.09,-1.75 18.67,-1.69 21.25,-1.63 24.68,-1.71 28.11,-1.79 28.40,-1.74 28.68,-1.70 28.94,-1.56 29.20,-1.42 29.40,-1.21 29.60,-1.00 29.72,-0.74 29.84,-0.48 29.87,-0.19 29.90,0.09 29.84,0.38 29.78,0.66 29.63,0.91 29.48,1.16 29.26,1.35 29.03,1.53 28.76,1.64 28.50,1.75 28.20,1.76 27.91,1.78 27.63,1.70 27.35,1.63 27.11,1.46 26.87,1.30 26.70,1.07 26.52,0.84 26.43,0.56 26.34,0.29 26.34,-0.00 26.34,-0.29 26.43,-0.56 26.52,-0.84 26.70,-1.07 26.87,-1.30 27.11,-1.46 27.36,-1.63 27.64,-1.70 27.92,-1.78 28.21,-1.76 28.50,-1.75 28.77,-1.64 29.04,-1.53 29.26,-1.35 29.48,-1.16 29.63,-0.91 29.78,-0.66 29.84,-0.38 29.90,-0.09 29.87,0.19 29.84,0.48 29.72,0.74 29.60,1.00 29.40,1.21 29.20,1.43 28.94,1.56 28.68,1.70 28.40,1.74 28.11,1.79 28.11,1.79 28.11,1.79 24.68,1.71 21.25,1.63 18.67,1.69 16.09,1.75 13.10,1.84 10.11,1.92 7.70,2.03 5.29,2.14 3.74,2.12 2.18,2.10 1.09,2.03 0,1.95 -0.23,1.92 -0.46,1.89 -0.68,1.81 -0.90,1.72 -1.10,1.59 -1.29,1.46 -1.45,1.28 -1.60,1.10 -1.71,0.90 -1.82,0.69 -1.88,0.46 -1.93,0.23 -1.93,-0.00 -1.93,-0.23 -1.88,-0.46 -1.82,-0.69 -1.71,-0.90 -1.60,-1.10 -1.45,-1.28 -1.29,-1.46 -1.10,-1.59 -0.90,-1.72 -0.68,-1.81 -0.46,-1.89 -0.23,-1.92 0.00,-1.95 0.00,-1.95 L 0,-1.95 Z"></path></g><g transform="translate(52.55099737757428 142.97196100803745) rotate(0 12.537333466419113 0.7598133589079339)" stroke="none"><path fill="#1e1e1e" d="M 0.36,-2.02 Q 0.36,-2.02 2.75,-1.49 5.13,-0.95 7.37,-0.71 9.60,-0.46 12.08,-0.33 14.56,-0.20 16.71,-0.12 18.86,-0.05 20.21,-0.14 21.56,-0.22 23.32,-0.30 25.08,-0.39 25.39,-0.34 25.69,-0.28 25.96,-0.14 26.24,0.00 26.45,0.22 26.66,0.45 26.79,0.73 26.92,1.01 26.95,1.32 26.98,1.63 26.91,1.93 26.84,2.23 26.68,2.50 26.52,2.76 26.28,2.96 26.05,3.16 25.76,3.27 25.47,3.39 25.16,3.40 24.85,3.42 24.55,3.33 24.26,3.25 24.00,3.07 23.75,2.90 23.56,2.65 23.37,2.40 23.28,2.11 23.18,1.81 23.18,1.50 23.18,1.19 23.28,0.90 23.38,0.61 23.57,0.36 23.76,0.12 24.02,-0.04 24.28,-0.22 24.58,-0.30 24.87,-0.38 25.18,-0.36 25.49,-0.34 25.78,-0.23 26.07,-0.11 26.30,0.08 26.54,0.29 26.69,0.55 26.85,0.82 26.92,1.12 26.98,1.42 26.95,1.73 26.91,2.04 26.78,2.32 26.65,2.60 26.43,2.82 26.22,3.05 25.94,3.19 25.67,3.33 25.36,3.38 25.06,3.43 25.06,3.43 25.06,3.43 23.29,3.32 21.53,3.22 20.17,3.10 18.81,2.99 16.63,3.00 14.46,3.00 11.89,2.98 9.33,2.95 6.90,2.83 4.47,2.70 2.05,2.36 -0.36,2.02 -0.60,1.95 -0.84,1.88 -1.05,1.75 -1.27,1.62 -1.44,1.45 -1.62,1.27 -1.75,1.06 -1.88,0.84 -1.95,0.61 -2.02,0.37 -2.04,0.12 -2.05,-0.12 -2.01,-0.36 -1.97,-0.61 -1.86,-0.83 -1.76,-1.06 -1.61,-1.26 -1.46,-1.45 -1.26,-1.61 -1.06,-1.76 -0.84,-1.86 -0.61,-1.96 -0.37,-2.01 -0.12,-2.05 0.12,-2.04 0.36,-2.02 0.36,-2.02 L 0.36,-2.02 Z"></path></g><g transform="translate(63.18876121475569 139.17270580726296) rotate(0 10.257820925758551 0.7598423444825357)" stroke="none"><path fill="#1e1e1e" d="M 0.23,-2.39 Q 0.23,-2.39 2.40,-2.03 4.57,-1.67 6.32,-1.55 8.07,-1.43 9.47,-1.43 10.87,-1.44 12.12,-1.47 13.36,-1.50 14.54,-1.54 15.73,-1.58 18.44,-1.26 21.16,-0.94 21.53,-0.77 21.91,-0.61 22.22,-0.33 22.52,-0.05 22.72,0.30 22.92,0.67 22.99,1.07 23.06,1.48 23.00,1.89 22.94,2.29 22.75,2.66 22.56,3.03 22.27,3.32 21.97,3.61 21.60,3.78 21.23,3.96 20.82,4.01 20.41,4.06 20.00,3.98 19.60,3.90 19.24,3.69 18.89,3.48 18.62,3.17 18.34,2.86 18.19,2.48 18.03,2.10 18.00,1.69 17.97,1.27 18.08,0.88 18.18,0.48 18.41,0.13 18.63,-0.20 18.96,-0.46 19.28,-0.71 19.67,-0.85 20.06,-0.99 20.48,-0.99 20.89,-1.00 21.28,-0.87 21.67,-0.75 22.01,-0.50 22.34,-0.26 22.57,0.07 22.81,0.41 22.93,0.81 23.04,1.20 23.03,1.62 23.01,2.03 22.86,2.41 22.71,2.80 22.45,3.12 22.19,3.44 21.84,3.65 21.49,3.87 21.09,3.97 20.68,4.06 20.27,4.02 19.86,3.98 19.86,3.98 19.86,3.98 17.78,3.53 15.70,3.08 14.50,3.03 13.30,2.97 12.03,2.91 10.75,2.84 9.31,2.76 7.86,2.68 6.01,2.61 4.15,2.54 1.95,2.46 -0.23,2.39 -0.52,2.32 -0.80,2.26 -1.06,2.13 -1.32,2.00 -1.54,1.81 -1.76,1.63 -1.93,1.39 -2.10,1.16 -2.21,0.89 -2.32,0.62 -2.36,0.33 -2.40,0.05 -2.37,-0.23 -2.34,-0.52 -2.24,-0.79 -2.15,-1.07 -1.99,-1.31 -1.83,-1.55 -1.61,-1.75 -1.40,-1.94 -1.15,-2.08 -0.89,-2.22 -0.61,-2.30 -0.33,-2.37 -0.05,-2.38 0.23,-2.39 0.23,-2.39 L 0.23,-2.39 Z"></path></g><g transform="translate(66.98795844438064 135.37350857763755) rotate(0 10.637734851606183 0)" stroke="none"><path fill="#1e1e1e" d="M 0,-2.37 Q 0,-2.37 2.83,-2.23 5.67,-2.09 7.76,-2.00 9.84,-1.91 11.38,-1.95 12.92,-1.99 14.60,-2.14 16.28,-2.29 18.77,-2.40 21.27,-2.52 21.67,-2.45 22.08,-2.39 22.44,-2.19 22.80,-2.00 23.08,-1.71 23.36,-1.41 23.53,-1.04 23.70,-0.67 23.74,-0.26 23.79,0.13 23.70,0.53 23.61,0.93 23.40,1.28 23.19,1.63 22.88,1.89 22.57,2.16 22.19,2.31 21.81,2.46 21.40,2.48 21.00,2.50 20.60,2.39 20.21,2.28 19.87,2.05 19.54,1.83 19.29,1.50 19.04,1.18 18.91,0.79 18.78,0.40 18.78,-0.00 18.78,-0.40 18.91,-0.79 19.04,-1.18 19.29,-1.50 19.54,-1.83 19.87,-2.06 20.21,-2.28 20.61,-2.39 21.00,-2.50 21.41,-2.48 21.81,-2.46 22.19,-2.31 22.57,-2.16 22.88,-1.89 23.19,-1.63 23.40,-1.28 23.61,-0.93 23.70,-0.53 23.79,-0.13 23.74,0.26 23.70,0.67 23.53,1.04 23.36,1.41 23.08,1.71 22.80,2.00 22.44,2.19 22.08,2.39 21.67,2.45 21.27,2.52 21.27,2.52 21.27,2.52 18.77,2.40 16.28,2.29 14.60,2.14 12.92,1.99 11.38,1.95 9.84,1.91 7.76,2.00 5.67,2.09 2.83,2.23 0,2.37 -0.28,2.34 -0.56,2.30 -0.83,2.20 -1.10,2.10 -1.33,1.94 -1.57,1.77 -1.76,1.56 -1.95,1.34 -2.08,1.09 -2.22,0.84 -2.29,0.56 -2.35,0.28 -2.35,-0.00 -2.35,-0.28 -2.29,-0.56 -2.22,-0.84 -2.08,-1.09 -1.95,-1.34 -1.76,-1.56 -1.57,-1.77 -1.33,-1.94 -1.10,-2.10 -0.83,-2.20 -0.56,-2.30 -0.28,-2.34 0.00,-2.37 0.00,-2.37 L 0,-2.37 Z"></path></g><g transform="translate(74.58635290363145 128.534941970082) rotate(0 8.738136236793707 0)" stroke="none"><path fill="#1e1e1e" d="M 0,-2.43 Q 0,-2.43 1.96,-2.33 3.93,-2.23 5.42,-2.24 6.91,-2.26 7.98,-2.31 9.05,-2.36 10.16,-2.41 11.27,-2.45 12.40,-2.49 13.53,-2.52 15.50,-2.57 17.47,-2.61 17.89,-2.54 18.31,-2.48 18.68,-2.28 19.06,-2.08 19.35,-1.77 19.64,-1.46 19.82,-1.08 19.99,-0.70 20.04,-0.27 20.09,0.14 19.99,0.55 19.90,0.96 19.68,1.33 19.47,1.69 19.14,1.96 18.82,2.24 18.43,2.39 18.03,2.55 17.61,2.57 17.19,2.60 16.78,2.48 16.37,2.37 16.02,2.13 15.67,1.90 15.41,1.56 15.16,1.22 15.02,0.82 14.89,0.42 14.89,-0.00 14.89,-0.42 15.02,-0.82 15.16,-1.22 15.41,-1.56 15.67,-1.90 16.02,-2.13 16.37,-2.37 16.78,-2.48 17.19,-2.60 17.61,-2.57 18.03,-2.55 18.43,-2.39 18.82,-2.24 19.14,-1.96 19.47,-1.69 19.69,-1.33 19.90,-0.96 19.99,-0.55 20.09,-0.14 20.04,0.27 19.99,0.70 19.82,1.08 19.64,1.46 19.35,1.77 19.05,2.08 18.68,2.28 18.31,2.48 17.89,2.54 17.47,2.61 17.47,2.61 17.47,2.61 15.50,2.57 13.53,2.52 12.40,2.49 11.27,2.45 10.16,2.41 9.05,2.36 7.98,2.31 6.91,2.26 5.42,2.24 3.93,2.23 1.96,2.33 0,2.43 -0.29,2.39 -0.58,2.36 -0.85,2.25 -1.13,2.15 -1.37,1.98 -1.61,1.82 -1.80,1.60 -2.00,1.38 -2.13,1.12 -2.27,0.86 -2.34,0.57 -2.41,0.29 -2.41,-0.00 -2.41,-0.29 -2.34,-0.57 -2.27,-0.86 -2.13,-1.12 -2.00,-1.38 -1.80,-1.60 -1.61,-1.82 -1.37,-1.98 -1.13,-2.15 -0.85,-2.25 -0.58,-2.36 -0.29,-2.39 0.00,-2.43 0.00,-2.43 L 0,-2.43 Z"></path></g><g transform="translate(84.46423091796805 123.97591688876145) rotate(0 8.358251296520393 -0.3799139258476316)" stroke="none"><path fill="#1e1e1e" d="M 0,-2.48 Q 0,-2.48 1.96,-2.38 3.93,-2.27 5.42,-2.28 6.91,-2.29 8.19,-2.32 9.47,-2.36 10.92,-2.76 12.36,-3.15 14.50,-3.28 16.64,-3.40 17.06,-3.34 17.49,-3.28 17.87,-3.09 18.25,-2.90 18.56,-2.60 18.86,-2.30 19.05,-1.91 19.24,-1.53 19.30,-1.11 19.35,-0.68 19.27,-0.26 19.19,0.15 18.98,0.52 18.77,0.89 18.45,1.18 18.14,1.46 17.74,1.63 17.35,1.80 16.92,1.84 16.50,1.87 16.08,1.77 15.67,1.66 15.31,1.43 14.95,1.20 14.68,0.87 14.41,0.54 14.26,0.14 14.11,-0.26 14.10,-0.68 14.09,-1.11 14.22,-1.52 14.34,-1.93 14.59,-2.28 14.84,-2.62 15.19,-2.87 15.54,-3.12 15.95,-3.25 16.35,-3.37 16.78,-3.36 17.21,-3.35 17.61,-3.20 18.01,-3.06 18.35,-2.79 18.68,-2.52 18.91,-2.16 19.14,-1.80 19.24,-1.38 19.35,-0.97 19.31,-0.54 19.28,-0.12 19.11,0.27 18.94,0.66 18.65,0.98 18.37,1.30 18.00,1.51 17.62,1.72 17.20,1.80 16.78,1.88 16.78,1.88 16.78,1.88 14.39,1.92 11.99,1.96 10.74,2.16 9.50,2.36 8.20,2.32 6.91,2.29 5.42,2.28 3.93,2.27 1.96,2.38 0,2.48 -0.29,2.45 -0.59,2.41 -0.87,2.31 -1.15,2.20 -1.40,2.03 -1.65,1.86 -1.84,1.63 -2.04,1.41 -2.18,1.14 -2.32,0.88 -2.39,0.59 -2.47,0.29 -2.47,-0.00 -2.47,-0.30 -2.39,-0.59 -2.32,-0.88 -2.18,-1.14 -2.04,-1.41 -1.84,-1.63 -1.65,-1.86 -1.40,-2.03 -1.15,-2.20 -0.87,-2.31 -0.59,-2.41 -0.29,-2.45 0.00,-2.48 0.00,-2.48 L 0,-2.48 Z"></path></g><g transform="translate(86.74377244420248 119.41689180744078) rotate(0 9.877906999911374 -0.3799284186349041)" stroke="none"><path fill="#1e1e1e" d="M 0,-2.12 Q 0,-2.12 2.40,-2.01 4.80,-1.90 7.28,-2.04 9.75,-2.17 11.97,-2.21 14.18,-2.25 16.95,-2.40 19.71,-2.56 20.00,-2.52 20.29,-2.48 20.55,-2.35 20.81,-2.22 21.02,-2.01 21.23,-1.80 21.35,-1.54 21.48,-1.27 21.52,-0.98 21.56,-0.69 21.50,-0.41 21.44,-0.12 21.30,0.12 21.15,0.38 20.93,0.57 20.72,0.76 20.45,0.88 20.18,0.99 19.88,1.01 19.59,1.04 19.31,0.96 19.03,0.89 18.78,0.73 18.54,0.57 18.35,0.34 18.17,0.12 18.07,-0.15 17.97,-0.43 17.97,-0.72 17.96,-1.01 18.05,-1.29 18.14,-1.57 18.31,-1.80 18.48,-2.04 18.72,-2.21 18.96,-2.38 19.24,-2.46 19.52,-2.55 19.81,-2.54 20.10,-2.53 20.38,-2.43 20.65,-2.32 20.88,-2.14 21.10,-1.95 21.26,-1.71 21.42,-1.46 21.48,-1.17 21.55,-0.89 21.53,-0.60 21.50,-0.31 21.39,-0.04 21.27,0.22 21.07,0.43 20.87,0.65 20.62,0.79 20.36,0.94 20.08,0.99 19.79,1.04 19.79,1.04 19.79,1.04 17.06,1.02 14.32,1.00 12.19,1.15 10.05,1.30 7.43,1.60 4.80,1.90 2.40,2.01 0,2.12 -0.25,2.08 -0.50,2.05 -0.74,1.96 -0.98,1.87 -1.19,1.73 -1.40,1.58 -1.57,1.39 -1.74,1.20 -1.86,0.97 -1.98,0.75 -2.04,0.50 -2.10,0.25 -2.10,-0.00 -2.10,-0.25 -2.04,-0.50 -1.98,-0.75 -1.86,-0.97 -1.74,-1.20 -1.57,-1.39 -1.40,-1.58 -1.19,-1.73 -0.98,-1.87 -0.74,-1.96 -0.50,-2.05 -0.25,-2.08 0.00,-2.12 0.00,-2.12 L 0,-2.12 Z"></path></g><g transform="translate(95.10199475514855 114.85783774054556) rotate(0 11.77750561472385 -0.7598423444825357)" stroke="none"><path fill="#1e1e1e" d="M -0.20,-2.09 Q -0.20,-2.09 1.98,-2.21 4.18,-2.32 6.25,-2.37 8.32,-2.41 10.30,-2.43 12.27,-2.45 14.20,-2.45 16.14,-2.46 18.05,-2.46 19.96,-2.47 21.34,-2.81 22.72,-3.16 23.01,-3.25 23.29,-3.34 23.59,-3.33 23.89,-3.33 24.17,-3.23 24.45,-3.12 24.68,-2.94 24.92,-2.75 25.08,-2.50 25.24,-2.25 25.31,-1.96 25.39,-1.67 25.37,-1.38 25.34,-1.08 25.23,-0.80 25.11,-0.53 24.91,-0.31 24.71,-0.08 24.45,0.06 24.19,0.20 23.90,0.26 23.61,0.32 23.31,0.28 23.02,0.24 22.75,0.11 22.48,-0.01 22.27,-0.22 22.06,-0.43 21.92,-0.70 21.79,-0.96 21.75,-1.26 21.71,-1.56 21.76,-1.85 21.82,-2.14 21.96,-2.40 22.11,-2.66 22.33,-2.86 22.55,-3.06 22.82,-3.18 23.10,-3.30 23.39,-3.33 23.69,-3.35 23.98,-3.28 24.27,-3.21 24.52,-3.05 24.78,-2.89 24.96,-2.66 25.15,-2.43 25.26,-2.15 25.36,-1.87 25.37,-1.57 25.38,-1.27 25.29,-0.99 25.21,-0.70 25.03,-0.46 24.86,-0.22 24.62,-0.04 24.38,0.12 24.38,0.12 24.38,0.12 22.18,0.55 19.97,0.97 18.07,0.98 16.17,0.99 14.25,1.02 12.34,1.04 10.42,1.10 8.49,1.16 6.52,1.31 4.55,1.45 2.38,1.77 0.20,2.09 -0.04,2.09 -0.29,2.08 -0.54,2.02 -0.78,1.95 -1.01,1.83 -1.23,1.70 -1.42,1.53 -1.60,1.36 -1.74,1.15 -1.88,0.94 -1.97,0.70 -2.05,0.46 -2.08,0.20 -2.10,-0.04 -2.07,-0.29 -2.03,-0.54 -1.94,-0.78 -1.84,-1.01 -1.69,-1.22 -1.54,-1.43 -1.35,-1.59 -1.16,-1.76 -0.93,-1.87 -0.70,-1.98 -0.45,-2.04 -0.20,-2.09 -0.20,-2.09 L -0.20,-2.09 Z"></path></g><g transform="translate(105.73975859232996 108.01930011856467) rotate(0 7.978308385098444 0)" stroke="none"><path fill="#1e1e1e" d="M 0,-2.26 Q 0,-2.26 2.40,-2.14 4.80,-2.01 6.48,-2.02 8.15,-2.03 9.96,-2.01 11.76,-1.99 13.86,-2.05 15.95,-2.12 16.29,-2.06 16.63,-2.01 16.93,-1.85 17.24,-1.68 17.47,-1.44 17.71,-1.19 17.85,-0.87 18.00,-0.56 18.03,-0.22 18.07,0.11 18.00,0.45 17.92,0.78 17.75,1.07 17.57,1.37 17.31,1.59 17.05,1.81 16.73,1.94 16.41,2.07 16.06,2.09 15.72,2.10 15.39,2.01 15.06,1.92 14.78,1.73 14.49,1.54 14.28,1.26 14.08,0.99 13.97,0.66 13.86,0.34 13.86,-0.00 13.86,-0.34 13.97,-0.66 14.08,-0.99 14.28,-1.26 14.49,-1.54 14.78,-1.73 15.06,-1.92 15.39,-2.01 15.72,-2.10 16.07,-2.09 16.41,-2.07 16.73,-1.94 17.05,-1.81 17.31,-1.59 17.57,-1.37 17.75,-1.07 17.92,-0.78 18.00,-0.44 18.07,-0.11 18.03,0.22 18.00,0.56 17.85,0.87 17.71,1.19 17.47,1.44 17.24,1.68 16.93,1.85 16.63,2.01 16.29,2.06 15.95,2.12 15.95,2.12 15.95,2.12 13.86,2.05 11.76,1.99 9.96,2.01 8.15,2.03 6.48,2.02 4.80,2.01 2.40,2.14 0,2.26 -0.27,2.23 -0.54,2.20 -0.79,2.10 -1.05,2.00 -1.27,1.85 -1.50,1.69 -1.68,1.49 -1.86,1.28 -1.99,1.04 -2.12,0.80 -2.18,0.53 -2.25,0.27 -2.25,-0.00 -2.25,-0.27 -2.18,-0.53 -2.12,-0.80 -1.99,-1.04 -1.86,-1.28 -1.68,-1.49 -1.50,-1.69 -1.27,-1.85 -1.05,-2.00 -0.79,-2.10 -0.54,-2.20 -0.27,-2.23 0.00,-2.26 0.00,-2.26 L 0,-2.26 Z"></path></g><g transform="translate(110.29878367365018 104.22010288893927) rotate(0 9.497993074063288 -0.3799284186349041)" stroke="none"><path fill="#1e1e1e" d="M 0,-2.46 Q 0,-2.46 2.40,-2.31 4.80,-2.16 6.48,-2.16 8.15,-2.15 9.52,-2.18 10.88,-2.22 11.92,-2.47 12.96,-2.71 14.35,-2.97 15.73,-3.22 17.35,-3.30 18.96,-3.37 19.38,-3.31 19.80,-3.24 20.17,-3.05 20.55,-2.85 20.84,-2.55 21.14,-2.25 21.32,-1.87 21.50,-1.48 21.55,-1.06 21.60,-0.64 21.52,-0.23 21.43,0.18 21.22,0.54 21.00,0.91 20.68,1.18 20.36,1.46 19.97,1.62 19.58,1.78 19.16,1.81 18.74,1.84 18.33,1.73 17.92,1.62 17.57,1.39 17.21,1.15 16.95,0.82 16.69,0.49 16.55,0.09 16.41,-0.30 16.41,-0.73 16.41,-1.15 16.54,-1.55 16.67,-1.95 16.92,-2.29 17.17,-2.63 17.52,-2.87 17.87,-3.12 18.27,-3.23 18.68,-3.35 19.10,-3.33 19.52,-3.32 19.92,-3.16 20.31,-3.01 20.64,-2.74 20.97,-2.47 21.19,-2.11 21.41,-1.75 21.51,-1.34 21.60,-0.93 21.56,-0.50 21.52,-0.08 21.35,0.29 21.17,0.68 20.88,0.99 20.60,1.30 20.23,1.50 19.85,1.70 19.44,1.78 19.02,1.85 19.02,1.85 19.02,1.85 17.56,1.83 16.11,1.82 14.94,1.83 13.77,1.84 12.33,2.03 10.90,2.22 9.53,2.18 8.15,2.15 6.48,2.16 4.80,2.16 2.40,2.31 0,2.46 -0.29,2.43 -0.59,2.39 -0.86,2.29 -1.14,2.18 -1.39,2.01 -1.63,1.84 -1.83,1.62 -2.03,1.40 -2.17,1.13 -2.30,0.87 -2.37,0.58 -2.45,0.29 -2.45,-0.00 -2.45,-0.29 -2.37,-0.58 -2.30,-0.87 -2.17,-1.13 -2.03,-1.40 -1.83,-1.62 -1.63,-1.84 -1.39,-2.01 -1.14,-2.18 -0.86,-2.29 -0.59,-2.39 -0.29,-2.43 0.00,-2.46 0.00,-2.46 L 0,-2.46 Z"></path></g><g transform="translate(119.41683383629152 97.38153628138372) rotate(0 10.257849911333324 -0.3799139258476316)" stroke="none"><path fill="#1e1e1e" d="M 0,-2.16 Q 0,-2.16 1.74,-2.14 3.49,-2.12 5.33,-2.08 7.16,-2.05 9.25,-1.96 11.34,-1.87 13.46,-2.01 15.57,-2.15 17.99,-2.39 20.41,-2.63 20.71,-2.60 21.01,-2.57 21.29,-2.44 21.56,-2.31 21.79,-2.10 22.01,-1.90 22.15,-1.63 22.29,-1.36 22.34,-1.06 22.39,-0.76 22.34,-0.46 22.29,-0.16 22.15,0.10 22.01,0.37 21.79,0.58 21.57,0.79 21.29,0.92 21.02,1.05 20.71,1.08 20.41,1.11 20.11,1.05 19.82,0.98 19.56,0.83 19.29,0.67 19.10,0.44 18.90,0.21 18.79,-0.07 18.67,-0.35 18.66,-0.65 18.64,-0.96 18.72,-1.25 18.80,-1.54 18.97,-1.79 19.14,-2.05 19.39,-2.23 19.63,-2.42 19.92,-2.51 20.20,-2.61 20.51,-2.61 20.81,-2.61 21.10,-2.51 21.39,-2.42 21.63,-2.23 21.87,-2.05 22.05,-1.80 22.22,-1.55 22.30,-1.25 22.38,-0.96 22.36,-0.66 22.35,-0.35 22.24,-0.07 22.12,0.20 21.93,0.44 21.73,0.67 21.47,0.82 21.21,0.98 20.91,1.05 20.61,1.11 20.62,1.11 20.62,1.11 18.26,1.19 15.91,1.27 13.63,1.57 11.34,1.87 9.25,1.96 7.16,2.05 5.33,2.08 3.49,2.12 1.74,2.14 0,2.16 -0.25,2.13 -0.51,2.10 -0.76,2.01 -1.00,1.91 -1.22,1.76 -1.43,1.62 -1.60,1.42 -1.78,1.23 -1.90,0.99 -2.02,0.76 -2.08,0.51 -2.14,0.26 -2.14,-0.00 -2.14,-0.26 -2.08,-0.51 -2.02,-0.76 -1.90,-0.99 -1.78,-1.23 -1.60,-1.42 -1.43,-1.62 -1.22,-1.76 -1.00,-1.91 -0.76,-2.01 -0.51,-2.10 -0.25,-2.13 0.00,-2.16 0.00,-2.16 L 0,-2.16 Z"></path></g><g transform="translate(123.97591688876128 95.10202374072338) rotate(0 11.397591688876219 -1.1397562703301105)" stroke="none"><path fill="#1e1e1e" d="M -0.25,-2.28 Q -0.25,-2.28 1.72,-2.41 3.69,-2.54 5.58,-2.78 7.46,-3.03 8.86,-3.40 10.26,-3.77 11.89,-3.97 13.52,-4.17 15.09,-4.26 16.67,-4.35 18.21,-4.39 19.75,-4.44 21.25,-4.52 22.76,-4.61 23.13,-4.55 23.51,-4.49 23.84,-4.32 24.18,-4.15 24.44,-3.88 24.70,-3.61 24.86,-3.27 25.03,-2.93 25.07,-2.55 25.12,-2.18 25.04,-1.81 24.97,-1.44 24.78,-1.11 24.59,-0.79 24.30,-0.54 24.02,-0.29 23.67,-0.15 23.32,-0.00 22.94,0.01 22.57,0.04 22.20,-0.05 21.84,-0.15 21.52,-0.35 21.21,-0.56 20.98,-0.86 20.75,-1.16 20.62,-1.51 20.49,-1.87 20.49,-2.24 20.49,-2.62 20.60,-2.98 20.72,-3.34 20.94,-3.64 21.17,-3.95 21.47,-4.16 21.78,-4.38 22.15,-4.48 22.51,-4.59 22.88,-4.57 23.26,-4.56 23.61,-4.42 23.97,-4.29 24.26,-4.05 24.55,-3.81 24.75,-3.49 24.94,-3.17 25.03,-2.80 25.12,-2.43 25.08,-2.06 25.04,-1.68 24.89,-1.34 24.74,-0.99 24.48,-0.71 24.22,-0.44 23.89,-0.26 23.56,-0.08 23.19,-0.01 22.82,0.05 22.82,0.05 22.82,0.05 21.32,0.00 19.83,-0.03 18.34,-0.02 16.85,-0.01 15.40,0.01 13.94,0.05 12.58,0.15 11.21,0.25 9.65,0.58 8.10,0.91 6.13,1.29 4.16,1.67 2.21,1.97 0.25,2.28 -0.02,2.28 -0.30,2.28 -0.56,2.21 -0.83,2.14 -1.08,2.01 -1.32,1.88 -1.53,1.69 -1.73,1.50 -1.89,1.27 -2.04,1.04 -2.14,0.78 -2.23,0.52 -2.26,0.25 -2.30,-0.02 -2.26,-0.29 -2.22,-0.57 -2.12,-0.83 -2.02,-1.08 -1.86,-1.31 -1.70,-1.54 -1.49,-1.72 -1.28,-1.90 -1.04,-2.03 -0.79,-2.15 -0.52,-2.22 -0.25,-2.28 -0.25,-2.28 L -0.25,-2.28 Z"></path></g><g transform="translate(131.5743113480121 89.02331397043775) rotate(0 11.017648777453815 0)" stroke="none"><path fill="#1e1e1e" d="M 0,-1.97 Q 0,-1.97 2.18,-1.88 4.36,-1.79 7.48,-1.73 10.59,-1.66 13.22,-1.61 15.86,-1.57 18.94,-1.66 22.03,-1.76 22.31,-1.72 22.59,-1.67 22.85,-1.54 23.10,-1.40 23.30,-1.19 23.49,-0.99 23.61,-0.73 23.73,-0.47 23.76,-0.18 23.80,0.09 23.73,0.37 23.67,0.65 23.53,0.89 23.38,1.14 23.16,1.32 22.94,1.51 22.68,1.62 22.41,1.72 22.12,1.74 21.84,1.75 21.56,1.68 21.29,1.60 21.05,1.44 20.81,1.28 20.64,1.05 20.47,0.82 20.38,0.55 20.29,0.28 20.29,-0.00 20.29,-0.28 20.38,-0.55 20.47,-0.82 20.64,-1.05 20.81,-1.28 21.05,-1.44 21.29,-1.60 21.56,-1.68 21.84,-1.75 22.13,-1.74 22.41,-1.72 22.68,-1.62 22.94,-1.51 23.16,-1.32 23.38,-1.14 23.53,-0.89 23.67,-0.65 23.73,-0.37 23.80,-0.09 23.76,0.18 23.73,0.47 23.61,0.73 23.49,0.99 23.30,1.20 23.10,1.40 22.85,1.54 22.59,1.67 22.31,1.72 22.03,1.76 22.03,1.76 22.03,1.76 18.94,1.66 15.86,1.57 13.22,1.61 10.59,1.66 7.48,1.73 4.36,1.79 2.18,1.88 0,1.97 -0.23,1.94 -0.47,1.91 -0.69,1.83 -0.91,1.74 -1.11,1.61 -1.31,1.47 -1.46,1.30 -1.62,1.12 -1.73,0.91 -1.84,0.70 -1.90,0.46 -1.96,0.23 -1.96,-0.00 -1.96,-0.23 -1.90,-0.46 -1.84,-0.70 -1.73,-0.91 -1.62,-1.12 -1.46,-1.30 -1.31,-1.47 -1.11,-1.61 -0.91,-1.74 -0.69,-1.83 -0.47,-1.91 -0.23,-1.94 0.00,-1.97 0.00,-1.97 L 0,-1.97 Z"></path></g><g transform="translate(32.03529755490763 161.2080613333199) rotate(0 12.917276377841517 -0.3799284186349041)" stroke="none"><path fill="#1e1e1e" d="M 0,-2.15 Q 0,-2.15 2.40,-2.04 4.80,-1.93 6.82,-2.06 8.85,-2.19 11.11,-2.22 13.38,-2.26 15.21,-2.33 17.03,-2.39 18.69,-2.46 20.34,-2.52 21.48,-2.62 22.62,-2.71 24.22,-2.80 25.82,-2.88 26.16,-2.82 26.50,-2.77 26.81,-2.61 27.11,-2.45 27.35,-2.20 27.58,-1.95 27.73,-1.64 27.87,-1.33 27.91,-0.99 27.95,-0.65 27.88,-0.31 27.81,0.02 27.63,0.31 27.45,0.61 27.19,0.83 26.93,1.05 26.61,1.18 26.29,1.31 25.95,1.33 25.61,1.35 25.28,1.26 24.94,1.17 24.66,0.97 24.37,0.78 24.16,0.51 23.96,0.24 23.84,-0.08 23.73,-0.40 23.73,-0.75 23.73,-1.09 23.84,-1.42 23.95,-1.74 24.16,-2.02 24.36,-2.29 24.65,-2.49 24.93,-2.68 25.26,-2.77 25.59,-2.87 25.94,-2.85 26.28,-2.83 26.60,-2.70 26.92,-2.58 27.18,-2.36 27.44,-2.14 27.62,-1.84 27.80,-1.55 27.88,-1.21 27.95,-0.88 27.91,-0.53 27.88,-0.19 27.73,0.11 27.59,0.42 27.36,0.67 27.12,0.92 26.82,1.08 26.51,1.25 26.17,1.30 25.84,1.36 25.84,1.36 25.84,1.36 24.24,1.29 22.64,1.22 21.51,1.13 20.38,1.05 18.74,1.02 17.11,0.99 15.31,1.00 13.52,1.02 11.36,1.17 9.21,1.32 7.01,1.62 4.80,1.93 2.40,2.04 0,2.15 -0.25,2.12 -0.51,2.09 -0.75,2.00 -1.00,1.90 -1.21,1.76 -1.42,1.61 -1.60,1.41 -1.77,1.22 -1.89,0.99 -2.01,0.76 -2.07,0.51 -2.14,0.25 -2.14,-0.00 -2.14,-0.26 -2.07,-0.51 -2.01,-0.76 -1.89,-0.99 -1.77,-1.22 -1.60,-1.41 -1.42,-1.61 -1.21,-1.76 -1.00,-1.90 -0.75,-2.00 -0.51,-2.09 -0.25,-2.12 0.00,-2.15 0.00,-2.15 L 0,-2.15 Z"></path></g><g transform="translate(41.15340568869851 152.8498100367994) rotate(0 12.917276377841063 0)" stroke="none"><path fill="#1e1e1e" d="M 0,-1.97 Q 0,-1.97 2.40,-1.88 4.80,-1.79 7.79,-1.73 10.78,-1.66 13.36,-1.61 15.94,-1.56 18.34,-1.53 20.75,-1.49 23.29,-1.61 25.83,-1.72 26.11,-1.68 26.38,-1.63 26.63,-1.50 26.88,-1.37 27.07,-1.17 27.26,-0.97 27.38,-0.71 27.50,-0.46 27.53,-0.18 27.56,0.09 27.50,0.36 27.44,0.63 27.29,0.87 27.15,1.11 26.93,1.30 26.72,1.48 26.46,1.58 26.20,1.68 25.92,1.70 25.64,1.71 25.37,1.64 25.10,1.56 24.87,1.41 24.64,1.25 24.47,1.03 24.30,0.80 24.21,0.54 24.12,0.27 24.12,-0.00 24.12,-0.27 24.21,-0.54 24.30,-0.81 24.47,-1.03 24.64,-1.25 24.87,-1.41 25.10,-1.56 25.37,-1.64 25.64,-1.71 25.92,-1.70 26.20,-1.68 26.46,-1.58 26.72,-1.48 26.93,-1.29 27.15,-1.11 27.29,-0.87 27.44,-0.63 27.50,-0.36 27.56,-0.09 27.53,0.18 27.50,0.46 27.38,0.71 27.26,0.97 27.07,1.17 26.88,1.37 26.63,1.50 26.38,1.63 26.11,1.68 25.83,1.72 25.83,1.72 25.83,1.72 23.29,1.61 20.75,1.49 18.34,1.53 15.94,1.56 13.36,1.61 10.78,1.66 7.79,1.73 4.80,1.79 2.40,1.88 0,1.97 -0.23,1.94 -0.47,1.91 -0.69,1.82 -0.91,1.74 -1.11,1.61 -1.30,1.47 -1.46,1.29 -1.62,1.11 -1.73,0.90 -1.84,0.69 -1.89,0.46 -1.95,0.23 -1.95,-0.00 -1.95,-0.23 -1.89,-0.46 -1.84,-0.69 -1.73,-0.90 -1.62,-1.11 -1.46,-1.29 -1.30,-1.47 -1.11,-1.61 -0.91,-1.74 -0.69,-1.82 -0.47,-1.91 -0.23,-1.94 0.00,-1.97 0.00,-1.97 L 0,-1.97 Z"></path></g><g transform="translate(56.35019460720014 146.77115823766286) rotate(0 9.497993074063288 -0.37994291142223346)" stroke="none"><path fill="#1e1e1e" d="M 0,-2.16 Q 0,-2.16 1.31,-2.20 2.62,-2.25 4.27,-2.23 5.92,-2.22 8.14,-2.10 10.37,-1.98 12.32,-2.12 14.26,-2.27 16.55,-2.52 18.85,-2.77 19.17,-2.74 19.50,-2.71 19.80,-2.58 20.10,-2.45 20.34,-2.23 20.58,-2.01 20.74,-1.72 20.90,-1.43 20.96,-1.11 21.01,-0.79 20.97,-0.47 20.92,-0.14 20.77,0.14 20.62,0.43 20.39,0.66 20.15,0.89 19.86,1.03 19.57,1.18 19.24,1.22 18.92,1.26 18.59,1.19 18.27,1.13 17.99,0.96 17.71,0.80 17.49,0.55 17.27,0.31 17.15,0.01 17.02,-0.29 17.00,-0.61 16.98,-0.94 17.06,-1.26 17.14,-1.57 17.32,-1.85 17.50,-2.12 17.76,-2.32 18.01,-2.53 18.32,-2.64 18.63,-2.75 18.96,-2.75 19.29,-2.76 19.60,-2.66 19.91,-2.56 20.17,-2.37 20.44,-2.17 20.63,-1.90 20.81,-1.64 20.91,-1.32 21.00,-1.01 20.99,-0.68 20.97,-0.35 20.86,-0.05 20.74,0.25 20.53,0.50 20.33,0.76 20.05,0.93 19.77,1.10 19.45,1.18 19.13,1.25 19.13,1.25 19.13,1.25 16.89,1.32 14.65,1.39 12.51,1.69 10.38,1.98 8.15,2.10 5.92,2.22 4.27,2.23 2.62,2.25 1.31,2.20 0,2.16 -0.25,2.13 -0.51,2.10 -0.76,2.00 -1.00,1.91 -1.22,1.76 -1.43,1.62 -1.60,1.42 -1.78,1.22 -1.90,0.99 -2.02,0.76 -2.08,0.51 -2.14,0.26 -2.14,-0.00 -2.14,-0.26 -2.08,-0.51 -2.02,-0.76 -1.90,-0.99 -1.78,-1.22 -1.60,-1.42 -1.43,-1.62 -1.22,-1.76 -1.00,-1.91 -0.76,-2.00 -0.51,-2.10 -0.25,-2.13 0.00,-2.16 0.00,-2.16 L 0,-2.16 Z"></path></g></svg>