<?xml version="1.0" standalone="no"?>
<!DOCTYPE svg PUBLIC "-//W3C//DTD SVG 1.1//EN" "http://www.w3.org/Graphics/SVG/1.1/DTD/svg11.dtd">
<svg version="1.1" xmlns="http://www.w3.org/2000/svg" viewBox="0 0 177.28680008917945 33.67707524396201" width="354.5736001783589" height="67.35415048792402"><!-- svg-source:excalidraw --><metadata></metadata><defs><style class="style-fonts">
      </style></defs><g stroke-linecap="round" transform="translate(10 10) rotate(0 78.64340004458973 6.838537621981004)"><path d="M61.93 -0.07 C73.89 -0.52, 89.9 -0.33, 102.5 0.07 C115.09 0.47, 128.62 1.41, 137.51 2.35 C146.39 3.29, 153.15 4.64, 155.8 5.72 C158.46 6.81, 157.53 7.87, 153.42 8.85 C149.31 9.82, 140.78 10.8, 131.12 11.57 C121.46 12.34, 108.24 13.18, 95.46 13.48 C82.68 13.79, 67 13.69, 54.44 13.4 C41.89 13.12, 28.88 12.69, 20.11 11.78 C11.34 10.88, 4.51 9.21, 1.85 7.96 C-0.81 6.72, 0.2 5.43, 4.15 4.33 C8.1 3.22, 15.38 1.97, 25.52 1.35 C35.66 0.72, 57.73 0.83, 64.98 0.58 C72.22 0.32, 68.63 -0.26, 69 -0.19 M61.31 0.42 C73.28 0.28, 89.02 0.47, 101.4 0.81 C113.78 1.15, 126.58 1.62, 135.6 2.45 C144.63 3.28, 152.6 4.7, 155.54 5.79 C158.49 6.89, 157.18 8.05, 153.25 9.01 C149.32 9.96, 141.51 10.84, 131.96 11.55 C122.4 12.25, 108.7 12.94, 95.93 13.24 C83.16 13.53, 67.8 13.71, 55.33 13.32 C42.85 12.93, 29.91 11.74, 21.07 10.89 C12.24 10.04, 5.35 9.2, 2.32 8.21 C-0.7 7.22, -0.85 6.11, 2.93 4.94 C6.7 3.77, 15.41 1.91, 24.98 1.19 C34.54 0.47, 54.28 0.81, 60.31 0.64 C66.34 0.46, 60.82 0.15, 61.17 0.12" stroke="none" stroke-width="0" fill="#1e1e1e"></path><path d="M90.01 -0.03 C102.5 0.02, 117.62 0.94, 127.95 1.66 C138.28 2.38, 147.31 3.22, 151.98 4.31 C156.66 5.4, 157.88 7.1, 155.99 8.2 C154.11 9.3, 148.83 10.15, 140.68 10.92 C132.53 11.69, 119.42 12.38, 107.09 12.84 C94.75 13.3, 79.49 13.84, 66.68 13.68 C53.87 13.53, 40.49 12.68, 30.22 11.91 C19.95 11.15, 9.98 10.07, 5.06 9.08 C0.13 8.09, -1.34 7.03, 0.69 5.97 C2.72 4.91, 9.13 3.58, 17.24 2.72 C25.34 1.86, 36.78 1.23, 49.31 0.8 C61.84 0.36, 84.99 0.28, 92.41 0.11 C99.82 -0.05, 94.03 -0.39, 93.81 -0.21 M65.24 -0.27 C77.46 -0.45, 94.27 0.36, 106.61 0.74 C118.95 1.12, 131.03 1.24, 139.28 2.01 C147.52 2.78, 153.85 4.07, 156.08 5.35 C158.31 6.63, 157.16 8.65, 152.66 9.69 C148.16 10.74, 139.28 10.99, 129.08 11.61 C118.89 12.23, 104.53 13.15, 91.49 13.41 C78.44 13.67, 63.13 13.55, 50.82 13.18 C38.51 12.82, 25.92 12.2, 17.61 11.23 C9.3 10.26, 3.05 8.55, 0.96 7.36 C-1.12 6.17, 0.51 4.94, 5.12 4.07 C9.73 3.2, 18.64 2.71, 28.63 2.16 C38.62 1.61, 58.78 1.08, 65.08 0.79 C71.38 0.5, 66.03 0.41, 66.42 0.4" stroke="#1e1e1e" stroke-width="1" fill="none"></path></g></svg>