<?xml version="1.0" standalone="no"?>
<!DOCTYPE svg PUBLIC "-//W3C//DTD SVG 1.1//EN" "http://www.w3.org/Graphics/SVG/1.1/DTD/svg11.dtd">
<svg version="1.1" xmlns="http://www.w3.org/2000/svg" viewBox="0 0 150.69236151065343 162.84981003679945" width="301.38472302130685" height="325.6996200735989"><!-- svg-source:excalidraw --><metadata></metadata><defs><style class="style-fonts">
      </style></defs><g transform="translate(27.47633044473696 102.70041819997425) rotate(0 -4.559054066895442 18.236158296431654)" stroke="none"><path fill="#1e1e1e" d="M 0.83,1.45 Q 0.83,1.45 -0.68,2.35 -2.19,3.25 -4.15,4.43 -6.10,5.60 -8.22,7.15 -10.33,8.70 -11.84,10.17 -13.34,11.63 -14.10,12.83 -14.86,14.03 -13.96,14.97 -13.05,15.92 -11.00,16.74 -8.95,17.57 -6.48,18.45 -4.02,19.33 -1.70,19.93 0.61,20.52 2.32,20.94 4.03,21.35 5.12,21.43 6.21,21.51 7.31,21.95 8.40,22.39 9.11,23.90 9.82,25.41 9.05,27.21 8.27,29.01 6.91,30.37 5.55,31.74 4.02,32.79 2.48,33.84 0.66,34.70 -1.16,35.56 -3.79,36.32 -6.42,37.07 -9.06,37.76 -11.70,38.45 -12.03,38.47 -12.36,38.49 -12.68,38.40 -12.99,38.32 -13.27,38.13 -13.54,37.95 -13.74,37.69 -13.94,37.43 -14.05,37.12 -14.15,36.81 -14.16,36.48 -14.16,36.15 -14.06,35.84 -13.95,35.53 -13.76,35.26 -13.56,35.00 -13.29,34.82 -13.02,34.63 -12.70,34.54 -12.38,34.45 -12.06,34.47 -11.73,34.48 -11.42,34.60 -11.12,34.72 -10.86,34.93 -10.61,35.14 -10.44,35.42 -10.27,35.70 -10.20,36.02 -10.13,36.34 -10.16,36.67 -10.19,37.00 -10.33,37.30 -10.46,37.60 -10.69,37.84 -10.91,38.08 -11.20,38.23 -11.49,38.39 -11.82,38.44 -12.14,38.50 -12.46,38.45 -12.79,38.40 -13.08,38.24 -13.37,38.09 -13.60,37.85 -13.83,37.62 -13.97,37.32 -14.11,37.02 -14.14,36.70 -14.18,36.37 -14.11,36.05 -14.04,35.73 -13.88,35.44 -13.71,35.16 -13.46,34.95 -13.21,34.73 -12.91,34.61 -12.60,34.49 -12.60,34.49 -12.60,34.49 -10.08,34.01 -7.56,33.52 -5.28,32.70 -2.99,31.87 -1.45,31.06 0.07,30.26 1.29,29.44 2.52,28.62 4.05,26.81 5.58,25.00 4.38,24.68 3.18,24.36 1.55,23.84 -0.07,23.31 -2.53,22.72 -4.98,22.14 -7.59,21.27 -10.19,20.40 -12.86,19.16 -15.54,17.92 -16.50,16.06 -17.46,14.20 -16.46,11.89 -15.45,9.58 -13.82,7.91 -12.19,6.25 -10.02,4.56 -7.85,2.86 -5.88,1.55 -3.92,0.23 -2.37,-0.60 -0.83,-1.45 -0.64,-1.53 -0.45,-1.61 -0.25,-1.64 -0.06,-1.67 0.14,-1.65 0.34,-1.64 0.53,-1.57 0.72,-1.51 0.89,-1.40 1.06,-1.29 1.20,-1.14 1.34,-1.00 1.44,-0.82 1.54,-0.65 1.60,-0.45 1.65,-0.26 1.66,-0.05 1.67,0.14 1.62,0.34 1.58,0.53 1.50,0.72 1.41,0.90 1.28,1.05 1.15,1.21 0.99,1.33 0.83,1.45 0.83,1.45 L 0.83,1.45 Z"></path></g><g transform="translate(38.87392213361272 102.70041819997425) rotate(0 7.978308385098444 15.196788918501511)" stroke="none"><path fill="#1e1e1e" d="M 1.98,-0.14 Q 1.98,-0.14 2.11,2.92 2.24,5.98 2.26,9.51 2.29,13.04 2.28,17.15 2.27,21.27 2.47,23.60 2.67,25.94 2.84,27.09 3.01,28.24 3.37,28.63 3.74,29.02 3.73,29.25 3.72,29.47 3.66,29.69 3.60,29.90 3.48,30.09 3.37,30.29 3.22,30.45 3.06,30.61 2.87,30.73 2.68,30.85 2.47,30.92 2.26,30.99 2.04,31.01 1.81,31.03 1.59,30.99 1.37,30.96 1.17,30.87 0.96,30.78 0.78,30.65 0.60,30.51 0.46,30.34 0.32,30.17 0.22,29.96 0.13,29.76 0.08,29.54 0.04,29.32 0.84,28.05 1.64,26.77 2.09,25.68 2.53,24.58 3.55,22.76 4.56,20.93 5.66,18.67 6.77,16.41 7.68,14.17 8.60,11.94 9.69,9.82 10.79,7.70 11.64,6.10 12.49,4.50 13.39,2.25 14.29,0.00 14.45,-0.23 14.61,-0.48 14.85,-0.66 15.08,-0.84 15.36,-0.94 15.64,-1.03 15.94,-1.04 16.23,-1.04 16.51,-0.95 16.79,-0.86 17.03,-0.68 17.27,-0.50 17.43,-0.26 17.60,-0.02 17.68,0.26 17.77,0.54 17.75,0.84 17.74,1.13 17.63,1.41 17.53,1.68 17.34,1.91 17.15,2.14 16.89,2.29 16.64,2.45 16.36,2.51 16.07,2.58 15.77,2.55 15.48,2.52 15.21,2.40 14.94,2.28 14.72,2.07 14.51,1.87 14.37,1.61 14.23,1.35 14.18,1.06 14.13,0.77 14.17,0.48 14.22,0.19 14.35,-0.07 14.49,-0.33 14.70,-0.53 14.91,-0.74 15.18,-0.86 15.45,-0.99 15.74,-1.03 16.03,-1.06 16.32,-1.00 16.61,-0.94 16.87,-0.79 17.12,-0.64 17.32,-0.41 17.51,-0.19 17.62,0.07 17.73,0.35 17.75,0.64 17.77,0.94 17.69,1.22 17.62,1.51 17.62,1.51 17.62,1.51 16.46,3.80 15.30,6.10 14.40,7.58 13.51,9.05 12.54,11.07 11.57,13.08 10.72,15.45 9.86,17.81 8.85,20.20 7.85,22.58 6.98,24.49 6.11,26.41 4.93,27.72 3.74,29.02 3.73,29.25 3.72,29.47 3.66,29.69 3.60,29.90 3.48,30.09 3.37,30.29 3.22,30.45 3.06,30.61 2.87,30.73 2.68,30.85 2.47,30.92 2.26,30.99 2.04,31.01 1.81,31.03 1.59,30.99 1.37,30.96 1.17,30.87 0.96,30.78 0.78,30.65 0.60,30.51 0.46,30.34 0.32,30.17 0.22,29.96 0.13,29.76 0.08,29.54 0.04,29.32 -0.11,29.10 -0.26,28.88 -0.29,27.55 -0.32,26.23 -0.60,23.77 -0.87,21.30 -0.96,17.21 -1.05,13.13 -1.21,9.68 -1.36,6.24 -1.67,3.19 -1.98,0.14 -1.97,-0.09 -1.96,-0.33 -1.89,-0.56 -1.82,-0.79 -1.70,-1.00 -1.58,-1.21 -1.41,-1.38 -1.24,-1.55 -1.04,-1.68 -0.83,-1.80 -0.60,-1.88 -0.38,-1.95 -0.14,-1.97 0.09,-1.98 0.33,-1.94 0.57,-1.90 0.79,-1.81 1.01,-1.71 1.20,-1.56 1.39,-1.42 1.54,-1.23 1.69,-1.04 1.79,-0.83 1.89,-0.61 1.94,-0.37 1.98,-0.14 1.98,-0.14 L 1.98,-0.14 Z"></path></g><g transform="translate(49.51162799964459 120.9365764964059) rotate(0 5.31888191859025 3.7991972296253493)" stroke="none"><path fill="#1e1e1e" d="M 1.77,-1.51 Q 1.77,-1.51 2.99,0.07 4.22,1.66 5.26,2.34 6.31,3.02 8.96,4.20 11.61,5.39 11.93,5.60 12.26,5.81 12.50,6.12 12.75,6.43 12.88,6.79 13.01,7.16 13.01,7.55 13.02,7.94 12.90,8.31 12.78,8.69 12.55,9.00 12.32,9.32 12.00,9.54 11.68,9.77 11.31,9.88 10.94,9.99 10.55,9.97 10.15,9.96 9.79,9.82 9.42,9.68 9.12,9.44 8.82,9.19 8.61,8.86 8.41,8.53 8.32,8.15 8.23,7.77 8.26,7.38 8.30,6.99 8.45,6.63 8.61,6.27 8.88,5.99 9.14,5.70 9.48,5.51 9.82,5.32 10.21,5.25 10.59,5.18 10.98,5.24 11.36,5.29 11.71,5.47 12.06,5.65 12.33,5.93 12.61,6.20 12.78,6.56 12.95,6.91 13.00,7.30 13.04,7.68 12.97,8.07 12.89,8.45 12.69,8.79 12.50,9.12 12.21,9.38 11.91,9.64 11.55,9.79 11.19,9.94 10.80,9.97 10.41,10.00 10.04,9.90 9.66,9.80 9.66,9.80 9.66,9.80 7.70,8.86 5.74,7.92 4.76,7.24 3.77,6.56 2.39,5.50 1.01,4.45 -0.37,2.98 -1.77,1.51 -1.92,1.28 -2.08,1.04 -2.17,0.78 -2.27,0.52 -2.30,0.24 -2.33,-0.03 -2.29,-0.31 -2.25,-0.59 -2.15,-0.85 -2.04,-1.11 -1.88,-1.34 -1.71,-1.57 -1.50,-1.75 -1.29,-1.94 -1.04,-2.06 -0.79,-2.19 -0.51,-2.25 -0.24,-2.31 0.03,-2.31 0.31,-2.30 0.59,-2.23 0.86,-2.16 1.10,-2.03 1.35,-1.89 1.56,-1.70 1.77,-1.51 1.77,-1.51 L 1.77,-1.51 Z"></path></g><g transform="translate(63.18876121475569 116.37755141508524) rotate(0 2.2795125406601073 6.458623696133316)" stroke="none"><path fill="#1e1e1e" d="M 2.45,-0.30 Q 2.45,-0.30 2.61,1.44 2.77,3.18 3.23,4.32 3.70,5.45 4.16,6.42 4.63,7.38 5.82,9.71 7.02,12.04 7.09,12.46 7.17,12.87 7.10,13.29 7.04,13.71 6.85,14.08 6.66,14.46 6.36,14.76 6.05,15.05 5.67,15.23 5.29,15.42 4.87,15.47 4.45,15.52 4.04,15.44 3.62,15.35 3.26,15.14 2.89,14.93 2.62,14.61 2.34,14.29 2.17,13.90 2.01,13.51 1.98,13.09 1.95,12.67 2.06,12.26 2.17,11.85 2.40,11.50 2.63,11.15 2.96,10.88 3.29,10.62 3.69,10.48 4.09,10.34 4.51,10.33 4.94,10.33 5.34,10.46 5.74,10.59 6.08,10.84 6.42,11.09 6.67,11.43 6.91,11.78 7.03,12.18 7.15,12.59 7.13,13.01 7.11,13.43 6.96,13.83 6.81,14.22 6.54,14.55 6.28,14.88 5.92,15.10 5.56,15.32 5.15,15.42 4.74,15.52 4.31,15.48 3.89,15.44 3.51,15.27 3.12,15.10 2.81,14.81 2.50,14.52 2.30,14.15 2.09,13.78 2.09,13.78 2.09,13.78 1.11,11.55 0.13,9.32 -0.28,8.22 -0.71,7.12 -1.30,5.46 -1.89,3.80 -2.17,2.05 -2.45,0.30 -2.45,0.00 -2.45,-0.28 -2.38,-0.57 -2.31,-0.86 -2.17,-1.13 -2.03,-1.39 -1.84,-1.62 -1.64,-1.84 -1.40,-2.01 -1.15,-2.18 -0.87,-2.29 -0.60,-2.39 -0.30,-2.43 -0.00,-2.47 0.28,-2.43 0.58,-2.40 0.86,-2.29 1.14,-2.19 1.38,-2.02 1.63,-1.85 1.83,-1.63 2.02,-1.41 2.16,-1.14 2.30,-0.88 2.38,-0.59 2.45,-0.30 2.45,-0.30 L 2.45,-0.30 Z"></path></g><g transform="translate(64.70841691814621 104.97995972620913) rotate(0 0.37994291142194925 0.3799139258476316)" stroke="none"><path d="M-0.12 -0.85 C0.3 -0.5, 1.73 1.51, 1.66 1.7 C1.6 1.89, -0.07 0.7, -0.52 0.29" stroke="none" stroke-width="0" fill="#1e1e1e" fill-rule="evenodd"></path><path fill="#1e1e1e" d="M 2.12,-0.66 Q 2.12,-0.66 2.15,-0.13 2.18,0.40 1.96,0.88 1.74,1.36 1.32,1.69 0.91,2.02 0.38,2.12 -0.13,2.21 -0.64,2.05 -1.14,1.90 -1.52,1.52 -1.90,1.14 -2.05,0.64 -2.21,0.13 -2.12,-0.38 -2.02,-0.91 -1.69,-1.32 -1.36,-1.74 -0.88,-1.96 -0.39,-2.18 0.13,-2.15 0.66,-2.11 1.11,-1.84 1.57,-1.56 1.84,-1.11 L 2.12,-0.66 Z"></path></g><g transform="translate(76.10600860702198 117.1373792667805) rotate(0 5.318881918590705 17.856215385009477)" stroke="none"><path fill="#1e1e1e" d="M 1.85,-0.55 Q 1.85,-0.55 2.42,1.65 3.00,3.86 3.66,6.57 4.33,9.29 5.03,12.66 5.74,16.02 6.46,19.63 7.18,23.25 7.91,26.28 8.63,29.32 9.38,30.92 10.13,32.53 11.07,33.61 12.02,34.69 12.14,34.94 12.27,35.19 12.31,35.46 12.35,35.74 12.30,36.01 12.25,36.28 12.11,36.53 11.98,36.77 11.77,36.96 11.57,37.14 11.32,37.25 11.06,37.37 10.79,37.39 10.51,37.42 10.24,37.35 9.97,37.29 9.74,37.14 9.50,36.99 9.32,36.78 9.15,36.56 9.05,36.31 8.95,36.05 8.94,35.77 8.93,35.49 9.01,35.23 9.09,34.96 9.25,34.73 9.41,34.51 9.63,34.34 9.86,34.18 10.12,34.10 10.39,34.01 10.66,34.02 10.94,34.02 11.20,34.11 11.46,34.21 11.68,34.38 11.90,34.55 12.05,34.78 12.20,35.02 12.27,35.28 12.34,35.55 12.32,35.83 12.30,36.11 12.19,36.36 12.09,36.62 11.90,36.83 11.72,37.03 11.48,37.17 11.24,37.31 10.97,37.37 10.69,37.42 10.42,37.39 10.14,37.35 9.90,37.23 9.65,37.11 9.45,36.91 9.25,36.72 9.25,36.72 9.25,36.72 8.31,35.24 7.37,33.75 6.60,31.88 5.84,30.02 5.05,26.94 4.26,23.86 3.48,20.28 2.70,16.70 1.92,13.42 1.15,10.14 0.38,7.51 -0.38,4.87 -1.11,2.71 -1.85,0.55 -1.89,0.32 -1.93,0.09 -1.91,-0.13 -1.89,-0.36 -1.82,-0.59 -1.75,-0.81 -1.63,-1.01 -1.51,-1.20 -1.34,-1.37 -1.17,-1.53 -0.97,-1.65 -0.77,-1.77 -0.55,-1.83 -0.32,-1.90 -0.09,-1.91 0.13,-1.93 0.36,-1.88 0.59,-1.84 0.80,-1.74 1.01,-1.64 1.20,-1.49 1.38,-1.35 1.52,-1.16 1.66,-0.98 1.75,-0.76 1.85,-0.55 1.85,-0.55 L 1.85,-0.55 Z"></path></g><g transform="translate(77.62572228156205 114.09800988885036) rotate(0 9.118079148215656 5.698795844438052)" stroke="none"><path fill="#1e1e1e" d="M -1.54,-1.54 Q -1.54,-1.54 -0.66,-2.47 0.21,-3.41 1.60,-4.07 3.00,-4.73 4.81,-4.95 6.61,-5.16 8.66,-5.14 10.70,-5.12 12.61,-4.89 14.52,-4.66 16.22,-3.66 17.93,-2.66 18.76,-0.55 19.60,1.55 19.68,3.04 19.76,4.52 18.69,6.73 17.62,8.93 16.17,10.56 14.72,12.18 12.58,13.34 10.44,14.51 8.33,15.02 6.22,15.53 3.61,15.96 1.01,16.39 0.69,16.38 0.37,16.37 0.07,16.26 -0.22,16.15 -0.47,15.94 -0.72,15.74 -0.89,15.47 -1.06,15.20 -1.13,14.89 -1.21,14.58 -1.18,14.26 -1.15,13.94 -1.02,13.65 -0.89,13.36 -0.68,13.12 -0.46,12.88 -0.18,12.73 0.09,12.57 0.40,12.51 0.72,12.45 1.03,12.50 1.35,12.55 1.63,12.69 1.92,12.83 2.14,13.06 2.37,13.29 2.51,13.58 2.65,13.86 2.69,14.18 2.73,14.50 2.67,14.81 2.61,15.13 2.45,15.40 2.29,15.68 2.05,15.89 1.81,16.11 1.51,16.23 1.22,16.35 0.90,16.38 0.58,16.40 0.27,16.32 -0.03,16.24 -0.30,16.07 -0.57,15.89 -0.77,15.64 -0.96,15.39 -1.07,15.09 -1.18,14.79 -1.19,14.47 -1.19,14.15 -1.10,13.85 -1.00,13.54 -0.81,13.28 -0.62,13.02 -0.36,12.84 -0.10,12.65 0.20,12.56 0.50,12.47 0.50,12.47 0.50,12.47 2.95,12.25 5.39,12.03 7.03,11.66 8.67,11.29 10.21,10.37 11.75,9.46 12.79,8.25 13.84,7.04 14.62,4.90 15.41,2.76 14.63,1.15 13.86,-0.45 12.35,-0.60 10.85,-0.75 8.97,-0.60 7.10,-0.44 5.19,-0.26 3.28,-0.08 2.41,0.73 1.54,1.54 1.33,1.70 1.13,1.87 0.89,1.97 0.65,2.08 0.39,2.13 0.13,2.18 -0.13,2.16 -0.39,2.14 -0.64,2.07 -0.89,1.99 -1.12,1.85 -1.34,1.72 -1.53,1.53 -1.72,1.34 -1.85,1.12 -1.99,0.89 -2.07,0.64 -2.14,0.39 -2.16,0.13 -2.18,-0.13 -2.13,-0.39 -2.08,-0.65 -1.97,-0.89 -1.86,-1.13 -1.70,-1.33 -1.54,-1.54 -1.54,-1.54 L -1.54,-1.54 Z"></path></g><g transform="translate(91.3027975255236 85.22414572638695) rotate(0 6.078738755860286 -4.938967992742846)" stroke="none"><path fill="#1e1e1e" d="M -0.75,-2.26 Q -0.75,-2.26 0.51,-2.69 1.79,-3.12 2.64,-3.95 3.48,-4.77 4.94,-5.87 6.40,-6.97 7.30,-7.98 8.20,-8.99 9.18,-10.09 10.17,-11.18 10.43,-11.46 10.69,-11.74 11.03,-11.93 11.37,-12.11 11.75,-12.18 12.12,-12.24 12.50,-12.19 12.88,-12.13 13.22,-11.95 13.56,-11.78 13.83,-11.50 14.10,-11.23 14.26,-10.88 14.43,-10.54 14.48,-10.15 14.52,-9.77 14.44,-9.40 14.37,-9.02 14.17,-8.69 13.98,-8.36 13.69,-8.11 13.40,-7.86 13.05,-7.71 12.69,-7.56 12.31,-7.54 11.92,-7.51 11.55,-7.61 11.18,-7.71 10.86,-7.92 10.54,-8.13 10.31,-8.43 10.07,-8.74 9.94,-9.10 9.82,-9.46 9.81,-9.84 9.81,-10.23 9.93,-10.59 10.04,-10.96 10.27,-11.27 10.50,-11.58 10.82,-11.79 11.13,-12.01 11.50,-12.12 11.87,-12.23 12.25,-12.21 12.63,-12.20 12.99,-12.06 13.35,-11.92 13.65,-11.68 13.94,-11.43 14.14,-11.10 14.35,-10.78 14.43,-10.40 14.52,-10.03 14.48,-9.65 14.45,-9.27 14.29,-8.92 14.13,-8.57 14.13,-8.57 14.13,-8.57 12.84,-7.24 11.55,-5.91 10.39,-4.67 9.24,-3.43 7.92,-2.32 6.60,-1.20 5.02,0.08 3.44,1.38 2.10,1.82 0.75,2.26 0.47,2.31 0.19,2.37 -0.09,2.36 -0.38,2.35 -0.65,2.27 -0.93,2.19 -1.18,2.04 -1.43,1.90 -1.64,1.70 -1.84,1.50 -2.00,1.26 -2.15,1.02 -2.24,0.74 -2.33,0.47 -2.35,0.18 -2.38,-0.09 -2.33,-0.38 -2.28,-0.66 -2.17,-0.92 -2.06,-1.19 -1.89,-1.42 -1.71,-1.65 -1.49,-1.83 -1.27,-2.01 -1.01,-2.13 -0.75,-2.26 -0.75,-2.26 L -0.75,-2.26 Z"></path></g><g transform="translate(113.33815305158078 65.46827375541568) rotate(0 1.8995986148129305 -3.799197229625406)" stroke="none"><path fill="#1e1e1e" d="M -2.13,-1.27 Q -2.13,-1.27 -1.49,-2.38 -0.85,-3.48 0.17,-5.88 1.20,-8.28 1.38,-8.67 1.56,-9.07 1.85,-9.39 2.14,-9.71 2.53,-9.91 2.91,-10.12 3.33,-10.20 3.76,-10.27 4.19,-10.21 4.62,-10.14 5.00,-9.95 5.39,-9.75 5.69,-9.44 5.99,-9.13 6.18,-8.73 6.37,-8.34 6.42,-7.91 6.47,-7.48 6.38,-7.06 6.30,-6.63 6.08,-6.26 5.86,-5.88 5.53,-5.60 5.21,-5.32 4.80,-5.15 4.40,-4.98 3.97,-4.95 3.54,-4.93 3.12,-5.04 2.70,-5.15 2.34,-5.39 1.98,-5.62 1.71,-5.97 1.44,-6.31 1.30,-6.72 1.16,-7.13 1.15,-7.56 1.14,-7.99 1.28,-8.41 1.41,-8.82 1.67,-9.17 1.93,-9.52 2.28,-9.76 2.64,-10.01 3.05,-10.13 3.47,-10.25 3.90,-10.24 4.34,-10.22 4.74,-10.06 5.15,-9.91 5.48,-9.63 5.81,-9.35 6.04,-8.99 6.27,-8.62 6.37,-8.19 6.47,-7.77 6.43,-7.34 6.39,-6.91 6.39,-6.91 6.39,-6.91 5.48,-4.82 4.57,-2.73 4.02,-1.80 3.47,-0.88 2.80,0.19 2.13,1.27 1.94,1.51 1.76,1.75 1.52,1.93 1.29,2.12 1.01,2.24 0.74,2.36 0.45,2.42 0.15,2.47 -0.14,2.46 -0.43,2.44 -0.72,2.35 -1.01,2.26 -1.26,2.11 -1.52,1.96 -1.73,1.74 -1.95,1.53 -2.10,1.28 -2.26,1.02 -2.35,0.74 -2.44,0.45 -2.46,0.15 -2.48,-0.14 -2.42,-0.43 -2.37,-0.73 -2.25,-1.00 -2.12,-1.27 -2.13,-1.27 L -2.13,-1.27 Z"></path></g><g transform="translate(127.77511411838714 42.67309037766336) rotate(0 0.3799139258476316 -3.799197229625406)" stroke="none"><path fill="#1e1e1e" d="M -2.38,-0.39 Q -2.38,-0.39 -2.18,-1.71 -1.98,-3.02 -1.88,-5.37 -1.78,-7.73 -1.69,-8.13 -1.60,-8.54 -1.39,-8.89 -1.18,-9.24 -0.86,-9.51 -0.55,-9.78 -0.17,-9.93 0.21,-10.08 0.62,-10.11 1.03,-10.13 1.43,-10.02 1.82,-9.91 2.17,-9.68 2.51,-9.44 2.76,-9.12 3.01,-8.79 3.14,-8.40 3.27,-8.01 3.27,-7.59 3.27,-7.18 3.14,-6.79 3.01,-6.40 2.76,-6.07 2.51,-5.74 2.17,-5.51 1.83,-5.28 1.43,-5.17 1.03,-5.06 0.62,-5.08 0.21,-5.10 -0.17,-5.26 -0.55,-5.41 -0.86,-5.68 -1.18,-5.94 -1.39,-6.30 -1.60,-6.65 -1.69,-7.05 -1.78,-7.45 -1.74,-7.86 -1.69,-8.27 -1.52,-8.65 -1.35,-9.02 -1.06,-9.32 -0.78,-9.62 -0.41,-9.82 -0.05,-10.01 0.35,-10.08 0.75,-10.14 1.16,-10.08 1.57,-10.01 1.93,-9.82 2.30,-9.62 2.58,-9.32 2.86,-9.02 3.04,-8.65 3.21,-8.28 3.26,-7.87 3.30,-7.46 3.30,-7.46 3.30,-7.46 3.08,-4.84 2.85,-2.21 2.61,-0.91 2.38,0.39 2.29,0.67 2.21,0.95 2.07,1.20 1.92,1.45 1.72,1.66 1.51,1.87 1.27,2.03 1.02,2.18 0.74,2.27 0.47,2.36 0.18,2.39 -0.10,2.41 -0.39,2.36 -0.68,2.31 -0.94,2.20 -1.21,2.08 -1.44,1.91 -1.67,1.73 -1.86,1.50 -2.04,1.28 -2.16,1.01 -2.29,0.75 -2.35,0.46 -2.40,0.18 -2.39,-0.10 -2.38,-0.39 -2.38,-0.39 L -2.38,-0.39 Z"></path></g><g transform="translate(130.05465564462156 10) rotate(0 0 6.0787242630729565)" stroke="none"><path fill="#1e1e1e" d="M 2.51,0 Q 2.51,0 2.52,1.31 2.53,2.62 2.60,4.69 2.66,6.76 2.68,7.87 2.70,8.99 2.74,10.57 2.78,12.15 2.71,12.60 2.63,13.04 2.42,13.44 2.21,13.84 1.88,14.15 1.56,14.46 1.15,14.65 0.74,14.83 0.29,14.88 -0.15,14.93 -0.59,14.84 -1.03,14.74 -1.41,14.51 -1.80,14.27 -2.09,13.93 -2.38,13.59 -2.55,13.17 -2.71,12.75 -2.74,12.30 -2.76,11.85 -2.64,11.42 -2.52,10.98 -2.27,10.61 -2.02,10.24 -1.66,9.97 -1.30,9.69 -0.87,9.55 -0.44,9.41 0.00,9.41 0.45,9.41 0.87,9.55 1.30,9.69 1.66,9.97 2.02,10.24 2.27,10.61 2.52,10.98 2.64,11.42 2.76,11.85 2.74,12.30 2.71,12.75 2.55,13.17 2.38,13.59 2.09,13.93 1.80,14.27 1.41,14.51 1.02,14.74 0.58,14.84 0.15,14.93 -0.29,14.88 -0.74,14.83 -1.15,14.65 -1.56,14.46 -1.88,14.15 -2.21,13.84 -2.42,13.44 -2.63,13.04 -2.71,12.60 -2.78,12.15 -2.78,12.15 -2.78,12.15 -2.74,10.57 -2.70,8.99 -2.68,7.87 -2.66,6.76 -2.60,4.69 -2.53,2.62 -2.52,1.31 -2.51,0 -2.47,-0.30 -2.44,-0.60 -2.33,-0.88 -2.22,-1.16 -2.05,-1.41 -1.88,-1.66 -1.65,-1.86 -1.42,-2.06 -1.15,-2.20 -0.89,-2.35 -0.59,-2.42 -0.30,-2.49 0.00,-2.49 0.30,-2.49 0.59,-2.42 0.89,-2.35 1.15,-2.20 1.42,-2.06 1.65,-1.86 1.88,-1.66 2.05,-1.41 2.22,-1.16 2.33,-0.88 2.44,-0.60 2.47,-0.30 2.51,0.00 2.51,0.00 L 2.51,0 Z"></path></g><g transform="translate(127.77511411838714 10) rotate(0 -4.179111155473038 3.7991972296253493)" stroke="none"><path fill="#1e1e1e" d="M 1.33,2.00 Q 1.33,2.00 0.01,2.86 -1.29,3.72 -2.18,4.48 -3.06,5.24 -3.76,6.11 -4.45,6.97 -5.45,8.15 -6.45,9.32 -6.77,9.58 -7.10,9.84 -7.49,9.98 -7.88,10.12 -8.30,10.13 -8.72,10.14 -9.11,10.02 -9.51,9.89 -9.85,9.65 -10.18,9.40 -10.42,9.06 -10.66,8.72 -10.78,8.32 -10.90,7.93 -10.89,7.51 -10.88,7.09 -10.73,6.70 -10.58,6.31 -10.32,5.99 -10.06,5.67 -9.71,5.45 -9.36,5.22 -8.95,5.13 -8.55,5.03 -8.13,5.06 -7.72,5.10 -7.34,5.27 -6.95,5.43 -6.65,5.71 -6.34,5.99 -6.14,6.36 -5.93,6.72 -5.86,7.13 -5.78,7.54 -5.84,7.95 -5.90,8.36 -6.09,8.73 -6.27,9.11 -6.57,9.40 -6.87,9.69 -7.24,9.87 -7.61,10.06 -8.03,10.11 -8.44,10.16 -8.85,10.08 -9.25,10.00 -9.62,9.80 -9.98,9.59 -10.25,9.28 -10.53,8.97 -10.69,8.58 -10.85,8.20 -10.88,7.78 -10.92,7.37 -10.81,6.97 -10.71,6.56 -10.48,6.21 -10.26,5.86 -10.26,5.86 -10.26,5.86 -9.23,4.80 -8.20,3.74 -7.17,2.61 -6.15,1.47 -5.04,0.62 -3.94,-0.23 -2.64,-1.12 -1.33,-2.00 -1.07,-2.14 -0.81,-2.27 -0.53,-2.33 -0.25,-2.40 0.03,-2.39 0.32,-2.39 0.61,-2.31 0.89,-2.24 1.14,-2.10 1.40,-1.96 1.61,-1.76 1.83,-1.57 1.99,-1.32 2.15,-1.08 2.25,-0.81 2.35,-0.53 2.38,-0.25 2.41,0.03 2.37,0.32 2.33,0.61 2.22,0.88 2.11,1.15 1.95,1.39 1.78,1.63 1.56,1.81 1.33,2.00 1.33,2.00 L 1.33,2.00 Z"></path></g><g transform="translate(130.81448349631683 11.519684688965071) rotate(0 4.938939007168301 2.659469944869784)" stroke="none"><path fill="#1e1e1e" d="M 0.79,-2.37 Q 0.79,-2.37 2.11,-1.93 3.43,-1.50 4.69,-0.77 5.96,-0.05 8.75,1.57 11.54,3.20 11.83,3.52 12.12,3.84 12.30,4.24 12.47,4.64 12.51,5.07 12.55,5.51 12.45,5.93 12.35,6.35 12.12,6.72 11.89,7.09 11.55,7.36 11.22,7.64 10.81,7.79 10.41,7.95 9.97,7.96 9.54,7.98 9.12,7.86 8.70,7.73 8.35,7.48 7.99,7.23 7.73,6.88 7.48,6.53 7.35,6.12 7.21,5.70 7.22,5.27 7.23,4.83 7.38,4.42 7.52,4.01 7.79,3.67 8.06,3.33 8.42,3.09 8.79,2.86 9.21,2.75 9.63,2.64 10.06,2.67 10.50,2.70 10.90,2.87 11.30,3.04 11.62,3.32 11.95,3.61 12.17,3.99 12.39,4.36 12.47,4.79 12.56,5.22 12.50,5.65 12.45,6.08 12.26,6.47 12.07,6.86 11.77,7.17 11.46,7.48 11.07,7.68 10.69,7.87 10.26,7.94 9.83,8.00 9.40,7.92 8.97,7.84 8.59,7.63 8.21,7.42 8.21,7.42 8.21,7.42 6.95,6.44 5.69,5.46 3.75,4.35 1.81,3.24 0.51,2.81 -0.79,2.37 -1.06,2.24 -1.33,2.11 -1.56,1.92 -1.80,1.73 -1.98,1.49 -2.16,1.25 -2.28,0.97 -2.40,0.69 -2.45,0.39 -2.49,0.10 -2.47,-0.19 -2.45,-0.49 -2.35,-0.78 -2.25,-1.07 -2.09,-1.32 -1.93,-1.58 -1.72,-1.78 -1.50,-1.99 -1.24,-2.14 -0.98,-2.30 -0.69,-2.38 -0.40,-2.46 -0.10,-2.48 0.20,-2.49 0.49,-2.43 0.79,-2.37 0.79,-2.37 L 0.79,-2.37 Z"></path></g></svg>