<?xml version="1.0" standalone="no"?>
<!DOCTYPE svg PUBLIC "-//W3C//DTD SVG 1.1//EN" "http://www.w3.org/Graphics/SVG/1.1/DTD/svg11.dtd">
<svg version="1.1" xmlns="http://www.w3.org/2000/svg" viewBox="0 0 72.42899133420906 68.62975062622198" width="144.85798266841812" height="137.25950125244395"><!-- svg-source:excalidraw --><metadata></metadata><defs><style class="style-fonts">
      </style></defs><g transform="translate(20.637821808330045 10) rotate(0 -5.318910904165023 11.017685009422152)" stroke="none"><path fill="#1e1e1e" d="M 1.65,0.82 Q 1.65,0.82 0.27,3.41 -1.09,6.00 -2.35,8.40 -3.61,10.80 -4.58,13.07 -5.54,15.34 -6.65,17.48 -7.76,19.61 -8.49,21.18 -9.22,22.75 -9.37,22.96 -9.52,23.16 -9.73,23.31 -9.94,23.46 -10.19,23.53 -10.43,23.60 -10.69,23.59 -10.95,23.58 -11.19,23.49 -11.43,23.40 -11.62,23.24 -11.82,23.08 -11.96,22.86 -12.10,22.64 -12.16,22.39 -12.21,22.14 -12.19,21.89 -12.17,21.63 -12.06,21.40 -11.96,21.16 -11.79,20.97 -11.61,20.78 -11.39,20.66 -11.17,20.54 -10.91,20.49 -10.66,20.44 -10.41,20.48 -10.15,20.52 -9.92,20.64 -9.70,20.75 -9.52,20.93 -9.34,21.12 -9.22,21.35 -9.11,21.58 -9.08,21.83 -9.05,22.09 -9.10,22.34 -9.15,22.59 -9.28,22.81 -9.41,23.04 -9.60,23.21 -9.79,23.37 -10.03,23.47 -10.27,23.57 -10.52,23.59 -10.78,23.61 -11.03,23.55 -11.27,23.48 -11.49,23.34 -11.70,23.20 -11.86,23.00 -12.02,22.80 -12.11,22.56 -12.19,22.31 -12.20,22.06 -12.20,21.80 -12.12,21.56 -12.05,21.31 -12.05,21.31 -12.05,21.31 -11.21,19.80 -10.37,18.28 -9.36,16.24 -8.35,14.20 -7.41,11.79 -6.47,9.37 -5.31,6.92 -4.14,4.48 -2.89,1.82 -1.65,-0.82 -1.52,-1.01 -1.40,-1.19 -1.24,-1.34 -1.07,-1.49 -0.88,-1.60 -0.68,-1.71 -0.47,-1.77 -0.25,-1.82 -0.03,-1.83 0.18,-1.83 0.40,-1.78 0.62,-1.73 0.82,-1.63 1.01,-1.54 1.18,-1.39 1.35,-1.25 1.48,-1.07 1.61,-0.89 1.70,-0.68 1.78,-0.47 1.81,-0.25 1.84,-0.03 1.82,0.18 1.80,0.40 1.72,0.61 1.65,0.82 1.65,0.82 L 1.65,0.82 Z"></path></g><g transform="translate(47.99197229625406 26.716473607466583) rotate(0 -12.537362451993658 7.978308385098387)" stroke="none"><path fill="#1e1e1e" d="M 1.07,1.60 Q 1.07,1.60 -0.93,2.85 -2.95,4.09 -4.93,5.26 -6.91,6.43 -9.30,7.80 -11.69,9.16 -13.99,10.58 -16.30,12.00 -18.35,13.46 -20.40,14.91 -22.32,16.16 -24.23,17.40 -24.48,17.50 -24.74,17.60 -25.01,17.61 -25.28,17.62 -25.54,17.54 -25.80,17.46 -26.02,17.31 -26.24,17.15 -26.41,16.93 -26.57,16.71 -26.65,16.45 -26.73,16.19 -26.73,15.92 -26.72,15.65 -26.63,15.40 -26.54,15.14 -26.37,14.93 -26.20,14.71 -25.97,14.56 -25.75,14.42 -25.48,14.35 -25.22,14.28 -24.95,14.30 -24.68,14.32 -24.43,14.42 -24.18,14.53 -23.98,14.71 -23.77,14.89 -23.64,15.12 -23.50,15.36 -23.45,15.62 -23.39,15.89 -23.43,16.16 -23.46,16.43 -23.58,16.67 -23.70,16.92 -23.89,17.11 -24.08,17.31 -24.32,17.43 -24.56,17.55 -24.83,17.59 -25.10,17.63 -25.37,17.58 -25.63,17.53 -25.87,17.40 -26.11,17.27 -26.29,17.07 -26.48,16.87 -26.58,16.62 -26.69,16.37 -26.72,16.10 -26.74,15.83 -26.68,15.57 -26.62,15.30 -26.47,15.07 -26.33,14.84 -26.12,14.67 -25.91,14.50 -25.91,14.50 -25.91,14.50 -24.00,13.54 -22.09,12.57 -19.99,11.03 -17.89,9.49 -15.58,7.99 -13.27,6.48 -10.96,5.07 -8.66,3.65 -6.78,2.40 -4.91,1.15 -2.99,-0.22 -1.07,-1.60 -0.86,-1.71 -0.65,-1.81 -0.42,-1.87 -0.20,-1.92 0.03,-1.91 0.26,-1.91 0.48,-1.85 0.71,-1.79 0.91,-1.68 1.12,-1.57 1.29,-1.41 1.46,-1.25 1.59,-1.06 1.72,-0.87 1.80,-0.65 1.88,-0.43 1.90,-0.20 1.93,0.03 1.90,0.26 1.86,0.49 1.78,0.70 1.69,0.92 1.56,1.11 1.42,1.30 1.24,1.45 1.07,1.60 1.07,1.60 L 1.07,1.60 Z"></path></g><g transform="translate(30.515641851517557 56.3502090999871) rotate(0 15.95667474134575 1.1397707631174399)" stroke="none"><path fill="#1e1e1e" d="M 0,-1.74 Q 0,-1.74 2.18,-1.68 4.36,-1.62 6.82,-1.58 9.28,-1.54 12.56,-1.29 15.84,-1.03 19.41,-0.70 22.98,-0.36 25.61,0.00 28.25,0.37 30.17,0.60 32.10,0.83 32.33,0.90 32.56,0.97 32.75,1.10 32.94,1.24 33.08,1.43 33.22,1.62 33.29,1.85 33.36,2.08 33.35,2.31 33.34,2.55 33.26,2.77 33.18,2.99 33.03,3.18 32.89,3.36 32.69,3.49 32.49,3.62 32.26,3.67 32.03,3.73 31.79,3.71 31.56,3.69 31.34,3.60 31.12,3.51 30.95,3.35 30.77,3.19 30.65,2.99 30.54,2.78 30.49,2.55 30.45,2.32 30.48,2.08 30.51,1.85 30.62,1.64 30.72,1.42 30.89,1.26 31.05,1.09 31.27,0.98 31.48,0.88 31.71,0.85 31.95,0.81 32.18,0.86 32.41,0.90 32.62,1.02 32.82,1.13 32.98,1.31 33.14,1.49 33.23,1.70 33.33,1.92 33.34,2.16 33.36,2.39 33.31,2.62 33.25,2.85 33.12,3.05 33.00,3.25 32.81,3.40 32.63,3.55 32.41,3.63 32.19,3.71 31.95,3.72 31.71,3.72 31.71,3.72 31.71,3.72 29.79,3.43 27.87,3.14 25.30,2.81 22.73,2.48 19.18,2.20 15.64,1.91 12.46,1.72 9.28,1.54 6.82,1.58 4.36,1.62 2.18,1.68 0,1.74 -0.20,1.71 -0.41,1.69 -0.61,1.61 -0.81,1.54 -0.98,1.42 -1.15,1.30 -1.29,1.14 -1.43,0.99 -1.53,0.80 -1.63,0.61 -1.68,0.41 -1.73,0.21 -1.73,-0.00 -1.73,-0.21 -1.68,-0.41 -1.63,-0.61 -1.53,-0.80 -1.43,-0.99 -1.29,-1.14 -1.15,-1.30 -0.98,-1.42 -0.81,-1.54 -0.61,-1.61 -0.41,-1.69 -0.20,-1.71 0.00,-1.74 0.00,-1.74 L 0,-1.74 Z"></path></g></svg>